<svg xmlns="http://www.w3.org/2000/svg" xmlns:xlink="http://www.w3.org/1999/xlink" viewBox="0 0 148.56 148.56"><defs><style>.cls-1,.cls-2{stroke:#fff;stroke-miterlimit:10;stroke-width:0.8px;}.cls-1{fill:url(#linear-gradient);}.cls-2{fill:url(#linear-gradient-2);}</style><linearGradient id="linear-gradient" x1="32.76" y1="74.28" x2="115.8" y2="74.28" gradientUnits="userSpaceOnUse"><stop offset="0" stop-color="#41b6e6"/><stop offset="1" stop-color="#0086d6"/></linearGradient><linearGradient id="linear-gradient-2" x1="57.33" y1="74.25" x2="91.11" y2="74.25" xlink:href="#linear-gradient"/></defs><g id="Layer_25" data-name="Layer 25"><path class="cls-1" d="M88.33,35.19a41.57,41.57,0,0,0-49.7,60.55,41.56,41.56,0,0,0,76.6-14.67,45.39,45.39,0,0,0,.57-6.78A42,42,0,0,0,88.33,35.19Zm-1.68,72.86A36,36,0,0,1,43.47,55.67a36,36,0,1,1,43.18,52.38Z"/><path class="cls-2" d="M86.39,60.7,68,81l-.66.72-5.28-5.57c-2.48-2.63-6.45,1.34-4,4l7.3,7.73a2.84,2.84,0,0,0,4,0L87.76,67.54c.87-1,1.73-1.91,2.6-2.87C92.77,62,88.82,58,86.39,60.7Z"/></g></svg>