<svg xmlns="http://www.w3.org/2000/svg" xmlns:xlink="http://www.w3.org/1999/xlink" viewBox="0 0 187.77 7.32"><defs><style>.cls-1{fill:url(#linear-gradient);}.cls-2{fill:url(#linear-gradient-2);}.cls-3{fill:url(#linear-gradient-3);}.cls-4{fill:url(#linear-gradient-4);}.cls-5{fill:url(#linear-gradient-5);}.cls-6{fill:url(#linear-gradient-6);}.cls-7{fill:url(#linear-gradient-7);}.cls-8{fill:url(#linear-gradient-8);}.cls-9{fill:url(#linear-gradient-9);}</style><linearGradient id="linear-gradient" y1="3.66" x2="15.9" y2="3.66" gradientUnits="userSpaceOnUse"><stop offset="0" stop-color="#41b6e6"/><stop offset="1" stop-color="#0086d6"/></linearGradient><linearGradient id="linear-gradient-2" x1="171.41" y1="3.66" x2="187.77" y2="3.66" xlink:href="#linear-gradient"/><linearGradient id="linear-gradient-3" x1="23.67" y1="3.66" x2="36.25" y2="3.66" xlink:href="#linear-gradient"/><linearGradient id="linear-gradient-4" x1="46.01" y1="3.66" x2="58.59" y2="3.66" xlink:href="#linear-gradient"/><linearGradient id="linear-gradient-5" x1="66.35" y1="3.66" x2="78.93" y2="3.66" xlink:href="#linear-gradient"/><linearGradient id="linear-gradient-6" x1="87.7" y1="3.66" x2="100.28" y2="3.66" xlink:href="#linear-gradient"/><linearGradient id="linear-gradient-7" x1="108.38" y1="3.66" x2="120.96" y2="3.66" xlink:href="#linear-gradient"/><linearGradient id="linear-gradient-8" x1="129.73" y1="3.66" x2="142.31" y2="3.66" xlink:href="#linear-gradient"/><linearGradient id="linear-gradient-9" x1="152.07" y1="3.66" x2="164.65" y2="3.66" xlink:href="#linear-gradient"/></defs><g id="Layer_25" data-name="Layer 25"><path class="cls-1" d="M3.66,0A3.66,3.66,0,1,0,7.27,4.16H15.9v-1H7.27A3.65,3.65,0,0,0,3.66,0Z"/><path class="cls-2" d="M184.1,0a3.65,3.65,0,0,0-3.61,3.16h-9.08v1h9.08A3.66,3.66,0,1,0,184.1,0Z"/><rect class="cls-3" x="23.67" y="3.16" width="12.58" height="1"/><rect class="cls-4" x="46.01" y="3.16" width="12.58" height="1"/><rect class="cls-5" x="66.35" y="3.16" width="12.58" height="1"/><rect class="cls-6" x="87.7" y="3.16" width="12.58" height="1"/><rect class="cls-7" x="108.38" y="3.16" width="12.58" height="1"/><rect class="cls-8" x="129.73" y="3.16" width="12.58" height="1"/><rect class="cls-9" x="152.07" y="3.16" width="12.58" height="1"/></g></svg>