<svg xmlns="http://www.w3.org/2000/svg" xmlns:xlink="http://www.w3.org/1999/xlink" viewBox="0 0 147.79 147.79"><defs><style>.cls-1,.cls-2,.cls-3,.cls-4,.cls-5,.cls-6,.cls-7,.cls-8{stroke:#fff;stroke-miterlimit:10;stroke-width:0.5px;}.cls-1{fill:url(#linear-gradient);}.cls-2{fill:url(#linear-gradient-2);}.cls-3{fill:url(#linear-gradient-3);}.cls-4{fill:url(#linear-gradient-4);}.cls-5{fill:url(#linear-gradient-5);}.cls-6{fill:url(#linear-gradient-6);}.cls-7{fill:url(#linear-gradient-7);}.cls-8{fill:url(#linear-gradient-8);}</style><linearGradient id="linear-gradient" x1="36.42" y1="88.73" x2="47.89" y2="88.73" gradientUnits="userSpaceOnUse"><stop offset="0" stop-color="#41b6e6"/><stop offset="1" stop-color="#0086d6"/></linearGradient><linearGradient id="linear-gradient-2" x1="35.89" y1="63.79" x2="39.79" y2="63.79" xlink:href="#linear-gradient"/><linearGradient id="linear-gradient-3" x1="13.91" y1="55.93" x2="51.96" y2="55.93" xlink:href="#linear-gradient"/><linearGradient id="linear-gradient-4" x1="27.7" y1="71.51" x2="65.76" y2="71.51" xlink:href="#linear-gradient"/><linearGradient id="linear-gradient-5" x1="6.18" y1="84.83" x2="31.33" y2="84.83" xlink:href="#linear-gradient"/><linearGradient id="linear-gradient-6" x1="41.98" y1="72.05" x2="127.16" y2="72.05" xlink:href="#linear-gradient"/><linearGradient id="linear-gradient-7" x1="51.89" y1="101.88" x2="71.21" y2="101.88" xlink:href="#linear-gradient"/><linearGradient id="linear-gradient-8" x1="103.98" y1="101.88" x2="123.3" y2="101.88" xlink:href="#linear-gradient"/></defs><g id="Layer_25" data-name="Layer 25"><path class="cls-1" d="M46.58,97.4H40V77.74c0-2.88-4.48-2.89-4.48,0v21.9a2.28,2.28,0,0,0,2.24,2.24h8.79C49.46,101.88,49.47,97.4,46.58,97.4Z"/><path class="cls-2" d="M39.42,67.45A2,2,0,0,0,40.08,66V61.55a2,2,0,0,0-.66-1.42,2.36,2.36,0,0,0-1.58-.59,2.39,2.39,0,0,0-1.59.59,2,2,0,0,0-.65,1.42V66a2,2,0,0,0,.65,1.42,2.39,2.39,0,0,0,1.59.59A2.34,2.34,0,0,0,39.42,67.45Z"/><path class="cls-3" d="M13.2,58.17H52.64c2.88,0,2.88-4.48,0-4.48H13.2C10.31,53.69,10.31,58.17,13.2,58.17Z"/><path class="cls-4" d="M27,69.27c-2.88,0-2.88,4.48,0,4.48H66.43c2.89,0,2.89-4.48,0-4.48H27Z"/><path class="cls-5" d="M31,82.59H6.45c-2.89,0-2.89,4.48,0,4.48H31C33.93,87.07,33.93,82.59,31,82.59Z"/><path class="cls-6" d="M133.48,77.54a8.34,8.34,0,0,0-1.41-3.13l-5.74-10.28-4-7.25a2.23,2.23,0,0,0-1.93-1.11H99.61V44.45a2.27,2.27,0,0,0-2.24-2.24H37.79a2.28,2.28,0,0,0-2.24,2.24v5.67C35.55,53,40,53,40,50.12V46.69h55.1V97.4H76.48c-2.88,0-2.88,4.48,0,4.48H98.72a2.34,2.34,0,0,0,1.59-.65,1.71,1.71,0,0,0,.46-.73,1.67,1.67,0,0,0,.19-.86,2.22,2.22,0,0,0-.65-1.58,2.65,2.65,0,0,0-.7-.46V60.25H119l1.29,2.31H106.74a2.28,2.28,0,0,0-2.24,2.24V77.53a2.28,2.28,0,0,0,2.24,2.24H129V97.4h-.54c-2.88,0-2.89,4.48,0,4.48h2.78a2.27,2.27,0,0,0,2.24-2.24V80C133.48,79.17,133.54,78.34,133.48,77.54ZM109,75.29V67h13.84l4.61,8.25H109Z"/><path class="cls-7" d="M62.82,90.82a11.14,11.14,0,1,0,2.85,21.41,11.13,11.13,0,0,0-2.85-21.41ZM65,107.6a6.72,6.72,0,0,1-7.59-.48A7.05,7.05,0,0,1,55.23,104a5.3,5.3,0,0,1-.35-1.9,7.24,7.24,0,0,1,.39-2.53,6.68,6.68,0,0,1,12.85,1.07A6.62,6.62,0,0,1,65,107.6Z"/><path class="cls-8" d="M114.91,90.82a11.14,11.14,0,1,0,2.85,21.41,11.13,11.13,0,0,0-2.85-21.41Zm2.16,16.78a6.72,6.72,0,0,1-7.59-.48,7.05,7.05,0,0,1-2.16-3.09,5.3,5.3,0,0,1-.35-1.9,7.24,7.24,0,0,1,.39-2.53,6.68,6.68,0,0,1,12.85,1.07A6.62,6.62,0,0,1,117.07,107.6Z"/></g></svg>