<svg xmlns="http://www.w3.org/2000/svg" xmlns:xlink="http://www.w3.org/1999/xlink" viewBox="0 0 150.16 150.16"><defs><style>.cls-1,.cls-2{stroke:#fff;stroke-miterlimit:10;}.cls-1{stroke-width:1.2px;fill:url(#linear-gradient);}.cls-2{stroke-width:0.25px;fill:url(#linear-gradient-2);}</style><linearGradient id="linear-gradient" x1="33.69" y1="75.08" x2="116.47" y2="75.08" gradientUnits="userSpaceOnUse"><stop offset="0" stop-color="#41b6e6"/><stop offset="1" stop-color="#0086d6"/></linearGradient><linearGradient id="linear-gradient-2" x1="54.17" y1="75.06" x2="95.99" y2="75.06" xlink:href="#linear-gradient"/></defs><g id="Layer_3" data-name="Layer 3"><path class="cls-1" d="M116.47,71.08c0-.55,0-1.09,0-1.63a4.15,4.15,0,0,0-3.85-4.35l-3-.38-.25,0a36.53,36.53,0,0,0-2.7-6.5l1.87-2.43c1.55-2,1.54-4.09,0-5.77-.3-.33-.62-.64-.94-1L101.5,43l-1.15-1.13a4.18,4.18,0,0,0-5.79-.34l-2.58,2a36.5,36.5,0,0,0-6.51-2.7l-.39-3c-.32-2.49-1.81-4-4.1-4.07H69.45a4.15,4.15,0,0,0-4.34,3.86c-.14,1-.26,2-.39,3l0,.21a36.1,36.1,0,0,0-6.5,2.7l-2.43-1.88c-2-1.53-4.09-1.52-5.77,0q-.48.45-.93.93l-6,6c-.4.39-.8.79-1.19,1.19a4.19,4.19,0,0,0-.34,5.79l2,2.6a36.53,36.53,0,0,0-2.7,6.5l-3,.39c-2.5.32-4,1.82-4.06,4.1,0,.43,0,.88,0,1.32v8.58c0,.54,0,1.09,0,1.63a4.16,4.16,0,0,0,3.85,4.35l3.08.39.16,0a36.53,36.53,0,0,0,2.7,6.5l-1.87,2.42c-1.55,2-1.53,4.1,0,5.78.3.32.62.63.94.94l6.08,6.09c.37.37.75.75,1.14,1.12a4.18,4.18,0,0,0,5.79.35l2.59-2a36.1,36.1,0,0,0,6.5,2.7l.39,3c.32,2.49,1.81,4,4.1,4.06l.67,0H80.72a4.17,4.17,0,0,0,4.34-3.86c.13-1,.25-2,.38-3l0-.24a36.5,36.5,0,0,0,6.51-2.7l2.41,1.88c2,1.54,4.1,1.53,5.78,0,.32-.29.63-.61.94-.92l6.08-6.1,1.14-1.13a4.2,4.2,0,0,0,.34-5.8l-2-2.59a36.53,36.53,0,0,0,2.7-6.5l3-.39c2.5-.32,4-1.82,4.06-4.11,0-.43,0-.88,0-1.31V71.08ZM110.1,79l-1.49.21-1.81.26a3.22,3.22,0,0,0-3,2.34,29.23,29.23,0,0,1-3.66,8.85,3.22,3.22,0,0,0,.45,3.81l2,2.63c-.08.07-.14.14-.21.21l-5.32,5.32-1.21-.91-1.46-1.1a3.27,3.27,0,0,0-3.82-.45,29.37,29.37,0,0,1-8.83,3.66,3.24,3.24,0,0,0-2.35,3L79,110.1H71.2c-.06-.5-.14-1-.21-1.5s-.18-1.2-.26-1.8a3.24,3.24,0,0,0-2.35-3,29.37,29.37,0,0,1-8.83-3.66,3.24,3.24,0,0,0-3.82.45l-2.64,2-.19-.2L47.57,97.1c.31-.4.61-.8.9-1.21s.73-1,1.11-1.46A3.25,3.25,0,0,0,50,90.62a29.33,29.33,0,0,1-3.66-8.85,3.22,3.22,0,0,0-3-2.34L40.06,79V71.2L41.55,71l1.81-.26a3.22,3.22,0,0,0,3-2.34A29.17,29.17,0,0,1,50,59.54a3.21,3.21,0,0,0-.45-3.81l-2-2.63a2,2,0,0,1,.2-.21l5.32-5.33c.4.32.8.62,1.2.91s1,.73,1.47,1.1a3.25,3.25,0,0,0,3.82.46,28.87,28.87,0,0,1,8.83-3.66,3.25,3.25,0,0,0,2.35-3l.42-3.3H79c.06.51.14,1,.21,1.5s.18,1.21.26,1.81a3.25,3.25,0,0,0,2.35,3A28.87,28.87,0,0,1,90.61,50a3.22,3.22,0,0,0,3.82-.46l2.64-2,.2.19,5.32,5.32c-.31.4-.61.81-.91,1.22s-.72,1-1.1,1.46a3.25,3.25,0,0,0-.45,3.81,29.17,29.17,0,0,1,3.66,8.84,3.16,3.16,0,0,0,2.9,2.33l3.41.44Z"/><path class="cls-2" d="M88.24,58.82a21.21,21.21,0,0,0-12-4.63,20.7,20.7,0,0,0-12.53,3.34A20.91,20.91,0,0,0,72,95.75a20.44,20.44,0,0,0,3.11.23,20.71,20.71,0,0,0,11.4-3.36,21.55,21.55,0,0,0,8.29-10.5h0A21,21,0,0,0,88.24,58.82Zm-.63,25.79a3.61,3.61,0,0,0-.33.39,3.56,3.56,0,0,1-.26.31c-.24.28-.49.54-.75.81s-.63.61-1,.9a3,3,0,0,1-.34.28l-.31.26-.1.08A15.81,15.81,0,0,1,66,87.9a12.82,12.82,0,0,1-1.61-1.33,19.34,19.34,0,0,1-1.65-1.77l-.08-.09c-.13-.17-.25-.34-.37-.52s-.41-.62-.61-.93a19,19,0,0,1-1.12-2.18A15.83,15.83,0,0,1,60,70.71a15.44,15.44,0,0,1,4.87-7.58c.13-.12.28-.24.42-.35l.2-.17c.28-.21.57-.41.86-.6a18.25,18.25,0,0,1,2.33-1.3,16.25,16.25,0,0,1,4.54-1.26,16,16,0,0,1,10,2.14A15.17,15.17,0,0,1,87,64.84l.29.34.26.32.07.1c.25.37.51.73.74,1.1a15.13,15.13,0,0,1,1.26,2.4,16.62,16.62,0,0,1,1.15,5.44,15.88,15.88,0,0,1-1,6.13A17.2,17.2,0,0,1,87.61,84.61Z"/></g></svg>