<svg xmlns="http://www.w3.org/2000/svg" xmlns:xlink="http://www.w3.org/1999/xlink" viewBox="0 0 146.61 146.61"><defs><style>.cls-1,.cls-2{stroke:#fff;stroke-miterlimit:10;stroke-width:0.5px;}.cls-1{fill:url(#linear-gradient);}.cls-2{fill:url(#linear-gradient-2);}</style><linearGradient id="linear-gradient" x1="42.36" y1="68.3" x2="104.29" y2="68.3" gradientUnits="userSpaceOnUse"><stop offset="0" stop-color="#41b6e6"/><stop offset="1" stop-color="#0086d6"/></linearGradient><linearGradient id="linear-gradient-2" x1="88.59" y1="47.19" x2="100.86" y2="47.19" xlink:href="#linear-gradient"/></defs><g id="Layer_23" data-name="Layer 23"><path class="cls-1" d="M112.28,40.91A18.38,18.38,0,0,0,77.91,39a20.57,20.57,0,0,0-.72,2H35.85A2.38,2.38,0,0,0,33.5,43.3v63a2.38,2.38,0,0,0,2.35,2.34h65.94a2.38,2.38,0,0,0,2.35-2.34V62.12a19.13,19.13,0,0,0,2.16-1.47A18.51,18.51,0,0,0,112.28,40.91ZM67.49,59.4H56.37V45.64H67.49ZM49.12,103.94H38.19V45.64H51.68V62.48c0,2.17,2,1.65,4,1.65,2.82,0,3.38,0,6.21,0s4,0,6.29,0c1.95,0,4,.52,4-1.65V45.64h4.23c0,.17,0,.34,0,.51v.2c0,.45,0,.9,0,1.35,0,.19,0,.37.06.56l.09.8c0,.19.07.39.1.58s.11.55.17.83.07.31.11.46c.09.36.19.72.3,1.07a1.72,1.72,0,0,0,.07.21A17.78,17.78,0,0,0,83,60.54l.11.08.08.07c.12.11.26.19.39.29l.66.48c.23.16.47.31.71.46s.32.2.49.29.51.29.77.43v41.3H49.12ZM91.42,64.4l1,.15.33,0c.36,0,.72.07,1.08.08h.22a18.79,18.79,0,0,0,5.38-.59v39.86H90.91V64.29l.2,0Zm13.69-9.07A14.1,14.1,0,0,1,96.22,60l-.73.07-.69,0A11.86,11.86,0,0,1,93.22,60l-.36,0a15.86,15.86,0,0,1-1.67-.32l-.2-.06a14.77,14.77,0,0,1-1.46-.5l-.34-.14a11.64,11.64,0,0,1-1.36-.7l-.54-.33A14.38,14.38,0,0,1,86.1,57c-.15-.12-.28-.25-.42-.37s-.54-.5-.79-.76l-.35-.36c-.31-.36-.6-.73-.88-1.11L83.34,54c-.19-.29-.36-.57-.53-.87s-.31-.59-.45-.89a7.84,7.84,0,0,1-.32-.72c-.11-.27-.21-.54-.31-.82l-.11-.38a13.55,13.55,0,0,1-.39-1.7l-.06-.33a15.31,15.31,0,0,1-.14-2,.22.22,0,0,0,0-.08c0-.29,0-.58,0-.87s.06-.58.1-.87A13.58,13.58,0,0,1,94.73,32.67a13.71,13.71,0,0,1,10.38,22.66Z"/><path class="cls-2" d="M98.63,41,92,48.3c-.4-.41-.79-.83-1.18-1.24a2.36,2.36,0,0,0-3.32,0,2.4,2.4,0,0,0,0,3.31l2.88,3a2.35,2.35,0,0,0,3.31,0l7.23-8,1-1.13A2.34,2.34,0,0,0,98.63,41Z"/></g></svg>