<svg xmlns="http://www.w3.org/2000/svg" xmlns:xlink="http://www.w3.org/1999/xlink" viewBox="0 0 245.93 245.93"><defs><style>.cls-1{fill:url(#linear-gradient);}.cls-2{fill:url(#linear-gradient-2);}.cls-3{fill:url(#linear-gradient-3);}.cls-4{fill:url(#linear-gradient-4);}.cls-5{fill:url(#linear-gradient-5);}</style><linearGradient id="linear-gradient" x1="88.47" y1="126.86" x2="94.24" y2="126.86" gradientUnits="userSpaceOnUse"><stop offset="0" stop-color="#41b6e6"/><stop offset="1" stop-color="#0086d6"/></linearGradient><linearGradient id="linear-gradient-2" x1="141.22" y1="134.21" x2="147" y2="134.21" xlink:href="#linear-gradient"/><linearGradient id="linear-gradient-3" x1="129.67" y1="140.92" x2="174.3" y2="140.92" xlink:href="#linear-gradient"/><linearGradient id="linear-gradient-4" x1="72.44" y1="122.79" x2="119.91" y2="122.79" xlink:href="#linear-gradient"/><linearGradient id="linear-gradient-5" x1="17.81" y1="122.96" x2="228.12" y2="122.96" xlink:href="#linear-gradient"/></defs><g id="Layer_14" data-name="Layer 14"><path class="cls-1" d="M91.36,111.19a2.89,2.89,0,0,0-2.89,2.89v25.57a2.89,2.89,0,0,0,5.77,0V114.08A2.89,2.89,0,0,0,91.36,111.19Z"/><path class="cls-2" d="M144.11,108.34a2.9,2.9,0,0,0-2.89,2.89v46a2.89,2.89,0,0,0,5.78,0v-46A2.89,2.89,0,0,0,144.11,108.34Z"/><path class="cls-3" d="M166.68,94.33H137.29a7.62,7.62,0,0,0-7.62,7.62v85.56H174.3V102A7.63,7.63,0,0,0,166.68,94.33Zm2.21,87.77H135.07V102a2.21,2.21,0,0,1,2.22-2.21h29.39a2.21,2.21,0,0,1,2.21,2.21Z"/><path class="cls-4" d="M113.35,94.33h-3.2V63.41a5.35,5.35,0,0,0-5.34-5.34H87.55a5.35,5.35,0,0,0-5.35,5.34V94.33H79v54H72.44v31.33a7.9,7.9,0,0,0,7.89,7.89H112a7.89,7.89,0,0,0,7.88-7.89V148.29h-6.56ZM87.61,63.48h17.14V94.33H87.61Zm-3.2,36.26H108v48.55H84.41ZM112,182.1H80.33a2.48,2.48,0,0,1-2.48-2.48V165.57h36.66v14.05A2.48,2.48,0,0,1,112,182.1Zm2.48-28.4v6.47H77.85V153.7h36.66Z"/></g><g id="Layer_3" data-name="Layer 3"><path class="cls-5" d="M123,228.12A105.16,105.16,0,1,1,228.12,123,105.27,105.27,0,0,1,123,228.12Zm0-204.31A99.16,99.16,0,1,0,222.12,123,99.26,99.26,0,0,0,123,23.81Z"/></g></svg>