<svg xmlns="http://www.w3.org/2000/svg" viewBox="0 0 245.93 245.93"><defs><style>.cls-1{fill:#fff;}</style></defs><g id="Layer_3" data-name="Layer 3"><path class="cls-1" d="M123,16.44A106.52,106.52,0,1,0,229.48,123,106.65,106.65,0,0,0,123,16.44ZM123,221a98,98,0,1,1,98-98A98.14,98.14,0,0,1,123,221Z"/><path class="cls-1" d="M63.71,93.42s.12-.23.06-.54v0A3,3,0,0,1,63.71,93.42Z"/><path class="cls-1" d="M64.27,97l0,.07a2.3,2.3,0,0,0-.09-.25.65.65,0,0,0,0,.13Z"/><path class="cls-1" d="M63.8,95a.56.56,0,0,0-.1-.24h0A.91.91,0,0,1,63.8,95Z"/><path class="cls-1" d="M69.38,103l-.28-.23.26.21Z"/><path class="cls-1" d="M183.26,81.09A3.75,3.75,0,0,0,178,86.4a19.73,19.73,0,0,1,2.51,2.72c.28.44.56.87.81,1.33.15.27.3.56.43.85,0,.11.18.55.2.63s.14.46.19.69c0,0,.06.33.1.55s.05.58.05.56c0,.18,0,.36,0,.54s0,.38,0,.57a4.69,4.69,0,0,0-.08.56c-.13.56-.32,1.08-.5,1.62a1,1,0,0,0-.08.18c-.18.32-.34.65-.53,1s-.36.59-.55.87l-.38.51c-.14.16-.3.36-.36.42-.29.34-.6.67-.92,1-.5.51-1,1-1.57,1.45-.14.11-.68.53-.73.58l-.72.53A40.75,40.75,0,0,1,171,106.4c-.8.43-1.62.83-2.44,1.21l-1.44.64,0,0-.85.34q-3.19,1.27-6.49,2.26a109.68,109.68,0,0,1-14.65,3.32c-2.73.43-4.85.69-7.8,1s-5.6.45-8.4.55a154.61,154.61,0,0,1-17.88-.34,118.41,118.41,0,0,1-15.72-2.2,96,96,0,0,1-13.75-3.84c-.9-.34-1.8-.69-2.69-1.06l-.22-.09-.72-.32c-.52-.23-1-.47-1.54-.72a46.36,46.36,0,0,1-4.92-2.74c-.7-.45-1.39-.94-2.06-1.43h0l.07.06-.09-.08-.26-.21,0,0c-.34-.28-.68-.57-1-.87-.55-.49-1.07-1-1.57-1.55-.25-.27-.47-.56-.72-.83l-.06,0a1.93,1.93,0,0,0-.13-.21,15.58,15.58,0,0,1-1-1.65l-.25-.49c.07.18.09.3,0-.07a1.44,1.44,0,0,1-.11-.24s0,0,0,.06l-.15-.41c-.08-.26-.14-1-.26-1.36.05.27-.06.51-.08.07,0-.1,0-.21,0-.31l0,0,0,0s0-.11,0-.16c0-.31,0-.62,0-.93a1.68,1.68,0,0,1,0-.29s-.05,0,0-.19l.06-.31a.61.61,0,0,0,0-.14s0,.07,0,.1,0-.13,0-.2.3-.91.46-1.41c-.08.14-.15.2,0,0,.05-.08.08-.16.12-.24a.87.87,0,0,0,0-.13.06.06,0,0,1,0,0c0-.07.07-.14.11-.2.12-.24.25-.47.39-.7a9.8,9.8,0,0,1,.55-.87l.24-.34v0a36.47,36.47,0,0,1,3.17-3.17l.47-.38c.3-.22.59-.44.9-.65C71,84,71.82,83.52,72.64,83a51.47,51.47,0,0,1,5-2.6c.44-.21.89-.4,1.33-.59l.11,0,.91-.36c1.05-.42,2.11-.8,3.17-1.17A100.42,100.42,0,0,1,97.24,74.6,121.39,121.39,0,0,1,113,72.65a156.66,156.66,0,0,1,18-.11,116.4,116.4,0,0,1,29.8,5.09l-1.28.66-1.22.61A3.75,3.75,0,0,0,157,84a3.85,3.85,0,0,0,5.13,1.35L170.75,81l1.21-.61a3.75,3.75,0,0,0,1.35-5.14l-4.26-9c-.86-1.84-3.49-2.31-5.13-1.35A3.83,3.83,0,0,0,162.58,70c.07.15.13.29.2.43a120.57,120.57,0,0,0-23.16-4.69,154.14,154.14,0,0,0-37.91.58c-10.14,1.4-20.31,3.86-29.53,8.43-6.38,3.17-13.08,7.94-15.35,15-2.11,6.6,1.18,13.16,6.09,17.52,6.61,5.87,15.29,9.21,23.71,11.52a137.34,137.34,0,0,0,35,4.51,141.81,141.81,0,0,0,35.55-3.94c8.8-2.21,17.71-5.47,24.85-11.22,6.13-4.93,9.76-12.49,6.42-20.16A20.93,20.93,0,0,0,183.26,81.09ZM167,108.33ZM181.68,97a1,1,0,0,1,.08-.2A1,1,0,0,1,181.68,97Z"/><path class="cls-1" d="M64.27,91.27a.57.57,0,0,0,.13-.36l0,.09Q64.33,91.1,64.27,91.27Z"/><path class="cls-1" d="M156.29,143.3c-.19-.14-.38-.26,0,0Z"/><path class="cls-1" d="M158.92,147l0-.35,0-.11C158.81,146.9,158.88,147.06,158.92,147Z"/><path class="cls-1" d="M87,147.11v0a.6.6,0,0,0,0-.5v0C87,146.84,87,147,87,147.11Z"/><path class="cls-1" d="M158.84,163v0c0-.07,0-.28.07-.41v-.05A.56.56,0,0,0,158.84,163Z"/><path class="cls-1" d="M158.63,163.45c.06-.12.12-.22.16-.29v0A.56.56,0,0,0,158.63,163.45Z"/><path class="cls-1" d="M166.43,156.47v-9.36c-.07-5-3.75-8.75-7.76-11.25-5.23-3.25-11.46-5-17.47-6.12a101,101,0,0,0-23.74-1.5A81.46,81.46,0,0,0,95.78,132c-4.89,1.65-10.29,4-13.58,8.14a11.36,11.36,0,0,0-2.69,6.68.86.86,0,0,0,0,.16s0,.07,0,.11c0,5.07-.24,10.2,0,15.26h0v25.72a3.75,3.75,0,1,0,7.5,0V173.44a44.4,44.4,0,0,0,13.44,5.38,97.43,97.43,0,0,0,41.15.85,54.62,54.62,0,0,0,15.52-5.15c.62-.33,1.22-.69,1.82-1.07v14.64a3.75,3.75,0,0,0,7.5,0V163C166.64,160.81,166.43,158.5,166.43,156.47ZM87,146.58s0,0,0,.07,0-.21.08-.31.09-.23.14-.37l.06-.1c.16-.3.36-.56.53-.85l.32-.37c.31-.33.64-.64,1-.94l.51-.44.26-.19a27.09,27.09,0,0,1,2.78-1.69l1.32-.66.84-.38.18-.08.38-.16a58.47,58.47,0,0,1,8.49-2.57c1.42-.31,2.85-.59,4.29-.83,1.82-.3,2.86-.44,4.85-.64a100,100,0,0,1,21.88.23c1.28.15,3,.42,4.67.74s3.48.73,5.19,1.19c1.46.4,2.91.85,4.33,1.36l.93.34.79.32c.58.25,1.15.51,1.72.79a26.65,26.65,0,0,1,3.3,1.94c.21.15.41.31.61.44l-.18-.12.18.14c.4.35.79.7,1.16,1.09.15.15.28.32.43.47l0,0v0l.62,1.06c.05.15.09.3.14.45a1.1,1.1,0,0,1,0-.16.81.81,0,0,0,0,.27v0c.06.2,0,.31,0,.33s0,.06,0,.08c0,.18-.12.65-.09.58,0,.09-.05.17-.07.25s-.13.3-.2.46l-.24.4-.26.4-.4.45c0,.06-.11.11-.17.17q-.36.38-.75.72c-.14.13-.26.23-.39.33s-.54.41-.88.64l-.78.48-.78.46-.54.3-.71.36-1,.5-.14.07-.28.13-.13.05-.35.15-1.3.5-.74.27-1.26.42q-2.35.75-4.76,1.32c-1.43.34-2.87.63-4.31.88l-1.53.25c-1.13.17-2.26.31-3.39.43l-1.16.12-1.4.11-.81.07c-.79.05-1.58.1-2.38.13h-.18q-4.15.19-8.31,0l-.79,0-1.34-.07-1-.06-1.74-.14c-1.82-.15-3.58-.35-5.09-.58s-3-.5-4.41-.81l-1-.21-1.34-.32-.84-.21c-.52-.13-1-.28-1.55-.43l-.66-.19-.87-.27-1-.35-.82-.29c-.4-.15-.81-.29-1.21-.45l-.22-.09-.5-.21-.08,0-1.3-.62-.7-.35-.56-.31c-.38-.21-.76-.43-1.13-.66s-.72-.46-1.06-.71l-.34-.26-.41-.34-.1-.08c-.24-.22-.47-.44-.69-.67l-.42-.45a.09.09,0,0,0,0,0c0-.08-.31-.45-.46-.66s-.11-.2-.16-.3a2.72,2.72,0,0,1-.11-.25l-.11-.3,0-.09s-.08-.37-.09-.55h0v0c0-.05,0-.11,0-.16s0,0,0-.08a1,1,0,0,1,0-.17S87,146.6,87,146.58Zm71.9,16.15c0,.28,0,.33-.08.27a.65.65,0,0,1,0,.13l.06,0a.45.45,0,0,0-.07.07c0,.05,0,.1,0,.14-.1.4-.15.32-.12.15-.12.25-.25.56-.31.65l-.17.29-.09.09c-.25.27-.48.54-.74.79s-.57.52-.85.78l-.31.24.31-.23-.32.23c-.09.07-.12.09,0,0l-.27.19a23.39,23.39,0,0,1-2.53,1.54c-.43.23-.87.45-1.31.66l-.82.38-.32.14-.23.09a61.71,61.71,0,0,1-7.29,2.31,79.35,79.35,0,0,1-17.64,2.23,92.83,92.83,0,0,1-18.92-1.33,66.45,66.45,0,0,1-8.21-2c-1.07-.34-2.12-.71-3.17-1.13l-.58-.25-.54-.24c-.54-.25-1.07-.51-1.6-.79a24.57,24.57,0,0,1-2.46-1.47l-.52-.37h0c-.35-.31-.71-.6-1-.93s-.5-.53-.75-.8l-.11-.11-.16-.28c-.16-.24-.28-.5-.42-.74s-.09-.27-.13-.41a3,3,0,0,1-.07-.32c0-.13,0-.27,0-.41,0-.41,0-.82,0-1.24v-2.82c.33.22.67.42,1,.62l.35.19c.34.2.69.38,1,.56a50.34,50.34,0,0,0,12.42,4.33A91.76,91.76,0,0,0,118.11,166c.48,0,1,.05,1.44.06l.61,0c1.87,0,3.75,0,5.62,0h0l2.37-.1,2-.11h.17A88.66,88.66,0,0,0,143.56,164c.72-.16,1.43-.32,2.14-.5h0c.88-.22,1.75-.46,2.62-.73l.13,0,1.4-.44.08,0a39.83,39.83,0,0,0,9-4c0,1.36,0,2.72,0,4.08v.17h0v.24Z"/><path class="cls-1" d="M156.15,166.29h0l0,0Z"/></g></svg>