<svg xmlns="http://www.w3.org/2000/svg" viewBox="0 0 243.04 243.04"><defs><style>.cls-1{fill:#fff;}</style></defs><g id="Layer_14" data-name="Layer 14"><path class="cls-1" d="M154.55,93.9a25.09,25.09,0,0,0-42.83-17.74L60.48,127.4A25.09,25.09,0,0,0,96,162.88l51.24-51.24A24.92,24.92,0,0,0,154.55,93.9ZM92,158.9a19.48,19.48,0,0,1-27.52,0h0a19.46,19.46,0,0,1,0-27.52l23.27-23.27,27.52,27.52Zm27.25-27.24L91.7,104.14l24-24a19.46,19.46,0,1,1,27.52,27.52Z"/><path class="cls-1" d="M164.35,119.18H148.28a2.81,2.81,0,0,0-2.81,2.81h0a2.81,2.81,0,0,0,2.81,2.81H164.4a19.74,19.74,0,0,1,19.87,18.88,19.48,19.48,0,0,1-19.45,20H134.38V140.05a2.81,2.81,0,0,0-2.81-2.82h0a2.82,2.82,0,0,0-2.82,2.82v23.68H103.84a2.81,2.81,0,0,0-2.81,2.81h0a2.81,2.81,0,0,0,2.81,2.81h61a25.12,25.12,0,0,0,25.08-25.69C189.57,130,178.05,119.18,164.35,119.18Z"/><rect class="cls-1" x="104.38" y="92.34" width="17.77" height="5.62" rx="2.81" transform="translate(-34.11 107.95) rotate(-45)"/><rect class="cls-1" x="154.09" y="129.65" width="13.73" height="5.62" rx="2.81"/></g><g id="Layer_3" data-name="Layer 3"><path class="cls-1" d="M123,228.12A105.16,105.16,0,1,1,228.12,123,105.27,105.27,0,0,1,123,228.12Zm0-204.31A99.16,99.16,0,1,0,222.12,123,99.26,99.26,0,0,0,123,23.81Z"/></g></svg>