<svg xmlns="http://www.w3.org/2000/svg" xmlns:xlink="http://www.w3.org/1999/xlink" viewBox="0 0 245.93 245.93"><defs><style>.cls-1{fill:#fff;}.cls-2{fill:url(#linear-gradient);}.cls-3{fill:url(#linear-gradient-2);}</style><linearGradient id="linear-gradient" x1="16.44" y1="124.54" x2="229.48" y2="124.54" gradientUnits="userSpaceOnUse"><stop offset="0" stop-color="#41b6e6"/><stop offset="1" stop-color="#0086d6"/></linearGradient><linearGradient id="linear-gradient-2" x1="67.94" y1="126.1" x2="177.99" y2="126.1" xlink:href="#linear-gradient"/></defs><g id="Layer_3" data-name="Layer 3"><circle class="cls-1" cx="122.96" cy="122.96" r="121.52"/><path class="cls-2" d="M123,231.06A106.52,106.52,0,1,0,16.44,124.54,106.63,106.63,0,0,0,123,231.06Zm0-204.54a98,98,0,1,1-98,98A98.13,98.13,0,0,1,123,26.52Z"/><path class="cls-3" d="M68,177.31a3.75,3.75,0,0,0,7.5,0V162.78h8.62a10.27,10.27,0,0,0,5,5.5,10.94,10.94,0,0,0,6.74.84,10,10,0,0,0,7.4-6.34h3.45a11.25,11.25,0,0,0,.74,1.52,10.16,10.16,0,0,0,4.31,4,11,11,0,0,0,6.75.84,10.05,10.05,0,0,0,7.39-6.34h3.46a11.2,11.2,0,0,0,.73,1.52,10.13,10.13,0,0,0,4.32,4,10.94,10.94,0,0,0,6.74.84,10,10,0,0,0,7.39-6.34h12.95c3,0,5.92.07,8.89.06v1.83c0,4.15-.14,8.32,0,12.46v.18a3.75,3.75,0,0,0,7.5,0V87.53c0-4.15.13-8.32,0-12.46a1.08,1.08,0,0,1,0-.18,3.75,3.75,0,1,0-7.5,0V89.42H136.87a10.7,10.7,0,0,0-6.23-6,10.28,10.28,0,0,0-11.12,3,10.89,10.89,0,0,0-1.8,3H101.86a10.7,10.7,0,0,0-6.23-6,10.28,10.28,0,0,0-11.12,3,11.08,11.08,0,0,0-1.8,3c-2.4,0-4.8,0-7.21,0V87.53c0-4.15.14-8.32,0-12.46v-.18a3.75,3.75,0,1,0-7.5,0v89.78c0,4.15-.13,8.32,0,12.46Zm25.74-14.95A3.33,3.33,0,1,1,97.07,159,3.33,3.33,0,0,1,93.74,162.36Zm22.65,0a3.33,3.33,0,1,1,3.32-3.33A3.33,3.33,0,0,1,116.39,162.36Zm22.64,0a3.33,3.33,0,1,1,3.32-3.33A3.32,3.32,0,0,1,139,162.36ZM127.28,89.85A3.32,3.32,0,1,1,124,93.17,3.32,3.32,0,0,1,127.28,89.85Zm-35,0A3.32,3.32,0,1,1,89,93.17,3.32,3.32,0,0,1,92.27,89.85ZM75.5,113.11V96.92h7.15a9.61,9.61,0,0,0,.74,1.51,10.12,10.12,0,0,0,4.31,4,11,11,0,0,0,6.74.84,10.07,10.07,0,0,0,7.4-6.34h15.82a9.61,9.61,0,0,0,.74,1.51,10.12,10.12,0,0,0,4.31,4,11,11,0,0,0,6.74.84,10.07,10.07,0,0,0,7.4-6.34h24.69c3,0,5.92.06,8.89.06v25.37h-3.15a10.7,10.7,0,0,0-6.23-6,10.3,10.3,0,0,0-11.12,3,10.89,10.89,0,0,0-1.8,3H84.39c-3,0-5.92-.06-8.89,0Zm85.52,13a3.33,3.33,0,1,1-3.33-3.32A3.33,3.33,0,0,1,161,126.1ZM75.5,142.69V129.85h72.57a9.61,9.61,0,0,0,.74,1.51,10.12,10.12,0,0,0,4.31,4,10.94,10.94,0,0,0,6.74.84,10.07,10.07,0,0,0,7.38-6.29h3.19v25.37H148.61a10.63,10.63,0,0,0-6.23-6,10.28,10.28,0,0,0-11.11,3,11.32,11.32,0,0,0-1.81,3H126a10.63,10.63,0,0,0-6.23-6,10.28,10.28,0,0,0-11.11,3,11.07,11.07,0,0,0-1.81,3h-3.49a10.69,10.69,0,0,0-6.23-6,10.29,10.29,0,0,0-11.12,3,11,11,0,0,0-1.8,3c-2.89,0-5.79-.06-8.68-.05Z"/></g></svg>