<svg xmlns="http://www.w3.org/2000/svg" viewBox="0 0 245.93 245.93"><defs><style>.cls-1{fill:#fff;}</style></defs><g id="Layer_3" data-name="Layer 3"><path class="cls-1" d="M177.93,71.88a3.75,3.75,0,0,0-7.5,0V86.41H136.87a10.69,10.69,0,0,0-6.23-6,10.28,10.28,0,0,0-11.12,3,11,11,0,0,0-1.8,3H101.86a10.69,10.69,0,0,0-6.23-6,10.28,10.28,0,0,0-11.12,3,11.23,11.23,0,0,0-1.8,3c-2.4,0-4.8-.05-7.21,0V84.52c0-4.14.14-8.31,0-12.46v-.18a3.75,3.75,0,0,0-7.5,0v89.79c0,4.14-.13,8.31,0,12.46v.18a3.75,3.75,0,0,0,7.5,0V159.78h8.62a9.61,9.61,0,0,0,.74,1.51,10.12,10.12,0,0,0,4.31,4,11,11,0,0,0,6.74.84,10.07,10.07,0,0,0,7.4-6.34h3.45a10.58,10.58,0,0,0,.74,1.51,10.12,10.12,0,0,0,4.31,4,11,11,0,0,0,6.75.84,10.07,10.07,0,0,0,7.39-6.34h3.46a10.53,10.53,0,0,0,.73,1.51,10.09,10.09,0,0,0,4.32,4,11,11,0,0,0,6.74.84,10.05,10.05,0,0,0,7.39-6.34h12.95c3,0,5.92.06,8.89.05v1.84c0,4.14-.14,8.31,0,12.46v.18a3.75,3.75,0,0,0,7.5,0V84.52c0-4.14.13-8.31,0-12.46A1.08,1.08,0,0,1,177.93,71.88Zm-50.65,15A3.33,3.33,0,1,1,124,90.16,3.33,3.33,0,0,1,127.28,86.84Zm-35,0A3.33,3.33,0,1,1,89,90.16,3.33,3.33,0,0,1,92.27,86.84Zm1.47,72.51A3.32,3.32,0,1,1,97.07,156,3.32,3.32,0,0,1,93.74,159.35Zm22.65,0a3.32,3.32,0,1,1,3.32-3.32A3.33,3.33,0,0,1,116.39,159.35Zm22.64,0a3.32,3.32,0,1,1,3.32-3.32A3.32,3.32,0,0,1,139,159.35Zm31.4-23.27v16.2H148.61a10.65,10.65,0,0,0-6.23-6,10.26,10.26,0,0,0-11.11,3,11.17,11.17,0,0,0-1.81,3H126a10.65,10.65,0,0,0-6.23-6,10.26,10.26,0,0,0-11.11,3,10.92,10.92,0,0,0-1.81,3h-3.49a10.7,10.7,0,0,0-6.23-6,10.28,10.28,0,0,0-11.12,3,10.89,10.89,0,0,0-1.8,3c-2.89,0-5.79-.07-8.68-.06V126.85h72.57a9.61,9.61,0,0,0,.74,1.51,10.16,10.16,0,0,0,4.31,4,11,11,0,0,0,6.74.85,10.08,10.08,0,0,0,7.38-6.3c1.06,0,2.12,0,3.19,0Zm-16.06-13a3.33,3.33,0,1,1,3.32,3.32A3.33,3.33,0,0,1,154.37,123.1Zm16.06-16.6v12.85h-3.15a10.68,10.68,0,0,0-6.23-6,10.29,10.29,0,0,0-11.12,3,11.08,11.08,0,0,0-1.8,3H84.39c-3,0-5.92-.07-8.89-.06V93.91h7.15a10.27,10.27,0,0,0,5,5.5,10.94,10.94,0,0,0,6.74.84,10,10,0,0,0,7.4-6.34h15.82a10.27,10.27,0,0,0,5,5.5,10.94,10.94,0,0,0,6.74.84,10,10,0,0,0,7.4-6.34h24.69c3,0,5.92.07,8.89.06Z"/><path class="cls-1" d="M123,17.89A106.52,106.52,0,1,0,229.48,124.41,106.64,106.64,0,0,0,123,17.89Zm0,204.54a98,98,0,1,1,98-98A98.14,98.14,0,0,1,123,222.43Z"/></g></svg>