<svg xmlns="http://www.w3.org/2000/svg" viewBox="0 0 245.93 245.93"><defs><style>.cls-1{fill:#fff;}</style></defs><g id="Layer_3" data-name="Layer 3"><path class="cls-1" d="M123,16.44A106.52,106.52,0,1,0,229.48,123,106.65,106.65,0,0,0,123,16.44ZM123,221a98,98,0,1,1,98-98A98.14,98.14,0,0,1,123,221Z"/><path class="cls-1" d="M166,66.1a71.33,71.33,0,1,0-51,127.74,69.14,69.14,0,0,0,8,.47,3.68,3.68,0,0,0,1.4-.28h0l.14-.07a3.63,3.63,0,0,0,1.09-.74q7.38-7.38,14.77-14.77,4.31-4.29,8.6-8.6l18.75-18.76,9.45-9.45,15.57-15.56.45-.46a3.42,3.42,0,0,0,.7-1,3.56,3.56,0,0,0,.4-1.62A72,72,0,0,0,166,66.1ZM114.3,186.26l-.73-.11-1.69-.28c-1.34-.24-2.67-.52-4-.85a68.2,68.2,0,0,1-7.38-2.25l-1.56-.6-.65-.27-.6-.25c-1.11-.49-2.21-1-3.29-1.56a65.69,65.69,0,0,1-6.56-3.79c-1-.66-2-1.35-3-2.06l-.79-.59-.14-.1-.14-.11c-.51-.41-1-.82-1.52-1.24a65.31,65.31,0,0,1-5.5-5.15c-.83-.86-1.64-1.75-2.42-2.66-.36-.42-.71-.83-1.06-1.26l-.62-.76-.31-.41h0a68.54,68.54,0,0,1-7.68-12.83c-.2-.44-.39-.87-.58-1.31l-.23-.54-.36-.93c-.49-1.25-.93-2.51-1.34-3.79a68.31,68.31,0,0,1-1.9-7.35c-.23-1.17-.42-2.35-.6-3.54,0-.07,0-.12,0-.17a1.76,1.76,0,0,0,0-.19l-.12-1c-.07-.69-.14-1.38-.19-2.07a67.72,67.72,0,0,1-.14-8.06c0-1.28.14-2.55.26-3.82.06-.57.13-1.14.19-1.71a1.68,1.68,0,0,0,0-.2s0-.1,0-.17c.07-.45.13-.9.21-1.35a67.87,67.87,0,0,1,1.66-7.45c.69-2.41,1.53-4.77,2.46-7.11l.07-.17.07-.16.4-.91c.23-.5.46-1,.7-1.5.57-1.19,1.18-2.36,1.82-3.52a69.59,69.59,0,0,1,4-6.4l1-1.32.38-.51.44-.54c.79-1,1.6-1.94,2.44-2.87a67.4,67.4,0,0,1,5.21-5.21c.9-.8,1.81-1.57,2.75-2.33l.55-.43.5-.39c.53-.39,1.06-.78,1.6-1.16a67.29,67.29,0,0,1,6.41-4c1.07-.59,2.14-1.14,3.24-1.67.49-.24,1-.47,1.5-.7l.91-.4.13-.06.51-.2a67,67,0,0,1,14.58-4.06l1-.15.09,0h.1l1.89-.21c1.38-.13,2.78-.23,4.17-.27a67.78,67.78,0,0,1,8.06.18l1.72.16,1,.12.13,0h.06c1.3.18,2.59.4,3.88.66a67.26,67.26,0,0,1,7.5,2c1.17.38,2.32.79,3.46,1.23l.93.37.48.19.47.2,1.21.55A67,67,0,0,1,162,72.4l.39.3.77.62c.42.34.84.69,1.25,1.05,1,.86,2,1.74,2.9,2.65a66.78,66.78,0,0,1,5.12,5.52c.35.42.69.85,1,1.28l.11.13.1.15c.2.26.4.52.59.79.78,1.06,1.53,2.14,2.24,3.24a67.52,67.52,0,0,1,3.61,6.28q.82,1.64,1.56,3.3c0,.06.22.52.25.59l.27.66c.25.62.48,1.24.71,1.87a65.58,65.58,0,0,1,2.22,7.4c.29,1.21.55,2.43.77,3.66.1.56.19,1.12.28,1.68,0,.25.07.5.11.75,0,.05.11.87.12,1,.15,1.36.26,2.73.33,4.1-2.15.18-4.28.46-6.41.75a57.42,57.42,0,1,0-62.9,59.94c.93.1,1.86.16,2.79.21-.28,2.1-.58,4.25-.77,6.41-1.49-.08-3-.19-4.46-.37Zm13.16-32.88-.18.35q-1.16,2.24-2.15,4.59a62.32,62.32,0,0,0-4,14.52c-1.13,0-2.27-.1-3.41-.21l-1.54-.17h0l-.14,0-.68-.11c-1.06-.17-2.12-.37-3.17-.61a53.59,53.59,0,0,1-5.82-1.66c-.89-.31-1.77-.65-2.64-1l-.07,0-.72-.32-1.49-.7a53.47,53.47,0,0,1-5.18-2.89c-.79-.49-1.56-1-2.32-1.55l-1.19-.86-.32-.24-.6-.49a55.8,55.8,0,0,1-8.26-8.36,1.11,1.11,0,0,1-.12-.15l-.29-.39c-.3-.39-.59-.79-.87-1.19-.6-.86-1.17-1.72-1.72-2.61a51.38,51.38,0,0,1-2.83-5.21c-.19-.39-.38-.8-.56-1.2l-.23-.53c0-.11-.09-.22-.1-.25-.4-1-.77-2-1.1-3a52.09,52.09,0,0,1-1.61-5.84c-.21-1-.4-2-.56-3,0-.18,0-.36-.08-.55s0-.12,0-.15q-.11-.85-.18-1.71a53,53,0,0,1-.2-6.3c0-1,.08-2.09.17-3.13,0-.46.08-.92.13-1.37,0-.29.07-.57.1-.86v0l0-.14a60.84,60.84,0,0,1,1.29-6.14,53.81,53.81,0,0,1,1.9-5.71c.08-.21.17-.41.25-.62l0,0,.06-.12.54-1.21c.45-.94.92-1.88,1.42-2.8a53.12,53.12,0,0,1,3.09-5l.86-1.2.51-.67c.64-.81,1.3-1.61,2-2.39a54.3,54.3,0,0,1,4.13-4.18c.69-.63,1.39-1.23,2.11-1.82l.83-.66c.38-.28.76-.57,1.14-.84a54,54,0,0,1,5-3.18c.81-.45,1.64-.89,2.48-1.3.44-.22.89-.44,1.34-.64l.61-.28.47-.2A53.15,53.15,0,0,1,115,73.66l.68-.11.54-.07.33,0,.86-.09c1-.11,2.07-.19,3.11-.23a53.15,53.15,0,0,1,6.31.08c1,.07,1.95.17,2.92.29l.87.13q.84.14,1.68.3a52.44,52.44,0,0,1,6,1.55c.9.28,1.8.6,2.68.93l1.39.55h0l.91.41a52.65,52.65,0,0,1,5.26,2.76,55.8,55.8,0,0,1,4.89,3.3l.06,0,.09.08.51.41c.34.27.67.55,1,.84.83.7,1.63,1.44,2.42,2.19a58.27,58.27,0,0,1,4,4.31l.82,1,.06.08.45.59c.62.84,1.21,1.69,1.78,2.56a52.12,52.12,0,0,1,3,5.13c.43.83.82,1.68,1.2,2.54,0,.08.14.31.18.41l.16.37c.2.52.4,1,.59,1.56a52.71,52.71,0,0,1,1.75,5.78c.24,1,.45,2,.63,3,.08.45.16.9.23,1.35,0,.12,0,.25.05.37,0,0,.07.55.09.67.17,1.5.26,3,.31,4.52-1.76.29-3.56.63-5.23,1a65.16,65.16,0,0,0-17.36,7.07,60.31,60.31,0,0,0-22.23,23C127.82,152.69,127.64,153,127.46,153.38ZM103.55,169c-.35-.14-.16-.07,0,0ZM73.48,129.76c0,.27,0,.15,0,0Zm89.11-37.2Zm-14.12,47Zm24.67-4.5-8.6,8.6-18.75,18.76-9.45,9.45q-4.35,4.35-8.69,8.69c.17-1.3.35-2.61.5-4l.12-1c0-.1,0-.16,0-.2a1.64,1.64,0,0,0,0-.18c.12-.79.24-1.59.39-2.38.27-1.44.58-2.88.95-4.31s.78-2.79,1.24-4.16c.21-.63.43-1.25.66-1.87l.36-.92.3-.75.34-.78c.13-.29.27-.59.4-.89.3-.64.61-1.27.93-1.9.64-1.24,1.33-2.47,2.06-3.66s1.5-2.35,2.31-3.48l.57-.78c0-.08.29-.39.39-.52s.34-.42.39-.49l.82-1,.66-.75c.41-.46.82-.92,1.24-1.36.26-.28.52-.57.79-.84.79-.8,1.59-1.57,2.41-2.31h0c.91-.82,1.85-1.62,2.81-2.39l.06,0q.36-.29.72-.54c.52-.39,1.05-.76,1.59-1.13,1-.67,2-1.32,3-1.93a65.32,65.32,0,0,1,6.76-3.48l.19-.08.15-.06,1.25-.5c.63-.24,1.27-.48,1.91-.7,1.4-.49,2.82-.93,4.25-1.32s2.94-.75,4.42-1.05c.69-.14,1.39-.27,2.09-.38l1.06-.17,1-.15h0c1.27-.16,2.52-.34,3.75-.51Z"/></g></svg>