<svg xmlns="http://www.w3.org/2000/svg" viewBox="0 0 245.93 245.93"><defs><style>.cls-1{fill:#fff;}</style></defs><g id="Layer_3" data-name="Layer 3"><path class="cls-1" d="M123,16.44A106.52,106.52,0,1,0,229.48,123,106.65,106.65,0,0,0,123,16.44ZM123,221a98,98,0,1,1,98-98A98.14,98.14,0,0,1,123,221Z"/><path class="cls-1" d="M197.47,104.67a79.58,79.58,0,0,0-4.55-13.18c-.82-1.85-3.53-2.28-5.14-1.34-1.91,1.12-2.16,3.27-1.34,5.13a69.89,69.89,0,0,1,5.68,24.91,74.08,74.08,0,0,1-.42,11.14c0,.11-.12.9-.12.95,0,.32-.09.63-.14.95-.13.84-.27,1.68-.43,2.52q-.48,2.5-1.13,5c-.43,1.63-.92,3.23-1.46,4.83-.27.79-.56,1.57-.86,2.35-.13.37-.27.73-.42,1.09l-.32.8a72.31,72.31,0,0,1-4.43,8.68c-.85,1.41-1.74,2.8-2.68,4.15-.46.67-.94,1.34-1.43,2l-.44.58-.69.86a72.2,72.2,0,0,1-6.66,7.22q-1.78,1.69-3.67,3.26l-1,.83-.67.52-.13.1-.52.39-1.07.78a74.6,74.6,0,0,1-8.4,5.18q-2.2,1.15-4.47,2.16l-.84.36-.87.35c-.78.31-1.56.6-2.35.88a71.3,71.3,0,0,1-9.73,2.73c-.83.17-1.67.33-2.51.47l-1.18.19-.9.12c-1.65.21-3.32.37-5,.46a74.65,74.65,0,0,1-10.68-.16c-.81-.07-1.61-.16-2.41-.25l-.4,0-.14,0c-.51-.08-1-.15-1.52-.24-1.68-.27-3.35-.61-5-1a71.82,71.82,0,0,1-9.61-3l-1.08-.43-.24-.09-.24-.11c-.81-.36-1.62-.72-2.42-1.1q-2.24-1.08-4.4-2.29a74.9,74.9,0,0,1-8.23-5.42l-.07,0-.34-.27q-.45-.34-.9-.72c-.67-.55-1.34-1.11-2-1.69q-1.84-1.62-3.58-3.36c-1.16-1.17-2.27-2.37-3.35-3.6-.5-.58-1-1.16-1.48-1.75l-.72-.9-.28-.36-.23-.31a74.45,74.45,0,0,1-5.38-8.26q-1.22-2.18-2.27-4.41c-.33-.7-.65-1.41-1-2.12l-.14-.32a1.27,1.27,0,0,1-.06-.16c-.19-.47-.38-.93-.56-1.4a71.74,71.74,0,0,1-3-9.62c-.38-1.66-.71-3.33-1-5l-.18-1.18s0-.09,0-.14,0-.27-.05-.4c-.11-.92-.2-1.83-.28-2.75a73.75,73.75,0,0,1-.12-10.51c0-.81.11-1.62.18-2.43l.12-1.2c0-.23.05-.46.08-.69,0-.05,0-.41.07-.58s0-.12,0-.13c0-.23.06-.45.1-.68.06-.39.12-.79.19-1.18.15-.9.32-1.79.51-2.68a71.21,71.21,0,0,1,2.74-9.72c.26-.74.54-1.46.82-2.19.09-.2.17-.41.25-.62l.16-.38a.94.94,0,0,0,0-.1c.11-.25.22-.51.34-.76q1-2.26,2.17-4.47a73.2,73.2,0,0,1,5.2-8.39l.67-.93.52-.68c.47-.6.94-1.2,1.43-1.78,1-1.26,2.14-2.49,3.27-3.67A73.32,73.32,0,0,1,80,68.67l.73-.57.72-.55,2-1.43c1.36-.93,2.74-1.82,4.16-2.66s2.86-1.64,4.34-2.39c.74-.37,1.48-.73,2.23-1.08.35-.17.71-.33,1.06-.48l.45-.2.51-.22.75-.3,1.24-.49c.78-.29,1.57-.57,2.36-.84q2.39-.81,4.83-1.45c1.64-.43,3.3-.8,5-1.12.84-.16,1.69-.3,2.53-.43l.9-.13.15,0,.85-.1a74.11,74.11,0,0,1,10.84-.41,60.51,60.51,0,0,1,11.28,1.35,71.85,71.85,0,0,1,11.2,3.29c1.84.7,2.79,1.12,4.75,2.06q2.58,1.26,5,2.7c1.65,1,3.25,2,4.82,3.08.78.54,1.54,1.11,2.3,1.68l.21.16.38.29,1.18,1c.54.44,1.06.9,1.58,1.36h-4.63a3.75,3.75,0,0,0,0,7.5h13.75a3.77,3.77,0,0,0,2.33-.87l.09-.07a3.5,3.5,0,0,0,1.33-2.81q.44-7.22.86-14.42a3.77,3.77,0,0,0-3.75-3.75,3.84,3.84,0,0,0-3.75,3.75c-.12,2-.23,3.92-.35,5.88a76.57,76.57,0,0,0-35.74-18.1A76.77,76.77,0,0,0,60.31,78.73a76.76,76.76,0,0,0-4.08,82.09,76.64,76.64,0,0,0,71.64,38.69,76.57,76.57,0,0,0,40-14.37A78.09,78.09,0,0,0,194,151.9,76.94,76.94,0,0,0,197.47,104.67ZM54.34,132.23c0-.18-.05-.37,0,0Z"/><path class="cls-1" d="M80,124c0,.1.07.21.11.32s0,0,0,.05v0C80.09,124.06,80.05,124,80,124Z"/><path class="cls-1" d="M80.82,120.66l-.3.31,0,0A1.72,1.72,0,0,0,80.82,120.66Z"/><path class="cls-1" d="M79.9,122.42s0,.06,0,.09a.13.13,0,0,0,0,.06v0c0-.17.07-.29.08-.36Z"/><path class="cls-1" d="M86.51,122.83c0-.11,0-.23,0-.34s0,0,0-.06A1.18,1.18,0,0,0,86.51,122.83Z"/><path class="cls-1" d="M81.94,126.05l0,0a2,2,0,0,0-.38-.2C81.72,125.92,81.83,126,81.94,126.05Z"/><path class="cls-1" d="M83.32,126.28h.34l.09,0A1.14,1.14,0,0,0,83.32,126.28Z"/><path class="cls-1" d="M80.51,124.93v0c.08.08.16.15.24.24A1.86,1.86,0,0,0,80.51,124.93Z"/><path class="cls-1" d="M75.05,115.86a10.8,10.8,0,0,0,10.4,17.68c5-.9,8.5-5.65,8.57-10.58a11,11,0,0,0-7.29-10.22A10.79,10.79,0,0,0,75.05,115.86Zm7.07,3.92-.35.13A.8.8,0,0,1,82.12,119.78Zm4.43,3.5a1,1,0,0,1,0,.17,1.52,1.52,0,0,1,0-.23Zm-1.33-3q.32.29.6.6a3.37,3.37,0,0,1,.21.31c.08.13.15.27.22.4s.15.53.22.8v-.25c0,.1,0,.2,0,.31s0,.07,0,.12a.78.78,0,0,1,0,.14s0,.07,0,.1,0,0,0,0,0,.09,0,.13l0,.59v0c0,.17-.12.34-.15.46s0,.1,0,.15c-.16.28-.32.55-.49.82-.06.08-.13.15-.19.22-.27.27-1.09.74-.07.14-.27.16-.51.35-.78.51l-.26.13c-.25.08-.49.15-.75.21H84c-.11,0-.21,0-.32,0h0c-.19,0-.34,0-.32,0l-.62,0-.42-.1-.29-.09.13.08-.18-.1-.2-.06c-.19-.06-.25-.16-.13-.12l-.31-.16-.15-.11-.39-.41c.13.17,0,.16-.1,0l-.14-.21s-.07-.08-.11-.11l.1.09-.16-.24-.17-.3c0,.06,0,.12.06.2l-.09-.27A1.16,1.16,0,0,1,80,124a2.8,2.8,0,0,1-.09-.31,2.61,2.61,0,0,1-.06-.27,7.66,7.66,0,0,1,0-.83c0,.06,0,.12,0,.2l.06-.28c0-.24.11-.5.07-.28.05-.2.11-.39.17-.59l.22-.41.15-.22-.09.08.11-.12a.57.57,0,0,0,.08-.13c.12-.18.25-.25.22-.18l.22-.24.16-.13.47-.33.07,0,.54-.17c.09,0,.38-.08.55-.12h.46l.34,0c.3.07.59.15.88.24l.41.23A2.2,2.2,0,0,1,85.22,120.32Z"/><path class="cls-1" d="M160.36,120.66l-.29.31,0,0A1.43,1.43,0,0,0,160.36,120.66Z"/><path class="cls-1" d="M166.05,122.83c0-.11,0-.23,0-.34a.14.14,0,0,0,0-.06A1.57,1.57,0,0,0,166.05,122.83Z"/><path class="cls-1" d="M159.45,122.42a.29.29,0,0,0,0,.09s0,0,0,.06v0c0-.17.07-.29.08-.36A1.8,1.8,0,0,0,159.45,122.42Z"/><path class="cls-1" d="M161.48,126.05l.05,0a2,2,0,0,0-.38-.2Z"/><path class="cls-1" d="M165,133.54c5-.9,8.5-5.65,8.57-10.58a11,11,0,0,0-7.29-10.22,10.79,10.79,0,0,0-11.68,3.12A10.8,10.8,0,0,0,165,133.54Zm1.11-10.26,0,.17c0-.08,0-.17,0-.23A.13.13,0,0,0,166.1,123.28Zm-4.44-3.5-.35.13A.8.8,0,0,1,161.66,119.78Zm1.21,6.5-.63,0-.42-.1-.29-.09.13.08a1,1,0,0,0-.18-.1l-.2-.06c-.18-.06-.25-.16-.13-.12a2.85,2.85,0,0,1-.3-.16l-.15-.11c-.14-.13-.27-.27-.4-.41.13.17,0,.16-.1,0l-.14-.21a1.14,1.14,0,0,0-.11-.11l.1.09c-.05-.08-.11-.16-.15-.24l-.18-.3c0,.06,0,.12.06.2,0-.09-.06-.18-.09-.27a1,1,0,0,1-.1-.32,2.81,2.81,0,0,1-.1-.31l-.06-.27a7.66,7.66,0,0,1,0-.83c0,.06,0,.12,0,.2a2.8,2.8,0,0,0,.06-.28c0-.24.11-.5.07-.28.05-.2.11-.39.18-.59l.22-.41L160,121l-.09.08.12-.12.08-.13c.11-.18.24-.25.21-.18l.22-.24.16-.13c.13-.09.3-.22.48-.33l.06,0,.54-.17.56-.12h.45l.34,0c.3.07.59.15.88.24l.42.23.3.19.6.6a3.28,3.28,0,0,1,.2.31c.08.13.15.27.22.4s.16.53.22.8a2.36,2.36,0,0,1,0-.25,1.63,1.63,0,0,0,0,.31s0,.07,0,.12a.36.36,0,0,1,0,.14s0,.07,0,.1,0,0,0,0,0,.09,0,.13c0,.2,0,.4,0,.59v0c-.05.17-.12.34-.15.46a.66.66,0,0,0,0,.15c-.16.28-.32.55-.49.82l-.2.22c-.27.27-1.09.74-.07.14-.26.16-.5.35-.77.51l-.26.13c-.25.08-.5.15-.76.21h.23l-.32,0h0C163,126.31,162.84,126.3,162.87,126.28Z"/><path class="cls-1" d="M160.05,124.93v0l.24.24A1.86,1.86,0,0,0,160.05,124.93Z"/><path class="cls-1" d="M159.59,124c0,.1.07.21.1.32a.17.17,0,0,1,0,.05v0C159.63,124.06,159.59,124,159.59,124Z"/><path class="cls-1" d="M163.2,126.27l.09,0a1,1,0,0,0-.42,0h.33Z"/><path class="cls-1" d="M121.93,80l-.32.11,0,0h0C121.87,80.09,122,80.05,121.93,80Z"/><path class="cls-1" d="M130.07,75.05a10.8,10.8,0,0,0-17.68,10.4c.89,5,5.65,8.5,10.57,8.57a11,11,0,0,0,10.22-7.29A10.77,10.77,0,0,0,130.07,75.05Zm-3.92,7.07-.13-.35A.8.8,0,0,1,126.15,82.12Zm-6.37,0c0-.06.06-.12.1-.18l.06-.2c.06-.19.15-.25.12-.13a3,3,0,0,1,.16-.31l.11-.15.41-.39c-.17.13-.16,0,0-.1l.21-.14s.08-.07.11-.11l-.09.1.23-.16.31-.17-.2.06.27-.09a1.16,1.16,0,0,1,.32-.11c.1,0,.2-.07.3-.09a2.8,2.8,0,0,1,.28-.06,7.63,7.63,0,0,1,.83,0l-.21,0,.29.06c.24,0,.5.11.27.07l.6.17.4.22.23.15-.08-.09a.63.63,0,0,0,.12.11l.12.08c.19.12.26.25.18.22l.25.22.13.16c.09.13.22.3.33.47a.19.19,0,0,0,0,.07c.05.18.12.36.17.54s.08.38.12.55,0,.31,0,.46,0,.23,0,.34c-.07.3-.16.59-.25.88-.07.14-.14.28-.22.41a3,3,0,0,1-.19.3q-.3.32-.6.6a3.53,3.53,0,0,1-.32.21l-.39.22-.8.22h.25l-.31,0-.12,0-.14,0h-.1s0,0,0,0H123l-.59,0h0l-.46-.15-.16,0-.82-.49-.21-.19c-.28-.27-.75-1.09-.14-.07-.16-.27-.36-.51-.51-.78a2.1,2.1,0,0,1-.13-.26c-.08-.25-.16-.49-.22-.75a1.76,1.76,0,0,1,0,.23,1.72,1.72,0,0,0,0-.32v0c0-.19,0-.34,0-.32,0-.21,0-.41,0-.62s.06-.28.1-.42a2.46,2.46,0,0,1,.09-.29Zm2.87,4.43-.18,0,.24,0Z"/><path class="cls-1" d="M125.26,80.82l-.3-.3,0,0A1.81,1.81,0,0,0,125.26,80.82Z"/><path class="cls-1" d="M121,80.51h0l-.24.24A2.66,2.66,0,0,0,121,80.51Z"/><path class="cls-1" d="M119.88,81.94l0,0a2,2,0,0,0,.2-.38Z"/><path class="cls-1" d="M119.65,83.32a1,1,0,0,0,0,.17,1,1,0,0,0,0,.17.29.29,0,0,1,0,.09A1.31,1.31,0,0,0,119.65,83.32Z"/><path class="cls-1" d="M123.51,79.9h-.17l.35.08Z"/><path class="cls-1" d="M123.1,86.51l.34,0,.06,0A1.18,1.18,0,0,0,123.1,86.51Z"/><path class="cls-1" d="M130.07,154.59A10.8,10.8,0,0,0,112.39,165c.89,5,5.65,8.5,10.57,8.57a11,11,0,0,0,10.22-7.29A10.77,10.77,0,0,0,130.07,154.59Zm-3.92,7.07-.13-.35A.8.8,0,0,1,126.15,161.66Zm-6.37,0s.06-.12.1-.18l.06-.2c.06-.18.15-.25.12-.13a2.85,2.85,0,0,1,.16-.3l.11-.15c.13-.14.27-.27.41-.4-.17.13-.16,0,0-.1l.21-.14a1.14,1.14,0,0,0,.11-.11l-.09.1c.08-.05.15-.11.23-.15l.31-.18-.2.06.27-.09a.8.8,0,0,1,.32-.1l.3-.1.28-.06a7.63,7.63,0,0,1,.83,0l-.21,0,.29.06c.24,0,.5.11.27.07l.6.18.4.22.23.14-.08-.09a1.36,1.36,0,0,0,.12.12l.12.08c.19.11.26.24.18.21l.25.22.13.16c.09.13.22.3.33.48,0,0,0,0,0,.06.05.18.12.36.17.54s.08.38.12.56,0,.3,0,.45,0,.23,0,.34c-.07.3-.16.59-.25.88-.07.14-.14.28-.22.42s-.12.2-.19.3l-.6.6-.32.2-.39.22c-.27.08-.53.16-.8.22h.25a1.61,1.61,0,0,0-.31,0l-.12,0a.36.36,0,0,1-.14,0h-.1l0,0H123l-.59,0h0l-.46-.15-.16,0-.82-.49-.21-.2c-.28-.27-.75-1.09-.14-.07-.16-.26-.36-.5-.51-.77l-.13-.26c-.08-.25-.16-.5-.22-.76a1.76,1.76,0,0,1,0,.23,1.77,1.77,0,0,0,0-.32h0c0-.19,0-.35,0-.32,0-.21,0-.42,0-.63s.06-.28.1-.42.06-.19.09-.29Zm2.87,4.44-.18,0,.24,0Z"/><path class="cls-1" d="M125.26,160.36l-.3-.29,0,0A1.49,1.49,0,0,0,125.26,160.36Z"/><path class="cls-1" d="M121.93,159.59l-.32.1,0,0h0C121.87,159.63,122,159.59,121.93,159.59Z"/><path class="cls-1" d="M121,160.05h0l-.24.24A2.66,2.66,0,0,0,121,160.05Z"/><path class="cls-1" d="M119.65,162.87a.86.86,0,0,0,0,.16.91.91,0,0,0,0,.17.29.29,0,0,1,0,.09A1.18,1.18,0,0,0,119.65,162.87Z"/><path class="cls-1" d="M123.1,166.05l.34,0,.06,0A1.57,1.57,0,0,0,123.1,166.05Z"/><path class="cls-1" d="M119.88,161.48l0,.05a2,2,0,0,0,.2-.38Z"/><path class="cls-1" d="M123.51,159.45l-.09,0h-.08l.35.08Z"/><path class="cls-1" d="M89,103.92a10.9,10.9,0,0,0,13.54-1.43,10.54,10.54,0,0,0,3-5.49,12.8,12.8,0,0,0,0-4,11,11,0,0,0-1-3,10.8,10.8,0,0,0-13.42-5.29,11.91,11.91,0,0,0-3.47,2.08,10.77,10.77,0,0,0-3,11.55A11.46,11.46,0,0,0,89,103.92Zm2.6-9.5a3.41,3.41,0,0,1,.67-1.62,7.93,7.93,0,0,1,.58-.58,3.41,3.41,0,0,1,1.62-.67,6,6,0,0,1,.85,0,7.19,7.19,0,0,1,.88.24,7.74,7.74,0,0,1,.73.43c.2.18.4.38.59.58s.3.48.43.74.17.58.24.88,0,.56,0,.85-.15.59-.24.88-.28.5-.44.74a3.84,3.84,0,0,1-.57.57c-.24.16-.49.3-.74.44s-.59.17-.88.24-.57,0-.85,0-.59-.15-.88-.24-.5-.28-.74-.43-.4-.39-.58-.59a7.74,7.74,0,0,1-.43-.73,7.19,7.19,0,0,1-.24-.88A6,6,0,0,1,91.55,94.42Z"/><path class="cls-1" d="M145.2,160.16a10.92,10.92,0,0,0,13.54-1.42,10.56,10.56,0,0,0,2.94-5.49,12.24,12.24,0,0,0,0-4.05,10.8,10.8,0,0,0-1-3,10.5,10.5,0,0,0-4.33-4.57,10.66,10.66,0,0,0-6.1-1.37,10.94,10.94,0,0,0-3,.65,12.08,12.08,0,0,0-3.46,2.08,10.52,10.52,0,0,0-3.27,5.35,10.73,10.73,0,0,0,.25,6.2A11.39,11.39,0,0,0,145.2,160.16Zm2.59-9.5a6.74,6.74,0,0,1,.24-.88,7.74,7.74,0,0,1,.43-.73,8.21,8.21,0,0,1,.59-.59,7.74,7.74,0,0,1,.73-.43,6.74,6.74,0,0,1,.88-.24h.85a6.74,6.74,0,0,1,.88.24,6.65,6.65,0,0,1,.73.43,6.57,6.57,0,0,1,.59.59,7.74,7.74,0,0,1,.43.73,6.74,6.74,0,0,1,.24.88,6,6,0,0,1,0,.85,6.74,6.74,0,0,1-.24.88,7,7,0,0,1-.44.75l-.26.3-.3.26a7,7,0,0,1-.75.44,6.74,6.74,0,0,1-.88.24,6,6,0,0,1-.85,0,6.74,6.74,0,0,1-.88-.24,7.74,7.74,0,0,1-.73-.43,6.57,6.57,0,0,1-.59-.59,6.65,6.65,0,0,1-.43-.73,6.74,6.74,0,0,1-.24-.88C147.78,151.23,147.78,150.94,147.79,150.66Z"/><path class="cls-1" d="M84.71,154.84a11.91,11.91,0,0,0,2.08,3.47,10.57,10.57,0,0,0,5.35,3.26,10.74,10.74,0,0,0,6.2-.25,11.52,11.52,0,0,0,5.58-4.34,10.92,10.92,0,0,0-1.43-13.55A10.59,10.59,0,0,0,97,140.49a12.24,12.24,0,0,0-4,0,10.64,10.64,0,0,0-3,1,10.48,10.48,0,0,0-4.57,4.32,10.85,10.85,0,0,0-.72,9.1Zm6.84-4.18a6.74,6.74,0,0,1,.24-.88,7.74,7.74,0,0,1,.43-.73,8.07,8.07,0,0,1,.58-.59,3.41,3.41,0,0,1,1.62-.67h.85a7.19,7.19,0,0,1,.88.24,8,8,0,0,1,.74.44,3.84,3.84,0,0,1,.57.57c.16.24.3.49.44.74s.17.58.24.88,0,.57,0,.85-.15.59-.24.88-.28.5-.43.73a8.21,8.21,0,0,1-.59.59,7.74,7.74,0,0,1-.73.43,7.19,7.19,0,0,1-.88.24,6,6,0,0,1-.85,0,3.41,3.41,0,0,1-1.62-.67,6.47,6.47,0,0,1-.58-.59,6.65,6.65,0,0,1-.43-.73,6.74,6.74,0,0,1-.24-.88A6,6,0,0,1,91.55,150.66Z"/><path class="cls-1" d="M143,102.06a10.51,10.51,0,0,0,5.35,3.26,10.65,10.65,0,0,0,6.2-.24,11.49,11.49,0,0,0,5.58-4.35,10.92,10.92,0,0,0-1.42-13.54,10.56,10.56,0,0,0-5.49-2.94,12.24,12.24,0,0,0-4.05,0,10.8,10.8,0,0,0-3,1,10.5,10.5,0,0,0-4.57,4.33,10.64,10.64,0,0,0-1.37,6.1,10.94,10.94,0,0,0,.65,3A12.22,12.22,0,0,0,143,102.06Zm4.76-7.64a3.41,3.41,0,0,1,.67-1.62,8.07,8.07,0,0,1,.59-.58,7.74,7.74,0,0,1,.73-.43,6.74,6.74,0,0,1,.88-.24,6,6,0,0,1,.85,0,6.74,6.74,0,0,1,.88.24,7,7,0,0,1,.75.44l.3.26.26.3a7,7,0,0,1,.44.75,6.74,6.74,0,0,1,.24.88,6,6,0,0,1,0,.85,7.19,7.19,0,0,1-.24.88,7.74,7.74,0,0,1-.43.73,8.21,8.21,0,0,1-.59.59c-.23.15-.48.3-.73.43s-.58.17-.88.24-.57,0-.85,0-.59-.15-.88-.24-.49-.28-.73-.43-.4-.39-.59-.59a7.74,7.74,0,0,1-.43-.73,7.19,7.19,0,0,1-.24-.88C147.78,95,147.78,94.7,147.79,94.42Z"/></g></svg>