<svg xmlns="http://www.w3.org/2000/svg" viewBox="0 0 245.93 245.93"><defs><style>.cls-1{fill:#fff;}</style></defs><g id="Layer_3" data-name="Layer 3"><path class="cls-1" d="M123,16.44A106.52,106.52,0,1,0,229.48,123,106.65,106.65,0,0,0,123,16.44ZM123,221a98,98,0,1,1,98-98A98.14,98.14,0,0,1,123,221Z"/><path class="cls-1" d="M187.79,167.27c-1.58-.93-4.32-.53-5.13,1.34a39.06,39.06,0,0,1-1.79,3.75,25.87,25.87,0,0,1-1.44,2.29l-.54.76-.17.21-.57.68c-.59.67-1.2,1.32-1.85,1.94l-.92.84-.54.46-.37.3a26.75,26.75,0,0,1-4.37,2.67l-.88.41c-.34.14-.67.27-1,.39a26.26,26.26,0,0,1-2.75.81c-.41.1-.82.19-1.24.27-.12,0-.93.13-1,.15a30.64,30.64,0,0,1-3.32.18H85.71c-.59,0-1.18,0-1.77-.05-.42,0-.85-.06-1.27-.1h-.11l-.86-.14a27.68,27.68,0,0,1-5-1.43s-.8-.36-.89-.41c-.38-.18-.74-.37-1.11-.56-.83-.45-1.64-.94-2.42-1.47l-.85-.61c0-.05-.55-.43-.65-.52-.72-.61-1.42-1.25-2.08-1.93s-1.21-1.31-1.77-2l-.13-.18-.26-.35c-.31-.44-.62-.89-.9-1.34-.46-.72-.88-1.45-1.26-2.2-.23-.43-.43-.87-.64-1.31a1.84,1.84,0,0,0-.09-.19l0-.1c-.76-1.87-2.49-3.2-4.61-2.62-1.77.49-3.39,2.73-2.62,4.62a31.34,31.34,0,0,0,30.13,20.4h71.61A37,37,0,0,0,168.84,191a31.88,31.88,0,0,0,18.51-14.84,40.05,40.05,0,0,0,1.79-3.74C189.94,170.54,189.69,168.38,187.79,167.27Z"/><path class="cls-1" d="M76.94,174.25h80.67c3.73,0,7.49.13,11.22,0H169a3.75,3.75,0,0,0,0-7.5h-9.28v-9.7a3.75,3.75,0,0,0-7.5,0v9.7h-14.5v-9.7a3.75,3.75,0,0,0-7.5,0v9.7h-14.5v-9.7a3.75,3.75,0,0,0-7.5,0v9.7H93.71v-9.7a3.75,3.75,0,0,0-7.5,0v9.69c-3,0-6.08-.09-9.11,0h-.16a3.75,3.75,0,0,0,0,7.5Z"/><path class="cls-1" d="M76.94,99h80.67c3.73,0,7.49.12,11.22,0H169a3.75,3.75,0,0,0,0-7.5H137.71V61.2h13a3.75,3.75,0,0,0,0-7.5H95.17a3.75,3.75,0,0,0,0,7.5h13V91.5H88.32c-3.74,0-7.49-.13-11.22,0h-.16a3.75,3.75,0,0,0,0,7.5Zm53.27-8.44v.94h-14.5V61.2h14.5Z"/><path class="cls-1" d="M126,113a3,3,0,0,0-6,0v17.59q-2-1.8-4-3.58a3,3,0,1,0-4.24,4.24l9.13,8.14a3.1,3.1,0,0,0,4.25,0l9.13-8.14a3,3,0,0,0,0-4.24,3.07,3.07,0,0,0-4.24,0l-4,3.58V113Z"/></g></svg>