<svg xmlns="http://www.w3.org/2000/svg" xmlns:xlink="http://www.w3.org/1999/xlink" viewBox="0 0 245.93 245.93"><defs><style>.cls-1{fill:#fff;}.cls-2{fill:url(#linear-gradient);}.cls-3{fill:url(#linear-gradient-2);}.cls-4{fill:url(#linear-gradient-3);}.cls-5{fill:url(#linear-gradient-4);}.cls-6{fill:url(#linear-gradient-5);}</style><linearGradient id="linear-gradient" x1="16.44" y1="122.96" x2="229.48" y2="122.96" gradientUnits="userSpaceOnUse"><stop offset="0" stop-color="#41b6e6"/><stop offset="1" stop-color="#0086d6"/></linearGradient><linearGradient id="linear-gradient-2" x1="73.18" y1="162.87" x2="172.74" y2="162.87" xlink:href="#linear-gradient"/><linearGradient id="linear-gradient-3" x1="73.18" y1="75.45" x2="172.74" y2="75.45" xlink:href="#linear-gradient"/><linearGradient id="linear-gradient-4" x1="110.84" y1="124.13" x2="135.09" y2="124.13" xlink:href="#linear-gradient"/><linearGradient id="linear-gradient-5" x1="56.29" y1="180.44" x2="189.64" y2="180.44" xlink:href="#linear-gradient"/></defs><g id="Layer_3" data-name="Layer 3"><circle class="cls-1" cx="122.96" cy="122.96" r="121.52"/><path class="cls-2" d="M123,16.44A106.52,106.52,0,1,0,229.48,123,106.65,106.65,0,0,0,123,16.44ZM123,221a98,98,0,1,1,98-98A98.14,98.14,0,0,1,123,221Z"/><path class="cls-3" d="M76.94,173.32h80.67c3.73,0,7.49.13,11.22,0H169a3.75,3.75,0,0,0,0-7.5h-9.28v-9.71a3.75,3.75,0,0,0-7.5,0v9.71h-14.5v-9.71a3.75,3.75,0,0,0-7.5,0v9.71h-14.5v-9.71a3.75,3.75,0,0,0-7.5,0v9.71H93.71v-9.71a3.75,3.75,0,0,0-7.5,0v9.7c-3,0-6.08-.09-9.11,0h-.16a3.75,3.75,0,0,0,0,7.5Z"/><path class="cls-4" d="M76.94,98.06h80.67c3.73,0,7.49.13,11.22,0H169a3.75,3.75,0,0,0,0-7.5H137.71V60.27h13a3.75,3.75,0,0,0,0-7.5H95.17a3.75,3.75,0,0,0,0,7.5h13V90.56H88.32c-3.74,0-7.49-.12-11.22,0h-.16a3.75,3.75,0,0,0,0,7.5Zm53.27-8.44v.94h-14.5V60.27h14.5Z"/><path class="cls-5" d="M126,112a3,3,0,0,0-6,0V129.6L116,126a3,3,0,0,0-4.25,4.24l9.14,8.14a3.09,3.09,0,0,0,4.24,0l9.14-8.14A3,3,0,0,0,130,126l-4,3.57V112Z"/><path class="cls-6" d="M187.87,168.2c-1.58-.92-4.33-.53-5.13,1.35a37.77,37.77,0,0,1-1.8,3.74,26,26,0,0,1-1.44,2.3c-.09.14-.43.6-.54.75s-.16.2-.16.21c-.2.23-.38.46-.58.68a24.22,24.22,0,0,1-1.85,1.94c-.3.29-.6.57-.92.84-.17.16-.35.31-.54.46l-.36.3a26.89,26.89,0,0,1-4.38,2.68l-.88.41-1,.38a26.31,26.31,0,0,1-2.75.82l-1.23.26-1,.15c-1.1.12-2.21.18-3.32.19H85.78c-.59,0-1.18,0-1.76,0l-1.28-.11h-.11l-.86-.14a26.56,26.56,0,0,1-5-1.43l-.9-.4c-.37-.18-.74-.37-1.1-.57a26.87,26.87,0,0,1-2.42-1.47c-.29-.2-.58-.4-.86-.61l-.64-.51a27.28,27.28,0,0,1-2.08-1.94c-.63-.64-1.21-1.31-1.78-2l-.13-.18c-.09-.11-.17-.23-.26-.35-.31-.44-.61-.88-.9-1.34-.45-.71-.87-1.45-1.26-2.2-.22-.43-.43-.87-.64-1.31l-.09-.19,0-.09c-.77-1.88-2.5-3.21-4.62-2.62-1.77.48-3.39,2.72-2.62,4.61A32.5,32.5,0,0,0,72.12,190a32.85,32.85,0,0,0,14.49,3.17h71.61a37.38,37.38,0,0,0,10.69-1.24,31.91,31.91,0,0,0,18.51-14.84,39.06,39.06,0,0,0,1.79-3.75C190,171.47,189.76,169.31,187.87,168.2Z"/></g></svg>