<svg id="Layer_1" data-name="Layer 1" xmlns="http://www.w3.org/2000/svg" viewBox="0 0 1000 1000"><defs><style>.cls-1{fill:#fff;}</style></defs><path class="cls-1" d="M386.76,460.05c14.26,9.53,29.66,16.16,46.87,18.43-5.41-3.56-10.9-7-16.22-10.69-30-20.79-51.05-48.56-63.61-82.61-6.09-16.53-10.65-33.62-16.22-50.35-2-6.1-4.93-11.92-7.51-17.83-1.4-3.2-3.19-6.24-4.4-9.5-1.27-3.43-2.6-7.2,1.87-9.58,4.21-2.23,10-.95,12.32,3.2a28.33,28.33,0,0,1,2.63,8.47c6.39,32.12,15.73,63.27,29.26,93.18a83.11,83.11,0,0,0,32.16,36.6c15.73,10,31.86,19.32,48.57,29.39a34.77,34.77,0,0,0-1.59-3.43c-3.72-5.93-7.77-11.66-11.15-17.77-4.73-8.54-12.15-14-20.21-18.79C409,422.51,401,414,394,404c-5-7.08-12-12.72-17.93-19.18-2.4-2.62-5-5.47-6.09-8.69-.61-1.75,1.62-4.5,2.57-6.8,1.93,1.22,4.77,2,5.65,3.73,7.25,14.41,18,26,29.64,36.76,4.56,4.23,10.75,6.71,16.2,10l1.33-1.3c-.2-1.17-.32-2.35-.61-3.5-2.36-9.35-4.71-18.71-7.16-28-.41-1.54-.89-3.59-2-4.3-7.69-4.83-8.33-13.06-10.91-20.36l1-.8,9.29,10.69c1-4.77.56-7.06-1.61-10-3.22-4.35-5.1-9.68-7.56-14.6l1.89-1.27,6.21,7.87c1.85-4.64,2.54-8-.36-11.75-2.6-3.36-3.64-7.92-5.37-12l2.14-1.59q2.17,3.89,4.33,7.77l1.79-1.08c2.74-25.54,8.63-50.19,19.45-73.84l12.22,31.42,1.7-.35c1.7-7.74,3.24-15.51,5.13-23.19,2.16-8.72,4.53-17.4,7-26,1.69-5.92,2.11-6.06,7.44-3.34,17.09,8.72,33.41,18.64,48.37,30.89-7-12-15.38-22.85-26.32-31.73,5.68-1,27.44,4.92,47.15,14.39,14.81,7.12,29.62,14.75,43,24.22s25.06,21.6,37.87,32.89q2-10.12,4.38-22.51c13,11.58,23.92,23.67,31.93,38.26a130,130,0,0,1,15,47.2,14.68,14.68,0,0,0,2.6-1.36c16.9-14.84,34.07-29.38,50.56-44.65a339.26,339.26,0,0,0,47.33-54c10.54-15,14.93-31.37,10.88-49.69-2-8.91.89-15.69,7.27-19,4.77-2.49,7.74-1.65,8.35,3.58a110.71,110.71,0,0,1,.48,22.36c-2.81,31.56-15.69,58.2-39.69,79.27-12.64,11.1-25.84,21.71-37.3,33.94-12.26,13.08-22.69,27.87-34.09,41.77-4.33,5.27-9.25,10-13.7,15.21a13.3,13.3,0,0,0-3.27,5.88c-2.31,13.46-4.32,27-6.41,40.46-.13.79-.17,1.61-.25,2.41l1.33,1c2.23-2.67,5.59-5,6.47-8.08,3.18-11.14,8.72-20.68,16-29.61,3.8-4.66,5.7-10.82,8.87-16.05a18,18,0,0,1,5.82-5.58c.92-.57,3.24.28,4.35,1.19.48.38-.17,2.83-.93,3.89-1.45,2-3.48,3.59-5,5.52-8.3,10.25-16,20.89-19.69,33.8a29,29,0,0,0-.48,4.11c4.11-1.21,7.62-2.93,11.24-3.19,11.25-.83,22.55-1,33.81-1.64s22.81-.3,33.72-2.69c19.15-4.21,30.35-18.24,37.86-35.48.72-1.66-.07-3.93.16-5.88.5-4.24.75-8.58,1.95-12.63a6.18,6.18,0,0,1,8.13-4c2.17.73,5,3.65,5.06,5.67.18,5,0,10.54-1.91,15-11.43,26.23-30.28,44.88-57.28,55.34a403.53,403.53,0,0,0-40,18c-17,8.84-30.4,21.89-40.43,38.4-6,9.89-14,17.75-25.2,21.83a5.33,5.33,0,0,0-3,3.37c-2.57,15.27-4.93,30.57-7.32,45.87,0,.24.28.54.82,1.47,4.18-3.34,8.38-6.49,12.34-9.91a249.74,249.74,0,0,0,63.59-84.35,15.16,15.16,0,0,1,5.78-6.35,181.85,181.85,0,0,1,18.73-9.38C752,463.67,766,458,780.43,452a282.08,282.08,0,0,1-31.63,80.24C713.19,593.59,662,637,596,662.56c-128.29,49.64-261.08,1.65-331.79-80.7a32.23,32.23,0,0,1,5.25-1.37c6.81-.55,13.62-1.16,20.43-1.33,9.66-.24,19.51,1.05,28.95-.43,12.88-2,22.41,2.57,32.81,9.54,45.3,30.35,95.64,44.06,150.08,40.9,14.91-.86,27-9.84,37.44-20.28,7-6.95,11.57-15.28,14.18-26.16-13.52,5.88-26.16,5.33-38.77-.79,13.28-2.65,26-6.4,35.32-17.92-3.74,0-7.49.15-11.22,0-27.67-1.27-54-7.86-78.66-20.58a11.68,11.68,0,0,0-4.21-1.39c-12.78-1.06-25.58-2-38.37-3-11.72-.93-21.56,4.94-31.93,8.83-10.61,4-21.1,8.25-31.7,12.24-13.43,5-27.42,6.58-41.71,6.78-15.3.22-30.73.05-45.86,2-11.42,1.47-22.41,6.14-33.67,9.13-6.4,1.71-13,2-18.89-1.59a21.63,21.63,0,0,1-6.82-6.36c-4.29-6.61-1.48-12.48,6.35-13.16a56.08,56.08,0,0,1,14.93.43c15.65,2.87,31.23,1.82,46.79-.19,15.85-2,31.65-4.55,47.48-6.79A82.49,82.49,0,0,0,353.2,539.3c19.28-11.45,38.65-22.78,58.23-34.3-4.38-6.57-9.46-13.51-13.79-20.89s-8-15.3-11.93-23ZM497.65,428c.62,1.47,1.27,2.93,1.87,4.41,10.91,26.76,29.71,45.34,57,55.21,2.81,1,4.73,1.57,6.23-2.13a189.8,189.8,0,0,0,13.69-58.09c.18-2.47-.26-4.13-2.62-5.73-6-4.07-8.15-10.63-11.26-18.2l13.21,9.65,1.73-1.37c-1.09-2.26-1.61-5.71-3.38-6.57-7.12-3.45-9-10.07-11.37-16.64l11.52,8.62,1.81-1.29c-1.54-3.3-2.25-7.69-4.81-9.67-4.9-3.8-7.2-8.61-8.75-14.31l8.4,6.12a13.19,13.19,0,0,0-.38-3c-5.29-11.09-9.66-22.76-16.13-33.12-20-32-47.11-56.23-81.48-72.18-3.47-1.61-5.08-1.11-6.19,2.51-2.71,8.74-6,17.31-8.35,26.15-5.74,21.76-8.41,43.89-5.05,66.32,3.68,24.62,13.1,47.41,23.45,69.82,2.94,6.35,6.52,12.4,10.46,19.84a20.83,20.83,0,0,1-2.3-1.94c-18.77-25.85-31.85-54.19-37.14-85.86-1.15-6.88-.45-14.27-2.66-20.72-3.72-10.81-9.09-21.05-13.66-31.29a2,2,0,0,0-.39.77c-.26,1.13-.47,2.28-.62,3.44-7.92,60,9.4,112.88,45.6,160.36.8,1.06,2.28,2.25,3.47,2.28,9.23.19,18.46.1,28.66.1C497.64,464.35,492.67,447.15,497.65,428ZM529.51,264c1,2.79,1.45,4.32,2.1,5.77,4.39,9.88,8.71,19.8,13.26,29.61,12.72,27.39,27.36,53.46,46.94,76.84,17,20.28,33.75,41.11,41.1,67.6,7.7-38.11,5.09-75-14.09-109.56C599.17,298.85,567.75,278.14,529.51,264Zm6.31,242.11c.52.89.67,1.44,1,1.7,16.42,11.9,34.34,20.22,54.64,22.95,3.08.41,4.92-.76,5.75-3.41,2.09-6.65,4.66-13.25,5.83-20.07,5.41-31.66-1.58-61.49-14.14-90.4-.27-.63-.49-1.28-.73-1.92l-1.45.67c-7.72,26.31-16.19,52.48-14.4,81C558.76,495.35,546.63,498.08,535.82,506.11Zm118-112.4c5-5,8.89-9.12,7-17.24-4.9-21.49-11.52-42-25.35-59.62-1.51-1.92-2.67-4.11-4-6.17l-2.2,1.61c-.31,6.23-2.61,11.79,1,18.77,7,13.34,12.27,27.59,17.71,41.68C650.58,379.31,651.84,386.38,653.81,393.71Zm9.62,21.05c-4.17,5-6.55,10.23-5.66,16.86.77,5.72.58,11.58.85,17.37.09,1.85.29,3.7.43,5.55h1.69A165.27,165.27,0,0,0,663.43,414.76ZM510.51,550l.42,1.72c5.65-1,11.45-1.54,16.89-3.24,2.46-.76,4.44-3.66,6.13-6,.61-.83.24-3.2-.56-4s-2.9-.62-3.93,0C523.06,542.16,516.81,546.12,510.51,550Zm-14.57-5.09.24,1.44c4.33-.6,8.77-.81,12.94-2,2.34-.65,4.55-2.59,6.21-4.48.8-.91.2-3,.23-4.63-1.51.06-3.31-.39-4.47.27C505.94,538.48,501,541.74,495.94,544.89Zm-16.13-5.73.16,1.25c3.37-.41,6.87-.42,10.09-1.35a18.59,18.59,0,0,0,7-4.1c.81-.72.26-3,.33-4.49-1.36.13-3-.16-4,.46C488.74,533.53,484.3,536.4,479.81,539.16Z"/><path class="cls-1" d="M493.71,82.72c-109.54,15.35-193.19,68.7-241.88,168.71-48.54,99.68-40.25,198.36,17,294.75-10.71.05-20.57.33-30.42-.06-1.65-.06-3.58-2.74-4.74-4.61-31.83-51.35-48.38-107.26-45.48-167.66,5-104.18,50.84-186.13,138.44-243.54,48.77-32,102.92-47.07,161.17-47.58C489.76,82.71,491.74,82.72,493.71,82.72Z"/><path class="cls-1" d="M307.18,805.48c-.55.73-1.1,1.54-1.73,2.27-3.91,4.5-7.84,9-12.07,13.82-12.79-11.63-26.95-18.24-44.37-14.89a39.06,39.06,0,0,0-22.76,13.49c-14.73,17.23-14.67,45.52,0,62.18,9.07,10.29,20.63,14.85,34.26,14.25,13.38-.58,24-7.22,33.28-16l13.91,14.09c-14.9,19.38-42.31,27.06-69.56,20-26.44-6.84-45.33-31.65-46.35-60.28-1.09-30.64,15.69-55.74,43.89-65.65C260.18,780.19,294.22,788.07,307.18,805.48Z"/><path class="cls-1" d="M514,136.13a231.88,231.88,0,0,1,66.78,6.9q81,20.28,133.74,85.05a241.56,241.56,0,0,1,31.8,51.24c1.45,3.12,1.4,5.35-1,8-6.65,7.14-13.05,14.51-19.74,22C688.84,209.23,618.32,152,514,136.13Z"/><path class="cls-1" d="M733.28,422.8c.89-11.82,2.27-22.91,2.39-34,.12-11.78-.84-23.58-1.61-35.36-.2-3.1.35-5.2,2.79-7.37,14-12.45,27.87-25.1,42.35-38.2a69.21,69.21,0,0,1,2,7.79c2.51,17.44,5.9,34.83,6.89,52.36A68.66,68.66,0,0,1,783,396.86c-6.72,16.45-20.17,25.07-38.18,25.91C741,423,737.26,422.8,733.28,422.8Z"/><path class="cls-1" d="M462.06,334c4.8,4.29,10.31,9,15.56,14.07,1.08,1,1.18,3.09,1.73,4.67-2,.34-4.59,1.64-5.73.83a23.69,23.69,0,0,1-7.25-7.67C464.21,341.88,463.19,337.26,462.06,334Z"/><path class="cls-1" d="M464.29,318c4.52,4.33,9.09,8.61,13.51,13,.67.68,1.23,2.47.84,3-.65.86-2.46,1.83-3.18,1.49-2.42-1.15-5.4-2.36-6.67-4.45-2.36-3.87-3.66-8.37-5.4-12.61Z"/><path class="cls-1" d="M465.16,300.54c5.09,4.67,9.14,8.25,13,12,.74.72.68,2.24,1,3.4-1.22.3-2.74,1.21-3.6.78-2-1-4.26-2.27-5.28-4.08C468.27,309.2,467.08,305.28,465.16,300.54Z"/><path class="cls-1" d="M454.33,915c-1-2.57-1.61-4.4-2.38-6.16-15.46-35.31-31.52-70.36-46.08-106l-6.12-15.31H377.08l-4.82,11.3q-20.49,47-41.21,94c-3.12,7.12-6.09,14.3-9.48,22.27H344l2.32-4.86a20.09,20.09,0,0,0,1.2-2.51c.38-1,.75-1.86,1.1-2.72h0c.92-2.23,1.77-4.18,2.6-6.08l6.27-14.65h2.78a9.73,9.73,0,0,1,1.49-.11q8.25.07,16.5.11h10.64l0,0q12.45,0,24.88-.1c.21,0,.4,0,.61,0l3.93.07,5,12.5q2.28,5.49,4.66,10.94h0l.33.7c.39.9.77,1.8,1.17,2.69a11.7,11.7,0,0,0,.91,1.67l1.11,2.31h22.41l-.11,0Zm-88.45-51c7.21-16.79,14.16-33,21.11-49.2l1.32,0L409.66,864Z"/><path class="cls-1" d="M552.75,894.78H498.31v-4.41c-.05-.56-.07-1.17-.07-1.85q0-6.43.07-12.87V864.51h0q0-24.85,0-49.71h0V787H475.79l0,5.09v.26c0,.84,0,1.67,0,2.5l.09,17.82c0,12.72,0,25.44,0,38.17,0,18.1.12,36.21-.08,54.32V915h15.22c1.58,0,3.16.06,4.74.06h2.52v.07h67.48V894.78h-13Z"/><path class="cls-1" d="M673.5,787H647.78l-4.63,7.42c-7.06,11.14-14.24,22.21-21.39,33.3-3.29,5.1-6.6,10.19-10.3,15.9-1.47-2.18-2.42-3.51-3.29-4.89q-13.65-21.63-27.33-43.24h0l-.52-.79-1.8-2.85c-.29-.45-.63-1-1-1.47l-2.2-3.38H549.11l2,3.3c.34.61.65,1.15,1,1.67.2.32.41.64.62,1l0,0h0c11.11,16.92,22.28,33.81,33.34,50.76h0l13.79,21.21V879.8c.1,11.46,0,23,0,34.91h22.64v-6.14c0-10.45-.08-20.9,0-31.35V864.47l6.75-10.29q3-4.66,6.11-9.32l.87-1.33v0q12.35-18.73,24.78-37.43c3.81-5.77,7.55-11.59,11.92-18.29Z"/><path class="cls-1" d="M803.43,910.16c-13.29-18.73-26.54-37.49-40-56.12-.1-.14-.17-.27-.26-.4v0l-2.67-3.59,2.72-4.05v0c.07-.11.13-.21.21-.32,10.71-14.65,21.2-29.45,31.75-44.22,3-4.27,6.32-9,10.15-14.48H780.21l-3,4.06c-4.29,5.5-8,11.43-12,17.18-5.74,8.3-11.52,16.58-17.5,25.18-1-1.14-1.61-1.68-2.06-2.33-7.44-10.84-15.45-21.35-22.11-32.65-5.78-8.81-8-11.44-8-11.44H689.27c2,2.92,3.32,5.13,4.56,6.89,12.39,17.53,24.75,35.09,37.25,52.55.13.19.23.36.35.54l2.16,3.09-1.76,2.8,0,.05-.46.71h0l-.19.29c-13.31,18.31-26.4,36.77-39.55,55.2-1.18,1.66-2.07,3.18-3.62,5.58,9.38,0,17-.07,25.15-.07,8.24-11.37,16.14-23,24.15-34.53,3-4.32,6-8.61,9.48-13.52,1.59,2.17,2.77,3.71,3.88,5.3C759.74,885,768.8,898.2,778,911.28c1.06,1.5,2.45,3.43,2.45,3.43h26.11C805.16,912.55,804.35,911.46,803.43,910.16Z"/></svg>