<svg xmlns="http://www.w3.org/2000/svg" xmlns:xlink="http://www.w3.org/1999/xlink" viewBox="0 0 245.93 245.93"><defs><style>.cls-1{fill:#fff;}.cls-2{fill:url(#linear-gradient);}.cls-3{fill:url(#linear-gradient-2);}.cls-4{fill:url(#linear-gradient-3);}.cls-5{fill:url(#linear-gradient-4);}.cls-6{fill:url(#linear-gradient-5);}.cls-7{fill:url(#linear-gradient-6);}.cls-8{fill:url(#linear-gradient-7);}.cls-9{fill:url(#linear-gradient-8);}.cls-10{fill:url(#linear-gradient-9);}</style><linearGradient id="linear-gradient" x1="113.4" y1="76.97" x2="183.91" y2="76.97" gradientUnits="userSpaceOnUse"><stop offset="0" stop-color="#41b6e6"/><stop offset="1" stop-color="#0086d6"/></linearGradient><linearGradient id="linear-gradient-2" x1="44.87" y1="128.46" x2="93.33" y2="128.46" xlink:href="#linear-gradient"/><linearGradient id="linear-gradient-3" x1="146.4" y1="160.28" x2="181.37" y2="160.28" xlink:href="#linear-gradient"/><linearGradient id="linear-gradient-4" x1="80.86" y1="188.54" x2="112.39" y2="188.54" xlink:href="#linear-gradient"/><linearGradient id="linear-gradient-5" x1="125.53" y1="67.3" x2="152.41" y2="67.3" xlink:href="#linear-gradient"/><linearGradient id="linear-gradient-6" x1="55.83" y1="123.37" x2="72.08" y2="123.37" xlink:href="#linear-gradient"/><linearGradient id="linear-gradient-7" x1="88.48" y1="186.12" x2="99.86" y2="186.12" xlink:href="#linear-gradient"/><linearGradient id="linear-gradient-8" x1="154.36" y1="156.67" x2="166.12" y2="156.67" xlink:href="#linear-gradient"/><linearGradient id="linear-gradient-9" x1="16.44" y1="122.96" x2="229.48" y2="122.96" xlink:href="#linear-gradient"/></defs><g id="Layer_25" data-name="Layer 25"><circle class="cls-1" cx="122.96" cy="122.96" r="122.96"/><path class="cls-2" d="M160.68,43.85a35.42,35.42,0,0,0-39,10.51,36,36,0,0,0-8.13,20,35.1,35.1,0,0,0,4.9,20.74,35.24,35.24,0,0,0,65-12.29,40.6,40.6,0,0,0,.51-5.83A35.72,35.72,0,0,0,160.68,43.85Zm-33.9,16Zm11.05,42.74Zm38.29-29.78c0,.16,0,.33.07.49v0c0,.4.08.8.11,1.2.06.82.09,1.63.1,2.45s0,1.51-.09,2.27c0,.4-.06.8-.1,1.21a.41.41,0,0,0,0,.1c0,.15-.07.54-.08.6A33,33,0,0,1,175,85.76c-.23.68-.48,1.35-.74,2l-.22.49c-.16.35-.33.69-.5,1a31.48,31.48,0,0,1-2.38,3.94c-.18.25-.36.51-.55.76-.07.08-.27.32-.35.43-.52.63-1.07,1.24-1.64,1.82s-1,1-1.53,1.48l-.86.75-.53.43a31,31,0,0,1-3.71,2.41c-.62.35-1.26.67-1.91,1l-.67.29-1,.41a32.36,32.36,0,0,1-4.53,1.26c-.34.07-.67.13-1,.18l-.49.08h0c-.8.09-1.61.16-2.42.19a34.64,34.64,0,0,1-4.88-.19h0l-.49-.08c-.33,0-.67-.11-1-.18-.83-.17-1.65-.36-2.47-.6s-1.38-.42-2.07-.66l-.93-.36-.08,0-.55-.24a33,33,0,0,1-4-2.23c-.59-.39-1.16-.79-1.72-1.21l0,0-.38-.31c-.33-.27-.66-.56-1-.85a32.83,32.83,0,0,1-3.06-3.18l-.46-.56-.55-.75q-.66-.94-1.26-1.92c-.36-.62-.71-1.24-1-1.87l-.51-1-.2-.45-.06-.12s0,0,0-.06a32.51,32.51,0,0,1-1.39-4.29c-.18-.77-.34-1.55-.47-2.33,0-.15-.07-.5-.08-.59,0-.38-.09-.76-.12-1.15a33.26,33.26,0,0,1,0-4.89c0-.4.08-.8.12-1.2v0c0-.1,0-.21,0-.31.14-.84.3-1.68.5-2.5a34.2,34.2,0,0,1,1.39-4.3h0v0c.07-.15.14-.3.2-.45.17-.35.33-.7.51-1,.35-.69.72-1.36,1.11-2s.76-1.21,1.17-1.79c.2-.29.41-.58.62-.86l.48-.59a32.72,32.72,0,0,1,3.06-3.17c.29-.26.57-.51.87-.75l.53-.44c.56-.42,1.14-.83,1.73-1.22a31.69,31.69,0,0,1,4-2.23l.46-.2h0q.47-.2.93-.36c.78-.29,1.58-.55,2.39-.77s1.41-.37,2.13-.52l1.17-.22.48-.07H145a34.63,34.63,0,0,1,4.88-.18c.75,0,1.5.09,2.25.16l.28,0,.25,0c.45.07.9.15,1.34.24A31.11,31.11,0,0,1,158.37,51l1.07.41.49.22c.7.32,1.39.67,2.06,1a31.61,31.61,0,0,1,3.72,2.42l.39.32.87.75c.61.54,1.2,1.11,1.76,1.7s1,1,1.42,1.58l.47.58c.18.24.37.49.54.74a31.48,31.48,0,0,1,2.38,3.94c.17.34.34.69.5,1,.05.1.14.32.2.45q.45,1.09.81,2.22A32.11,32.11,0,0,1,176.12,72.81Z"/><path class="cls-3" d="M93.33,128.49a24.59,24.59,0,0,0-16.28-22.9,24.26,24.26,0,0,0-28.81,35.33A24.57,24.57,0,0,0,74,152.24C85.19,150.07,93.24,139.75,93.33,128.49ZM62.6,144Zm23.17-13.93-.06.69v.07s0,.07,0,.11a26.64,26.64,0,0,1-.72,2.93c-.11.35-.25.7-.38,1.05,0,0-.36.79-.44.95a27.41,27.41,0,0,1-1.6,2.65l-.14.2-.27.32c-.28.34-.57.66-.87,1s-.68.69-1,1l-.49.43-.54.44-.24.17-.68.46c-.36.23-.74.46-1.12.67s-.77.41-1.16.6l-.33.15-.6.23a19.37,19.37,0,0,1-2.89.81c-.17,0-.83.13-.91.16-.5.05-1,.09-1.49.11a24.08,24.08,0,0,1-2.94-.11h0c-.28,0-.56-.09-.83-.15-.5-.1-1-.21-1.47-.35s-1-.29-1.42-.46l-.53-.2-.1,0a24.74,24.74,0,0,1-2.72-1.5l-.54-.37L59,141.9l-.44-.35-.49-.43a19.17,19.17,0,0,1-2-2.1l-.25-.3c-.07-.09-.2-.28-.26-.35-.24-.37-.48-.72-.71-1.09s-.5-.85-.72-1.29c-.1-.19-.2-.39-.29-.58s-.18-.42-.24-.55a24,24,0,0,1-.78-2.45c-.1-.44-.2-.88-.27-1.32,0-.1,0-.33-.07-.45l-.06-.59a22.34,22.34,0,0,1,0-3l.06-.68a.45.45,0,0,1,0-.12.2.2,0,0,1,0-.07c.08-.5.18-1,.29-1.49a21.85,21.85,0,0,1,.83-2.64c0-.08.29-.66.37-.82.24-.49.5-1,.78-1.43s.46-.74.71-1.1l.33-.47.16-.2a23.6,23.6,0,0,1,2.14-2.22c.27-.24.55-.47.83-.7l.72-.5a23.27,23.27,0,0,1,2.71-1.53l.4-.17.38-.14c.41-.15.83-.29,1.26-.41s.86-.24,1.3-.33l.83-.17.32,0a21.07,21.07,0,0,1,3-.11c.46,0,.92,0,1.38.09h.1l.92.16a25.41,25.41,0,0,1,3.2.92l.11,0,.8.38q.73.36,1.44.78c.46.28.91.6,1.36.9l.17.12c.2.16.41.33.6.5A20.72,20.72,0,0,1,82.13,118l.26.31c0,.06.25.36.33.48.31.45.61.91.88,1.38s.53,1,.76,1.45c.07.14.13.28.19.42s.09.22.14.35a22.14,22.14,0,0,1,.9,3.21c0,.22.07.43.11.64s0,.25,0,.39c.06.63.09,1.26.09,1.9S85.81,129.53,85.77,130.05Z"/><path class="cls-4" d="M169.69,143.8a17.5,17.5,0,1,0-2.27,33.63c8.09-1.56,13.85-9,14-17.13A17.78,17.78,0,0,0,169.69,143.8Zm-1.91,27.33a11.57,11.57,0,0,1-12.93-3.66,12,12,0,0,1-2.45-6.12A11.37,11.37,0,0,1,154,154.4a11.51,11.51,0,1,1,13.79,16.73Z"/><path class="cls-5" d="M101.92,173.71a15.8,15.8,0,0,0-17.35,4.66,15.78,15.78,0,1,0,17.35-4.66Zm-1.75,24A9.83,9.83,0,0,1,89,194.76a10.3,10.3,0,0,1-2.15-5.15,9.71,9.71,0,0,1,1.29-6,9.9,9.9,0,0,1,10.23-4.69,9.73,9.73,0,0,1,5.8,3.43,10.11,10.11,0,0,1,2.2,6.2A9.91,9.91,0,0,1,100.17,197.69Z"/><path class="cls-6" d="M148.65,53.87A23.11,23.11,0,0,0,125.53,77a3.75,3.75,0,0,0,7.5,0c0-.63,0-1.26.09-1.88l0-.25s0,0,0-.07c.05-.26.09-.52.15-.77a17.45,17.45,0,0,1,.45-1.76c.1-.33.21-.66.33-1a1.26,1.26,0,0,0,.07-.25,12.5,12.5,0,0,1,1.63-2.93,8.29,8.29,0,0,0,.48-.68l.15-.17a16.35,16.35,0,0,1,1.19-1.31c.41-.41.85-.81,1.3-1.19l.39-.31-.36.27a3.33,3.33,0,0,1,.83-.58,12.15,12.15,0,0,1,2.93-1.63l.24-.07c.33-.12.65-.23,1-.33.58-.18,1.17-.33,1.76-.46l.78-.14h0l.13,0a19.32,19.32,0,0,1,2-.1,3.75,3.75,0,0,0,0-7.5Z"/><path class="cls-7" d="M69.07,115.25a13.23,13.23,0,0,0-13.24,13.24,3,3,0,0,0,6,0,9.79,9.79,0,0,1,.07-1.08,9.18,9.18,0,0,1,.28-1.15c0-.07,0-.22.09-.37l.06-.12.18-.36a9.91,9.91,0,0,1,.79-1.33.21.21,0,0,0,0-.06l.07-.07c.17-.2.35-.39.54-.58s.38-.37.59-.55l.1-.08a13.88,13.88,0,0,1,1.29-.79c.27-.13,1.15-.41.14-.08.26-.09.51-.2.77-.28a11.29,11.29,0,0,1,1.15-.27,9.79,9.79,0,0,1,1.08-.07,3,3,0,0,0,0-6Zm-6.75,10.49a1,1,0,0,1,.09-.2Z"/><path class="cls-8" d="M97.61,180.43a9.13,9.13,0,0,0-9.13,9.13,2.25,2.25,0,0,0,4.5,0c0-.21,0-.42,0-.63a9.3,9.3,0,0,1,.31-1.15,8.32,8.32,0,0,1,.61-1,7.4,7.4,0,0,1,.84-.84,6.84,6.84,0,0,1,1-.61A6.4,6.4,0,0,1,97,185l.64,0a2.27,2.27,0,0,0,2.25-2.25A2.3,2.3,0,0,0,97.61,180.43Z"/><path class="cls-9" d="M163.86,150.79a9.51,9.51,0,0,0-9.5,9.51,2.27,2.27,0,0,0,2.25,2.25,2.29,2.29,0,0,0,2.25-2.25c0-.23,0-.46,0-.69a5,5,0,0,1,1-2.36,7.91,7.91,0,0,1,.91-.92,7,7,0,0,1,1.13-.65,7.32,7.32,0,0,1,1.24-.34c.23,0,.45-.05.68-.05a2.25,2.25,0,0,0,0-4.5Z"/><path class="cls-10" d="M123,16.44A106.52,106.52,0,1,0,229.48,123,106.65,106.65,0,0,0,123,16.44Zm71.88,173.1-9.67-9.67-1.38-1.39a3.75,3.75,0,0,0-5.31,5.3q4.86,4.88,9.73,9.73l1.33,1.33A98,98,0,0,1,51.09,56.39l8.76,8.76L81,86.32l25.6,25.61,22.14,22.13c3.58,3.58,7.07,7.28,10.75,10.76l.15.15a3.75,3.75,0,0,0,5.31-5.31l-8.82-8.81L115,109.68,89.38,84.07,67.24,61.94c-3.58-3.58-7.07-7.28-10.75-10.76l-.1-.09A98,98,0,0,1,194.84,189.54Z"/></g></svg>