<?xml version="1.0" encoding="utf-8"?>
<!-- Generator: Adobe Illustrator 25.4.1, SVG Export Plug-In . SVG Version: 6.00 Build 0)  -->
<svg version="1.1" id="MAZ_logo" xmlns="http://www.w3.org/2000/svg" xmlns:xlink="http://www.w3.org/1999/xlink" x="0px" y="0px"
	 viewBox="0 0 1775 507" style="enable-background:new 0 0 1775 507;" xml:space="preserve">
<polygon points="333.7,360.2 300.6,123.9 229.9,123.9 138.8,447.4 213.4,447.4 264.4,260.8 284,447.4 354.6,447.4 434.4,257.8 
	426.6,447.4 499.4,447.4 512,123.9 442.3,123.9 "/>
<path d="M1068,200.5c-23.5,0-42.5-19-42.5-42.5c0-13.9,6.7-26.3,17.1-34.1H883l-10.9,67.6h130.4L841.6,383.8l-10,63.7h221.1
	l10.9-67.6H928.8l151.6-181.2C1076.5,199.9,1072.3,200.5,1068,200.5z"/>
<path d="M1389.1,147.9c-24.7,9.8-48.7,21.3-71.9,34.1c-23.3,12.9-45.8,27.1-67.3,42.9c-21.5,15.8-42.1,33-60.9,52.3
	c-1.6,1.7-3.2,3.3-4.8,5c4.5,3.5,9.1,7,13.7,10.4c2.1,1.5,4.1,3,6.2,4.5c0.9-0.9,1.7-1.8,2.6-2.7c17.6-18.3,36.8-35.3,57.1-51
	c20.3-15.7,41.6-30.2,63.7-43.5c31.4-18.8,64.2-35.5,98.3-48.5c-5.6-3.7-11.2-7.4-16.9-11C1402.2,142.8,1395.6,145.3,1389.1,147.9z"
	/>
<path d="M1468.4,137.3c24.8-6.7,50.3-11.5,75.8-11.3c12.7,0.1,25.4,1.7,37.1,5.8c11.7,4,22.3,11.1,28.5,21.5
	c6.4,10.3,7.5,23.3,5.5,35.6c-0.2,1.6-0.6,3.1-0.9,4.7c2.1,0.7,4,1.5,5.9,2.5c0.5-2,1-4.1,1.4-6.1c1.2-6.7,1.7-13.6,0.9-20.5
	c-0.8-6.9-2.8-13.8-6.3-20c-3.4-6.2-8.2-11.6-13.8-15.9c-5.5-4.3-11.8-7.6-18.2-10.1c-12.9-5-26.5-7-39.9-7.8
	c-26.9-1.4-53.6,2.4-79.5,8.2c-9.8,2.2-19.6,4.8-29.2,7.7c5.6,3.4,11.1,6.9,16.6,10.5C1457.7,140.4,1463,138.8,1468.4,137.3z"/>
<path d="M1128.8,233.8c-12.8-13.1-24.9-26.8-35.7-41.5c-2.3,1.7-4.7,3.1-7.3,4.3c11,15.5,23.4,29.9,36.4,43.6
	c17,17.9,35.3,34.6,54.4,50.3c2.5-2.8,5-5.5,7.5-8.1C1164.7,267.3,1146.1,251.2,1128.8,233.8z"/>
<path d="M1558.5,234c0-2.4,0.2-4.7,0.6-7c-1-1-2-2.1-3.1-3.1c-22.2-22.3-46.5-42-71.7-60.1c-10.4-7.5-21.1-14.7-31.8-21.6
	c-9,2.8-17.9,6-26.7,9.3c15,10.1,29.7,20.6,43.8,31.9c23.5,18.7,45.7,38.8,66,60.4c10.2,11,20.1,22.4,29.1,34.3
	c3.3-3.6,6.5-7.3,9.6-11C1564.6,259.2,1558.5,247.3,1558.5,234z"/>
<path d="M1405.7,114.1L1405.7,114.1c-27.1-15-55-28.4-83.7-40c-28.7-11.6-58.2-21.2-88.4-28.1c-15.1-3.4-30.4-6.2-45.8-8
	c-15.4-1.8-31-2.6-46.6-1.8c-15.6,0.8-31.3,3.1-46.3,8.8c-7.4,2.9-14.6,6.6-21.1,11.6c-6.5,4.9-12.1,11.1-16.1,18.3
	c-4.1,7.1-6.5,15.1-7.5,23.1c-0.9,7.1-0.6,14.3,0.3,21.2c2.4-1.1,5-2,7.6-2.6c-0.7-5.9-0.9-11.8-0.1-17.7c0.9-7.1,3.1-14,6.7-20.1
	c7.1-12.3,19.6-20.8,33.3-25.6c13.8-4.9,28.7-6.7,43.6-7.1c29.9-0.4,59.8,5.1,88.8,13c29.1,8,57.4,18.6,84.9,30.9
	c27.5,12.3,54.3,26.4,80.1,41.9c4.6,2.8,9.1,5.6,13.6,8.4c8.9-3.2,17.9-6.1,26.9-8.8C1425.9,125.6,1415.8,119.7,1405.7,114.1z"/>
<path d="M1184.1,282.3c-2.5,2.7-5,5.4-7.5,8.1c4.7,3.9,9.5,7.7,14.3,11.4c1.7,1.3,3.5,2.7,5.2,4c2.6-2.9,5.2-5.9,7.9-8.7
	c-2.1-1.5-4.2-3-6.2-4.5C1193.2,289.3,1188.7,285.9,1184.1,282.3z"/>
<path d="M1574.2,267c-3.1,3.7-6.3,7.4-9.6,11c1,1.3,1.9,2.6,2.9,3.9c3.6-4,7.1-8,10.6-12.1C1576.7,268.9,1575.5,268,1574.2,267z"/>
<path d="M1435.8,131.6c-9.1,2.7-18,5.7-26.9,8.8c5.7,3.6,11.3,7.2,16.9,11c8.8-3.4,17.7-6.5,26.7-9.3
	C1446.9,138.5,1441.4,135,1435.8,131.6z"/>
<path d="M1565.2,233.3c6.5,6.9,12.7,14,18.7,21.4c1.8-2.4,3.6-4.9,5.3-7.4c1.3,1,2.7,1.9,4.2,2.7c-2.1,2.9-4.2,5.8-6.4,8.6
	c0.2,0.2,0.3,0.4,0.5,0.6c2.6,3.3,5.1,6.6,7.5,10c1.9,0.3,3.9,0.5,6,0.5c19.8,0,35.9-16.1,35.9-35.9c0-19.8-16.1-35.9-35.9-35.9
	C1581.4,198.1,1565.5,213.8,1565.2,233.3z"/>
<path d="M1593.4,250c-1.5-0.8-2.9-1.7-4.2-2.7c-1.7,2.5-3.5,5-5.3,7.4c1,1.3,2.1,2.6,3.1,3.9C1589.1,255.8,1591.3,252.9,1593.4,250z
	"/>
<path d="M1587,258.7c-1.5,2-3.1,4-4.6,5.9c3.8,2.3,8.1,4,12.7,4.8c-2.5-3.4-5-6.8-7.5-10C1587.3,259.1,1587.1,258.9,1587,258.7z"/>
<path d="M1583.8,254.8c-6-7.4-12.2-14.5-18.7-21.4c0,0.2,0,0.4,0,0.7c0,11.2,5.2,21.3,13.3,27.8c1.1-1.4,2.2-2.8,3.3-4.3
	C1582.5,256.6,1583.2,255.7,1583.8,254.8z"/>
<path d="M1583.8,254.8c-0.7,0.9-1.4,1.9-2.1,2.8c-1.1,1.4-2.2,2.9-3.3,4.3c1.2,1,2.5,1.9,3.9,2.7c1.6-2,3.1-3.9,4.6-5.9
	C1585.9,257.4,1584.9,256.1,1583.8,254.8z"/>
<path d="M1103.8,156.3c0-0.2,0-0.4,0-0.5c0-0.4-0.1-0.8-0.1-1.1c0-0.2,0-0.4-0.1-0.6c0-0.4-0.1-0.7-0.1-1.1c0-0.2,0-0.4-0.1-0.6
	c-0.1-0.5-0.2-1-0.3-1.5c0-0.2-0.1-0.4-0.1-0.7c-0.1-0.3-0.1-0.6-0.2-0.9c-0.1-0.3-0.1-0.5-0.2-0.8c-0.1-0.2-0.1-0.5-0.2-0.7
	c-0.1-0.3-0.2-0.6-0.3-0.9c-0.1-0.2-0.1-0.3-0.2-0.5c-0.4-1.1-0.8-2.2-1.3-3.3c0-0.1-0.1-0.2-0.1-0.2c-0.2-0.4-0.3-0.7-0.5-1.1
	c0,0,0-0.1-0.1-0.1c-2.1-4.1-5-7.8-8.4-10.8c0,0,0,0,0,0c-2.1-1.9-4.5-3.5-7-4.8c0,0,0,0,0,0c-2.1-1.1-4.3-1.9-6.5-2.6
	c-0.1,0-0.1,0-0.2-0.1c-0.4-0.1-0.8-0.2-1.2-0.3c0,0-0.1,0-0.1,0c-0.8-0.2-1.5-0.3-2.3-0.5c-0.1,0-0.3,0-0.4-0.1
	c-0.3,0-0.6-0.1-0.8-0.1c-0.3,0-0.6-0.1-0.8-0.1c-0.2,0-0.5-0.1-0.7-0.1c-0.3,0-0.7-0.1-1-0.1c-0.2,0-0.4,0-0.6,0
	c-0.6,0-1.1,0-1.7,0c-0.7,0-1.3,0-2,0.1c-0.2,0-0.3,0-0.5,0c-0.6,0-1.3,0.1-1.9,0.2c-0.1,0-0.3,0-0.4,0.1c-0.5,0.1-1,0.1-1.5,0.2
	c-0.2,0-0.4,0.1-0.6,0.1c-0.5,0.1-1.1,0.2-1.6,0.4c-0.1,0-0.2,0-0.3,0.1c-0.2,0-0.4,0.1-0.6,0.2c-0.3,0.1-0.5,0.2-0.8,0.2
	c-0.3,0.1-0.6,0.2-0.8,0.3c0,0-0.1,0-0.1,0c-0.5,0.2-0.9,0.3-1.4,0.5c-0.2,0.1-0.3,0.1-0.5,0.2c-0.4,0.2-0.8,0.3-1.2,0.5
	c-0.2,0.1-0.3,0.1-0.5,0.2c-0.5,0.2-1.1,0.5-1.6,0.8c-0.7,0.3-1.3,0.7-2,1.1c-0.1,0-0.1,0.1-0.2,0.1c-0.6,0.4-1.2,0.8-1.9,1.2
	c-0.1,0.1-0.2,0.1-0.2,0.2c-0.6,0.4-1.2,0.9-1.8,1.3c0,0-0.1,0.1-0.1,0.1c-1.2,1-2.3,2-3.4,3.1c-0.1,0.1-0.1,0.1-0.2,0.2
	c-0.5,0.5-1,1.1-1.5,1.6c-0.1,0.1-0.1,0.1-0.2,0.2c-0.5,0.6-0.9,1.1-1.4,1.7c0,0.1-0.1,0.1-0.1,0.2c-0.9,1.2-1.7,2.5-2.4,3.9
	c0,0.1-0.1,0.2-0.1,0.2c-0.3,0.6-0.7,1.3-1,2c0,0.1-0.1,0.2-0.1,0.3c-0.3,0.7-0.6,1.3-0.8,2c0,0.1-0.1,0.2-0.1,0.3
	c-0.5,1.4-0.9,2.9-1.3,4.4c0,0.1,0,0.2-0.1,0.3c-0.2,0.7-0.3,1.4-0.4,2.2c0,0.1,0,0.3-0.1,0.4c-0.1,0.7-0.2,1.5-0.2,2.2
	c0,0.1,0,0.2,0,0.3c-0.1,0.8-0.1,1.6-0.1,2.4c0,19.8,16.1,35.9,35.9,35.9c0.6,0,1.1,0,1.7,0c0.2,0,0.4,0,0.5,0
	c0.4,0,0.8-0.1,1.2-0.1c0.2,0,0.4,0,0.6-0.1c0.4,0,0.7-0.1,1.1-0.1c0.2,0,0.4-0.1,0.6-0.1c0.4-0.1,0.9-0.1,1.3-0.2
	c0.1,0,0.2,0,0.3-0.1c0.5-0.1,1.1-0.2,1.6-0.4c0.1,0,0.3-0.1,0.4-0.1c0.4-0.1,0.8-0.2,1.1-0.3c0.2-0.1,0.4-0.1,0.6-0.2
	c0.3-0.1,0.7-0.2,1-0.3c0.2-0.1,0.4-0.1,0.6-0.2c0.4-0.1,0.7-0.3,1.1-0.4c0.1-0.1,0.3-0.1,0.4-0.2c0.5-0.2,1-0.4,1.4-0.7
	c0.1,0,0.2-0.1,0.3-0.2c0.4-0.2,0.8-0.4,1.1-0.6c0.2-0.1,0.3-0.2,0.5-0.3c0.3-0.2,0.6-0.3,0.9-0.5c0.2-0.1,0.3-0.2,0.5-0.3
	c0.3-0.2,0.6-0.4,0.9-0.6c0.2-0.1,0.3-0.2,0.5-0.3c0.4-0.3,0.8-0.5,1.1-0.8c0,0,0.1-0.1,0.1-0.1c0,0,0,0,0,0c0,0,0,0,0,0
	c0.5-0.4,1-0.8,1.5-1.2c0.1-0.1,0.3-0.3,0.4-0.4c0.3-0.3,0.7-0.6,1-0.9c0.2-0.2,0.3-0.3,0.5-0.5c0.3-0.3,0.6-0.6,0.9-0.9
	c0.2-0.2,0.3-0.3,0.5-0.5c0.3-0.3,0.6-0.6,0.9-1c0.1-0.2,0.3-0.3,0.4-0.5c0.3-0.4,0.7-0.8,1-1.3c0.1-0.1,0.1-0.1,0.2-0.2
	c0.4-0.5,0.8-1,1.1-1.6c0.1-0.1,0.2-0.3,0.3-0.4c0.3-0.4,0.5-0.8,0.7-1.2l0.9-1.7c0.1-0.2,0.2-0.4,0.3-0.6c0.2-0.4,0.4-0.8,0.5-1.1
	c0.1-0.2,0.2-0.4,0.3-0.6c0.2-0.4,0.4-0.9,0.5-1.3c0.1-0.2,0.1-0.3,0.2-0.5c0.2-0.6,0.4-1.2,0.6-1.8c0-0.1,0.1-0.2,0.1-0.4
	c0.1-0.5,0.3-1,0.4-1.5c0.1-0.2,0.1-0.4,0.2-0.7c0.1-0.4,0.2-0.8,0.3-1.3c0-0.2,0.1-0.5,0.1-0.7c0.1-0.4,0.1-0.8,0.2-1.3
	c0-0.2,0.1-0.5,0.1-0.7c0.1-0.5,0.1-0.9,0.1-1.4c0-0.2,0-0.4,0-0.6c0-0.7,0.1-1.4,0.1-2C1103.9,157.4,1103.8,156.9,1103.8,156.3z"/>
<path d="M1176.6,290.5c-5,5.6-9.9,11.3-14.5,17.3c-8.4,10.7-16.1,22.2-22.7,34.5c-6.5,12.4-12,25.7-14.6,40.6
	c-1.2,7.4-1.6,15.2-0.5,23.2c0.5,4,1.4,7.9,2.7,11.8c0.6,2,1.4,3.9,2.3,5.7c0.4,1,0.9,1.8,1.4,2.8l0.8,1.4l0.6,1.1l0.9,1.5l0.8,1.3
	c0.6,0.9,1.1,1.7,1.8,2.5c1.2,1.6,2.5,3.2,3.9,4.8c2.8,3,5.8,5.7,9,8c6.4,4.7,13.4,8.1,20.4,10.6c14.1,4.9,28.3,6.5,42.1,6.7
	c27.8,0.2,54.4-4.9,80.1-12c22.8-6.4,45-14.6,66.5-23.9c-2.9-3.6-5.2-7.7-6.7-12.2c-21,7.9-42.4,14.4-64,19.2
	c-25,5.5-50.5,8.8-75.2,7.5c-12.3-0.8-24.3-2.8-34.9-6.9c-5.2-2.1-10.1-4.7-14.1-7.9c-2-1.6-3.8-3.3-5.4-5.2
	c-0.8-0.9-1.6-1.9-2.3-2.9c-0.4-0.5-0.7-1-1-1.5l-0.8-1.4l-0.6-1.1l-0.4-0.7c-0.2-0.4-0.5-1.1-0.7-1.6c-0.5-1.1-0.9-2.3-1.3-3.4
	c-0.7-2.3-1.2-4.8-1.5-7.3c-0.6-5.1-0.3-10.4,0.8-15.9c1.9-11,6.4-22.2,12.1-32.9c9.3-17,21.2-33.2,34.5-48.3
	c-1.7-1.3-3.5-2.7-5.2-4C1186.1,298.2,1181.3,294.3,1176.6,290.5z"/>
<path d="M1556.2,287c-18.3,18.5-38.3,35.3-59.4,50.5c-21.1,15.2-43.1,29.1-65.9,41.7c-1,0.6-2.1,1.1-3.1,1.7c1.7,3,3.1,6.2,4.1,9.6
	c1.4-0.8,2.7-1.6,4.1-2.4l0,0c45.1-27.2,87.2-59.6,123.7-97.6c2.7-2.8,5.3-5.6,7.9-8.4c-1-1.3-1.9-2.6-2.9-3.9
	C1561.8,281,1559,284,1556.2,287z"/>
<path d="M1613.9,299.7c-4.3-8-9-15.8-14-23.2c-8.1-0.2-15.6-2.6-21.9-6.7c-3.4,4.1-7,8.1-10.6,12.1c7.6,10.2,14.4,20.8,20.3,31.7
	c6.7,12.5,12.1,25.5,14.4,38.4c1.2,6.4,1.5,12.7,0.9,18.6c-0.3,3-0.9,5.8-1.8,8.6c-0.4,1.4-0.9,2.7-1.5,4c-0.3,0.7-0.6,1.3-0.9,1.9
	l-0.9,1.7l-0.7,1.2l-0.5,0.8c-0.3,0.5-0.7,1.2-1.1,1.7c-0.8,1.2-1.7,2.3-2.7,3.4c-1.9,2.2-4.1,4.2-6.4,6c-4.7,3.7-10.4,6.8-16.5,9.2
	c-12.3,4.8-26.4,7-40.7,7.8c-28.7,1.3-58.5-2.7-87.5-9.3c-2.9-0.7-5.7-1.4-8.6-2.1c-0.6,7.6-3.2,14.6-7.2,20.5c3.5,1,7,2,10.5,3
	c15.1,4.1,30.4,7.5,46,9.9c15.6,2.4,31.5,3.8,47.7,3.5c16.2-0.4,32.7-2.3,49.1-8.1c8.2-2.9,16.3-6.9,23.7-12.4
	c3.7-2.7,7.2-5.9,10.5-9.4c1.6-1.7,3.1-3.6,4.6-5.5c0.7-1,1.4-1.9,2.1-3l1-1.6l0.7-1.2l1-1.8l0.9-1.6c0.6-1.1,1.1-2.1,1.6-3.2
	c1-2.2,1.9-4.4,2.6-6.7c1.5-4.5,2.5-9.2,3.1-13.8c1.2-9.2,0.8-18.3-0.6-27C1627.8,329.8,1621.5,314.1,1613.9,299.7z"/>
<path d="M1267,354.2c26.4,15.9,53.6,30.3,81.8,42.9c0.7-6.3,2.9-12.2,6.1-17.4c-27.5-11.1-54.3-24.1-80.3-38.4
	c-24.3-13.4-47.8-28.1-70.4-44.1c-2.7,2.9-5.3,5.8-7.9,8.7C1218.8,323.3,1242.5,339.4,1267,354.2z"/>
<ellipse transform="matrix(0.9657 -0.2597 0.2597 0.9657 -56.674 375.0782)" cx="1391" cy="402" rx="35.9" ry="35.9"/>
<g>
	<path d="M763.6,123.9h-94.2l-150,323.5h77.2l25.7-58.9h103.3l7,58.9h78L763.6,123.9z M650.7,321l54.9-132.5L718.7,321H650.7z"/>
</g>
<g>
	<path d="M1073.4,431.9c0-2.8,0.6-5.4,1.9-7.8c1.3-2.4,3.1-4.3,5.4-5.6c2.3-1.4,4.8-2.1,7.4-2.1s5.1,0.7,7.4,2.1
		c2.3,1.4,4.1,3.3,5.4,5.6c1.3,2.4,1.9,5,1.9,7.8c0,2.8-0.7,5.4-2,7.8s-3.1,4.3-5.4,5.6c-2.3,1.4-4.7,2-7.4,2
		c-2.7,0-5.1-0.7-7.4-2.1s-4.1-3.3-5.4-5.7S1073.4,434.7,1073.4,431.9z M1100.3,431.9c0-2.3-0.5-4.4-1.6-6.4c-1-2-2.5-3.5-4.4-4.7
		c-1.9-1.2-4-1.8-6.2-1.8c-2.2,0-4.2,0.6-6.1,1.7c-1.9,1.1-3.4,2.7-4.4,4.7c-1.1,2-1.6,4.2-1.6,6.5c0,2.3,0.5,4.5,1.6,6.5
		c1.1,2,2.5,3.6,4.4,4.7c1.9,1.2,3.9,1.7,6.1,1.7s4.3-0.6,6.2-1.8c1.9-1.2,3.4-2.8,4.4-4.7C1099.8,436.4,1100.3,434.2,1100.3,431.9z
		 M1085.2,433.5v7h-3.1v-17.6h5.8c2.1,0,3.7,0.5,4.9,1.4c1.2,0.9,1.8,2.3,1.8,4c0,1.5-0.8,2.7-2.3,3.6c0.8,0.4,1.4,1,1.8,1.8
		c0.3,0.8,0.5,1.7,0.5,2.8s0,1.9,0.1,2.4c0,0.5,0.1,0.9,0.3,1.2v0.3h-3.2c-0.2-0.5-0.3-1.8-0.3-4c0-1-0.2-1.8-0.7-2.3
		c-0.5-0.5-1.2-0.7-2.3-0.7H1085.2z M1085.2,430.7h2.8c1,0,1.9-0.2,2.5-0.7c0.7-0.4,1-1,1-1.7c0-1-0.2-1.7-0.7-2.1
		c-0.5-0.4-1.4-0.6-2.7-0.6h-2.9V430.7z"/>
</g>
</svg>
