<svg xmlns="http://www.w3.org/2000/svg" xmlns:xlink="http://www.w3.org/1999/xlink" viewBox="0 0 245.93 245.93"><defs><style>.cls-1{fill:#fff;}.cls-2{fill:url(#linear-gradient);}.cls-3{fill:url(#linear-gradient-2);}.cls-4{fill:url(#linear-gradient-3);}.cls-5{fill:url(#linear-gradient-4);}.cls-6{fill:url(#linear-gradient-5);}.cls-7{fill:url(#linear-gradient-6);}.cls-8{fill:url(#linear-gradient-7);}.cls-9{fill:url(#linear-gradient-8);}.cls-10{fill:url(#linear-gradient-9);}.cls-11{fill:url(#linear-gradient-10);}.cls-12{fill:url(#linear-gradient-11);}</style><linearGradient id="linear-gradient" x1="17.41" y1="122.96" x2="228.52" y2="122.96" gradientUnits="userSpaceOnUse"><stop offset="0" stop-color="#41b6e6"/><stop offset="1" stop-color="#0086d6"/></linearGradient><linearGradient id="linear-gradient-2" x1="40.4" y1="128.76" x2="116.01" y2="128.76" xlink:href="#linear-gradient"/><linearGradient id="linear-gradient-3" x1="95.19" y1="67.58" x2="150.74" y2="67.58" xlink:href="#linear-gradient"/><linearGradient id="linear-gradient-4" x1="132.88" y1="69.79" x2="132.91" y2="69.79" xlink:href="#linear-gradient"/><linearGradient id="linear-gradient-5" x1="72.11" y1="130.4" x2="100.7" y2="130.4" xlink:href="#linear-gradient"/><linearGradient id="linear-gradient-6" x1="129.93" y1="128.8" x2="205.53" y2="128.8" xlink:href="#linear-gradient"/><linearGradient id="linear-gradient-7" x1="145.24" y1="130.4" x2="173.82" y2="130.4" xlink:href="#linear-gradient"/><linearGradient id="linear-gradient-8" x1="115.08" y1="171.71" x2="130.85" y2="171.71" xlink:href="#linear-gradient"/><linearGradient id="linear-gradient-9" x1="115.08" y1="200.8" x2="130.85" y2="200.8" xlink:href="#linear-gradient"/><linearGradient id="linear-gradient-10" x1="87.29" y1="186.48" x2="103.07" y2="186.48" xlink:href="#linear-gradient"/><linearGradient id="linear-gradient-11" x1="142.86" y1="186.48" x2="158.63" y2="186.48" xlink:href="#linear-gradient"/></defs><g id="Layer_25" data-name="Layer 25"><circle class="cls-1" cx="122.96" cy="122.96" r="122.96"/><path class="cls-2" d="M123,17.41A105.56,105.56,0,1,0,228.52,123,105.67,105.67,0,0,0,123,17.41ZM123,220A97.06,97.06,0,1,1,220,123,97.17,97.17,0,0,1,123,220Z"/><path class="cls-3" d="M116,128.78a37.79,37.79,0,0,0-66.73-24.31A38.4,38.4,0,0,0,40.52,126a37.59,37.59,0,0,0,5.33,22.34A37.79,37.79,0,0,0,115.48,135,44.18,44.18,0,0,0,116,128.78ZM66.4,156.72Zm42-25.32c0,.4-.08.8-.12,1.2,0,.05,0,.16,0,.25s0,.3-.07.45a32.94,32.94,0,0,1-1.18,4.92c-.26.79-.54,1.57-.85,2.34l-.22.49c-.18.4-.37.79-.57,1.19a33.49,33.49,0,0,1-2.54,4.22c-.21.3-.43.6-.65.89l-.46.56c-.52.63-1.06,1.24-1.63,1.82s-1.16,1.16-1.76,1.71l-.87.75-.65.53a32.77,32.77,0,0,1-4,2.6c-.72.4-1.45.77-2.2,1.12l-.68.3c-.34.14-.69.28-1,.4a33.71,33.71,0,0,1-5,1.41c-.38.08-.78.15-1.17.21l-.49.08h0c-.92.1-1.84.18-2.77.21a35.07,35.07,0,0,1-5.22-.21h0l-.49-.08-1.17-.21c-.89-.18-1.76-.39-2.63-.63s-1.49-.45-2.23-.72l-1.09-.41-.07,0-.7-.32a32.53,32.53,0,0,1-4.32-2.4c-.63-.41-1.25-.85-1.85-1.3l0,0-.38-.31q-.57-.47-1.11-1a34.31,34.31,0,0,1-3.4-3.53l-.46-.56c-.22-.3-.44-.59-.65-.89-.47-.67-.92-1.36-1.34-2.06s-.82-1.43-1.2-2.16c-.17-.35-.34-.69-.5-1l-.21-.46,0-.11a.42.42,0,0,1,0-.06,34.45,34.45,0,0,1-1.54-4.77c-.2-.83-.37-1.66-.5-2.5,0-.16,0-.32-.08-.48v0c0-.46-.1-.91-.13-1.37a32.74,32.74,0,0,1,0-5.24c0-.41.07-.81.11-1.21a.86.86,0,0,0,0-.15l.09-.55c.13-.84.3-1.67.5-2.5A36.32,36.32,0,0,1,50.26,117h0v0l.2-.45c.18-.41.38-.8.57-1.2q.57-1.09,1.2-2.16c.42-.7.87-1.39,1.34-2.06.22-.3.43-.6.66-.9l0,0,.52-.63A33.35,33.35,0,0,1,58.21,106c.28-.26.57-.51.86-.75l.53-.43c.65-.49,1.32-1,2-1.41A33.7,33.7,0,0,1,65.94,101l.45-.2h0c.36-.14.72-.29,1.09-.42.83-.31,1.68-.58,2.54-.82s1.53-.4,2.3-.56q.59-.12,1.17-.21l.68-.11h0l.17,0a35.13,35.13,0,0,1,5.23-.18c.81,0,1.61.11,2.42.18l.26,0,.27,0c.51.08,1,.17,1.51.27a34,34,0,0,1,4.85,1.38l1.08.42h0l.46.2c.8.37,1.58.77,2.35,1.19a32.77,32.77,0,0,1,4,2.6l.53.43q.43.36.87.75c.65.57,1.27,1.18,1.88,1.81s1,1.11,1.53,1.7l.56.69c.22.29.44.58.65.88a34.22,34.22,0,0,1,2.54,4.22c.17.35.34.7.5,1l.28.62c.31.77.6,1.55.86,2.35a33.24,33.24,0,0,1,1.18,4.92c0,.16,0,.33.08.49v0q.08.6.12,1.2c.08.93.11,1.86.12,2.8S108.47,130.52,108.41,131.4Z"/><path class="cls-4" d="M106.44,82.18A15.64,15.64,0,0,0,104,84.72c-1.24,1.69.16,3.81,1.79,4.41a24.38,24.38,0,0,0,14.14.71v2.74c0,3.86,6,3.87,6,0V89.84a24.42,24.42,0,0,0,14.15-.71c1.61-.59,3-2.74,1.79-4.41a16.15,16.15,0,0,0-2.43-2.53,23.31,23.31,0,0,0,10.86-8.72,3,3,0,0,0-1.08-4.1,11.2,11.2,0,0,0-3.82-1.28,24.12,24.12,0,0,0-4.31-.31,35.93,35.93,0,0,0,3.74-13.88,3,3,0,0,0-3.8-2.89,20.77,20.77,0,0,0-5.56,2.71,33.44,33.44,0,0,0-5.1,4.14c0-.06,0-.11,0-.17a39.92,39.92,0,0,0-4.84-16.57A2.7,2.7,0,0,0,123,39.69a2.72,2.72,0,0,0-2.6,1.43,40.06,40.06,0,0,0-4.83,16.57,1,1,0,0,0,0,.17,33,33,0,0,0-5.11-4.14A20.57,20.57,0,0,0,104.87,51a3,3,0,0,0-3.8,2.89,35.91,35.91,0,0,0,3.73,13.88,24,24,0,0,0-4.3.31,11.2,11.2,0,0,0-3.82,1.28,3,3,0,0,0-1.08,4.1A23.23,23.23,0,0,0,106.44,82.18Zm2.5,5.93c-.22.3-.15.18,0,0Zm-4.07-14.37a26.18,26.18,0,0,1,4.91.62A3.1,3.1,0,0,0,113.17,73a3.14,3.14,0,0,0-.47-3.63c.24.31.56.75.17.21-.23-.33-.46-.65-.67-1a34.25,34.25,0,0,1-2-3.52,28,28,0,0,1-1.89-4.72c-.11-.35-.2-.71-.3-1.06a21.88,21.88,0,0,1,3.14,2.61,32.53,32.53,0,0,1,4.71,5.7A3.09,3.09,0,0,0,119.21,69a3,3,0,0,0,2.21-2.89,43.84,43.84,0,0,1,.07-7.77c.1-1.28.19-2.05.36-3.1.21-1.29.47-2.57.8-3.83.1-.38.21-.73.31-1.09.11.36.22.71.32,1.09.32,1.26.59,2.54.8,3.83.17,1.07.26,1.81.36,3.1a45.83,45.83,0,0,1,.07,7.77,3,3,0,0,0,2.2,2.89,3.08,3.08,0,0,0,3.39-1.38A33.6,33.6,0,0,1,134.68,62c.72-.69,1.48-1.36,2.26-2L137,60l.15-.11.47-.34.31-.21c-.08.28-.15.57-.24.86a26.77,26.77,0,0,1-2,4.9,33.64,33.64,0,0,1-2,3.44c-.22.35-.46.68-.69,1l-.18.25c.05-.07.17-.24.32-.42a3,3,0,0,0,2.92,5,25.28,25.28,0,0,1,4.91-.62l1.06,0-.55.42A23.19,23.19,0,0,1,139,75.74l-1.15.56-.3.13-.49.19a25,25,0,0,1-5.63,1.55c-2.58.36-2.86,4.38-.72,5.49.56.28,1.1.58,1.64.89a16.11,16.11,0,0,1-3.93-.36c-1.09-.23-2.18-.8-3.26-1l-.34-.16-.33-.17a2.94,2.94,0,0,0-1.12-.36,2.89,2.89,0,0,0-1.91.36l-.29.15c-.16.08-.42.19-.55.24a25.17,25.17,0,0,1-3.1.93,15.72,15.72,0,0,1-3.9.36c.53-.31,1.07-.61,1.61-.89,2.11-1.12,1.89-5.12-.71-5.49a25.24,25.24,0,0,1-5.64-1.55l-.49-.19,0,0-.11,0c-.43-.21-.86-.4-1.28-.62a22.37,22.37,0,0,1-2.45-1.47c-.22-.15-.45-.32-.67-.5C104.17,73.76,104.52,73.74,104.87,73.74Z"/><path class="cls-5" d="M132.91,69.77Z"/><path class="cls-6" d="M92.66,111.56a23,23,0,0,0-14.45-5.28c-3.87,0-3.87,6,0,6a16.56,16.56,0,0,1,9.65,3.11,16.89,16.89,0,0,1,5.78,7.52,16.62,16.62,0,0,1-5,18.63,18.55,18.55,0,0,1-4.6,2.67,17.64,17.64,0,0,1-2.78.78,2.29,2.29,0,0,0,.2-1,2.2,2.2,0,0,0-.26-1.16,2.34,2.34,0,0,0-.62-1,3,3,0,0,0-2.12-.87l-.8.1a3.09,3.09,0,0,0-1.32.77l-3,3.64L73,146a2.11,2.11,0,0,0-.48.67,2.73,2.73,0,0,0-.4,1.45,2.1,2.1,0,0,0,.1.71s0,.06,0,.09a3,3,0,0,0,.35.77,2.23,2.23,0,0,0,.42.55l3.64,2.95.52.43a2.34,2.34,0,0,0,1,.62,3.1,3.1,0,0,0,3.28-.62,3.1,3.1,0,0,0,.88-2.13l-.09-.65a22.82,22.82,0,0,0,17.18-14.48A22.56,22.56,0,0,0,92.66,111.56Z"/><path class="cls-7" d="M200.08,109.23a37.79,37.79,0,0,0-69.63,13.36,42.84,42.84,0,0,0-.52,6.19,37.79,37.79,0,0,0,75.48,2.79A37.59,37.59,0,0,0,200.08,109.23Zm-20.54-8.4Zm18.39,30.57c0,.4-.08.8-.12,1.2v.16l-.09.54c-.13.84-.3,1.67-.5,2.5a34.88,34.88,0,0,1-1.54,4.77v0c-.06.15-.13.31-.2.46-.18.4-.37.79-.57,1.19q-.55,1.09-1.2,2.16c-.42.7-.87,1.39-1.34,2.06l-.65.9,0,0c-.18.21-.34.43-.52.63a34.34,34.34,0,0,1-3.41,3.52l-.87.74-.52.43c-.66.49-1.33,1-2,1.41a33,33,0,0,1-4.32,2.38l-.46.2h0q-.54.22-1.08.42c-.84.31-1.69.58-2.55.82s-1.53.4-2.3.56l-1.17.22-.67.1h-.2a36.54,36.54,0,0,1-5.23.19c-.81,0-1.61-.11-2.42-.19l-.26,0-.27,0c-.51-.08-1-.17-1.51-.27a33.45,33.45,0,0,1-4.84-1.38c-.37-.13-.73-.27-1.09-.42h0l-.45-.2c-.8-.37-1.59-.76-2.36-1.19a33.57,33.57,0,0,1-4-2.6l-.53-.43-.86-.74c-.65-.58-1.28-1.19-1.89-1.82s-1-1.11-1.53-1.7l-.56-.69c-.22-.29-.44-.58-.65-.88a34.64,34.64,0,0,1-2.53-4.22c-.18-.35-.35-.69-.51-1-.05-.12-.21-.47-.27-.63-.32-.77-.61-1.55-.87-2.35a34.22,34.22,0,0,1-1.18-4.92c0-.16-.05-.33-.08-.49v0q-.07-.6-.12-1.2c-.08-.93-.11-1.86-.11-2.79s0-1.75.1-2.62c0-.41.07-.81.11-1.21,0,0,0-.16,0-.25s0-.3.07-.45a34.54,34.54,0,0,1,1.18-4.92c.26-.79.54-1.57.85-2.33.07-.17.15-.33.22-.49.18-.41.38-.8.58-1.2a35.42,35.42,0,0,1,2.53-4.22c.21-.3.43-.59.65-.89.08-.08.37-.45.46-.56.52-.62,1.07-1.23,1.63-1.82s1.16-1.16,1.77-1.71l.86-.75.65-.53a33.57,33.57,0,0,1,4-2.6c.72-.4,1.46-.77,2.21-1.12l.67-.3,1-.4A33.25,33.25,0,0,1,162,99q.58-.12,1.17-.21l.49-.08h0c.92-.1,1.84-.18,2.77-.21a36.41,36.41,0,0,1,5.22.21h0l.49.08c.39.06.79.13,1.17.21.89.18,1.76.39,2.63.63s1.5.46,2.23.72c.37.13.73.28,1.09.42l.08,0,.7.31a34.27,34.27,0,0,1,4.31,2.4c.63.41,1.25.85,1.85,1.3l0,0,.38.31,1.12,1a35.29,35.29,0,0,1,3.39,3.53l.46.57c.22.29.44.58.65.88.47.67.92,1.36,1.34,2.06s.83,1.43,1.2,2.16c.17.35.34.7.5,1l.21.45.05.11a.42.42,0,0,1,0,.06,33.56,33.56,0,0,1,1.54,4.77c.2.83.37,1.66.5,2.5,0,.16,0,.32.08.48v0c.05.46.1.92.14,1.38A35.25,35.25,0,0,1,197.93,131.4Z"/><path class="cls-8" d="M173.71,147.35a3,3,0,0,0-.35-.77,2,2,0,0,0-.42-.55c-1-1.22-2-2.43-2.95-3.64l-.43-.53a2.34,2.34,0,0,0-1-.62,2.32,2.32,0,0,0-1.16-.25,2.26,2.26,0,0,0-1.15.25,2.31,2.31,0,0,0-1,.62,3.1,3.1,0,0,0-.88,2.13l.11.79c0,.07,0,.12.07.18a16.37,16.37,0,0,1-12.33-10.32,16.62,16.62,0,0,1,5-18.63,18.73,18.73,0,0,1,4.6-2.67,16.17,16.17,0,0,1,5.87-1.06c3.86,0,3.86-6,0-6a22.8,22.8,0,0,0-21.16,14.88,22.56,22.56,0,0,0,6.7,24.83,23,23,0,0,0,10.46,4.89,2,2,0,0,0-.07.64,2.2,2.2,0,0,0,.26,1.16,2.24,2.24,0,0,0,.62,1,3,3,0,0,0,2.12.87l.79-.1a3,3,0,0,0,1.33-.77l3.64-3,0,0a2.49,2.49,0,0,0,.48-.39,2.28,2.28,0,0,0,.48-.68,2.63,2.63,0,0,0,.4-1.44,2.16,2.16,0,0,0-.1-.72Z"/><path class="cls-9" d="M125.75,164.69,123,167.47l-1.56-1.56-1.22-1.22a3,3,0,0,0-4.24,4.24l2.78,2.78-1.56,1.56-1.22,1.22a3,3,0,0,0,4.24,4.25L123,176l1.56,1.56,1.23,1.23a3,3,0,0,0,4.24,0,3.07,3.07,0,0,0,0-4.25l-2.78-2.78,1.56-1.56,1.22-1.22a3,3,0,0,0-4.24-4.24Z"/><path class="cls-10" d="M130,198a3,3,0,0,0-4.24-4.24L123,196.56,121.4,195l-1.22-1.22a3,3,0,0,0-4.24,4.24l2.78,2.78-1.56,1.56-1.22,1.22a3,3,0,0,0,4.24,4.25L123,205l1.56,1.56,1.23,1.23a3,3,0,0,0,4.24,0,3.07,3.07,0,0,0,0-4.25l-2.78-2.78,1.56-1.56Z"/><path class="cls-11" d="M102.21,183.7A3,3,0,0,0,98,179.45l-2.78,2.79-1.56-1.56-1.22-1.23a3,3,0,0,0-4.24,4.25l2.78,2.78L89.38,188l-1.22,1.22a3,3,0,0,0,4.24,4.24l2.78-2.78,1.56,1.56c.41.41.82.81,1.22,1.22a3,3,0,0,0,4.25-4.24l-2.79-2.78,1.56-1.56Z"/><path class="cls-12" d="M157.77,183.7a3,3,0,0,0-4.24-4.25l-2.78,2.79-1.56-1.56L148,179.45a3,3,0,0,0-4.24,0,3.07,3.07,0,0,0,0,4.25l2.78,2.78L144.94,188l-1.22,1.22A3,3,0,0,0,148,193.5l2.79-2.78,1.56,1.56,1.22,1.22a3,3,0,0,0,4.24-4.24L155,186.48l1.56-1.56Z"/></g></svg>