<svg xmlns="http://www.w3.org/2000/svg" xmlns:xlink="http://www.w3.org/1999/xlink" viewBox="0 0 243.04 243.04"><defs><style>.cls-1{fill:url(#linear-gradient);}.cls-2{fill:url(#linear-gradient-2);}.cls-3{fill:url(#linear-gradient-3);}</style><linearGradient id="linear-gradient" x1="14.79" y1="125.71" x2="227.6" y2="125.71" gradientUnits="userSpaceOnUse"><stop offset="0" stop-color="#41b6e6"/><stop offset="1" stop-color="#0086d6"/></linearGradient><linearGradient id="linear-gradient-2" x1="55.11" y1="128.1" x2="187.93" y2="128.1" xlink:href="#linear-gradient"/><linearGradient id="linear-gradient-3" x1="69.49" y1="128.92" x2="173.14" y2="128.92" xlink:href="#linear-gradient"/></defs><g id="Layer_3" data-name="Layer 3"><path class="cls-1" d="M121.19,19.3A106.41,106.41,0,1,0,227.6,125.71,106.52,106.52,0,0,0,121.19,19.3Zm0,204.31a97.91,97.91,0,1,1,97.91-97.9A98,98,0,0,1,121.19,223.61Z"/></g><g id="Layer_23" data-name="Layer 23"><path class="cls-2" d="M187.9,92.17A14.06,14.06,0,0,0,174,78.3H69A14,14,0,0,0,55.14,92.16c-.06,4.22,0,8.45,0,12.67V163a14.86,14.86,0,0,0,4,10.74,14.43,14.43,0,0,0,10.58,4.17H173.35a14.43,14.43,0,0,0,10.6-4.17,14.87,14.87,0,0,0,4-10.71V104.83C187.9,100.61,188,96.38,187.9,92.17Zm-7.5.21c0,1.61,0,3.22,0,4.83v66.08c0,.49,0,1,0,1.45l0,.12c0,.13-.06.33-.07.39-.07.32-.17.64-.26,1l-.13.36-.06.11c-.21.38-.43.75-.65,1.12l-.07.1-.25.29c-.22.23-.45.46-.69.68,0,0-.19.17-.28.25l-.1.07-1.12.66-.11.05-.36.13c-.32.1-.64.19-1,.27l-.38.07h-.13l-.69,0H68.65l-.6-.06c-.3-.06-.6-.12-.9-.21l-.69-.25c-.32-.16-.64-.32-.95-.51l-.44-.32a6.76,6.76,0,0,1-.68-.63c-.11-.11-.4-.47-.47-.54a9.3,9.3,0,0,1-.57-.91c-.07-.13-.19-.4-.24-.49-.1-.3-.21-.6-.28-.91s-.13-.73-.15-.74c0-.26,0-.53,0-.79V95.14c0-1.24,0-2.51,0-3.76,0,0,.06-.42.1-.59a10.56,10.56,0,0,1,.34-1.09c.07-.16.15-.31.23-.46.17-.33.38-.63.58-.94.08-.08.25-.3.35-.4a9.94,9.94,0,0,1,.81-.78l.42-.28a9.12,9.12,0,0,1,1-.53l.51-.19c.37-.11.75-.2,1.13-.28.18,0,.35,0,.53,0h.58c3.71,0,7.43,0,11.15,0H174l.69,0,.15,0,.85.19c.24.06.48.15.72.23,0,0,.64.32.8.41A6.31,6.31,0,0,1,179.53,89c.11.19.2.39.31.57a.85.85,0,0,1,.06.13l.27.82c.07.25.12.51.17.77,0-.12.06.72.06.92Z"/><path class="cls-3" d="M161.33,147.26q-8.61-8.61-17.21-17.21l-1.6-1.6,23.58-22.83,6-5.77a3.75,3.75,0,1,0-5.31-5.3l-16.47,15.94-26.21,25.36L120.8,139l-13.47-13.33L81.71,100.32l-5.84-5.77a3.75,3.75,0,1,0-5.3,5.3l16.09,15.93,13.12,13-8.07,8.07L74.5,154.06,70.57,158a3.75,3.75,0,0,0,5.3,5.31L86.6,152.56l17.22-17.21c.43-.43.86-.87,1.3-1.3l7.16,7.09,5.84,5.78a3.8,3.8,0,0,0,5.3,0l13.71-13.26,8.48,8.49,17.22,17.21,3.93,3.94a3.75,3.75,0,0,0,5.31-5.31Z"/></g></svg>