<svg xmlns="http://www.w3.org/2000/svg" xmlns:xlink="http://www.w3.org/1999/xlink" viewBox="0 0 243.04 243.04"><defs><style>.cls-1{fill:url(#linear-gradient);}.cls-2{fill:url(#linear-gradient-2);}.cls-3{fill:url(#linear-gradient-3);}.cls-4{fill:url(#linear-gradient-4);}</style><linearGradient id="linear-gradient" x1="19.94" y1="125.71" x2="232.76" y2="125.71" gradientUnits="userSpaceOnUse"><stop offset="0" stop-color="#41b6e6"/><stop offset="1" stop-color="#0086d6"/></linearGradient><linearGradient id="linear-gradient-2" x1="93.21" y1="79.18" x2="93.42" y2="79.18" xlink:href="#linear-gradient"/><linearGradient id="linear-gradient-3" x1="69.12" y1="127.71" x2="179.99" y2="127.71" xlink:href="#linear-gradient"/><linearGradient id="linear-gradient-4" x1="114.33" y1="129.53" x2="114.54" y2="129.53" xlink:href="#linear-gradient"/></defs><g id="Layer_3" data-name="Layer 3"><path class="cls-1" d="M126.35,19.3A106.41,106.41,0,1,0,232.76,125.71,106.53,106.53,0,0,0,126.35,19.3Zm0,204.31a97.91,97.91,0,1,1,97.91-97.9A98,98,0,0,1,126.35,223.61Z"/></g><g id="Layer_23" data-name="Layer 23"><path class="cls-2" d="M93.4,79.18h0Z"/><path class="cls-3" d="M176.28,150.64a70.72,70.72,0,0,0-15.39-9.47c-2-.95-4.5-2.25-6.83-2.12-2.82.16-5.55,1.75-8.05,2.94-1.44.68-2.88,1.37-4.34,2l-.23.1-.2.08-1,.38a20.15,20.15,0,0,1-2,.63l-.44.12h-.08l-.4,0h0c-.32-.06-.62-.14-.93-.22-.7-.2-1.39-.43-2.07-.68l-1-.41,0,0-.74-.33a53,53,0,0,1-5.78-3.16c-1.07-.67-2.12-1.38-3.14-2.13-.22-.15-.44-.32-.65-.48l-.25-.19c-.53-.43-1.08-.86-1.6-1.3a48,48,0,0,1-5.85-5.9l-.65-.79,0,0,0,0h0l-.14-.19-.09-.13c-.44-.61-.89-1.23-1.3-1.86a36.4,36.4,0,0,1-2.15-3.73c-.16-.32-.32-.65-.47-1l-.26-.57c-.27-.67-.53-1.35-.76-2a36.55,36.55,0,0,1-1.13-4.38s0-.19-.06-.31,0-.55,0-.81v-.09a.31.31,0,0,1,0-.08c.1-.36.16-.73.27-1.09.19-.67.44-1.32.69-2a.84.84,0,0,0,0-.12l.07-.14c.17-.38.35-.76.53-1.15a70.2,70.2,0,0,0,3.68-7.74,8.68,8.68,0,0,0-.34-5.51,73.65,73.65,0,0,0-2.84-7.31c-2.26-5.12-5.05-10.8-9.32-14.57-5.55-4.88-13.06-3.39-19.23-.53a28.55,28.55,0,0,0-8.33,5.8A15.82,15.82,0,0,0,69.2,90.37c-.08,1.38-.1,2.77-.07,4.15a73.06,73.06,0,0,0,1.54,13.19c2.73,13.38,9.06,25.83,17.36,36.58,10.17,13.16,23.36,24.54,38.49,31.6a80.8,80.8,0,0,0,31.09,7.83,20.69,20.69,0,0,0,18.79-10,27,27,0,0,0,3.45-10.86C180.3,158.48,179.85,153.63,176.28,150.64Zm-68.11-35.07c0,.3,0,.13,0,0Zm-1.78-15.85c0-.24,0-.16,0,0Zm0,.9c0,.06,0,0,0,0ZM80.5,83.81Zm91.87,78.81s0,.17,0,.3l-.05.29c-.09.51-.18,1-.3,1.51a22.92,22.92,0,0,1-.68,2.28c-.05.13-.26.67-.28.74-.16.34-.32.69-.49,1-.32.62-.67,1.23-1,1.82l-.45.66-.18.24-.62.69c-.29.31-.6.61-.92.9l-.5.44a14.85,14.85,0,0,1-2,1.28c-.21.12-.43.22-.65.33l-.24.11-.22.09-.52.18a16.73,16.73,0,0,1-2.51.62l-.66.07c-.43,0-.87,0-1.31,0s-.89,0-1.34,0c-1.89-.07-3.77-.24-5.64-.46l-.28,0-.47-.08-1.7-.28q-1.8-.32-3.6-.72a77,77,0,0,1-7.59-2.14c-1.43-.47-2.84-1-4.24-1.55l-.93-.38-.09,0-.42-.19c-.75-.32-1.49-.66-2.23-1a89.19,89.19,0,0,1-9.07-4.92,99,99,0,0,1-18.51-14.89,97.49,97.49,0,0,1-14.7-18.65,90.44,90.44,0,0,1-4.77-9l-.42-.95-.3-.68c-.27-.67-.54-1.34-.8-2-.52-1.34-1-2.69-1.45-4a78,78,0,0,1-2.07-7.66c-.25-1.17-.48-2.36-.67-3.54-.09-.52-.16-1-.24-1.55,0-.28-.07-.56-.1-.84a61,61,0,0,1-.38-9.65c0-.28,0-.56,0-.84,0-.11,0-.22,0-.33s0-.14,0-.25.08-.44.1-.49a10.93,10.93,0,0,1,.31-1.12s.13-.31.18-.45.13-.25.12-.25c.2-.33.39-.67.6-1,.38-.61.22-.31.11-.17.16-.2.34-.39.52-.58.49-.5,1-1,1.53-1.42l.31-.26.13-.09c.37-.27.75-.54,1.13-.79A29.12,29.12,0,0,1,86,80.61l.43-.17c.38-.15.76-.28,1.15-.41a22.3,22.3,0,0,1,2.3-.63l1-.19.36,0c.66,0,1.3,0,1.95,0-.12,0,0,0,.19,0h0l.2,0c.32.07.62.16.92.25l.08,0c.23.18.56.33.82.5h0l0,0c.17.17.36.32.53.48a16.88,16.88,0,0,1,1.24,1.3c.19.23.37.47.57.69l.22.3c.41.56.79,1.13,1.17,1.71.75,1.17,1.45,2.38,2.11,3.61s1.28,2.48,1.87,3.75c.29.63.57,1.27.84,1.9l0,.09,0,.07c.14.34.28.67.41,1a38.24,38.24,0,0,1,1.77,5.19c-.06.16-.13.33-.18.5v0c-.27.55-.53,1.1-.8,1.64a64.55,64.55,0,0,0-3.81,8.28c-2,5.92.49,12.53,3.3,17.8a46.39,46.39,0,0,0,10.62,13,58.25,58.25,0,0,0,12.22,8.21c2.94,1.45,6.31,3.06,9.66,3.21,2.4.11,4.81-.91,7-1.82,2.8-1.18,5.53-2.55,8.3-3.81l.06,0h0l.8-.31c.27-.09.56-.16.84-.23s.53.13.79.21l.7.26.29.12q.76.33,1.53.69c1.26.61,2.49,1.26,3.71,1.93,2.6,1.44,5.15,3,7.61,4.66.5.35,1,.7,1.5,1.06l.33.26a8.18,8.18,0,0,1,.64.53l.35.37a2.35,2.35,0,0,0,.14.19,5.07,5.07,0,0,0,.31.6c.06.2.11.39.16.59,0-.09-.06-.55,0,0a15.39,15.39,0,0,1,.1,1.8A25.46,25.46,0,0,1,172.37,162.62Z"/><path class="cls-4" d="M114.54,129.68c-.26-.37-.24-.32-.16-.21l.15.2Z"/></g></svg>