<svg xmlns="http://www.w3.org/2000/svg" xmlns:xlink="http://www.w3.org/1999/xlink" viewBox="0 0 243.04 243.04"><defs><style>.cls-1{fill:url(#linear-gradient);}.cls-2{fill:url(#linear-gradient-2);}.cls-3{fill:url(#linear-gradient-3);}.cls-4{fill:url(#linear-gradient-4);}.cls-5{fill:url(#linear-gradient-5);}.cls-6{fill:url(#linear-gradient-6);}.cls-7{fill:url(#linear-gradient-7);}</style><linearGradient id="linear-gradient" x1="15.11" y1="125.71" x2="227.93" y2="125.71" gradientUnits="userSpaceOnUse"><stop offset="0" stop-color="#41b6e6"/><stop offset="1" stop-color="#0086d6"/></linearGradient><linearGradient id="linear-gradient-2" x1="98.97" y1="107.82" x2="144.12" y2="107.82" xlink:href="#linear-gradient"/><linearGradient id="linear-gradient-3" x1="77.94" y1="178.03" x2="165.1" y2="178.03" xlink:href="#linear-gradient"/><linearGradient id="linear-gradient-4" x1="157.29" y1="177.03" x2="157.6" y2="177.03" xlink:href="#linear-gradient"/><linearGradient id="linear-gradient-5" x1="85.72" y1="176.02" x2="85.88" y2="176.02" xlink:href="#linear-gradient"/><linearGradient id="linear-gradient-6" x1="77.91" y1="121.23" x2="165.1" y2="121.23" xlink:href="#linear-gradient"/><linearGradient id="linear-gradient-7" x1="154.18" y1="121.66" x2="154.19" y2="121.66" xlink:href="#linear-gradient"/></defs><g id="Layer_3" data-name="Layer 3"><path class="cls-1" d="M121.52,19.3A106.41,106.41,0,1,0,227.93,125.71,106.53,106.53,0,0,0,121.52,19.3Zm0,204.31a97.91,97.91,0,1,1,97.91-97.9A98,98,0,0,1,121.52,223.61Z"/></g><g id="Layer_23" data-name="Layer 23"><path class="cls-2" d="M129.16,86.59a22.61,22.61,0,0,0-27,32.9,22.92,22.92,0,0,0,24,10.49c10.43-2,17.92-11.65,18-22.13A22.92,22.92,0,0,0,129.16,86.59ZM109.45,98.74Zm6.24,23.07c.31.12.15.07,0,0Zm20.83-11.93c0-.18.1-.57,0,0Zm0-.64c0,.22,0,.44-.06.66v0a22.38,22.38,0,0,1-.68,2.77c-.1.29-.21.58-.32.87,0,0-.29.67-.37.83a22.06,22.06,0,0,1-1.43,2.38l-.2.27-.21.26c-.25.29-.5.58-.76.85s-.61.62-.93.91l-.48.43-.48.38a16.9,16.9,0,0,1-1.84,1.18c-.38.22-.77.41-1.17.6l-.18.08-.6.24a18.8,18.8,0,0,1-2.41.68l-.67.13-.38,0-.32,0-.86,0a21.49,21.49,0,0,1-2.54-.08s-.77-.12-.92-.15c-.44-.09-.88-.19-1.31-.31s-.85-.25-1.27-.4l-.53-.2-.1,0a22.26,22.26,0,0,1-2.44-1.35c-.26-.16-.5-.34-.75-.52,0,0-.56-.45-.69-.57a20,20,0,0,1-1.93-2l-.21-.26-.2-.27c-.24-.36-.49-.72-.71-1.09s-.39-.66-.57-1c-.1-.19-.2-.39-.29-.59s-.19-.45-.24-.56a19.54,19.54,0,0,1-.68-2.13c-.11-.43-.2-.87-.28-1.32,0,0,0-.24,0-.37s0-.51,0-.5a18.43,18.43,0,0,1,0-2.78c0-.17,0-.34,0-.52a.13.13,0,0,1,0-.06c.07-.48.17-1,.28-1.45a18.23,18.23,0,0,1,.73-2.31c0-.05.31-.72.37-.84.2-.39.41-.77.63-1.15s.46-.74.71-1.1l.3-.42.1-.12a22.38,22.38,0,0,1,1.91-2l.49-.43.28-.23.12-.08.53-.37A19.38,19.38,0,0,1,115.4,94l.3-.14.32-.12c.42-.15.84-.29,1.27-.41s.76-.21,1.14-.29l.66-.14.63-.08a20,20,0,0,1,2.32-.09c.47,0,.92,0,1.39.09h.06c.27,0,.53.08.79.14a23.87,23.87,0,0,1,2.89.83l.11,0q.33.14.66.3c.44.22.87.45,1.3.7s.83.53,1.23.8l.25.18c.12.11.37.3.41.34a18.22,18.22,0,0,1,2.06,2.06l.23.28s.35.46.38.51c.25.36.48.73.71,1.1s.53,1,.77,1.45l.2.42c0,.08.09.23.13.35a22.7,22.7,0,0,1,.81,2.9c0,.23.08.45.11.67h0s0,.11,0,.18c0,.58.07,1.16.07,1.74S136.61,108.78,136.57,109.24Z"/><path class="cls-3" d="M160.75,169.19c-4.74-3.38-11.41-4-17-4.78-1.95-.27-3.83,1.91-3.75,3.75.1,2.25,1.66,3.47,3.75,3.75a68.67,68.67,0,0,1,7.63,1.44c1,.25,1.91.53,2.85.87l.49.19h0c.37.18.74.35,1.1.54s.57.37.86.54l.05,0,.06.07c.15.14.3.32.46.45l.13.2.06.11c0,.14.07.27.11.4v.08h0s0,0,0,.07h0v0h0c-.1.33-.12.23-.07.06l-.06.07-.06.12c-.07.13-.11.13-.12.07l-.53.48-.21.16c-.3.2-.6.39-.91.57-.67.38-1.36.71-2.06,1-.05,0-.82.33-1,.39l-1.38.48c-1.1.37-2.22.69-3.35,1-2.35.61-4.74,1.08-7.13,1.47-.66.11-1.31.21-2,.3l-1.45.19c-1.57.18-3.14.34-4.72.46-3.13.25-6.28.39-9.42.42a130.3,130.3,0,0,1-18.73-1c.17,0,.56.09-.22,0l-1.19-.17-1.93-.32q-1.81-.32-3.63-.72A54.69,54.69,0,0,1,91,180.09l-1.32-.5h0l-.54-.24a20.42,20.42,0,0,1-2.16-1.16c-.24-.15-.47-.31-.7-.47l-.26-.23c-.15-.14-.28-.29-.42-.44a1.63,1.63,0,0,1-.11-.17h0v-.07l.12-.42c0-.09.1-.18.13-.25l0,0-.06,0,0,0h0l.13-.12c.06-.07.11-.12.13-.11l.47-.44.35-.23a12.23,12.23,0,0,1,1.12-.62l.47-.22.18-.07a29,29,0,0,1,3.16-1c1.31-.34,2.63-.62,4-.86,1.59-.29,3.2-.53,4.55-.7,1.94-.25,3.85-1.55,3.75-3.75-.08-1.83-1.67-4-3.75-3.75-5.5.69-11.31,1.41-16.31,4-3.28,1.68-5.76,4.65-5.89,8.45s2.92,6.71,6.07,8.44a47.27,47.27,0,0,0,14,4.51,130.89,130.89,0,0,0,41,.94,68.9,68.9,0,0,0,16.16-3.69c3.43-1.35,7.47-3.19,9.17-6.71C166.31,176.11,164.25,171.67,160.75,169.19Zm-3,7.42,0,0v0Zm0,0h0s0,0,0,0Z"/><path class="cls-4" d="M157.47,177.08l.08-.16a.29.29,0,0,0,0,.09.71.71,0,0,1,.07-.09v-.08h0v0s0,0,0,.05a.44.44,0,0,0-.29.43l.09-.09Z"/><path class="cls-5" d="M85.75,176.05l0,0c.13-.09.18-.15.16-.16l-.11.09Z"/><path class="cls-6" d="M142.27,69.52A43.59,43.59,0,0,0,82.15,89.16c-3.11,6.68-4.91,14.44-4,21.82.79,6.54,3.22,12.7,6.15,18.57a142.33,142.33,0,0,0,11,18.07,329.9,329.9,0,0,0,22.13,27.76c.48.55,1,1.1,1.45,1.66a3.77,3.77,0,0,0,5.3,0c5.91-6.79,11.73-13.63,17.22-20.76,7.32-9.54,14.4-19.63,19.22-30.71,2.43-5.6,4.46-11.54,4.49-17.72A44,44,0,0,0,142.27,69.52Zm-54,24.31c.22-.55.07-.16,0,0ZM85.73,103c-.07.61,0,.18,0,0Zm71.58,0c.1.68,0,.16,0,0Zm-2.69-9.59.17.38,0,.1c.16.41.33.82.48,1.24.33.89.62,1.79.88,2.71a40.78,40.78,0,0,1,1.12,5.13v0c0,.23.05.45.08.68q.08.69.12,1.38c.06.93.09,1.87.09,2.8a12.17,12.17,0,0,1-.18,3.07c0,.09,0,.18-.06.25q-.06.42-.15.84c-.11.62-.25,1.24-.4,1.86a51.47,51.47,0,0,1-2.44,7.35c-.06.15-.14.33-.18.42l.11-.25-.41.93c-.3.68-.61,1.36-.93,2q-.92,1.93-1.92,3.81c-1.41,2.65-2.93,5.25-4.53,7.79-3.19,5.11-6.66,10-10.29,14.84l-1.31,1.71-.14.18a1.34,1.34,0,0,1-.11.14l-.73.95c-.84,1.07-1.69,2.13-2.54,3.19-1.59,2-3.19,3.93-4.82,5.86s-3.35,3.93-5,5.88c-1.71-2-3.42-3.95-5.11-5.95-1.82-2.17-3.61-4.35-5.38-6.56l-1.36-1.72-.74-.94-.37-.47s-.16-.2-.25-.33l-.46-.6-.75-1c-.54-.71-1.07-1.41-1.6-2.13a181.71,181.71,0,0,1-11.32-16.95c-1.66-2.85-3.21-5.75-4.59-8.74l-.42-.94-.33-.75-.26-.63c-.16-.4-.32-.79-.47-1.19-.52-1.37-1-2.75-1.4-4.15a39.85,39.85,0,0,1-.95-4c-.05-.29-.09-.57-.14-.85h0a1.23,1.23,0,0,1,0-.19c-.07-.66-.13-1.31-.15-2a35.93,35.93,0,0,1,.2-5c0-.22,0-.44.08-.66V103c.07-.45.14-.9.23-1.35.16-.89.35-1.77.58-2.65a41.33,41.33,0,0,1,1.67-5.08v0l.27-.59c.18-.4.37-.8.57-1.19.39-.79.8-1.57,1.25-2.33s.85-1.41,1.3-2.09c.25-.36.49-.72.75-1.08l.61-.81A41.57,41.57,0,0,1,96.35,82c.59-.57,1.19-1.12,1.81-1.66l.88-.74.29-.22.5-.39a38.56,38.56,0,0,1,4.29-2.75c.72-.4,1.45-.78,2.2-1.13.34-.17.68-.32,1-.47-.09.05.83-.34,1-.4a39.91,39.91,0,0,1,5.13-1.56c.83-.2,1.67-.36,2.5-.5l.93-.13,1.15-.12a38.65,38.65,0,0,1,5.59-.1c.84,0,1.68.12,2.52.21l.78.11c.5.08,1,.17,1.51.28a39,39,0,0,1,5.19,1.41l1.25.46.62.25.1,0,.38.17.6.28,1.33.65a39.76,39.76,0,0,1,4.51,2.73c.31.21.62.44.93.67l.27.2.26.21c.72.59,1.43,1.19,2.11,1.82A40.36,40.36,0,0,1,149.46,85l.42.51.21.26.49.67c.55.75,1.07,1.53,1.56,2.32A40.6,40.6,0,0,1,154.62,93.4Z"/><path class="cls-7" d="M154.19,121.64Z"/></g></svg>