<svg xmlns="http://www.w3.org/2000/svg" xmlns:xlink="http://www.w3.org/1999/xlink" viewBox="0 0 243.04 243.04"><defs><style>.cls-1{fill:url(#linear-gradient);}.cls-2{fill:url(#linear-gradient-2);}.cls-3{fill:url(#linear-gradient-3);}.cls-4{fill:url(#linear-gradient-4);}</style><linearGradient id="linear-gradient" x1="14.79" y1="119.12" x2="227.6" y2="119.12" gradientUnits="userSpaceOnUse"><stop offset="0" stop-color="#41b6e6"/><stop offset="1" stop-color="#0086d6"/></linearGradient><linearGradient id="linear-gradient-2" x1="105.07" y1="74.18" x2="137.98" y2="74.18" xlink:href="#linear-gradient"/><linearGradient id="linear-gradient-3" x1="90.85" y1="74.19" x2="152.19" y2="74.19" xlink:href="#linear-gradient"/><linearGradient id="linear-gradient-4" x1="59.11" y1="148.24" x2="183.97" y2="148.24" xlink:href="#linear-gradient"/></defs><g id="Layer_3" data-name="Layer 3"><path class="cls-1" d="M121.19,12.72A106.41,106.41,0,1,0,227.6,119.12,106.52,106.52,0,0,0,121.19,12.72Zm0,204.31a97.91,97.91,0,1,1,97.91-97.91A98,98,0,0,1,121.19,217Z"/></g><g id="Layer_23" data-name="Layer 23"><path class="cls-2" d="M130.72,77.85c-.41,1.07.13-.24-.17.38-.1.22-.22.44-.34.66a10.87,10.87,0,0,1-.9,1.41,19.38,19.38,0,0,1-1.83,1.79,10,10,0,0,1-11.77.11,12,12,0,0,1-2-2,21.24,21.24,0,0,1-1.27-2.2,10,10,0,0,1,2.82-11.45,9.72,9.72,0,0,1,5-2.2,10,10,0,0,1,6.32,1.31,9.17,9.17,0,0,1,2.59,2.19s.38.47.17.2a9.39,9.39,0,0,1,.62.93c.13.21.25.43.37.64,0,0,.45.93.29.54a10.28,10.28,0,0,1,.13,7.67,3.32,3.32,0,0,0,2.3,4.06,3.36,3.36,0,0,0,4.06-2.3,16.49,16.49,0,1,0-18.15,10.83,16.56,16.56,0,0,0,18.15-10.83c.64-1.67-.71-3.62-2.31-4.06A3.36,3.36,0,0,0,130.72,77.85Z"/><path class="cls-3" d="M147.4,67.93a27.78,27.78,0,0,0-3.18-7.66l-.52,4c1.31-1.69,3.67-3.87,3.58-6.12s-2.64-4.1-4.13-5.59-3.32-4-5.6-4.13-4.43,2.26-6.12,3.58l4-.52a27.23,27.23,0,0,0-7.66-3.18l2.42,3.18c-.27-2.13-.14-5.33-1.79-6.85s-4.77-1-6.88-1-5.2-.51-6.88,1-1.52,4.73-1.79,6.85l2.42-3.18a27.36,27.36,0,0,0-7.66,3.18l4,.52c-1.7-1.32-3.87-3.67-6.12-3.58s-4.11,2.64-5.6,4.13-4,3.31-4.13,5.59,2.27,4.43,3.58,6.12l-.52-4a27.78,27.78,0,0,0-3.18,7.66l3.18-2.42c-2.12.27-5.33.14-6.85,1.8s-1,4.77-1,6.88-.51,5.2,1,6.87,4.73,1.53,6.85,1.8l-3.18-2.42a27.65,27.65,0,0,0,3.18,7.66l.52-4C98,85.79,95.67,88,95.76,90.22s2.64,4.1,4.13,5.6,3.32,4,5.6,4.13,4.43-2.27,6.12-3.58l-4,.51a27.55,27.55,0,0,0,7.66,3.19l-2.42-3.19c.27,2.13.14,5.33,1.79,6.86s4.77,1,6.88,1,5.2.51,6.88-1,1.52-4.73,1.79-6.86l-2.42,3.19a27.55,27.55,0,0,0,7.66-3.19l-4-.51c1.7,1.31,3.87,3.67,6.12,3.58s4.11-2.64,5.6-4.13,4-3.32,4.13-5.6S145,85.79,143.7,84.1l.52,4a27.65,27.65,0,0,0,3.18-7.66l-3.18,2.42c2.12-.27,5.33-.14,6.85-1.8s1-4.76,1-6.87.51-5.2-1-6.88-4.73-1.53-6.85-1.8c-1.77-.22-3.3,1.68-3.3,3.3,0,2,1.52,3.08,3.3,3.3l2,.26,1.35.17c.15,0,.31,0,.46.06.4.08.1.2-.38,0l-1.46-.84.19.21-.85-1.46c-.21-.85,0-.61-.05-.18s0,.61,0,.92v5.86c0,.3,0,.61,0,.91s-.17.72.05-.18l.85-1.45-.19.21,1.46-.85c.59-.23.74-.08.44,0-.13,0-.29,0-.43,0l-1.44.18-2,.26A3.45,3.45,0,0,0,141,78.68a21.23,21.23,0,0,1-2.51,6.09,3.42,3.42,0,0,0,.51,4l1.26,1.62.83,1.08a3.37,3.37,0,0,1,.29.37c.2.32-.06.23-.26-.23l-.45-1.67,0,.28.45-1.67c.42-.7.37-.41.07-.12s-.43.43-.65.65l-2.07,2.07-2.07,2.07-.65.65c-.27.28-.61.37.13-.07l1.66-.45h-.28l1.67.45c.64.29.52.43.27.3a2.78,2.78,0,0,1-.34-.26L137.72,93,136.1,91.7a3.44,3.44,0,0,0-4-.51A21.58,21.58,0,0,1,126,93.7a3.43,3.43,0,0,0-2.43,3.18l-.25,2-.18,1.35a3.59,3.59,0,0,1,0,.46c-.09.39-.21.1,0-.39l.85-1.45-.21.18,1.46-.85c.85-.21.6,0,.17,0h-7.68c-.41,0-.72-.17.17,0l1.46.85-.21-.18.85,1.45c.23.59.08.75,0,.45a3,3,0,0,1,0-.43l-.19-1.44-.25-2A3.46,3.46,0,0,0,117,93.7a21.58,21.58,0,0,1-6.08-2.51,3.42,3.42,0,0,0-4,.51L105.32,93l-1.08.83a3.37,3.37,0,0,1-.37.29c-.32.2-.23-.06.23-.27l1.67-.45h-.28l1.66.45c.71.42.41.36.13.07l-.65-.65-2.07-2.07-2.07-2.07c-.22-.22-.43-.44-.65-.65s-.37-.61.07.12l.45,1.67,0-.28-.45,1.67c-.28.63-.42.51-.3.27a2.88,2.88,0,0,1,.27-.34l.89-1.15L104,88.77a3.44,3.44,0,0,0,.51-4A21.23,21.23,0,0,1,102,78.68a3.43,3.43,0,0,0-3.19-2.42l-2-.26-1.35-.17c-.15,0-.31,0-.46-.06-.4-.08-.1-.2.38,0l1.46.85-.19-.21.85,1.45c.21.86,0,.61,0,.18s0-.61,0-.91V71.26c0-.31,0-.61,0-.92s.17-.71,0,.18L96.63,72l.19-.21-1.46.84c-.59.23-.74.08-.44,0a3,3,0,0,1,.43-.06l1.44-.18,2-.26A3.44,3.44,0,0,0,102,69.69a21.17,21.17,0,0,1,2.51-6.08,3.42,3.42,0,0,0-.51-4L102.75,58l-.83-1.07a3.37,3.37,0,0,1-.29-.37c-.2-.32.06-.24.26.23l.45,1.66,0-.28-.45,1.67c-.42.7-.37.41-.07.12l.65-.64,2.07-2.07,2.07-2.08c.22-.21.44-.42.65-.64s.61-.38-.13.07l-1.66.45.28,0-1.67-.45c-.64-.28-.52-.43-.27-.3a2.78,2.78,0,0,1,.34.26l1.15.9,1.62,1.25a3.46,3.46,0,0,0,4,.52A21.31,21.31,0,0,1,117,54.67a3.42,3.42,0,0,0,2.43-3.18l.25-2,.18-1.35c0-.16,0-.32.05-.47.09-.39.21-.09,0,.39l-.85,1.46.21-.19-1.46.85c-.85.21-.6,0-.17.05h7.68c.41,0,.72.17-.17-.05l-1.46-.85.21.19L123.09,48c-.23-.59-.08-.75,0-.45a3.15,3.15,0,0,1,.05.43l.19,1.45.25,2A3.45,3.45,0,0,0,126,54.67a21.31,21.31,0,0,1,6.08,2.52,3.41,3.41,0,0,0,4-.52l1.62-1.25,1.08-.84c.12-.09.24-.2.37-.28.32-.21.23.05-.23.26l-1.67.45.28,0-1.66-.45c-.71-.43-.41-.37-.13-.07l.65.64,2.07,2.08,2.07,2.07.65.64c.28.27.37.62-.07-.12l-.45-1.67,0,.28.45-1.66c.28-.64.42-.52.3-.28a2.88,2.88,0,0,1-.27.34L140.29,58,139,59.61a3.44,3.44,0,0,0-.51,4A21.17,21.17,0,0,1,141,69.69a3.3,3.3,0,0,0,6.37-1.76Z"/><path class="cls-4" d="M184,134.58a2.91,2.91,0,0,0-.05-.4l0-.19a1.31,1.31,0,0,0-.06-.27,4,4,0,0,0-.37-1c-3.12-5.68-6.17-11.41-9.38-17a1.52,1.52,0,0,0-.06-.2v-.1a4,4,0,0,0-.43-1,3.35,3.35,0,0,0-1.22-1.22l-.07-.05a3.47,3.47,0,0,0-1.05-.41l-.25,0a3.81,3.81,0,0,0-.6-.06H72.83a3.77,3.77,0,0,0-1,.14l-.1,0a3.31,3.31,0,0,0-2.14,1.68c-1.36,3.1-3.28,6-4.91,9s-3.4,6.16-5.09,9.24a3.79,3.79,0,0,0,3.23,5.64h6.07v41.76a3.8,3.8,0,0,0,3.75,3.75H158.3c4,0,8,.13,11.92,0h.16a3.8,3.8,0,0,0,3.75-3.75V138.33h6.08a3.27,3.27,0,0,0,.45,0h.1l.4-.09a3.68,3.68,0,0,0,.47-.15h0a3.13,3.13,0,0,0,.46-.21,3.52,3.52,0,0,0,1.14-1.06A3.32,3.32,0,0,0,184,134.58Zm-19.79-14.5H168c2,3.56,4,7.16,5.93,10.75H133.74l-5.9-10.75h36.33Zm-74.85,0h25.86q-2.94,5.39-5.89,10.75H69.17l2-3.6c1.3-2.36,2.78-4.72,4-7.15Zm-4.59,56.26c-2.76,0-5.55-.1-8.34-.09V138.33h35.12a3.74,3.74,0,0,0,3.24-1.85l3-5.51v45.37h-33ZM166.63,150v26.36H125.27V131l3,5.5a3.73,3.73,0,0,0,3.23,1.85h35.12Z"/></g></svg>