<svg xmlns="http://www.w3.org/2000/svg" xmlns:xlink="http://www.w3.org/1999/xlink" viewBox="0 0 245.93 245.93"><defs><style>.cls-1{fill:url(#linear-gradient);}.cls-2{fill:url(#linear-gradient-2);}.cls-3{fill:url(#linear-gradient-3);}</style><linearGradient id="linear-gradient" x1="16.44" y1="122.3" x2="229.48" y2="122.3" gradientUnits="userSpaceOnUse"><stop offset="0" stop-color="#41b6e6"/><stop offset="1" stop-color="#0086d6"/></linearGradient><linearGradient id="linear-gradient-2" x1="94.08" y1="86.95" x2="151.91" y2="86.95" xlink:href="#linear-gradient"/><linearGradient id="linear-gradient-3" x1="69.44" y1="146.89" x2="176.49" y2="146.89" xlink:href="#linear-gradient"/></defs><g id="Layer_3" data-name="Layer 3"><path class="cls-1" d="M123,15.78A106.52,106.52,0,1,0,229.48,122.3,106.64,106.64,0,0,0,123,15.78Zm0,204.54a98,98,0,1,1,98-98A98.14,98.14,0,0,1,123,220.32Z"/></g><g id="Layer_25" data-name="Layer 25"><path class="cls-2" d="M128.75,115.33c13.38-2.58,23.07-14.88,23.16-28.36a29,29,0,1,0-23.16,28.36ZM125.92,65.7ZM101.58,85.23c0-.34.06-.68.09-1v-.09s0,0,0-.09c.12-.73.26-1.44.44-2.15a27.2,27.2,0,0,1,1-3.17l0-.15a1.47,1.47,0,0,1,.09-.17c.12-.25.23-.5.35-.74.32-.64.66-1.26,1-1.87.28-.46.58-.92.89-1.36l.51-.69.09-.11a34.09,34.09,0,0,1,2.7-2.81l.91-.76c.38-.29.77-.57,1.17-.83a32,32,0,0,1,3.43-1.92l.11-.05.83-.32c.52-.19,1-.36,1.58-.52s1.29-.35,2-.49l.67-.12.57-.1h.12a28.52,28.52,0,0,1,3.46-.14c.7,0,1.38.08,2.07.14h.09l1.27.22A25.93,25.93,0,0,1,130.93,67l.6.26.62.29c.64.31,1.26.65,1.87,1s1.2.75,1.77,1.16l.32.23s.63.53.71.6a25.6,25.6,0,0,1,2.74,2.77s.3.38.39.48l.41.57c.41.58.79,1.17,1.15,1.79s.69,1.24,1,1.88c.1.2.19.4.28.6-.35-.76.19.5.24.64a24.53,24.53,0,0,1,1.07,3.86l.12.71c0,.1.07.54.08.66.08.8.11,1.61.12,2.42s0,1.39-.09,2.09c0,.22,0,.45-.06.68,0,.07,0,.13,0,.18s0,.11,0,.18a31.81,31.81,0,0,1-.87,3.59c-.19.59-.4,1.17-.64,1.74a.64.64,0,0,1-.06.14c-.14.29-.28.59-.43.88a25.5,25.5,0,0,1-1.85,3.09c-.13.19-.27.38-.41.56s-.35.44-.39.48c-.35.42-.71.82-1.09,1.21s-.76.77-1.16,1.13l-.74.65-.45.37a23.67,23.67,0,0,1-2.81,1.82c-.47.27-1,.52-1.46.75l-.55.25-.84.32a24.82,24.82,0,0,1-3.37,1l-1,.19H126c-.72.09-1.43.15-2.15.17a29.46,29.46,0,0,1-3.64-.13l-.16,0-.2,0-.67-.12c-.71-.14-1.42-.31-2.12-.51s-1.17-.35-1.74-.56l-.77-.3h0l-.13-.07a30.26,30.26,0,0,1-3.43-1.91c-.4-.27-.8-.55-1.19-.84l-.27-.23-.62-.53a32.58,32.58,0,0,1-2.7-2.81l-.14-.16-.46-.63c-.31-.45-.61-.9-.89-1.37s-.61-1-.88-1.57c-.13-.24-.25-.49-.37-.74s-.17-.36-.25-.55l0-.06a27.2,27.2,0,0,1-1-3.17c-.15-.6-.28-1.21-.38-1.82,0-.08,0-.28-.06-.4,0-.38-.09-.76-.11-1.15A25.26,25.26,0,0,1,101.58,85.23Z"/><path class="cls-3" d="M166.1,140.12a54.24,54.24,0,0,0-28-19.71,53.52,53.52,0,0,0-33.76,1.21,54.48,54.48,0,0,0-24.17,18.11,53.54,53.54,0,0,0-10.68,32.05,3.75,3.75,0,0,0,7.5,0c0-1.17,0-2.33.12-3.5,0-.57.09-1.15.15-1.72,0-.26.06-.52.09-.78,0-.09.06-.46.08-.61A49.85,49.85,0,0,1,79,158.25c.32-1.06.68-2.12,1.08-3.16.07-.2.15-.41.24-.62,0,0,.15-.37.21-.53.21-.49.43-1,.66-1.46a49.89,49.89,0,0,1,3.28-5.89c.59-.92,1.23-1.8,1.87-2.69.06-.07.08-.11.12-.15l.09-.12.41-.52c.41-.5.83-1,1.27-1.49a49.34,49.34,0,0,1,4.86-4.84l1.12-.94.64-.51.06-.05.09-.07c.92-.68,1.86-1.34,2.82-2a50.75,50.75,0,0,1,6-3.35l1.35-.6.34-.14.19-.07a17.88,17.88,0,0,0,11.42,13.49,16,16,0,0,0,2.09.61v28.6a3.75,3.75,0,0,0,7.5,0V143.14a17.41,17.41,0,0,0,9.56-5.68,18.07,18.07,0,0,0,4-8.36,45,45,0,0,1,6.65,3.35,44.5,44.5,0,0,1,11.06,9.4,40.72,40.72,0,0,1,4.5,6.27c.72,1.19,1.38,2.42,2,3.67.29.6.57,1.21.85,1.82a1.64,1.64,0,0,0,.1.22l.09.23c.13.35.27.69.4,1a49.77,49.77,0,0,1,2.33,8.2c.14.74.27,1.48.38,2.23,0,.1,0,.18,0,.24s0,.15,0,.26l.12,1.14c.14,1.54.2,3.08.21,4.62a3.75,3.75,0,0,0,7.5,0A53.42,53.42,0,0,0,166.1,140.12Zm-33.11-13s-.13.82-.16,1c-.07.33-.16.65-.26,1,0,.11-.3.82-.31.89a13.75,13.75,0,0,1-1,1.8l-.3.43-.09.11c-.3.33-.58.65-.89,1s-.49.44-.73.66l-.11.09-.44.31a14.82,14.82,0,0,1-1.79,1c-.08,0-.79.29-.89.32-.43.13-.87.24-1.31.33l-.63.08c-.37,0-.74.06-1.12.06a10.12,10.12,0,0,1-7-2.84c-.31-.31-.59-.63-.89-1l-.09-.11c-.1-.14-.21-.29-.3-.43a13.75,13.75,0,0,1-1-1.8l-.27-.73c-.12-.37-.22-.75-.31-1.13,0-.13-.13-.94-.15-1a2.72,2.72,0,0,1,0-.28c1.19-.27,2.39-.5,3.6-.68l.44-.06.6-.07c.52-.06,1-.1,1.55-.14q1.92-.15,3.84-.15a43.43,43.43,0,0,1,8.55.78l1.49.32C133,126.94,133,127,133,127.13Z"/></g></svg>