<svg xmlns="http://www.w3.org/2000/svg" viewBox="0 0 245.93 245.93"><defs><style>.cls-1{fill:#fcfcfc;}</style></defs><g id="Layer_14" data-name="Layer 14"><path class="cls-1" d="M91.36,111.19a2.89,2.89,0,0,0-2.89,2.89v25.57a2.89,2.89,0,0,0,5.77,0V114.08A2.89,2.89,0,0,0,91.36,111.19Z"/><path class="cls-1" d="M144.11,108.34a2.9,2.9,0,0,0-2.89,2.89v46a2.89,2.89,0,0,0,5.78,0v-46A2.89,2.89,0,0,0,144.11,108.34Z"/><path class="cls-1" d="M166.68,94.33H137.29a7.62,7.62,0,0,0-7.62,7.62v85.56H174.3V102A7.63,7.63,0,0,0,166.68,94.33Zm2.21,87.77H135.07V102a2.21,2.21,0,0,1,2.22-2.21h29.39a2.21,2.21,0,0,1,2.21,2.21Z"/><path class="cls-1" d="M113.35,94.33h-3.2V63.41a5.35,5.35,0,0,0-5.34-5.34H87.55a5.35,5.35,0,0,0-5.35,5.34V94.33H79v54H72.44v31.33a7.9,7.9,0,0,0,7.89,7.89H112a7.89,7.89,0,0,0,7.88-7.89V148.29h-6.56ZM87.61,63.48h17.14V94.33H87.61Zm-3.2,36.26H108v48.55H84.41ZM112,182.1H80.33a2.48,2.48,0,0,1-2.48-2.48V165.57h36.66v14.05A2.48,2.48,0,0,1,112,182.1Zm2.48-28.4v6.47H77.85V153.7h36.66Z"/></g></svg>