<svg xmlns="http://www.w3.org/2000/svg" xmlns:xlink="http://www.w3.org/1999/xlink" viewBox="0 0 245.93 245.93"><defs><style>.cls-1{fill:url(#linear-gradient);}.cls-2{fill:url(#linear-gradient-2);}.cls-3{fill:url(#linear-gradient-3);}.cls-4{fill:url(#linear-gradient-4);}.cls-5{fill:url(#linear-gradient-5);}.cls-6{fill:url(#linear-gradient-6);}.cls-7{fill:url(#linear-gradient-7);}.cls-8{fill:url(#linear-gradient-8);}</style><linearGradient id="linear-gradient" x1="16.44" y1="122.96" x2="229.48" y2="122.96" gradientUnits="userSpaceOnUse"><stop offset="0" stop-color="#41b6e6"/><stop offset="1" stop-color="#0086d6"/></linearGradient><linearGradient id="linear-gradient-2" x1="67" y1="122.96" x2="178.93" y2="122.96" xlink:href="#linear-gradient"/><linearGradient id="linear-gradient-3" x1="81.46" y1="78.76" x2="89.23" y2="78.76" xlink:href="#linear-gradient"/><linearGradient id="linear-gradient-4" x1="92.74" y1="78.76" x2="100.51" y2="78.76" xlink:href="#linear-gradient"/><linearGradient id="linear-gradient-5" x1="104.02" y1="78.76" x2="111.78" y2="78.76" xlink:href="#linear-gradient"/><linearGradient id="linear-gradient-6" x1="89.01" y1="115.83" x2="156.92" y2="115.83" xlink:href="#linear-gradient"/><linearGradient id="linear-gradient-7" x1="89.01" y1="134.71" x2="156.92" y2="134.71" xlink:href="#linear-gradient"/><linearGradient id="linear-gradient-8" x1="89.01" y1="153.59" x2="143.32" y2="153.59" xlink:href="#linear-gradient"/></defs><g id="Layer_3" data-name="Layer 3"><path class="cls-1" d="M123,16.44A106.52,106.52,0,1,0,229.48,123,106.65,106.65,0,0,0,123,16.44ZM123,221a98,98,0,1,1,98-98A98.14,98.14,0,0,1,123,221Z"/><path class="cls-2" d="M166.63,63.31H79.3A12.32,12.32,0,0,0,67,75.61v94.71a12.32,12.32,0,0,0,12.3,12.3h87.33a12.32,12.32,0,0,0,12.3-12.3V75.61A12.32,12.32,0,0,0,166.63,63.31ZM79.3,70.81h87.33a4.8,4.8,0,0,1,4.8,4.8V86.8H74.5V75.61A4.8,4.8,0,0,1,79.3,70.81Zm87.33,104.31H79.3a4.81,4.81,0,0,1-4.8-4.8v-76h96.93v76A4.81,4.81,0,0,1,166.63,175.12Z"/><path class="cls-3" d="M85.35,82.64a3.88,3.88,0,1,0-3.89-3.88A3.88,3.88,0,0,0,85.35,82.64Z"/><path class="cls-4" d="M96.62,82.64a3.88,3.88,0,1,0-3.88-3.88A3.89,3.89,0,0,0,96.62,82.64Z"/><circle class="cls-5" cx="107.9" cy="78.76" r="3.88"/><path class="cls-6" d="M153.32,112.23H92.61a3.6,3.6,0,1,0,0,7.2h60.71a3.6,3.6,0,1,0,0-7.2Z"/><path class="cls-7" d="M153.32,131.11H92.61a3.6,3.6,0,1,0,0,7.2h60.71a3.6,3.6,0,1,0,0-7.2Z"/><path class="cls-8" d="M139.72,150H92.61a3.6,3.6,0,1,0,0,7.2h47.11a3.6,3.6,0,0,0,0-7.2Z"/></g></svg>