<svg xmlns="http://www.w3.org/2000/svg" xmlns:xlink="http://www.w3.org/1999/xlink" viewBox="0 0 243.04 243.04"><defs><style>.cls-1{fill:url(#linear-gradient);}.cls-2{fill:url(#linear-gradient-2);}.cls-3{fill:url(#linear-gradient-3);}</style><linearGradient id="linear-gradient" x1="94.83" y1="121.52" x2="148.21" y2="121.52" gradientUnits="userSpaceOnUse"><stop offset="0" stop-color="#41b6e6"/><stop offset="1" stop-color="#0086d6"/></linearGradient><linearGradient id="linear-gradient-2" x1="105.69" y1="157.08" x2="111.07" y2="157.08" xlink:href="#linear-gradient"/><linearGradient id="linear-gradient-3" x1="105.69" y1="123.74" x2="111.07" y2="123.74" xlink:href="#linear-gradient"/></defs><g id="Layer_14" data-name="Layer 14"><path class="cls-1" d="M141.29,107.58a13.7,13.7,0,0,1-5.12-6.19,4.63,4.63,0,0,0,3.61-4.52V89a4.64,4.64,0,0,0-4.64-4.64h-2.78V64.07a10.84,10.84,0,0,0-21.68,0V84.38H107.9A4.64,4.64,0,0,0,103.26,89v7.85a4.63,4.63,0,0,0,3.6,4.52,13.68,13.68,0,0,1-5.11,6.19,14.44,14.44,0,0,0-6.92,12.28v63.36a6.86,6.86,0,0,0,7.09,6.58h39.2a6.86,6.86,0,0,0,7.09-6.58V119.87A14.46,14.46,0,0,0,141.29,107.58ZM116.07,64.07a5.45,5.45,0,0,1,10.9,0V84.38h-10.9Zm-7.43,25.69H134.4v6.37H108.64Zm34.19,93.46c0,.57-.7,1.2-1.71,1.2h-39.2c-1,0-1.71-.63-1.71-1.2V119.86a9.08,9.08,0,0,1,4.39-7.71,18.7,18.7,0,0,0,7.89-10.64h18.06a18.6,18.6,0,0,0,7.89,10.64,9.09,9.09,0,0,1,4.39,7.72Z"/><path class="cls-2" d="M108.38,136.14a2.7,2.7,0,0,0-2.69,2.7v36.49a2.69,2.69,0,1,0,5.38,0V138.84A2.69,2.69,0,0,0,108.38,136.14Z"/><path class="cls-3" d="M108.38,119.57a2.69,2.69,0,0,0-2.69,2.69v2.95a2.69,2.69,0,1,0,5.38,0v-2.95A2.68,2.68,0,0,0,108.38,119.57Z"/></g></svg>