<svg xmlns="http://www.w3.org/2000/svg" xmlns:xlink="http://www.w3.org/1999/xlink" viewBox="0 0 245.93 245.93"><defs><style>.cls-1{fill:url(#linear-gradient);}.cls-2{fill:url(#linear-gradient-2);}.cls-3{fill:url(#linear-gradient-3);}.cls-4{fill:url(#linear-gradient-4);}.cls-5{fill:url(#linear-gradient-5);}.cls-6{fill:url(#linear-gradient-6);}</style><linearGradient id="linear-gradient" x1="16.44" y1="115.18" x2="229.48" y2="115.18" gradientUnits="userSpaceOnUse"><stop offset="0" stop-color="#41b6e6"/><stop offset="1" stop-color="#0086d6"/></linearGradient><linearGradient id="linear-gradient-2" x1="160.12" y1="159.84" x2="167.94" y2="159.84" xlink:href="#linear-gradient"/><linearGradient id="linear-gradient-3" x1="151.13" y1="158.35" x2="155.95" y2="158.35" xlink:href="#linear-gradient"/><linearGradient id="linear-gradient-4" x1="142.92" y1="158.35" x2="147.73" y2="158.35" xlink:href="#linear-gradient"/><linearGradient id="linear-gradient-5" x1="134.71" y1="158.35" x2="139.52" y2="158.35" xlink:href="#linear-gradient"/><linearGradient id="linear-gradient-6" x1="64.28" y1="112.15" x2="181.65" y2="112.15" xlink:href="#linear-gradient"/></defs><g id="Layer_25" data-name="Layer 25"><path class="cls-1" d="M123,8.66A106.52,106.52,0,1,0,229.48,115.18,106.64,106.64,0,0,0,123,8.66Zm0,204.54a98,98,0,1,1,98-98A98.14,98.14,0,0,1,123,213.2Z"/><path class="cls-2" d="M166.84,157.34l-.32-.31a2.78,2.78,0,0,0-1.2-.78,2.88,2.88,0,0,0-1.45-.32,2.82,2.82,0,0,0-1.44.32,2.75,2.75,0,0,0-1.21.78l-.59.76a3.67,3.67,0,0,0-.51,1.89c0,.33.09.66.13,1a3.75,3.75,0,0,0,1,1.65l.31.31a2.81,2.81,0,0,0,1.21.78,3.42,3.42,0,0,0,2.89,0,2.81,2.81,0,0,0,1.21-.78c.19-.25.39-.5.58-.76a3.78,3.78,0,0,0,.52-1.89c-.05-.33-.09-.66-.14-1A3.83,3.83,0,0,0,166.84,157.34Z"/><path class="cls-3" d="M155.29,156.92l-.32-.31a1.64,1.64,0,0,0-.72-.47,1.73,1.73,0,0,0-.87-.19,1.67,1.67,0,0,0-.86.19,1.73,1.73,0,0,0-.73.47l-.35.45a2.27,2.27,0,0,0-.31,1.14l.08.6a2.26,2.26,0,0,0,.58,1l.32.31a2.42,2.42,0,0,0,1.59.66,1.67,1.67,0,0,0,.86-.19,1.84,1.84,0,0,0,.73-.47l.35-.45a2.3,2.3,0,0,0,.31-1.14c0-.2-.06-.4-.08-.6A2.26,2.26,0,0,0,155.29,156.92Z"/><path class="cls-4" d="M147.08,156.92l-.32-.31a1.64,1.64,0,0,0-.72-.47,2.09,2.09,0,0,0-1.74,0,1.64,1.64,0,0,0-.72.47l-.35.45a2.17,2.17,0,0,0-.31,1.14l.08.6a2.26,2.26,0,0,0,.58,1l.31.31a1.84,1.84,0,0,0,.73.47,1.7,1.7,0,0,0,.86.19,1.73,1.73,0,0,0,.87-.19,1.84,1.84,0,0,0,.73-.47l.35-.45a2.29,2.29,0,0,0,.3-1.14l-.08-.6A2.24,2.24,0,0,0,147.08,156.92Z"/><path class="cls-5" d="M138.86,156.92l-.31-.31a1.73,1.73,0,0,0-.73-.47A1.67,1.67,0,0,0,137,156a1.73,1.73,0,0,0-.87.19,1.64,1.64,0,0,0-.72.47l-.36.45a2.26,2.26,0,0,0-.3,1.14c0,.2,0,.4.08.6a2.17,2.17,0,0,0,.58,1l.31.31a1.8,1.8,0,0,0,.72.47,2.29,2.29,0,0,0,2.46-.47l.35-.45a2.2,2.2,0,0,0,.31-1.14l-.08-.6A2.26,2.26,0,0,0,138.86,156.92Z"/><path class="cls-6" d="M180.85,146.27l-.1-.11-.06,0a2.75,2.75,0,0,0-2-.81h-2.26V79.92a3,3,0,0,0-3-3H153.22V65c0-3.86-6-3.87-6,0V76.92H136.08V53.84a3,3,0,0,0-3-3h-20.4a3,3,0,0,0-3,3V76.92h-11V65c0-3.86-6-3.87-6,0V76.92H72.54a3,3,0,0,0-3,3v65.34c-.69,0-1.38,0-2.08,0h-.18a3,3,0,0,0-3,3v22.09a3,3,0,0,0,3,3h97.6c4.52,0,9.07.15,13.58,0h.19a3,3,0,0,0,3-3V148.3A2.78,2.78,0,0,0,180.85,146.27Zm-13.34-1H81.05c-1.84,0-3.67,0-5.51-.05V101.86H92.71v14H85.1c-3.86,0-3.86,6,0,6h7.61v7.71c0,3.86,6,3.87,6,0v-7.71h11v7.71a3,3,0,0,0,3,3h20.4a2.78,2.78,0,0,0,2-.8l.1-.1.06-.06a2.75,2.75,0,0,0,.81-2v-7.71h11.14v7.71c0,3.86,6,3.87,6,0v-7.71h7.61c3.86,0,3.86-6,0-6h-7.61v-14h17.17V145.3Zm-30.94-29.42h-.49v-14h11.14v14Zm-6.49-36.33v47h-14.4V56.84h14.4Zm-20.4,36.33h-11v-14h11Zm58.75-33h2V95.86H153.22V82.92Zm-21.21,0V95.86H136.08V82.92Zm-39.51,0h2V95.86h-11V82.92Zm-15,0V95.86H75.54V82.92Zm74.8,84.47H71.83l-1.55,0V151.3h94.6c3.58,0,7.18.09,10.77,0v16Z"/></g></svg>