<svg xmlns="http://www.w3.org/2000/svg" viewBox="0 0 245.93 245.93"><defs><style>.cls-1{fill:#fcfcfc;}</style></defs><g id="Layer_14" data-name="Layer 14"><path class="cls-1" d="M194.56,94a8.31,8.31,0,0,0-9.63,0l-16.28,13.37v-9.6a8.34,8.34,0,0,0-8.33-8.34H85.61a8.34,8.34,0,0,0-8.34,8.34v11l-16-14.6L61,94a8.32,8.32,0,0,0-9.64,0,8.59,8.59,0,0,0-3.49,7v43.53a8.58,8.58,0,0,0,4,7.4A8.32,8.32,0,0,0,61,151.6l.15-.1,16.12-14.71v11.05a8.33,8.33,0,0,0,8.34,8.33h33.54a3,3,0,0,0,3-3h0a3,3,0,0,0-3-3H85.61a2.3,2.3,0,0,1-2.31-2.3v-50a2.31,2.31,0,0,1,2.31-2.31h74.71a2.32,2.32,0,0,1,2.31,2.31v12.85a4.57,4.57,0,0,0,2.57,4.19,4.37,4.37,0,0,0,4.63-.6l18.66-15.34a2.31,2.31,0,0,1,3.56,1.93v44a2.15,2.15,0,0,1-.07.58,3,3,0,0,0,.78,2.69h0a3,3,0,0,0,5.09-1.29,8.65,8.65,0,0,0,.23-2V101.06A8.55,8.55,0,0,0,194.56,94ZM57.39,146.77a2.3,2.3,0,0,1-3.51-2v-44a2.31,2.31,0,0,1,3.5-2L77.27,117v11.66Z"/><path class="cls-1" d="M132.29,104.92h0a3,3,0,0,0-3-3h-26.7a3,3,0,0,0-3,3h0a3,3,0,0,0,3,3h26.7A3,3,0,0,0,132.29,104.92Z"/><path class="cls-1" d="M90,104.92h0a3,3,0,0,0,6,0h0a3,3,0,1,0-6,0Z"/><path class="cls-1" d="M175.29,125a7.85,7.85,0,0,0-6.78-3.91H145.57a7.85,7.85,0,0,0-6.78,3.91l-11.48,19.88a7.87,7.87,0,0,0,0,7.83l11.48,19.87a7.85,7.85,0,0,0,6.78,3.91h22.94a7.85,7.85,0,0,0,6.78-3.91l11.48-19.87a7.87,7.87,0,0,0,0-7.83Zm6.26,24.69-11.48,19.87a1.8,1.8,0,0,1-1.56.9H145.57a1.8,1.8,0,0,1-1.56-.9l-11.47-19.87a1.76,1.76,0,0,1,0-1.8L144,128a1.8,1.8,0,0,1,1.56-.9h22.94a1.8,1.8,0,0,1,1.56.9l11.48,19.87A1.81,1.81,0,0,1,181.55,149.67Z"/><path class="cls-1" d="M149.5,133.88h0a3.06,3.06,0,0,0-4.19,1.12L143,139a3.06,3.06,0,0,0,5.31,3.06l2.27-4A3.07,3.07,0,0,0,149.5,133.88Z"/></g></svg>