<svg xmlns="http://www.w3.org/2000/svg" xmlns:xlink="http://www.w3.org/1999/xlink" viewBox="0 0 243.04 243.04"><defs><style>.cls-1{fill:url(#linear-gradient);}.cls-2{fill:url(#linear-gradient-2);}.cls-3{fill:url(#linear-gradient-3);}.cls-4{fill:url(#linear-gradient-4);}</style><linearGradient id="linear-gradient" x1="53.14" y1="119.52" x2="154.55" y2="119.52" gradientUnits="userSpaceOnUse"><stop offset="0" stop-color="#41b6e6"/><stop offset="1" stop-color="#0086d6"/></linearGradient><linearGradient id="linear-gradient-2" x1="101.03" y1="144.27" x2="189.9" y2="144.27" xlink:href="#linear-gradient"/><linearGradient id="linear-gradient-3" x1="106.16" y1="95.15" x2="120.37" y2="95.15" gradientTransform="translate(100.44 -52.22) rotate(45)" xlink:href="#linear-gradient"/><linearGradient id="linear-gradient-4" x1="154.09" y1="132.46" x2="167.82" y2="132.46" xlink:href="#linear-gradient"/></defs><g id="Layer_14" data-name="Layer 14"><path class="cls-1" d="M154.55,93.9a25.09,25.09,0,0,0-42.83-17.74L60.48,127.4A25.09,25.09,0,0,0,96,162.88l51.24-51.24A24.92,24.92,0,0,0,154.55,93.9ZM92,158.9a19.48,19.48,0,0,1-27.52,0h0a19.46,19.46,0,0,1,0-27.52l23.27-23.27,27.52,27.52Zm27.25-27.24L91.7,104.14l24-24a19.46,19.46,0,1,1,27.52,27.52Z"/><path class="cls-2" d="M164.35,119.18H148.28a2.81,2.81,0,0,0-2.81,2.81h0a2.81,2.81,0,0,0,2.81,2.81H164.4a19.74,19.74,0,0,1,19.87,18.88,19.48,19.48,0,0,1-19.45,20H134.38V140.05a2.81,2.81,0,0,0-2.81-2.82h0a2.82,2.82,0,0,0-2.82,2.82v23.68H103.84a2.81,2.81,0,0,0-2.81,2.81h0a2.81,2.81,0,0,0,2.81,2.81h61a25.12,25.12,0,0,0,25.08-25.69C189.57,130,178.05,119.18,164.35,119.18Z"/><rect class="cls-3" x="104.38" y="92.34" width="17.77" height="5.62" rx="2.81" transform="translate(-34.11 107.95) rotate(-45)"/><rect class="cls-4" x="154.09" y="129.65" width="13.73" height="5.62" rx="2.81"/></g></svg>