<svg xmlns="http://www.w3.org/2000/svg" xmlns:xlink="http://www.w3.org/1999/xlink" viewBox="0 0 245.93 245.93"><defs><style>.cls-1{fill:url(#linear-gradient);}.cls-2{fill:url(#linear-gradient-2);}.cls-3{fill:url(#linear-gradient-3);}.cls-4{fill:url(#linear-gradient-4);}</style><linearGradient id="linear-gradient" x1="16.44" y1="122.96" x2="229.48" y2="122.96" gradientUnits="userSpaceOnUse"><stop offset="0" stop-color="#41b6e6"/><stop offset="1" stop-color="#0086d6"/></linearGradient><linearGradient id="linear-gradient-2" x1="62.43" y1="124.88" x2="179.68" y2="124.88" xlink:href="#linear-gradient"/><linearGradient id="linear-gradient-3" x1="115.79" y1="109.74" x2="157.22" y2="109.74" xlink:href="#linear-gradient"/><linearGradient id="linear-gradient-4" x1="115.79" y1="100.42" x2="175.87" y2="100.42" xlink:href="#linear-gradient"/></defs><g id="Layer_3" data-name="Layer 3"><path class="cls-1" d="M123,16.44A106.52,106.52,0,1,0,229.48,123,106.65,106.65,0,0,0,123,16.44ZM123,221a98,98,0,1,1,98-98A98.14,98.14,0,0,1,123,221Z"/><g id="_1" data-name=" 1"><path class="cls-2" d="M176.2,154.66l-14.74-14.74a11.89,11.89,0,0,0-16.83,0l-9,9-.33-.19a108.16,108.16,0,0,1-38.11-38.12l-.19-.33,9-9a11.91,11.91,0,0,0,0-16.83L91.26,69.72a11.94,11.94,0,0,0-16.83,0l-2.56,2.57c-8.86,8.85-11.6,22.56-7.73,38.58,3.7,15.31,13.09,31.11,26.45,44.48s29.13,22.74,44.47,26.44a58.32,58.32,0,0,0,13.53,1.71c10.21,0,18.87-3.27,25-9.45l2.57-2.57A11.9,11.9,0,0,0,176.2,154.66ZM170.67,166l-2.57,2.57c-4.73,4.73-11.46,7.15-19.54,7.15a49.63,49.63,0,0,1-11.66-1.49c-14-3.38-28.45-12-40.79-24.37S75.1,123,71.73,109c-3.2-13.26-1.19-24.35,5.67-31.2L80,75.25a4.06,4.06,0,0,1,2.88-1.19,4.15,4.15,0,0,1,2.88,1.19L100.47,90a4.09,4.09,0,0,1,0,5.77l-11,11a3.88,3.88,0,0,0-.7,4.56,108.6,108.6,0,0,0,19.59,26.24,108.66,108.66,0,0,0,26.25,19.61,3.92,3.92,0,0,0,4.57-.71l11-11a4.09,4.09,0,0,1,5.76,0l14.74,14.74A4.09,4.09,0,0,1,170.67,166Z"/><path class="cls-3" d="M157.22,126.54a3.92,3.92,0,1,1-7.83,0A29.78,29.78,0,0,0,119.7,96.85a3.92,3.92,0,0,1,0-7.83A37.56,37.56,0,0,1,157.22,126.54Z"/><path class="cls-4" d="M175.87,126.54a3.92,3.92,0,1,1-7.83,0A48.39,48.39,0,0,0,119.7,78.2a3.92,3.92,0,0,1,0-7.83A56.24,56.24,0,0,1,175.87,126.54Z"/></g></g></svg>