<svg xmlns="http://www.w3.org/2000/svg" xmlns:xlink="http://www.w3.org/1999/xlink" viewBox="0 0 243.04 242.9"><defs><style>.cls-1{fill:#fff;}.cls-2{fill:url(#linear-gradient);}.cls-3{fill:url(#linear-gradient-2);}.cls-4{fill:url(#linear-gradient-3);}.cls-5{fill:url(#linear-gradient-4);}</style><linearGradient id="linear-gradient" x1="49.21" y1="165.37" x2="196.45" y2="165.37" gradientUnits="userSpaceOnUse"><stop offset="0" stop-color="#41b6e6"/><stop offset="1" stop-color="#0086d6"/></linearGradient><linearGradient id="linear-gradient-2" x1="15.94" y1="123.1" x2="229.72" y2="123.1" xlink:href="#linear-gradient"/><linearGradient id="linear-gradient-3" x1="71.61" y1="146.43" x2="174.05" y2="146.43" xlink:href="#linear-gradient"/><linearGradient id="linear-gradient-4" x1="49.21" y1="87.23" x2="196.46" y2="87.23" xlink:href="#linear-gradient"/></defs><g id="Layer_3" data-name="Layer 3"><circle class="cls-1" cx="121.52" cy="121.52" r="121.52"/><path class="cls-2" d="M192.24,151.57h0a4.48,4.48,0,0,0-4.66,3.63,35.55,35.55,0,0,1-1.78,6.3c-3.45,8.73-8.46,8.73-10.11,8.73H70c-7.93,0-10.87-9.51-11.9-15a4.48,4.48,0,0,0-8.8,1.67,44,44,0,0,0,2.25,7.93c3.67,9.29,10.22,14.4,18.45,14.4H175.68c8.23,0,14.78-5.11,18.44-14.4a44.94,44.94,0,0,0,2.26-7.93A4.48,4.48,0,0,0,192.24,151.57Z"/><path class="cls-3" d="M122.83,16.21A106.89,106.89,0,1,0,229.72,123.1,107,107,0,0,0,122.83,16.21Zm0,204.78a97.89,97.89,0,1,1,97.89-97.89A98,98,0,0,1,122.83,221Z"/><path class="cls-4" d="M87.31,136.8a3.86,3.86,0,0,0-3.86,3.86v6.45H76.09a4.48,4.48,0,0,0-4.48,4.48h0a4.49,4.49,0,0,0,4.48,4.48h93.48a4.49,4.49,0,0,0,4.48-4.48h0a4.48,4.48,0,0,0-4.48-4.48h-6.88v-6.45a3.87,3.87,0,0,0-7.73,0v6.45H138.85v-6.45a3.87,3.87,0,0,0-7.73,0v6.45H115v-6.45a3.86,3.86,0,0,0-7.72,0v6.45H91.18v-6.45A3.86,3.86,0,0,0,87.31,136.8Z"/><path class="cls-5" d="M175.92,77.49a3.79,3.79,0,0,0-.26-.71l-2.13-4.33a23.61,23.61,0,0,0-21.21-13.22h-59A23.62,23.62,0,0,0,72.13,72.45L70,76.78a3.83,3.83,0,0,0-.27.71c-8.11.1-14.57,5.2-18.2,14.39a43.86,43.86,0,0,0-2.21,7.7c0,.08,0,.15,0,.22h0a3.39,3.39,0,0,0-.07.7s0,.06,0,.09h0v.06a4.47,4.47,0,0,0,4.22,4.44h0a4.28,4.28,0,0,0,.62,0h29.4v6.29a3.87,3.87,0,1,0,7.73,0v-6.29h16.11v6.29a3.86,3.86,0,1,0,7.72,0v-6.29h16.11v6.29a3.87,3.87,0,1,0,7.73,0v-6.29H155v6.29a3.87,3.87,0,1,0,7.73,0v-6.29h28.79a3.84,3.84,0,0,0,.76,0,4.46,4.46,0,0,0,4.21-4.44s0,0,0-.06h0s0-.06,0-.09a5.72,5.72,0,0,0-.07-.7h0a2,2,0,0,1,0-.24,43.78,43.78,0,0,0-2.21-7.69C190.49,82.69,184,77.59,175.92,77.49ZM98.16,67h49.35a23.63,23.63,0,0,1,19.65,10.52H78.51A23.62,23.62,0,0,1,98.16,67Zm49,29.16H59.53c.11-.32.22-.64.34-1,3.45-8.73,8.47-8.73,10.11-8.73h105.7c5.67,0,8.78,4.88,10.48,9.68Z"/></g></svg>