<svg xmlns="http://www.w3.org/2000/svg" xmlns:xlink="http://www.w3.org/1999/xlink" viewBox="0 0 243.04 244.07"><defs><style>.cls-1{fill:#fff;}.cls-2{fill:url(#linear-gradient);}.cls-3{fill:url(#linear-gradient-2);}.cls-4{fill:url(#linear-gradient-3);}</style><linearGradient id="linear-gradient" x1="94.12" y1="157.22" x2="120.22" y2="157.22" gradientUnits="userSpaceOnUse"><stop offset="0" stop-color="#41b6e6"/><stop offset="1" stop-color="#0086d6"/></linearGradient><linearGradient id="linear-gradient-2" x1="74.27" y1="121.87" x2="171.39" y2="121.87" xlink:href="#linear-gradient"/><linearGradient id="linear-gradient-3" x1="15.94" y1="123.1" x2="229.72" y2="123.1" xlink:href="#linear-gradient"/></defs><g id="Layer_3" data-name="Layer 3"><circle class="cls-1" cx="121.52" cy="121.52" r="121.52"/><path class="cls-2" d="M116.6,161.12a17.38,17.38,0,0,1-13.32-13.32,4.63,4.63,0,0,0-9,2,26.7,26.7,0,0,0,20.36,20.37,4.64,4.64,0,0,0,2-9Z"/><path class="cls-3" d="M131.22,57.7l-.54-1a9.28,9.28,0,0,0-15.71,0l-.52,1-33.2,60a48.56,48.56,0,1,0,83.13-.06Zm-8.39,124.37A39.3,39.3,0,0,1,89.2,122.45l.09-.16,29-52.49h0l2.35-4.25s0,0,0,0,.13-.25.2-.37h0a2.32,2.32,0,0,1,3.82,0h0l.2.37s0,0,0,0l2.35,4.25h0l29,52.42.15.26a39.3,39.3,0,0,1-33.65,59.59Z"/><path class="cls-4" d="M122.83,16.21A106.89,106.89,0,1,0,229.72,123.1,107,107,0,0,0,122.83,16.21Zm0,204.78a97.89,97.89,0,1,1,97.89-97.89A98,98,0,0,1,122.83,221Z"/></g></svg>