<svg xmlns="http://www.w3.org/2000/svg" xmlns:xlink="http://www.w3.org/1999/xlink" viewBox="0 0 243.04 245.78"><defs><style>.cls-1{fill:#fff;}.cls-2{fill:url(#linear-gradient);}.cls-3{fill:url(#linear-gradient-2);}.cls-4{fill:url(#linear-gradient-3);}.cls-5{fill:url(#linear-gradient-4);}</style><linearGradient id="linear-gradient" x1="47.1" y1="158.3" x2="199.53" y2="158.3" gradientUnits="userSpaceOnUse"><stop offset="0" stop-color="#41b6e6"/><stop offset="1" stop-color="#0086d6"/></linearGradient><linearGradient id="linear-gradient-2" x1="70.3" y1="138.69" x2="176.34" y2="138.69" xlink:href="#linear-gradient"/><linearGradient id="linear-gradient-3" x1="16.43" y1="122.97" x2="230.21" y2="122.97" xlink:href="#linear-gradient"/><linearGradient id="linear-gradient-4" x1="110.73" y1="88.21" x2="135.9" y2="88.21" xlink:href="#linear-gradient"/></defs><g id="Layer_3" data-name="Layer 3"><circle class="cls-1" cx="121.52" cy="121.52" r="121.52"/><path class="cls-2" d="M190.33,147.77a36.78,36.78,0,0,1-1.84,6.52c-3.57,9-8.76,9-10.47,9H68.61c-8.2,0-11.24-9.84-12.31-15.57a4.64,4.64,0,0,0-9.11,1.73,45.42,45.42,0,0,0,2.33,8.22c3.79,9.61,10.57,14.9,19.09,14.9H178c8.52,0,15.3-5.29,19.1-14.9a47,47,0,0,0,2.33-8.21,4.63,4.63,0,0,0-4.29-5.48h0A4.63,4.63,0,0,0,190.33,147.77Z"/><path class="cls-3" d="M74.93,148.66H171.7a4.63,4.63,0,0,0,4.64-4.63h0a4.64,4.64,0,0,0-4.64-4.64h-7.13v-6.67a4,4,0,1,0-8,0v6.67H139.9v-6.67a4,4,0,0,0-8,0v6.67H115.23v-6.67a4,4,0,0,0-8,0v6.67H90.55v-6.67a4,4,0,0,0-8,0v6.67H74.93A4.63,4.63,0,0,0,70.3,144h0A4.63,4.63,0,0,0,74.93,148.66Z"/><path class="cls-4" d="M123.32,16.08A106.89,106.89,0,1,0,230.21,123,107,107,0,0,0,123.32,16.08Zm0,204.78A97.89,97.89,0,1,1,221.21,123,98,98,0,0,1,123.32,220.86Z"/><path class="cls-5" d="M119.9,104.28l1.61,1.74a2.47,2.47,0,0,0,3.62,0l1.61-1.73L135,95.42a3.42,3.42,0,1,0-5-4.66l-3.23,3.48V73a3.42,3.42,0,1,0-6.84,0V94.23l-3.24-3.48a3.42,3.42,0,0,0-5,4.65Z"/></g></svg>