<svg id="Layer_1" data-name="Layer 1" xmlns="http://www.w3.org/2000/svg" viewBox="0 0 507 201"><defs><style>.cls-1{fill:#0086d6;}.cls-2{fill:#7e7e7e;}</style></defs><path class="cls-1" d="M11.47,6.84v96.31c0,2.29.2,2.21-2.14,2.14H5.72c-.08,0-.16-.08-.39-.2V2.79A2.45,2.45,0,0,1,7.78.34H497.49c2.34,0,2.26-.2,2.26,2.29V75.05a2,2,0,0,1-2,2h-2.88c-1.21,0-1.29-.08-1.29-1.37V6.84Z"/><path class="cls-1" d="M11.4,194.51c1,.08,1.83.16,2.68.16H78.72c5.83,0,11.63,0,17.47-.08,4.39,0,8.75,0,13.15.08H226.82l17.47-.08c4.28,0,8.56,0,12.8.08h42.73a2.14,2.14,0,0,1,2.14,2.14v3.73c-.82,0-1.48.12-2.14.12H7.89c-2.8,0-2.56.35-2.56-2.53V165a2.13,2.13,0,0,1,2.14-2.14h2.6c1,0,1.17.15,1.21,1.16v28.33C11.28,193.07,11.36,193.81,11.4,194.51Z"/><path class="cls-1" d="M478.35,200.58a26.73,26.73,0,0,1-.08-5.06c0-.27.43-.58.74-.7a3.06,3.06,0,0,1,1.13,0h11.4a19.86,19.86,0,0,0,2-.15V136.45a2.14,2.14,0,0,1,2.14-2.14h3a.85.85,0,0,1,1,.7v64.68a1,1,0,0,1-1,1H479.55A4,4,0,0,1,478.35,200.58Z"/><path class="cls-2" d="M333,175.94h-20v24.73h4.33V191H333a4.77,4.77,0,0,0,4.78-4.77v-5.54A4.78,4.78,0,0,0,333,175.94Zm1,10a1.92,1.92,0,0,1-1.92,1.92H317.22V179H332A1.92,1.92,0,0,1,334,181Z"/><path class="cls-2" d="M346.25,181.69a4.42,4.42,0,0,1,2.72-.92,69.42,69.42,0,0,1,9.87,0,5,5,0,0,1,5,5v14.92h-4.54V189.38a5,5,0,0,0-5-5h-2.91a5.08,5.08,0,0,0-5.08,5.08v11.23h-4.55V173.5h4.49Z"/><path class="cls-2" d="M386.63,180.77,373,180.63h-1.86l.76,3.51h12s3.09-.36,3.07,3.26l-.16,1h-13.1a3.24,3.24,0,0,0-3.16,3.34v5.76a3.14,3.14,0,0,0,3.31,3.19H383s3.12-.59,3.77-1.55l.21,1.55h4.45V187.09S391.67,180.77,386.63,180.77Zm.34,14.65s-.37,1.82-4.49,1.82l-7.57,0v-3.62c0-.08,0-1.57,2.18-1.57H387Z"/><path class="cls-2" d="M466.1,180.77l-13.59-.14h-1.86l.75,3.51h12s3.1-.36,3.08,3.26l-.16,1h-13.1a3.24,3.24,0,0,0-3.16,3.34v5.76a3.12,3.12,0,0,0,3.3,3.19h9.15s3.13-.59,3.77-1.55l.22,1.55h4.45V187.09S471.14,180.77,466.1,180.77Zm.34,14.65s-.38,1.82-4.49,1.82l-7.57,0v-3.62s0-1.57,2.18-1.57h9.88Z"/><path class="cls-2" d="M398.06,181v19.65h4v-13.4s-.09-3.67,3.5-2h4.33v-4.2s-4.27-1.59-7.36,1.68l-.67-1.72Z"/><path class="cls-2" d="M414.12,181.05v19.62h4.49V187.72a3.8,3.8,0,0,1,4-3.44,4.08,4.08,0,0,1,4.25,3.37v13h4.4v-13s-.17-3.45,4.12-3.45,4.16,3.44,4.16,3.44v13H444V186.05s.22-5.23-5.71-5.23h-6.88a3.14,3.14,0,0,0-2.08,1.15,7.39,7.39,0,0,0-3-1.12,22.85,22.85,0,0,0-7.74.2A7.93,7.93,0,0,0,414.12,181.05Z"/><polygon class="cls-1" points="83.84 143.52 131.79 143.52 124.12 125.35 91.9 125.35 118.4 63.17 160.37 162.08 183.81 162.08 132.34 40.16 130.89 40.17 107.65 40.18 103.38 40.16 67.85 125.35 0.07 125.39 0.07 143.52 60.42 143.52 52.8 162.08 75.53 162.08 83.84 143.52"/><polygon class="cls-1" points="235.11 71.47 235.11 162.14 258.38 162.14 258.41 58.32 306.08 58.42 305.88 40.11 184.87 40.11 184.87 58.32 235.06 58.32 235.11 71.47"/><path class="cls-1" d="M393.45,96.62l-2.23,18.3h44.6v21.64c0,7.53-9.49,7.27-9.49,7.27H393.71s-15.39,0-29.85,0-13.22-10.58-13.22-10.58V69.7c0-12.43,11.91-11.23,11.91-11.23h63.07c10.52,0,10.55,9.91,10.55,9.91v8.79L459,74.51V64.88c0-27.21-30.17-25-30.17-25H356.66c-29.42-.12-29.28,24.59-29.28,24.59s0,63.21,0,72.43S334,152.63,334,152.63c8.68,10.79,23.49,9.69,23.49,9.69h64.62s16.68.94,24.85-3.37,9.63-10.53,11.06-14.58,1.19-14.72,1.19-14.72V114.92H507V96.62Z"/></svg>