<svg xmlns="http://www.w3.org/2000/svg" xmlns:xlink="http://www.w3.org/1999/xlink" viewBox="0 0 245.93 245.93"><defs><style>.cls-1{fill:url(#linear-gradient);}.cls-2{fill:url(#linear-gradient-2);}.cls-3{fill:url(#linear-gradient-3);}.cls-4{fill:url(#linear-gradient-4);}.cls-5{fill:url(#linear-gradient-5);}</style><linearGradient id="linear-gradient" x1="16.44" y1="122.96" x2="229.48" y2="122.96" gradientUnits="userSpaceOnUse"><stop offset="0" stop-color="#41b6e6"/><stop offset="1" stop-color="#0086d6"/></linearGradient><linearGradient id="linear-gradient-2" x1="102.36" y1="142.67" x2="112.91" y2="142.67" xlink:href="#linear-gradient"/><linearGradient id="linear-gradient-3" x1="117.69" y1="142.67" x2="128.24" y2="142.67" xlink:href="#linear-gradient"/><linearGradient id="linear-gradient-4" x1="133.02" y1="142.67" x2="143.56" y2="142.67" xlink:href="#linear-gradient"/><linearGradient id="linear-gradient-5" x1="66.91" y1="119.94" x2="179.98" y2="119.94" xlink:href="#linear-gradient"/></defs><g id="Layer_3" data-name="Layer 3"><path class="cls-1" d="M123,16.44A106.52,106.52,0,1,0,229.48,123,106.65,106.65,0,0,0,123,16.44ZM123,221a98,98,0,1,1,98-98A98.14,98.14,0,0,1,123,221Z"/><circle class="cls-2" cx="107.64" cy="142.67" r="5.27"/><circle class="cls-3" cx="122.96" cy="142.67" r="5.27"/><circle class="cls-4" cx="138.29" cy="142.67" r="5.27"/><path class="cls-5" d="M180,91.65s0-.06,0-.09a.59.59,0,0,1,0-.14,5,5,0,0,0-.12-.85c-.27-1.19-1.41-2.11-2.24-2.94l-3.54-3.53q-5.16-5.16-10.31-10.31l-8.37-8.37c-1.13-1.13-2-2.14-3.81-2.26-.82-.06-1.67,0-2.49,0H104.89c-3.16,0-6.41-.22-9.57,0-1.77.12-2.63,1.07-3.73,2.18L88.2,68.72,69.38,87.55,68,88.91A3.72,3.72,0,0,0,67.27,90l-.06.12v0a3.6,3.6,0,0,0-.29,1.39V173a3.8,3.8,0,0,0,3.75,3.75h82.46c7.56,0,15.13.12,22.69,0h.42A3.81,3.81,0,0,0,180,173V93.19C180,92.68,180,92.17,180,91.65ZM150,70.66q8.58,8.58,17.15,17.15H141.53l-4.06-17.15H150Zm-15.2,39.22H112.37V95.31h22.45Zm-5-39.22q2,8.58,4.06,17.15H113.36l4-16.87.07-.28h12.35ZM94.94,72.59l1.93-1.93h12.84l-4,16.87a2.86,2.86,0,0,1-.07.28H93.07c-4.43,0-8.87,0-13.3,0Zm61.91,96.68H90.65c-5.4,0-10.83-.15-16.24-.07V95.31h30.46v18.32a3.8,3.8,0,0,0,3.75,3.75h29.95a3.8,3.8,0,0,0,3.75-3.75V95.31h13.19c5.65,0,11.31.09,17,0v73.92Z"/></g></svg>