<svg xmlns="http://www.w3.org/2000/svg" viewBox="0 0 245.93 245.93"><defs><style>.cls-1{fill:#fff;}</style></defs><g id="Layer_25" data-name="Layer 25"><path class="cls-1" d="M201.41,198.85l-.66-.66a4.36,4.36,0,0,0-1.83-1.17,5.09,5.09,0,0,0-4.36,0,4.3,4.3,0,0,0-1.83,1.17c-.29.38-.59.76-.88,1.15a5.61,5.61,0,0,0-.78,2.86l.21,1.5a5.64,5.64,0,0,0,1.45,2.5l.67.66a4.27,4.27,0,0,0,1.82,1.17,5.12,5.12,0,0,0,4.37,0,4.27,4.27,0,0,0,1.82-1.17l.89-1.14a5.66,5.66,0,0,0,.77-2.86c-.07-.51-.13-1-.2-1.51A5.71,5.71,0,0,0,201.41,198.85Z"/><path class="cls-1" d="M185.14,197.93l-.41-.4a2.65,2.65,0,0,0-1.1-.71,3.54,3.54,0,0,0-3.75.71l-.53.7a3.38,3.38,0,0,0-.47,1.73l.12.91a3.55,3.55,0,0,0,.88,1.51l.41.4a2.55,2.55,0,0,0,1.1.71,3.05,3.05,0,0,0,2.64,0,2.53,2.53,0,0,0,1.11-.71l.53-.69a3.41,3.41,0,0,0,.47-1.73l-.12-.91A3.52,3.52,0,0,0,185.14,197.93Z"/><path class="cls-1" d="M174.61,197.93l-.4-.4a2.65,2.65,0,0,0-1.1-.71,2.61,2.61,0,0,0-1.32-.29,2.56,2.56,0,0,0-1.32.29,2.62,2.62,0,0,0-1.11.71l-.53.7a3.38,3.38,0,0,0-.47,1.73l.12.91a3.45,3.45,0,0,0,.88,1.51l.4.4a2.58,2.58,0,0,0,1.11.71,3.05,3.05,0,0,0,2.64,0,2.49,2.49,0,0,0,1.1-.71l.54-.69a3.41,3.41,0,0,0,.47-1.73l-.12-.91A3.45,3.45,0,0,0,174.61,197.93Z"/><path class="cls-1" d="M164.09,197.93l-.4-.4a3.74,3.74,0,0,0-2.43-1,2.61,2.61,0,0,0-1.32.29,2.65,2.65,0,0,0-1.1.71l-.54.7a3.37,3.37,0,0,0-.46,1.73l.12.91a3.45,3.45,0,0,0,.88,1.51c.13.14.27.27.4.4a2.53,2.53,0,0,0,1.11.71,3.05,3.05,0,0,0,2.64,0,2.55,2.55,0,0,0,1.1-.71l.54-.69a3.51,3.51,0,0,0,.47-1.73c0-.31-.09-.61-.13-.91A3.34,3.34,0,0,0,164.09,197.93Z"/><path class="cls-1" d="M216.6,179.3h-4.35V82.94c0-4.63.12-9.28,0-13.91v-.2a4.57,4.57,0,0,0-4.5-4.5H173.29v-7.2c0-4.39.12-8.8,0-13.19a1.21,1.21,0,0,1,0-.19,4.5,4.5,0,0,0-9,0V64.33H144.48V40.71c0-5.16.13-10.34,0-15.51V25a4.57,4.57,0,0,0-4.5-4.5H105.67a4.56,4.56,0,0,0-4.5,4.5V64.33H81.64v-7.2c0-4.39.13-8.8,0-13.19v-.19a4.5,4.5,0,0,0-9,0V64.33H38.18a4.57,4.57,0,0,0-4.5,4.5V169.69c0,3.2,0,6.4,0,9.6-1.33,0-2.66,0-4,0h-.32a4.57,4.57,0,0,0-4.5,4.5v37.14a4.56,4.56,0,0,0,4.5,4.5H209c2.43,0,4.87.05,7.3,0h.32a4.57,4.57,0,0,0,4.5-4.5V183.8A4.55,4.55,0,0,0,216.6,179.3Zm-18.64,0H42.68V105.18h30v24.66H59.31a4.5,4.5,0,0,0,0,9H72.64V139c0,4.39-.12,8.8,0,13.19v.19a4.5,4.5,0,0,0,9,0V138.84h19.52c0,4.43-.11,8.87,0,13.29v.22a4.57,4.57,0,0,0,4.5,4.5H140a4.55,4.55,0,0,0,4.5-4.5V138.84h19.81V139c0,4.39-.13,8.8,0,13.19v.19a4.5,4.5,0,0,0,9,0V138.84h13.34a4.5,4.5,0,0,0,0-9H173.29V105.18h30v64.51c0,3.2-.06,6.41-.05,9.61Zm-33.67-67.4v17.94H144.48V105.18h19.81ZM135.48,37.67v99c0,3.74-.07,7.49-.06,11.23H110.17V40.71c0-3.73.11-7.48.09-11.23h25.22Zm-34.31,92.17H81.64V105.18h19.53Zm98.27-56.51h3.81V96.18h-30V73.33Zm-36.51,0h1.36V96.18H144.48V73.33Zm-65.61,0h3.85V96.18H81.64V73.33ZM61,73.33H72.64V96.18h-30V82.94c0-3.19.09-6.4.09-9.61ZM198,216.44h-161l-3.11,0V188.3H209l3.12,0v28.12H198Z"/></g></svg>