<svg xmlns="http://www.w3.org/2000/svg" xmlns:xlink="http://www.w3.org/1999/xlink" viewBox="0 0 245.93 245.93"><defs><style>.cls-1{fill:url(#linear-gradient);}.cls-2{fill:url(#linear-gradient-2);}.cls-3{fill:url(#linear-gradient-3);}.cls-4{fill:url(#linear-gradient-4);}.cls-5{fill:url(#linear-gradient-5);}.cls-6{fill:url(#linear-gradient-6);}.cls-7{fill:url(#linear-gradient-7);}</style><linearGradient id="linear-gradient" x1="16.44" y1="122.96" x2="229.48" y2="122.96" gradientUnits="userSpaceOnUse"><stop offset="0" stop-color="#41b6e6"/><stop offset="1" stop-color="#0086d6"/></linearGradient><linearGradient id="linear-gradient-2" x1="114.27" y1="84.18" x2="175.85" y2="84.18" xlink:href="#linear-gradient"/><linearGradient id="linear-gradient-3" x1="132.82" y1="84.24" x2="157.28" y2="84.24" xlink:href="#linear-gradient"/><linearGradient id="linear-gradient-4" x1="70.87" y1="127.58" x2="109.25" y2="127.58" xlink:href="#linear-gradient"/><linearGradient id="linear-gradient-5" x1="56.13" y1="106.26" x2="111.2" y2="106.26" xlink:href="#linear-gradient"/><linearGradient id="linear-gradient-6" x1="107.57" y1="152.36" x2="175.03" y2="152.36" xlink:href="#linear-gradient"/><linearGradient id="linear-gradient-7" x1="174.93" y1="123.29" x2="189.8" y2="123.29" xlink:href="#linear-gradient"/></defs><g id="Layer_3" data-name="Layer 3"><path class="cls-1" d="M123,16.44A106.52,106.52,0,1,0,229.48,123,106.65,106.65,0,0,0,123,16.44ZM123,221a98,98,0,1,1,98-98A98.14,98.14,0,0,1,123,221Z"/><path class="cls-2" d="M171,75.49h-4.91L169.52,72a4.88,4.88,0,0,0,0-6.92l-5.38-5.39a4.91,4.91,0,0,0-6.92,0l-3.47,3.47v-4.9a4.89,4.89,0,0,0-4.89-4.89h-7.61a4.89,4.89,0,0,0-4.89,4.89v4.9l-3.47-3.47a4.9,4.9,0,0,0-6.92,0l-5.38,5.39a4.9,4.9,0,0,0,0,6.92l3.47,3.47h-4.91a4.89,4.89,0,0,0-4.88,4.89V88a4.89,4.89,0,0,0,4.88,4.89h4.91l-3.47,3.47a4.89,4.89,0,0,0,0,6.91l5.38,5.39a4.9,4.9,0,0,0,6.92,0l3.47-3.46v4.9a4.89,4.89,0,0,0,4.89,4.88h7.61a4.89,4.89,0,0,0,4.89-4.88v-4.91l3.48,3.48a4.9,4.9,0,0,0,6.91,0l5.38-5.38A4.89,4.89,0,0,0,171,99.81a4.83,4.83,0,0,0-1.44-3.46l-3.47-3.47H171A4.89,4.89,0,0,0,175.85,88V80.38A4.89,4.89,0,0,0,171,75.49ZM170,87.05h-8.75l-.64,2a15.46,15.46,0,0,1-1.08,2.63l-1,1.9,6.18,6.18-4.06,4.06-6.17-6.17-1.9,1a16.25,16.25,0,0,1-2.65,1.1l-2,.65v8.69h-5.75v-8.71l-2-.64a15.61,15.61,0,0,1-2.64-1.09l-1.9-1-6.17,6.17-4.06-4.06,6.18-6.19-1-1.9a15.93,15.93,0,0,1-1.09-2.63l-.64-2h-8.74V81.31h8.77l.65-2a16.34,16.34,0,0,1,1.09-2.6l1-1.9-6.24-6.23,4.06-4.07,6.25,6.25,1.89-1a16.14,16.14,0,0,1,2.57-1.06l2-.64V59.22h5.75v8.83l2,.64a15.56,15.56,0,0,1,2.58,1.06l1.89,1,6.24-6.24,4.06,4.07-6.23,6.23,1,1.89a16.15,16.15,0,0,1,1.09,2.61l.64,2H170Z"/><path class="cls-3" d="M157.07,82a11.85,11.85,0,0,0-2-4.79,12.19,12.19,0,0,0-7.87-5,12.14,12.14,0,0,0-4.25,0,12,12,0,0,0-4.84,2A12.27,12.27,0,0,0,133,82a12.36,12.36,0,0,0-.22,2.26,11,11,0,0,0,.2,2.11,11.82,11.82,0,0,0,1.92,4.76,12.14,12.14,0,0,0,7.83,5.14,12,12,0,0,0,4.52,0,12,12,0,0,0,4.73-2,12.13,12.13,0,0,0,3.14-3.17,12.35,12.35,0,0,0,2.12-6.89A11.63,11.63,0,0,0,157.07,82Zm-5.72,2.23a6.32,6.32,0,0,1-.11,1.11,6.14,6.14,0,0,1-1,2.43,6.48,6.48,0,0,1-1.62,1.64,6.31,6.31,0,0,1-4.76,1,6.11,6.11,0,0,1-2.41-1,6.21,6.21,0,0,1-2.61-4.11,6.05,6.05,0,0,1-.1-1.06,6,6,0,0,1,.12-1.17,6.15,6.15,0,0,1,1.05-2.46,6,6,0,0,1,1.55-1.54,6.12,6.12,0,0,1,2.49-1,5.67,5.67,0,0,1,1.09-.1,5.92,5.92,0,0,1,1.1.1,6.3,6.3,0,0,1,4,2.58,6.19,6.19,0,0,1,1,2.48A6.1,6.1,0,0,1,151.35,84.24Z"/><path class="cls-4" d="M107.38,79.87a3.41,3.41,0,0,0-2.66-.12,52.1,52.1,0,0,0-33.85,48.8,52.82,52.82,0,0,0,.57,7.62c0,.16,0,.33.08.53A56.61,56.61,0,0,0,73.23,144,52.13,52.13,0,0,0,99.9,175.26a3.21,3.21,0,0,0,2.6.14,3.35,3.35,0,0,0,.32-6.17A45.4,45.4,0,0,1,107.1,86a3.35,3.35,0,0,0,.28-6.14Z"/><path class="cls-5" d="M111.12,70.6a3.37,3.37,0,0,0-1.53-2.15,3.3,3.3,0,0,0-2.58-.38,69.41,69.41,0,0,0-28.52,16.1,60.12,60.12,0,0,0-15.75,26.27,9.24,9.24,0,0,0-6.61,8.81v16.16a9.16,9.16,0,0,0,9.16,9.16h1.13a7,7,0,0,0,.92,0,2.29,2.29,0,0,0,2-2.81l-.46-2.05a2.39,2.39,0,0,0-2.42-1.79H65.3a2.48,2.48,0,0,1-2.47-2.47v-16a2.71,2.71,0,0,1,.81-1.89,2.22,2.22,0,0,1,1.64-.71,3.53,3.53,0,0,0,3.4-2.64A53.33,53.33,0,0,1,83.17,89a62.57,62.57,0,0,1,25.51-14.41A3.34,3.34,0,0,0,111.12,70.6Z"/><path class="cls-6" d="M175,128.55a53.17,53.17,0,0,0-.85-9.43,3.39,3.39,0,0,0-1.47-2.22,3.29,3.29,0,0,0-2.59-.46,3.35,3.35,0,0,0-2.53,3.89,46.11,46.11,0,0,1,.74,8.22,45.16,45.16,0,0,1-31,43.06,11,11,0,0,0-9.52-5.42h-9.12a11.09,11.09,0,0,0,0,22.18h9.12a11.15,11.15,0,0,0,11.05-10.21,51.79,51.79,0,0,0,33.92-34.39,66.23,66.23,0,0,0,1.64-7.12A51.32,51.32,0,0,0,175,128.55Zm-47.25,53.12h-9.12a4.39,4.39,0,0,1,0-8.78h9.12a4.39,4.39,0,0,1,0,8.78Z"/><path class="cls-7" d="M183.38,110.44c-.61-2.21-1.25-4.23-2-6.13a3.5,3.5,0,0,0-1.7-2,3.41,3.41,0,0,0-3.05,0,3.57,3.57,0,0,0-1.53,4.27,68.2,68.2,0,0,1,2.17,7,3.61,3.61,0,0,0,1,2.06,3.71,3.71,0,0,0,2.58,1,2.31,2.31,0,0,1,2.19,2.47v16.12a2.5,2.5,0,0,1-2.5,2.5h-1.15a2.35,2.35,0,0,0-2.42,1.79l-.47,2.05a2.31,2.31,0,0,0,2,2.81c.32,0,.65,0,1,0h1.08a9.23,9.23,0,0,0,9.2-9.2V119.25A9.05,9.05,0,0,0,183.38,110.44Z"/></g></svg>