<svg xmlns="http://www.w3.org/2000/svg" xmlns:xlink="http://www.w3.org/1999/xlink" viewBox="0 0 243.04 243.04"><defs><style>.cls-1{fill:none;}.cls-2{fill:#fff;}.cls-3{fill:url(#linear-gradient);}.cls-4{fill:#0377be;}.cls-5{clip-path:url(#clip-path);}.cls-6{fill:#3bb2e5;}.cls-7{fill:#3ab1e4;}.cls-8{fill:#39b0e4;}.cls-9{fill:#38afe4;}.cls-10{fill:#37afe4;}.cls-11{fill:#36aee3;}.cls-12{fill:#35ade3;}.cls-13{fill:#34ace3;}.cls-14{fill:#33ace3;}.cls-15{fill:#32abe2;}.cls-16{fill:#31aae2;}.cls-17{fill:#30a9e2;}.cls-18{fill:#2fa9e2;}.cls-19{fill:#2ea8e1;}.cls-20{fill:#2da7e1;}.cls-21{fill:#2ca6e1;}.cls-22{fill:#2ba6e1;}.cls-23{fill:#2aa5e0;}.cls-24{fill:#29a4e0;}.cls-25{fill:#28a3e0;}.cls-26{fill:#27a3e0;}.cls-27{fill:#26a2df;}.cls-28{fill:#25a1df;}.cls-29{fill:#24a0df;}.cls-30{fill:#23a0df;}.cls-31{fill:#229fde;}.cls-32{fill:#219ede;}.cls-33{fill:#1f9dde;}.cls-34{fill:#1e9dde;}.cls-35{fill:#1d9cdd;}.cls-36{fill:#1c9bdd;}.cls-37{fill:#1b9add;}.cls-38{fill:#1a9add;}.cls-39{fill:#1999dc;}.cls-40{fill:#1898dc;}.cls-41{fill:#1797dc;}.cls-42{fill:#1697dc;}.cls-43{fill:#1596db;}.cls-44{fill:#1495db;}.cls-45{fill:#1394db;}.cls-46{fill:#1294db;}.cls-47{fill:#1193da;}.cls-48{fill:#1092da;}.cls-49{fill:#0f91da;}.cls-50{fill:#0e91da;}.cls-51{fill:#0d90d9;}.cls-52{fill:#0c8fd9;}.cls-53{fill:#0b8ed9;}.cls-54{fill:#0a8ed9;}.cls-55{fill:#098dd8;}.cls-56{fill:#088cd8;}.cls-57{fill:#078bd8;}.cls-58{fill:#068bd8;}.cls-59{fill:#41b6e6;}.cls-60{fill:#40b5e6;}.cls-61{fill:#3fb5e6;}.cls-62{fill:#3eb4e5;}.cls-63{fill:#3db3e5;}.cls-64{fill:#3cb2e5;}.cls-65{fill:#058ad7;}.cls-66{fill:#0489d7;}.cls-67{fill:#0388d7;}.cls-68{fill:#0288d7;}.cls-69{fill:#0187d6;}.cls-70{fill:#0086d6;}.cls-71{clip-path:url(#clip-path-2);}.cls-72{fill:url(#linear-gradient-2);}.cls-73{fill:url(#linear-gradient-3);}.cls-74{fill:url(#linear-gradient-4);}.cls-75{fill:url(#linear-gradient-5);}</style><linearGradient id="linear-gradient" x1="15.97" y1="121.18" x2="227.07" y2="121.18" gradientUnits="userSpaceOnUse"><stop offset="0" stop-color="#41b6e6"/><stop offset="1" stop-color="#0086d6"/></linearGradient><clipPath id="clip-path"><path class="cls-1" d="M145.6,130.6a25.6,25.6,0,0,0-22.71-34.14,25.45,25.45,0,0,0-15.31,4.1,25.57,25.57,0,0,0,27.88,42.88A26.23,26.23,0,0,0,145.6,130.6Zm-11.43,7-.36.3-.19.14a20.45,20.45,0,0,1-11.76,4,20.08,20.08,0,0,1-12-3.7,15.92,15.92,0,0,1-2.06-1.7,25,25,0,0,1-2.1-2.26l-.09-.11c-.17-.22-.34-.45-.5-.68-.27-.39-.52-.78-.77-1.18a23.79,23.79,0,0,1-1.43-2.78,20.37,20.37,0,0,1-.71-13.26,19.89,19.89,0,0,1,6.22-9.68c.21-.19.43-.37.65-.55l.16-.12c.36-.27.72-.53,1.1-.78a23.08,23.08,0,0,1,3-1.65,21.1,21.1,0,0,1,5.82-1.61,20.32,20.32,0,0,1,12.73,2.74,19,19,0,0,1,4.92,4.15l.36.43.3.36.14.19c.33.46.65.92.95,1.4a19.28,19.28,0,0,1,3.07,10,20.48,20.48,0,0,1-1.28,7.83,21.9,21.9,0,0,1-2.83,5.08l-.35.43-.36.43c-.31.35-.63.69-1,1s-.8.78-1.22,1.15Z"/></clipPath><clipPath id="clip-path-2"><path class="cls-1" d="M127.86,168.1a4.21,4.21,0,0,0,4.4-3.91c.17-1.32.34-2.64.5-4a40,40,0,0,0,7.83-3.24l3,2.3c1.86,1.45,4,1.71,5.85,0,.54-.5,1-1,1.56-1.55l5.67-5.67c.65-.65,1.3-1.29,1.94-1.95a4.22,4.22,0,0,0,.35-5.87c-.82-1.05-1.64-2.11-2.45-3.17a40,40,0,0,0,3.24-7.83l3.74-.47c2.35-.3,4.05-1.63,4.14-4.15,0-.73,0-1.46,0-2.19v-8c0-.92,0-1.84,0-2.75a4.2,4.2,0,0,0-3.9-4.4l-4-.51a40.52,40.52,0,0,0-3.24-7.83l2.31-3c1.44-1.87,1.7-4,0-5.86-.5-.53-1-1-1.55-1.55l-5.67-5.67c-.65-.65-1.29-1.3-2-1.94a4.2,4.2,0,0,0-5.87-.35L140.59,87a40,40,0,0,0-7.83-3.24c-.15-1.25-.31-2.5-.47-3.74-.3-2.35-1.63-4.05-4.15-4.14-.73,0-1.46,0-2.19,0h-8c-.92,0-1.83,0-2.75,0a4.21,4.21,0,0,0-4.4,3.9c-.17,1.33-.34,2.65-.5,4A40,40,0,0,0,102.45,87l-3-2.31c-1.86-1.44-4-1.71-5.85,0-.54.49-1,1-1.56,1.55l-5.67,5.67-1.94,1.94a4.21,4.21,0,0,0-.35,5.87l2.45,3.17a40.52,40.52,0,0,0-3.24,7.83l-3.74.48c-2.35.3-4,1.62-4.14,4.14,0,.73,0,1.47,0,2.2v8c0,.92,0,1.83,0,2.75a4.21,4.21,0,0,0,3.9,4.4l4,.5a40,40,0,0,0,3.24,7.83l-2.31,3c-1.44,1.86-1.7,4,0,5.85.5.54,1,1,1.55,1.56l5.67,5.67,1.94,1.94a4.23,4.23,0,0,0,5.88.35l3.17-2.45a40,40,0,0,0,7.83,3.24c.15,1.25.31,2.49.47,3.74.3,2.35,1.63,4,4.15,4.14.73,0,1.46,0,2.19,0h8C126,168.1,126.94,168.11,127.86,168.1Zm-11.15-6.16c-.17-1.39-.41-2.78-.58-4.16a3.21,3.21,0,0,0-2.26-3,33.16,33.16,0,0,1-10.1-4.18,3.21,3.21,0,0,0-3.74.48l-3.3,2.56c-.19-.17-.37-.35-.55-.53L91,148l-1.11-1.11c.86-1.11,1.68-2.26,2.53-3.36a3.23,3.23,0,0,0,.48-3.73,33.16,33.16,0,0,1-4.18-10.1,3.2,3.2,0,0,0-3-2.26l-4.15-.52c0-.26,0-.52,0-.77v-8.91c1.39-.17,2.78-.41,4.16-.59a3.2,3.2,0,0,0,3-2.26,33.11,33.11,0,0,1,4.18-10.09,3.21,3.21,0,0,0-.48-3.74l-2.56-3.3c.17-.19.35-.37.53-.55l5.19-5.19,1.11-1.11c1.11.86,2.26,1.67,3.35,2.52a3.23,3.23,0,0,0,3.74.49,33.16,33.16,0,0,1,10.1-4.18,3.2,3.2,0,0,0,2.26-3c.17-1.38.35-2.76.52-4.15h9.68c.17,1.39.41,2.78.58,4.16a3.22,3.22,0,0,0,2.26,3,33.16,33.16,0,0,1,10.1,4.18,3.21,3.21,0,0,0,3.74-.49l3.3-2.55.55.52,5.19,5.2,1.11,1.11c-.86,1.1-1.68,2.25-2.53,3.35a3.24,3.24,0,0,0-.48,3.74,33.11,33.11,0,0,1,4.18,10.09,3.08,3.08,0,0,0,2.83,2.24l.14,0,4.14.53c0,.26,0,.51,0,.76v8.92c-1.39.17-2.78.41-4.16.58a3.22,3.22,0,0,0-3,2.26,33.16,33.16,0,0,1-4.18,10.1,3.19,3.19,0,0,0,.48,3.73l2.56,3.31c-.17.19-.35.37-.53.55l-5.19,5.19-1.11,1.11c-1.11-.86-2.26-1.68-3.35-2.53a3.25,3.25,0,0,0-3.74-.48,33.16,33.16,0,0,1-10.1,4.18,3.2,3.2,0,0,0-2.26,3c-.17,1.38-.35,2.76-.52,4.14l-.77,0h-8.91Z"/></clipPath><linearGradient id="linear-gradient-2" x1="74.91" y1="122" x2="168.13" y2="122" xlink:href="#linear-gradient"/><linearGradient id="linear-gradient-3" x1="95.47" y1="121.98" x2="147.57" y2="121.98" xlink:href="#linear-gradient"/><linearGradient id="linear-gradient-4" x1="44.83" y1="116.03" x2="125.29" y2="116.03" xlink:href="#linear-gradient"/><linearGradient id="linear-gradient-5" x1="117.75" y1="127.87" x2="198.21" y2="127.87" xlink:href="#linear-gradient"/></defs><g id="Layer_3" data-name="Layer 3"><circle class="cls-2" cx="121.52" cy="121.52" r="121.52"/><path class="cls-3" d="M121.52,15.63A105.56,105.56,0,1,0,227.07,121.18,105.67,105.67,0,0,0,121.52,15.63Zm0,202.61a97.06,97.06,0,1,1,97.05-97.06A97.17,97.17,0,0,1,121.52,218.24Z"/><path class="cls-4" d="M145.66,57.12a69,69,0,0,1,28.82,20.33,60.09,60.09,0,0,1,4.94,6.65,72.7,72.7,0,0,1,4.39,7.74,69.07,69.07,0,0,1,.51,59.27,72,72,0,0,1-4.27,7.81,64.65,64.65,0,0,1-5,6.89,73.9,73.9,0,0,1-6.17,6.59c-1,1-2.08,1.9-3.16,2.81l-1.49,1.22-.46.36c-.4.31-.82.62-1.23.92a69.81,69.81,0,0,1-41.07,13.48,3.75,3.75,0,1,0,0,7.5A76.67,76.67,0,0,0,183,76.21a78.24,78.24,0,0,0-35.36-26.33A3.77,3.77,0,0,0,143,52.5a3.87,3.87,0,0,0,2.62,4.62Z"/><g class="cls-5"><rect class="cls-6" x="100.96" y="101.57" width="0.51" height="40.58"/><rect class="cls-7" x="101.47" y="101.57" width="0.79" height="40.58"/><rect class="cls-8" x="102.26" y="101.57" width="0.79" height="40.58"/><rect class="cls-9" x="103.04" y="101.57" width="0.79" height="40.58"/><rect class="cls-10" x="103.83" y="101.57" width="0.79" height="40.58"/><rect class="cls-11" x="104.62" y="101.57" width="0.79" height="40.58"/><rect class="cls-12" x="105.4" y="101.57" width="0.79" height="40.58"/><rect class="cls-13" x="106.19" y="101.57" width="0.79" height="40.58"/><rect class="cls-14" x="106.98" y="101.57" width="0.79" height="40.58"/><rect class="cls-15" x="107.76" y="101.57" width="0.79" height="40.58"/><rect class="cls-16" x="108.55" y="101.57" width="0.79" height="40.58"/><rect class="cls-17" x="109.33" y="101.57" width="0.79" height="40.58"/><rect class="cls-18" x="110.12" y="101.57" width="0.79" height="40.58"/><rect class="cls-19" x="110.91" y="101.57" width="0.79" height="40.58"/><rect class="cls-20" x="111.69" y="101.57" width="0.79" height="40.58"/><rect class="cls-21" x="112.48" y="101.57" width="0.79" height="40.58"/><rect class="cls-22" x="113.26" y="101.57" width="0.79" height="40.58"/><rect class="cls-23" x="114.05" y="101.57" width="0.79" height="40.58"/><rect class="cls-24" x="114.84" y="101.57" width="0.79" height="40.58"/><rect class="cls-25" x="115.62" y="101.57" width="0.79" height="40.58"/><rect class="cls-26" x="116.41" y="101.57" width="0.79" height="40.58"/><rect class="cls-27" x="117.19" y="101.57" width="0.79" height="40.58"/><rect class="cls-28" x="117.98" y="101.57" width="0.79" height="40.58"/><rect class="cls-29" x="118.77" y="101.57" width="0.79" height="40.58"/><rect class="cls-30" x="119.55" y="101.57" width="0.79" height="40.58"/><rect class="cls-31" x="120.34" y="101.57" width="0.79" height="40.58"/><rect class="cls-32" x="121.12" y="101.57" width="0.79" height="40.58"/><rect class="cls-33" x="121.91" y="101.57" width="0.79" height="40.58"/><rect class="cls-34" x="122.7" y="101.57" width="0.79" height="40.58"/><rect class="cls-35" x="123.48" y="101.57" width="0.79" height="40.58"/><rect class="cls-36" x="124.27" y="101.57" width="0.79" height="40.58"/><rect class="cls-37" x="125.05" y="101.57" width="0.79" height="40.58"/><rect class="cls-38" x="125.84" y="101.57" width="0.79" height="40.58"/><rect class="cls-39" x="126.63" y="101.57" width="0.79" height="40.58"/><rect class="cls-40" x="127.41" y="101.57" width="0.79" height="40.58"/><rect class="cls-41" x="128.2" y="101.57" width="0.79" height="40.58"/><rect class="cls-42" x="128.99" y="101.57" width="0.79" height="40.58"/><rect class="cls-43" x="129.77" y="101.57" width="0.79" height="40.58"/><rect class="cls-44" x="130.56" y="101.57" width="0.79" height="40.58"/><rect class="cls-45" x="131.34" y="101.57" width="0.79" height="40.58"/><rect class="cls-46" x="132.13" y="101.57" width="0.79" height="40.58"/><rect class="cls-47" x="132.92" y="101.57" width="0.79" height="40.58"/><rect class="cls-48" x="133.7" y="101.57" width="0.79" height="40.58"/><rect class="cls-49" x="134.49" y="101.57" width="0.79" height="40.58"/><rect class="cls-50" x="135.27" y="101.57" width="0.79" height="40.58"/><rect class="cls-51" x="136.06" y="101.57" width="0.79" height="40.58"/><rect class="cls-52" x="136.85" y="101.57" width="0.79" height="40.58"/><rect class="cls-53" x="137.63" y="101.57" width="0.79" height="40.58"/><rect class="cls-54" x="138.42" y="101.57" width="0.79" height="40.58"/><rect class="cls-55" x="139.2" y="101.57" width="0.79" height="40.58"/><rect class="cls-56" x="139.99" y="101.57" width="0.79" height="40.58"/><rect class="cls-57" x="140.78" y="101.57" width="0.79" height="40.58"/><rect class="cls-58" x="141.56" y="101.57" width="0.12" height="40.58"/><rect class="cls-59" x="94.15" y="96.15" width="1.82" height="52"/><rect class="cls-59" x="95.97" y="96.15" width="0.79" height="52"/><rect class="cls-60" x="96.76" y="96.15" width="0.79" height="52"/><rect class="cls-61" x="97.54" y="96.15" width="0.79" height="52"/><rect class="cls-62" x="98.33" y="96.15" width="0.79" height="52"/><rect class="cls-63" x="99.11" y="96.15" width="0.79" height="52"/><rect class="cls-64" x="99.9" y="96.15" width="0.79" height="52"/><rect class="cls-6" x="100.69" y="96.15" width="0.79" height="52"/><rect class="cls-7" x="101.47" y="96.15" width="0.79" height="52"/><rect class="cls-8" x="102.26" y="96.15" width="0.79" height="52"/><rect class="cls-9" x="103.04" y="96.15" width="0.79" height="52"/><rect class="cls-10" x="103.83" y="96.15" width="0.79" height="52"/><rect class="cls-11" x="104.62" y="96.15" width="0.79" height="52"/><rect class="cls-12" x="105.4" y="96.15" width="0.79" height="52"/><rect class="cls-13" x="106.19" y="96.15" width="0.79" height="52"/><rect class="cls-14" x="106.98" y="96.15" width="0.79" height="52"/><rect class="cls-15" x="107.76" y="96.15" width="0.79" height="52"/><rect class="cls-16" x="108.55" y="96.15" width="0.79" height="52"/><rect class="cls-17" x="109.33" y="96.15" width="0.79" height="52"/><rect class="cls-18" x="110.12" y="96.15" width="0.79" height="52"/><rect class="cls-19" x="110.91" y="96.15" width="0.79" height="52"/><rect class="cls-20" x="111.69" y="96.15" width="0.79" height="52"/><rect class="cls-21" x="112.48" y="96.15" width="0.79" height="52"/><rect class="cls-22" x="113.26" y="96.15" width="0.79" height="52"/><rect class="cls-23" x="114.05" y="96.15" width="0.79" height="52"/><rect class="cls-24" x="114.84" y="96.15" width="0.79" height="52"/><rect class="cls-25" x="115.62" y="96.15" width="0.79" height="52"/><rect class="cls-26" x="116.41" y="96.15" width="0.79" height="52"/><rect class="cls-27" x="117.19" y="96.15" width="0.79" height="52"/><rect class="cls-28" x="117.98" y="96.15" width="0.79" height="52"/><rect class="cls-29" x="118.77" y="96.15" width="0.79" height="52"/><rect class="cls-30" x="119.55" y="96.15" width="0.79" height="52"/><rect class="cls-31" x="120.34" y="96.15" width="0.79" height="52"/><rect class="cls-32" x="121.12" y="96.15" width="0.79" height="52"/><rect class="cls-33" x="121.91" y="96.15" width="0.79" height="52"/><rect class="cls-34" x="122.7" y="96.15" width="0.79" height="52"/><rect class="cls-35" x="123.48" y="96.15" width="0.79" height="52"/><rect class="cls-36" x="124.27" y="96.15" width="0.79" height="52"/><rect class="cls-37" x="125.05" y="96.15" width="0.79" height="52"/><rect class="cls-38" x="125.84" y="96.15" width="0.79" height="52"/><rect class="cls-39" x="126.63" y="96.15" width="0.79" height="52"/><rect class="cls-40" x="127.41" y="96.15" width="0.79" height="52"/><rect class="cls-41" x="128.2" y="96.15" width="0.79" height="52"/><rect class="cls-42" x="128.99" y="96.15" width="0.79" height="52"/><rect class="cls-43" x="129.77" y="96.15" width="0.79" height="52"/><rect class="cls-44" x="130.56" y="96.15" width="0.79" height="52"/><rect class="cls-45" x="131.34" y="96.15" width="0.79" height="52"/><rect class="cls-46" x="132.13" y="96.15" width="0.79" height="52"/><rect class="cls-47" x="132.92" y="96.15" width="0.79" height="52"/><rect class="cls-48" x="133.7" y="96.15" width="0.79" height="52"/><rect class="cls-49" x="134.49" y="96.15" width="0.79" height="52"/><rect class="cls-50" x="135.27" y="96.15" width="0.79" height="52"/><rect class="cls-51" x="136.06" y="96.15" width="0.79" height="52"/><rect class="cls-52" x="136.85" y="96.15" width="0.79" height="52"/><rect class="cls-53" x="137.63" y="96.15" width="0.79" height="52"/><rect class="cls-54" x="138.42" y="96.15" width="0.79" height="52"/><rect class="cls-55" x="139.2" y="96.15" width="0.79" height="52"/><rect class="cls-56" x="139.99" y="96.15" width="0.79" height="52"/><rect class="cls-57" x="140.78" y="96.15" width="0.79" height="52"/><rect class="cls-58" x="141.56" y="96.15" width="0.79" height="52"/><rect class="cls-65" x="142.35" y="96.15" width="0.79" height="52"/><rect class="cls-66" x="143.13" y="96.15" width="0.79" height="52"/><rect class="cls-67" x="143.92" y="96.15" width="0.79" height="52"/><rect class="cls-68" x="144.71" y="96.15" width="0.79" height="52"/><rect class="cls-69" x="145.49" y="96.15" width="0.79" height="52"/><rect class="cls-70" x="146.28" y="96.15" width="0.79" height="52"/><rect class="cls-70" x="147.06" y="96.15" width="2.15" height="52"/></g><g class="cls-71"><rect class="cls-63" x="81.58" y="82.06" width="0.92" height="79.88"/><rect class="cls-64" x="82.5" y="82.06" width="1.42" height="79.88"/><rect class="cls-6" x="83.92" y="82.06" width="1.42" height="79.88"/><rect class="cls-7" x="85.34" y="82.06" width="1.42" height="79.88"/><rect class="cls-8" x="86.76" y="82.06" width="1.42" height="79.88"/><rect class="cls-9" x="88.18" y="82.06" width="1.42" height="79.88"/><rect class="cls-10" x="89.6" y="82.06" width="1.42" height="79.88"/><rect class="cls-11" x="91.01" y="82.06" width="1.42" height="79.88"/><rect class="cls-12" x="92.43" y="82.06" width="1.42" height="79.88"/><rect class="cls-13" x="93.85" y="82.06" width="1.42" height="79.88"/><rect class="cls-14" x="95.27" y="82.06" width="1.42" height="79.88"/><rect class="cls-15" x="96.69" y="82.06" width="1.42" height="79.88"/><rect class="cls-16" x="98.11" y="82.06" width="1.42" height="79.88"/><rect class="cls-17" x="99.53" y="82.06" width="1.42" height="79.88"/><rect class="cls-18" x="100.95" y="82.06" width="1.42" height="79.88"/><rect class="cls-19" x="102.37" y="82.06" width="1.42" height="79.88"/><rect class="cls-20" x="103.78" y="82.06" width="1.42" height="79.88"/><rect class="cls-21" x="105.2" y="82.06" width="1.42" height="79.88"/><rect class="cls-22" x="106.62" y="82.06" width="1.42" height="79.88"/><rect class="cls-23" x="108.04" y="82.06" width="1.42" height="79.88"/><rect class="cls-24" x="109.46" y="82.06" width="1.42" height="79.88"/><rect class="cls-25" x="110.88" y="82.06" width="1.42" height="79.88"/><rect class="cls-26" x="112.3" y="82.06" width="1.42" height="79.88"/><rect class="cls-27" x="113.72" y="82.06" width="1.42" height="79.88"/><rect class="cls-28" x="115.13" y="82.06" width="1.42" height="79.88"/><rect class="cls-29" x="116.55" y="82.06" width="1.42" height="79.88"/><rect class="cls-30" x="117.97" y="82.06" width="1.42" height="79.88"/><rect class="cls-31" x="119.39" y="82.06" width="1.42" height="79.88"/><rect class="cls-32" x="120.81" y="82.06" width="1.42" height="79.88"/><rect class="cls-33" x="122.23" y="82.06" width="1.42" height="79.88"/><rect class="cls-34" x="123.65" y="82.06" width="1.42" height="79.88"/><rect class="cls-35" x="125.07" y="82.06" width="1.42" height="79.88"/><rect class="cls-36" x="126.49" y="82.06" width="1.42" height="79.88"/><rect class="cls-37" x="127.9" y="82.06" width="1.42" height="79.88"/><rect class="cls-38" x="129.32" y="82.06" width="1.42" height="79.88"/><rect class="cls-39" x="130.74" y="82.06" width="1.42" height="79.88"/><rect class="cls-40" x="132.16" y="82.06" width="1.42" height="79.88"/><rect class="cls-41" x="133.58" y="82.06" width="1.42" height="79.88"/><rect class="cls-42" x="135" y="82.06" width="1.42" height="79.88"/><rect class="cls-43" x="136.42" y="82.06" width="1.42" height="79.88"/><rect class="cls-44" x="137.84" y="82.06" width="1.42" height="79.88"/><rect class="cls-45" x="139.26" y="82.06" width="1.42" height="79.88"/><rect class="cls-46" x="140.67" y="82.06" width="1.42" height="79.88"/><rect class="cls-47" x="142.09" y="82.06" width="1.42" height="79.88"/><rect class="cls-48" x="143.51" y="82.06" width="1.42" height="79.88"/><rect class="cls-49" x="144.93" y="82.06" width="1.42" height="79.88"/><rect class="cls-50" x="146.35" y="82.06" width="1.42" height="79.88"/><rect class="cls-51" x="147.77" y="82.06" width="1.42" height="79.88"/><rect class="cls-52" x="149.19" y="82.06" width="1.42" height="79.88"/><rect class="cls-53" x="150.61" y="82.06" width="1.42" height="79.88"/><rect class="cls-54" x="152.03" y="82.06" width="1.42" height="79.88"/><rect class="cls-55" x="153.44" y="82.06" width="1.42" height="79.88"/><rect class="cls-56" x="154.86" y="82.06" width="1.42" height="79.88"/><rect class="cls-57" x="156.28" y="82.06" width="1.42" height="79.88"/><rect class="cls-58" x="157.7" y="82.06" width="1.42" height="79.88"/><rect class="cls-65" x="159.12" y="82.06" width="1.42" height="79.88"/><rect class="cls-66" x="160.54" y="82.06" width="0.92" height="79.88"/><rect class="cls-59" x="75.39" y="75.87" width="0.02" height="92.26"/><rect class="cls-59" x="75.41" y="75.87" width="1.42" height="92.26"/><rect class="cls-60" x="76.83" y="75.87" width="1.42" height="92.26"/><rect class="cls-61" x="78.24" y="75.87" width="1.42" height="92.26"/><rect class="cls-62" x="79.66" y="75.87" width="1.42" height="92.26"/><rect class="cls-63" x="81.08" y="75.87" width="1.42" height="92.26"/><rect class="cls-64" x="82.5" y="75.87" width="1.42" height="92.26"/><rect class="cls-6" x="83.92" y="75.87" width="1.42" height="92.26"/><rect class="cls-7" x="85.34" y="75.87" width="1.42" height="92.26"/><rect class="cls-8" x="86.76" y="75.87" width="1.42" height="92.26"/><rect class="cls-9" x="88.18" y="75.87" width="1.42" height="92.26"/><rect class="cls-10" x="89.6" y="75.87" width="1.42" height="92.26"/><rect class="cls-11" x="91.01" y="75.87" width="1.42" height="92.26"/><rect class="cls-12" x="92.43" y="75.87" width="1.42" height="92.26"/><rect class="cls-13" x="93.85" y="75.87" width="1.42" height="92.26"/><rect class="cls-14" x="95.27" y="75.87" width="1.42" height="92.26"/><rect class="cls-15" x="96.69" y="75.87" width="1.42" height="92.26"/><rect class="cls-16" x="98.11" y="75.87" width="1.42" height="92.26"/><rect class="cls-17" x="99.53" y="75.87" width="1.42" height="92.26"/><rect class="cls-18" x="100.95" y="75.87" width="1.42" height="92.26"/><rect class="cls-19" x="102.37" y="75.87" width="1.42" height="92.26"/><rect class="cls-20" x="103.78" y="75.87" width="1.42" height="92.26"/><rect class="cls-21" x="105.2" y="75.87" width="1.42" height="92.26"/><rect class="cls-22" x="106.62" y="75.87" width="1.42" height="92.26"/><rect class="cls-23" x="108.04" y="75.87" width="1.42" height="92.26"/><rect class="cls-24" x="109.46" y="75.87" width="1.42" height="92.26"/><rect class="cls-25" x="110.88" y="75.87" width="1.42" height="92.26"/><rect class="cls-26" x="112.3" y="75.87" width="1.42" height="92.26"/><rect class="cls-27" x="113.72" y="75.87" width="1.42" height="92.26"/><rect class="cls-28" x="115.13" y="75.87" width="1.42" height="92.26"/><rect class="cls-29" x="116.55" y="75.87" width="1.42" height="92.26"/><rect class="cls-30" x="117.97" y="75.87" width="1.42" height="92.26"/><rect class="cls-31" x="119.39" y="75.87" width="1.42" height="92.26"/><rect class="cls-32" x="120.81" y="75.87" width="1.42" height="92.26"/><rect class="cls-33" x="122.23" y="75.87" width="1.42" height="92.26"/><rect class="cls-34" x="123.65" y="75.87" width="1.42" height="92.26"/><rect class="cls-35" x="125.07" y="75.87" width="1.42" height="92.26"/><rect class="cls-36" x="126.49" y="75.87" width="1.42" height="92.26"/><rect class="cls-37" x="127.9" y="75.87" width="1.42" height="92.26"/><rect class="cls-38" x="129.32" y="75.87" width="1.42" height="92.26"/><rect class="cls-39" x="130.74" y="75.87" width="1.42" height="92.26"/><rect class="cls-40" x="132.16" y="75.87" width="1.42" height="92.26"/><rect class="cls-41" x="133.58" y="75.87" width="1.42" height="92.26"/><rect class="cls-42" x="135" y="75.87" width="1.42" height="92.26"/><rect class="cls-43" x="136.42" y="75.87" width="1.42" height="92.26"/><rect class="cls-44" x="137.84" y="75.87" width="1.42" height="92.26"/><rect class="cls-45" x="139.26" y="75.87" width="1.42" height="92.26"/><rect class="cls-46" x="140.67" y="75.87" width="1.42" height="92.26"/><rect class="cls-47" x="142.09" y="75.87" width="1.42" height="92.26"/><rect class="cls-48" x="143.51" y="75.87" width="1.42" height="92.26"/><rect class="cls-49" x="144.93" y="75.87" width="1.42" height="92.26"/><rect class="cls-50" x="146.35" y="75.87" width="1.42" height="92.26"/><rect class="cls-51" x="147.77" y="75.87" width="1.42" height="92.26"/><rect class="cls-52" x="149.19" y="75.87" width="1.42" height="92.26"/><rect class="cls-53" x="150.61" y="75.87" width="1.42" height="92.26"/><rect class="cls-54" x="152.03" y="75.87" width="1.42" height="92.26"/><rect class="cls-55" x="153.44" y="75.87" width="1.42" height="92.26"/><rect class="cls-56" x="154.86" y="75.87" width="1.42" height="92.26"/><rect class="cls-57" x="156.28" y="75.87" width="1.42" height="92.26"/><rect class="cls-58" x="157.7" y="75.87" width="1.42" height="92.26"/><rect class="cls-65" x="159.12" y="75.87" width="1.42" height="92.26"/><rect class="cls-66" x="160.54" y="75.87" width="1.42" height="92.26"/><rect class="cls-67" x="161.96" y="75.87" width="1.42" height="92.26"/><rect class="cls-68" x="163.38" y="75.87" width="1.42" height="92.26"/><rect class="cls-69" x="164.8" y="75.87" width="1.42" height="92.26"/><rect class="cls-70" x="166.21" y="75.87" width="1.42" height="92.26"/><rect class="cls-70" x="167.63" y="75.87" width="0.02" height="92.26"/></g><path class="cls-72" d="M168.13,117.5c0-.62,0-1.23,0-1.84a4.68,4.68,0,0,0-4.34-4.89l-3.36-.43-.29,0a41,41,0,0,0-3-7.32l2.11-2.73c1.74-2.24,1.73-4.61,0-6.5-.34-.37-.7-.72-1.06-1.07l-6.84-6.84L150,84.56a4.71,4.71,0,0,0-6.52-.38l-2.91,2.25a41.37,41.37,0,0,0-7.33-3L132.78,80c-.36-2.81-2-4.48-4.62-4.58-.49,0-1,0-1.49,0H117c-.61,0-1.22,0-1.83,0a4.68,4.68,0,0,0-4.89,4.34c-.15,1.14-.29,2.28-.44,3.42l0,.23a41,41,0,0,0-7.32,3l-2.73-2.11c-2.24-1.73-4.61-1.72-6.5,0q-.54.51-1,1.05l-6.8,6.8c-.45.44-.9.89-1.34,1.34a4.72,4.72,0,0,0-.39,6.52L86,103a41,41,0,0,0-3,7.32l-3.42.44c-2.81.36-4.47,2.05-4.57,4.62,0,.49,0,1,0,1.49v9.66c0,.61,0,1.23,0,1.84a4.69,4.69,0,0,0,4.34,4.89l3.47.44.18,0A40.76,40.76,0,0,0,86,141l-2.11,2.72c-1.74,2.25-1.72,4.62,0,6.51.34.36.7.71,1.06,1.06l6.85,6.85,1.28,1.27a4.71,4.71,0,0,0,6.52.39l2.92-2.26a41,41,0,0,0,7.32,3l.44,3.42c.36,2.81,2,4.48,4.62,4.57l.75,0h12.24a4.68,4.68,0,0,0,4.89-4.34c.14-1.12.28-2.25.43-3.38l0-.27a41.37,41.37,0,0,0,7.33-3l2.72,2.11c2.24,1.74,4.61,1.73,6.51,0,.36-.33.7-.69,1.05-1l6.85-6.86c.43-.42.86-.85,1.28-1.28a4.73,4.73,0,0,0,.39-6.53L157.09,141a40.76,40.76,0,0,0,3-7.33l3.42-.43c2.81-.36,4.47-2.05,4.57-4.63,0-.49,0-1,0-1.48V117.5ZM161,126.37l-1.68.24-2,.29a3.64,3.64,0,0,0-3.39,2.64,32.85,32.85,0,0,1-4.12,10,3.62,3.62,0,0,0,.51,4.29l2.3,3-.23.23-6,6L145,152c-.56-.41-1.11-.82-1.65-1.24a3.68,3.68,0,0,0-4.3-.51,32.9,32.9,0,0,1-9.95,4.12,3.64,3.64,0,0,0-2.64,3.39l-.47,3.72h-8.8c-.07-.56-.16-1.12-.24-1.69s-.2-1.35-.29-2a3.64,3.64,0,0,0-2.64-3.39,32.9,32.9,0,0,1-10-4.12,3.64,3.64,0,0,0-4.3.51l-3,2.3-.22-.23-6-6c.35-.45.69-.9,1-1.36s.82-1.11,1.24-1.65a3.65,3.65,0,0,0,.51-4.29,33,33,0,0,1-4.12-10,3.64,3.64,0,0,0-3.39-2.64l-3.72-.47v-8.8q.84-.1,1.68-.24l2-.29a3.64,3.64,0,0,0,3.39-2.64,32.79,32.79,0,0,1,4.12-9.95,3.62,3.62,0,0,0-.51-4.3l-2.29-3a2.39,2.39,0,0,1,.22-.23l6-6c.45.35.91.69,1.36,1s1.11.82,1.65,1.24a3.67,3.67,0,0,0,4.3.52,32.4,32.4,0,0,1,10-4.12,3.66,3.66,0,0,0,2.64-3.4l.48-3.71h8.79c.07.57.16,1.13.24,1.69s.2,1.36.29,2a3.66,3.66,0,0,0,2.64,3.4A32.4,32.4,0,0,1,139,93.8a3.64,3.64,0,0,0,4.3-.52l3-2.29.23.22,6,6c-.35.45-.69.91-1,1.37s-.82,1.1-1.24,1.64a3.67,3.67,0,0,0-.51,4.3,32.79,32.79,0,0,1,4.12,9.95,3.56,3.56,0,0,0,3.27,2.62l3.84.5Z"/><path class="cls-73" d="M137.92,101.75a26.44,26.44,0,0,0-15-5.78,25.82,25.82,0,0,0-15.62,4.17,26.06,26.06,0,0,0,10.36,47.63,26.72,26.72,0,0,0,3.87.28,25.74,25.74,0,0,0,14.21-4.19,26.78,26.78,0,0,0,10.33-13.08h0A26.22,26.22,0,0,0,137.92,101.75Zm-.79,32.13a3.07,3.07,0,0,0-.4.49,3.9,3.9,0,0,1-.33.38c-.3.35-.61.68-.93,1s-.79.77-1.2,1.13l-.42.35c-.12.1-.23.2-.39.32l-.13.1a19.86,19.86,0,0,1-11.47,3.93A19.6,19.6,0,0,1,110.17,138a16.28,16.28,0,0,1-2-1.65,25.17,25.17,0,0,1-2.06-2.21L106,134c-.16-.21-.31-.43-.47-.65-.26-.38-.51-.77-.75-1.16a22.8,22.8,0,0,1-1.4-2.71,19.78,19.78,0,0,1-.69-12.93,19.29,19.29,0,0,1,6.07-9.44l.53-.44.25-.21c.35-.26.71-.51,1.07-.75a22.17,22.17,0,0,1,2.9-1.62,20.32,20.32,0,0,1,5.66-1.57,19.85,19.85,0,0,1,12.42,2.67,18.58,18.58,0,0,1,4.8,4l.36.42.32.4.09.12c.32.46.64.91.93,1.38a19.7,19.7,0,0,1,1.57,3,20.94,20.94,0,0,1,1.43,6.78,19.84,19.84,0,0,1-1.25,7.64A21.24,21.24,0,0,1,137.13,133.88Z"/><path class="cls-74" d="M97.38,186.88a69,69,0,0,1-28.82-20.34,58.86,58.86,0,0,1-4.94-6.65,73.78,73.78,0,0,1-4.4-7.74,69.07,69.07,0,0,1-.49-59.26A73.1,73.1,0,0,1,63,85.07a64.07,64.07,0,0,1,4.94-6.88,73.9,73.9,0,0,1,6.17-6.59c1-1,2.08-1.91,3.16-2.81.49-.42,1-.82,1.49-1.22,0,0,.48-.37.58-.46l1.11-.82a69.86,69.86,0,0,1,31.36-12.77l-.16.16-1,1a3.89,3.89,0,0,0-1.1,2.66,3.76,3.76,0,0,0,3.75,3.75,3.92,3.92,0,0,0,2.65-1.1l7.21-7.28c.35-.34.7-.69,1-1a3.94,3.94,0,0,0,1-2.15,3.2,3.2,0,0,0-1-3.15l-8.79-7.58a3.84,3.84,0,0,0-5.3,0,3.77,3.77,0,0,0,0,5.3l2.06,1.78A76.65,76.65,0,0,0,60,167.78a78.32,78.32,0,0,0,35.37,26.33,3.76,3.76,0,0,0,4.61-2.62A3.86,3.86,0,0,0,97.38,186.88Z"/><path class="cls-75" d="M197.92,115.34A76.61,76.61,0,0,0,183,76.11a78.32,78.32,0,0,0-35.37-26.33A3.77,3.77,0,0,0,143,52.4,3.85,3.85,0,0,0,145.66,57a69,69,0,0,1,28.82,20.34A59.77,59.77,0,0,1,179.42,84a73.78,73.78,0,0,1,4.4,7.74,70.06,70.06,0,0,1,6.11,19.56A69.33,69.33,0,0,1,184.31,151a73.93,73.93,0,0,1-4.27,7.81,64.07,64.07,0,0,1-4.94,6.88,72.55,72.55,0,0,1-6.17,6.59c-1,1-2.08,1.91-3.16,2.82-.49.41-1,.81-1.49,1.21l-.58.46-1.11.83a69.85,69.85,0,0,1-31.36,12.76c.05-.05.11-.1.16-.16l1-1a3.89,3.89,0,0,0,1.1-2.65,3.81,3.81,0,0,0-1.1-2.65,3.72,3.72,0,0,0-2.65-1.1,3.87,3.87,0,0,0-2.65,1.1q-3.6,3.63-7.21,7.27l-1,1a3.93,3.93,0,0,0-1.05,2.16,3.21,3.21,0,0,0,1.05,3.15l8.79,7.57a3.84,3.84,0,0,0,5.3,0,3.78,3.78,0,0,0,0-5.3L130.9,198a76.42,76.42,0,0,0,32-11.5,76.65,76.65,0,0,0,35-71.14Z"/></g></svg>