<svg xmlns="http://www.w3.org/2000/svg" xmlns:xlink="http://www.w3.org/1999/xlink" viewBox="0 0 243.04 243.04"><defs><style>.cls-1{fill:#fff;}.cls-2{fill:url(#linear-gradient);}.cls-3{fill:url(#linear-gradient-2);}.cls-4{fill:url(#linear-gradient-3);}.cls-5{fill:url(#linear-gradient-4);}.cls-6{fill:url(#linear-gradient-5);}</style><linearGradient id="linear-gradient" x1="44.86" y1="122" x2="107.02" y2="122" gradientUnits="userSpaceOnUse"><stop offset="0" stop-color="#41b6e6"/><stop offset="1" stop-color="#0086d6"/></linearGradient><linearGradient id="linear-gradient-2" x1="128.78" y1="82.61" x2="162.17" y2="82.61" xlink:href="#linear-gradient"/><linearGradient id="linear-gradient-3" x1="105.87" y1="82.53" x2="185.08" y2="82.53" xlink:href="#linear-gradient"/><linearGradient id="linear-gradient-4" x1="102.5" y1="149.16" x2="195.9" y2="149.16" xlink:href="#linear-gradient"/><linearGradient id="linear-gradient-5" x1="15.11" y1="121.4" x2="227.93" y2="121.4" xlink:href="#linear-gradient"/></defs><g id="Layer_3" data-name="Layer 3"><circle class="cls-1" cx="121.52" cy="121.52" r="121.52"/><path class="cls-2" d="M101.34,78.34a3.55,3.55,0,0,0,.3-6.5,3.59,3.59,0,0,0-2.82-.13,61.57,61.57,0,0,0-40,57.66,62.11,62.11,0,0,0,.79,9.78,3.33,3.33,0,0,1-3,1.76H55.33A3.38,3.38,0,0,1,52,137.53V118.47A3.64,3.64,0,0,1,53,115.9a3.19,3.19,0,0,1,2.26-1h0a3.68,3.68,0,0,0,3.59-2.82,63.65,63.65,0,0,1,45.44-46,3.55,3.55,0,0,0,1-6.47,3.5,3.5,0,0,0-2.73-.4,70.67,70.67,0,0,0-49.95,49,10.54,10.54,0,0,0-7.78,10.12v19.23A10.49,10.49,0,0,0,55.33,148h1.33a10.53,10.53,0,0,0,4.72-1.11,61.6,61.6,0,0,0,31.75,37.67,3.49,3.49,0,0,0,1.54.37,3.69,3.69,0,0,0,1.21-.22,3.55,3.55,0,0,0,.34-6.53,54.47,54.47,0,0,1,5.12-99.84Z"/><path class="cls-3" d="M131.66,92a16.66,16.66,0,0,0,10.7,7,15.88,15.88,0,0,0,3.12.3,15.71,15.71,0,0,0,3.05-.29A16.18,16.18,0,0,0,155,96.34a16.61,16.61,0,0,0,6.93-10.83,16.81,16.81,0,0,0,.26-2.9,16,16,0,0,0-.29-3A16.29,16.29,0,0,0,159.14,73,16.87,16.87,0,0,0,155,68.88a16.36,16.36,0,0,0-6.59-2.71,16.62,16.62,0,0,0-5.8,0,16.67,16.67,0,0,0-13.52,13.35,16.09,16.09,0,0,0-.29,3.09A16.8,16.8,0,0,0,129,85.5,16.44,16.44,0,0,0,131.66,92Zm4.21-9.39a9.92,9.92,0,0,1,.17-1.78h0a9.68,9.68,0,0,1,4-6.11,9.55,9.55,0,0,1,3.8-1.56,10.14,10.14,0,0,1,1.66-.14,9.62,9.62,0,0,1,1.68.15,9.28,9.28,0,0,1,3.78,1.55,9.6,9.6,0,0,1,4,6.16,9.25,9.25,0,0,1,.17,1.74,9.07,9.07,0,0,1-.16,1.68,9.39,9.39,0,0,1-1.5,3.72,9.66,9.66,0,0,1-2.48,2.5,9.63,9.63,0,0,1-10.94,0,9.52,9.52,0,0,1-4-6.26A8.67,8.67,0,0,1,135.87,82.61Z"/><path class="cls-4" d="M105.87,87.45a6.11,6.11,0,0,0,6.1,6.1h6.88L114,98.42a6.12,6.12,0,0,0,0,8.63l7,7a6.12,6.12,0,0,0,8.63,0l4.86-4.86V116a6.11,6.11,0,0,0,6.11,6.1h9.85a6.11,6.11,0,0,0,6.1-6.1v-6.87l4.87,4.87a6.13,6.13,0,0,0,8.63,0l7-7a6.1,6.1,0,0,0,0-8.63l-4.86-4.87H179a6.11,6.11,0,0,0,6.1-6.1V77.6a6.11,6.11,0,0,0-6.1-6.1H172.1L177,66.64A6.11,6.11,0,0,0,177,58l-7-7a6.12,6.12,0,0,0-8.64,0L156.5,55.9V49a6.11,6.11,0,0,0-6.1-6.1h-9.85a6.11,6.11,0,0,0-6.11,6.1V55.9L129.58,51A6.1,6.1,0,0,0,121,51l-7,7a6.12,6.12,0,0,0,0,8.64l4.87,4.86H112a6.11,6.11,0,0,0-6.1,6.1Zm19.29-11.31a21.26,21.26,0,0,1,1.42-3.4l1.23-2.32-8.11-8.1,5.57-5.57,8.11,8.12,2.31-1.2a20.29,20.29,0,0,1,3.36-1.39l2.49-.78V50h7.87V61.5l2.49.78a20.1,20.1,0,0,1,3.37,1.39l2.3,1.19,8.11-8.11,5.57,5.57-8.1,8.09,1.21,2.32a21.24,21.24,0,0,1,1.43,3.4l.78,2.46H178v7.87H166.61l-.78,2.5a21,21,0,0,1-1.41,3.43l-1.2,2.31,8,8-5.56,5.57-8-8-2.31,1.23a20.54,20.54,0,0,1-3.46,1.44l-2.48.78V115h-7.87V103.71l-2.49-.77a21.25,21.25,0,0,1-3.45-1.43l-2.31-1.23-8,8-5.57-5.57,8-8-1.21-2.31a20.83,20.83,0,0,1-1.42-3.44l-.78-2.48H113V78.59h11.39Z"/><path class="cls-5" d="M188.34,108.18c-.75-2.78-1.55-5.29-2.44-7.67a3.56,3.56,0,0,0-1.93-2,3.55,3.55,0,0,0-4.71,4.51,82.67,82.67,0,0,1,2.64,8.54,3.88,3.88,0,0,0,1.11,2.28,4,4,0,0,0,2.76,1.1,3.18,3.18,0,0,1,3,3.37v19.18a3.43,3.43,0,0,1-3.42,3.43H184.1a3.37,3.37,0,0,1-3-1.82,61.48,61.48,0,0,0-.23-20.86,3.58,3.58,0,0,0-1.56-2.35,3.49,3.49,0,0,0-2.74-.49,3.56,3.56,0,0,0-2.68,4.12,55.12,55.12,0,0,1,.89,9.86,54.17,54.17,0,0,1-37.57,51.77,12.68,12.68,0,0,0-11.13-6.54H115.26a12.76,12.76,0,1,0,0,25.51H126.1a12.8,12.8,0,0,0,12.73-12,61.22,61.22,0,0,0,40.52-41.21A10.51,10.51,0,0,0,184.1,148h1.29a10.52,10.52,0,0,0,10.51-10.52V118.3A10.32,10.32,0,0,0,188.34,108.18Zm-56.57,79.18A5.67,5.67,0,0,1,126.1,193H115.26a5.67,5.67,0,1,1,0-11.33H126.1A5.67,5.67,0,0,1,131.77,187.36Z"/><path class="cls-6" d="M121.52,15A106.41,106.41,0,1,0,227.93,121.4,106.54,106.54,0,0,0,121.52,15Zm0,204.32a97.91,97.91,0,1,1,97.91-97.91A98,98,0,0,1,121.52,219.31Z"/></g></svg>