<svg xmlns="http://www.w3.org/2000/svg" viewBox="0 0 245.9 245.9"><defs><style>.cls-1{fill:#fff;}</style></defs><g id="Layer_3" data-name="Layer 3"><path class="cls-1" d="M151.3,117.7a29.1,29.1,0,0,0-4.8-11.3,26.6,26.6,0,0,0-7.1-7.1A28.5,28.5,0,0,0,128,94.6a28.7,28.7,0,0,0-21.4,4.7,27,27,0,0,0-7.2,7.1,27.7,27.7,0,0,0-4.7,11.2,30.5,30.5,0,0,0-.5,4.1v1.4a27.4,27.4,0,0,0,.4,5,28.1,28.1,0,0,0,4.5,11.2,26.8,26.8,0,0,0,7.5,7.5,28.1,28.1,0,0,0,11,4.6,31,31,0,0,0,5.4.5,28.7,28.7,0,0,0,5.2-.5,27.1,27.1,0,0,0,11.1-4.6,26.8,26.8,0,0,0,7.5-7.5,28.1,28.1,0,0,0,4.5-11.2,25.8,25.8,0,0,0,.4-3.9c0-.4.1-.8.1-1.2A30.7,30.7,0,0,0,151.3,117.7Zm-8.4,8.8a18.9,18.9,0,0,1-3.2,7.9,20.1,20.1,0,0,1-5.2,5.3,20.5,20.5,0,0,1-7.8,3.2,18.9,18.9,0,0,1-7.5,0,18.6,18.6,0,0,1-7.8-3.3,18.4,18.4,0,0,1-5.2-5.2,20.1,20.1,0,0,1-3.2-8,18.7,18.7,0,0,1-.3-3.4,21.9,21.9,0,0,1,.3-3.6,20.2,20.2,0,0,1,3.4-8,19.8,19.8,0,0,1,5-5,21.6,21.6,0,0,1,8-3.3l3.6-.3,3.5.3a19.4,19.4,0,0,1,8,3.3,20.6,20.6,0,0,1,5.1,5.1,19,19,0,0,1,3.3,7.9,23.3,23.3,0,0,1,.4,3.7C143.2,124.2,143.1,125.3,142.9,126.5Z"/><path class="cls-1" d="M185.5,104.8H170.2a16,16,0,0,0-1-2.3L180,91.6a8.8,8.8,0,0,0,0-12.7l-13-13a9,9,0,0,0-12.7,0L143.4,76.8l-2.2-1V60.4a9.1,9.1,0,0,0-9-9H113.8a9.1,9.1,0,0,0-9.1,9V75.8l-2.2,1L91.6,65.9a8.8,8.8,0,0,0-12.7,0l-13,13a8.8,8.8,0,0,0,0,12.7l10.8,10.9c-.3.7-.6,1.5-1,2.3H60.4a9,9,0,0,0-9,9v18.4a9.1,9.1,0,0,0,9,9H75.6l1,2.4L65.9,154.3a9.1,9.1,0,0,0-2.7,6.4,8.9,8.9,0,0,0,2.7,6.3l13,13.1a9.1,9.1,0,0,0,12.7,0l10.7-10.7,2.4,1v15.1a9,9,0,0,0,9.1,9h18.4a9,9,0,0,0,9-9V170.4l2.4-1,10.7,10.7a9.1,9.1,0,0,0,12.8,0l12.9-13a8.7,8.7,0,0,0,2.7-6.4,9,9,0,0,0-2.6-6.4l-10.8-10.7a24.4,24.4,0,0,0,1-2.4h15.2a9,9,0,0,0,9-9V113.8A9,9,0,0,0,185.5,104.8Zm.5,27.4a.5.5,0,0,1-.5.5H164.1l-.9,3a44.3,44.3,0,0,1-2.8,6.8l-1.4,2.7,15,15.1a.5.5,0,0,1,.2.4c0,.1-.1.2-.2.3l-13,13c-.2.3-.5.2-.7.1l-15-15.1-2.8,1.5a41.5,41.5,0,0,1-6.9,2.8l-2.9,1v21.2a.5.5,0,0,1-.5.5H113.8a.6.6,0,0,1-.6-.5V164.2l-2.9-.9a41.5,41.5,0,0,1-6.9-2.8l-2.7-1.5L85.6,174a.4.4,0,0,1-.7.1L71.9,161c-.1-.1-.2-.2-.2-.3a.5.5,0,0,1,.2-.4L87,145.2l-1.5-2.7a43.2,43.2,0,0,1-2.8-6.9l-.9-2.9H60.4a.5.5,0,0,1-.5-.5V113.8a.5.5,0,0,1,.5-.5H81.8l1-3a44.8,44.8,0,0,1,2.8-6.7l1.5-2.8L71.9,85.6a.8.8,0,0,1-.2-.4c0-.1.1-.2.2-.3l13-13a.4.4,0,0,1,.7,0l15.2,15.2,2.8-1.4a39.5,39.5,0,0,1,6.7-2.8l2.9-.9V60.4a.6.6,0,0,1,.6-.5h18.4a.5.5,0,0,1,.5.5V82l3,.9a34.4,34.4,0,0,1,6.6,2.8l2.8,1.4,15.2-15.2a.5.5,0,0,1,.7,0l13,13c.1.1.2.2.2.3a.5.5,0,0,1-.2.4l-15.1,15.2,1.4,2.8a39.5,39.5,0,0,1,2.8,6.7l1,3h21.4a.5.5,0,0,1,.5.5Z"/><path class="cls-1" d="M123,16.4A106.6,106.6,0,1,0,229.5,123,106.7,106.7,0,0,0,123,16.4ZM123,221a98.1,98.1,0,1,1,98-98A98.2,98.2,0,0,1,123,221Z"/></g></svg>