<svg xmlns="http://www.w3.org/2000/svg" xmlns:xlink="http://www.w3.org/1999/xlink" viewBox="0 0 94.13 536.27"><defs><style>.cls-1{fill:url(#linear-gradient);}.cls-2{fill:url(#linear-gradient-2);}.cls-3{fill:url(#linear-gradient-3);}.cls-4{fill:url(#linear-gradient-4);}.cls-5{fill:url(#linear-gradient-5);}.cls-6{fill:url(#linear-gradient-6);}</style><linearGradient id="linear-gradient" x1="34.34" y1="489.24" x2="59.79" y2="489.24" gradientUnits="userSpaceOnUse"><stop offset="0" stop-color="#41b6e6"/><stop offset="1" stop-color="#0086d6"/></linearGradient><linearGradient id="linear-gradient-2" x1="15.46" y1="489.2" x2="78.68" y2="489.2" xlink:href="#linear-gradient"/><linearGradient id="linear-gradient-3" x1="0" y1="489.2" x2="94.13" y2="489.2" xlink:href="#linear-gradient"/><linearGradient id="linear-gradient-4" x1="0" y1="47.07" x2="94.13" y2="47.07" xlink:href="#linear-gradient"/><linearGradient id="linear-gradient-5" x1="14.11" y1="48.91" x2="79.64" y2="48.91" xlink:href="#linear-gradient"/><linearGradient id="linear-gradient-6" x1="24.67" y1="268.13" x2="69.47" y2="268.13" xlink:href="#linear-gradient"/></defs><g id="Layer_3" data-name="Layer 3"><path class="cls-1" d="M59.57,486.87a12.69,12.69,0,0,0-10.28-10.19,12.67,12.67,0,0,0-9.46,2.06,12.75,12.75,0,0,0-5.26,8.11,11.16,11.16,0,0,0-.21,1.81c0,.21,0,.41,0,.61a12,12,0,0,0,.2,2.2,12.74,12.74,0,0,0,10.16,10.3,12.22,12.22,0,0,0,2.37.22,11.66,11.66,0,0,0,2.33-.22,12.57,12.57,0,0,0,4.91-2,12.86,12.86,0,0,0,3.27-3.31,12.49,12.49,0,0,0,2-4.95,14.42,14.42,0,0,0,.19-1.71c0-.19,0-.38,0-.57A12.7,12.7,0,0,0,59.57,486.87Zm-3.68,3.9a8.89,8.89,0,0,1-1.41,3.48,9,9,0,0,1-2.31,2.33A8.63,8.63,0,0,1,48.71,498a8.94,8.94,0,0,1-10.47-7.27,8.54,8.54,0,0,1-.14-1.53,8,8,0,0,1,.16-1.6,9,9,0,0,1,7.25-7.17,8.76,8.76,0,0,1,3.12,0,8.8,8.8,0,0,1,3.54,1.45,9.09,9.09,0,0,1,2.23,2.23,8.71,8.71,0,0,1,1.47,3.51,8.12,8.12,0,0,1,.16,1.63A8.84,8.84,0,0,1,55.89,490.77Z"/><path class="cls-2" d="M74.7,481.16H67.93c-.13-.35-.28-.68-.43-1l4.79-4.78a4,4,0,0,0,0-5.64L66.55,464a4,4,0,0,0-5.64,0l-4.81,4.81c-.33-.14-.66-.28-1-.4v-6.81a4,4,0,0,0-4-4H43a4,4,0,0,0-4,4v6.81c-.34.13-.66.26-1,.41L33.22,464a4,4,0,0,0-5.64,0l-5.74,5.75a4,4,0,0,0,0,5.64l4.79,4.78c-.15.33-.29.67-.43,1H19.44a4,4,0,0,0-4,4v8.12a4,4,0,0,0,4,4h6.71c.14.36.28.71.43,1.05l-4.74,4.75a4,4,0,0,0,0,5.63l5.74,5.75a4,4,0,0,0,5.64,0l4.72-4.72q.53.24,1.08.45v6.67a4,4,0,0,0,4,4h8.12a4,4,0,0,0,4-4v-6.67q.55-.21,1.08-.45l4.72,4.72a4,4,0,0,0,5.64,0l5.74-5.75a4,4,0,0,0,0-5.63l-4.74-4.75c.15-.35.3-.7.43-1.05H74.7a4,4,0,0,0,4-4v-8.12A4,4,0,0,0,74.7,481.16Zm.22,12.1a.22.22,0,0,1-.22.23H65.26l-.41,1.32a18.82,18.82,0,0,1-1.23,3L63,499l6.66,6.67a.21.21,0,0,1,.07.15.23.23,0,0,1-.08.17l-5.74,5.74a.24.24,0,0,1-.33,0l-6.64-6.64-1.22.65a17.92,17.92,0,0,1-3,1.26l-1.31.42v9.37a.23.23,0,0,1-.23.23H43a.23.23,0,0,1-.24-.23v-9.39L41.45,507a18,18,0,0,1-3-1.25l-1.23-.65-6.64,6.64a.21.21,0,0,1-.33,0L24.49,506a.25.25,0,0,1-.06-.17.25.25,0,0,1,.06-.16L31.16,499l-.64-1.22a17.92,17.92,0,0,1-1.24-3l-.42-1.32H19.44a.23.23,0,0,1-.23-.23v-8.12a.23.23,0,0,1,.23-.23h9.45l.42-1.3a18.38,18.38,0,0,1,1.25-3l.65-1.23-6.72-6.71a.23.23,0,0,1-.06-.16.25.25,0,0,1,.06-.17l5.75-5.74a.21.21,0,0,1,.33,0l6.72,6.73,1.22-.64a18,18,0,0,1,2.94-1.21l1.32-.41v-9.53a.22.22,0,0,1,.24-.22h8.12a.22.22,0,0,1,.23.22v9.52l1.32.41a18.8,18.8,0,0,1,2.94,1.22l1.22.63,6.72-6.72a.24.24,0,0,1,.33,0l5.75,5.75a.22.22,0,0,1,.07.16.26.26,0,0,1-.07.16l-6.71,6.71.64,1.22a17.92,17.92,0,0,1,1.24,3l.42,1.31H74.7a.22.22,0,0,1,.22.23Z"/><path class="cls-3" d="M47.07,442.13A47.07,47.07,0,1,0,94.13,489.2,47.12,47.12,0,0,0,47.07,442.13Zm0,90.38A43.31,43.31,0,1,1,90.38,489.2,43.36,43.36,0,0,1,47.07,532.51Z"/><path class="cls-4" d="M47.07,0A47.07,47.07,0,1,0,94.13,47.07,47.12,47.12,0,0,0,47.07,0Zm0,90.38A43.31,43.31,0,1,1,90.38,47.07,43.36,43.36,0,0,1,47.07,90.38Z"/><path class="cls-5" d="M79.33,33.52a4.43,4.43,0,0,0-2.58-2.44,4.37,4.37,0,0,0-3.51.19,10.93,10.93,0,0,0-2,1.53l-.69.58-1.2,1h0l-.94.76h0l-4.66,3.81-4.3,3.5a15,15,0,0,1-5.54,3.16l-.36.11c-2,.57-6.47,1.91-7.43-.17l.25-.13c2.81-1.4,6.66-3.33,5.51-7.25A5.42,5.42,0,0,0,51,36.47a3.55,3.55,0,0,0-1.25-1.06,4.58,4.58,0,0,0-2.1-.45,16.64,16.64,0,0,0-5.16,1.21l-.41.14-2.18.74a37.75,37.75,0,0,0-9.57,4.18A34.37,34.37,0,0,0,23,47.59h0l0,0c-.3.36-.59.73-.87,1.12a7.84,7.84,0,0,1-2.28,2,7.71,7.71,0,0,1-.77.3l-.14.06a19.08,19.08,0,0,1-3.51.75,1.4,1.4,0,0,0-1.25,1.44v.51a1.4,1.4,0,0,0,1.55,1.35c2.42-.25,7-1.08,8.71-3.82a29.28,29.28,0,0,1,8.2-7.6,38.61,38.61,0,0,1,9.46-3.93c1-.32,2-.65,3-1l.55-.21a5.43,5.43,0,0,1,1.1-.36,1.48,1.48,0,0,1,1.74.69,1.19,1.19,0,0,1,.09.47,1.66,1.66,0,0,1-.74,1.29,15.45,15.45,0,0,1-3,1.67c-.51.24-1,.49-1.51.75a1.68,1.68,0,0,0-.84,1.46,4.83,4.83,0,0,0,1.74,4c2.44,1.93,6.63,1.25,8.31.86a18.38,18.38,0,0,0,7.71-3.35c.62-.5,1.26-1,1.87-1.52l0,0c.3-.23.59-.48.89-.72l9.81-8,.44-.4c.94-.86,1.85-1.58,2.61-1a.87.87,0,0,1,.38.61c.06.81-1,1.88-1.63,2.53l-.39.4L66.36,47a26.83,26.83,0,0,1-4.27,3.68c-.48.36-1,.74-1.47,1.12s-1,.81-1.53,1.22L59,53.1c-3,2.41-6.09,4.9-9.9,6-3.12.89-6.55.85-9.88.82h-.07c-.87,0-1.78,0-2.65,0L27.9,60h0a11.19,11.19,0,0,0-8.81,4.56,1.4,1.4,0,0,0,.46,2.1l.45.25a1.41,1.41,0,0,0,1.76-.36,7.94,7.94,0,0,1,6.17-3.17h0c2.15,0,4.33,0,6.47,0,1.14,0,2.31,0,3.46,0,2.65,0,5.4,0,8.07-.2,5.7-.53,10-3.39,13.88-6.39.85-.68,1.76-1.34,2.64-2l.06,0a54.31,54.31,0,0,0,5.42-4.35A59.26,59.26,0,0,0,72.7,45c.74-.91,1.5-1.83,2.27-2.72.32-.36.68-.74,1.09-1.18C78.05,39,80.51,36.4,79.33,33.52Z"/></g><g id="Layer_20" data-name="Layer 20"><polygon class="cls-6" points="68.9 266.76 68.14 266.76 67.38 266.76 66.61 266.76 65.85 266.76 65.09 266.76 64.33 266.76 63.56 266.76 62.8 266.76 62.04 266.76 61.27 266.76 60.51 266.76 59.75 266.76 58.99 266.76 58.22 266.76 57.46 266.76 56.7 266.76 55.94 266.76 55.17 266.76 54.41 266.76 53.65 266.76 52.88 266.76 52.12 266.76 51.36 266.76 50.6 266.76 49.83 266.76 49.07 266.76 48.45 266.76 48.45 262.33 48.45 256.88 48.45 251.42 48.45 245.96 48.45 240.5 48.45 235.04 48.45 229.59 48.45 224.49 48.59 224.49 48.84 224.49 49.09 224.49 49.34 224.49 49.59 224.49 49.83 224.49 50.08 224.49 50.33 224.49 50.58 224.49 50.82 224.49 51.07 224.49 51.32 224.49 51.57 224.49 51.81 224.49 52.06 224.49 52.31 224.49 52.56 224.49 52.8 224.49 53.05 224.49 53.3 224.49 53.55 224.49 53.79 224.49 53.79 224.35 53.79 224.21 53.79 224.06 53.79 223.92 53.79 223.78 53.79 223.64 53.79 223.49 53.79 223.35 53.79 223.21 53.79 223.06 53.79 222.97 53.71 222.97 53.46 222.97 53.22 222.97 52.97 222.97 52.72 222.97 52.47 222.97 52.22 222.97 51.98 222.97 51.73 222.97 51.48 222.97 51.23 222.97 50.99 222.97 50.74 222.97 50.49 222.97 50.24 222.97 50 222.97 49.75 222.97 49.5 222.97 49.25 222.97 49.01 222.97 48.76 222.97 48.51 222.97 48.45 222.97 48.45 218.67 48.45 213.21 48.45 207.75 48.45 202.29 48.45 196.84 48.45 191.38 48.45 185.92 48.45 180.71 48.59 180.71 48.84 180.71 49.09 180.71 49.34 180.71 49.59 180.71 49.83 180.71 50.08 180.71 50.33 180.71 50.58 180.71 50.82 180.71 51.07 180.71 51.32 180.71 51.57 180.71 51.81 180.71 52.06 180.71 52.31 180.71 52.56 180.71 52.8 180.71 53.05 180.71 53.3 180.71 53.55 180.71 53.79 180.71 53.79 180.56 53.79 180.42 53.79 180.28 53.79 180.14 53.79 179.99 53.79 179.85 53.79 179.71 53.79 179.56 53.79 179.42 53.79 179.28 53.79 179.18 53.71 179.18 53.46 179.18 53.22 179.18 52.97 179.18 52.72 179.18 52.47 179.18 52.22 179.18 51.98 179.18 51.73 179.18 51.48 179.18 51.23 179.18 50.99 179.18 50.74 179.18 50.49 179.18 50.24 179.18 50 179.18 49.75 179.18 49.5 179.18 49.25 179.18 49.01 179.18 48.76 179.18 48.51 179.18 48.45 179.18 48.45 175 48.45 169.55 48.45 164.09 48.45 158.63 48.45 153.17 48.45 147.72 48.45 142.26 48.45 136.92 48.59 136.92 48.84 136.92 49.09 136.92 49.34 136.92 49.59 136.92 49.83 136.92 50.08 136.92 50.33 136.92 50.58 136.92 50.82 136.92 51.07 136.92 51.32 136.92 51.57 136.92 51.81 136.92 52.06 136.92 52.31 136.92 52.56 136.92 52.8 136.92 53.05 136.92 53.3 136.92 53.55 136.92 53.79 136.92 53.79 136.78 53.79 136.63 53.79 136.49 53.79 136.35 53.79 136.21 53.79 136.06 53.79 135.92 53.79 135.78 53.79 135.63 53.79 135.49 53.79 135.4 53.71 135.4 53.46 135.4 53.22 135.4 52.97 135.4 52.72 135.4 52.47 135.4 52.22 135.4 51.98 135.4 51.73 135.4 51.48 135.4 51.23 135.4 50.99 135.4 50.74 135.4 50.49 135.4 50.24 135.4 50 135.4 49.75 135.4 49.5 135.4 49.25 135.4 49.01 135.4 48.76 135.4 48.51 135.4 48.45 135.4 48.45 131.34 48.45 125.88 48.45 120.42 48.45 114.97 48.45 109.51 48.45 104.05 48.45 98.59 48.45 93.13 45.69 93.13 45.69 93.82 45.69 99.28 45.69 104.74 45.69 110.19 45.69 115.65 45.69 121.11 45.69 126.57 45.69 132.03 45.69 135.4 45.54 135.4 45.29 135.4 45.04 135.4 44.8 135.4 44.55 135.4 44.3 135.4 44.05 135.4 43.81 135.4 43.56 135.4 43.31 135.4 43.06 135.4 42.82 135.4 42.57 135.4 42.32 135.4 42.07 135.4 41.83 135.4 41.58 135.4 41.33 135.4 41.08 135.4 40.84 135.4 40.59 135.4 40.34 135.4 40.34 135.54 40.34 135.68 40.34 135.83 40.34 135.97 40.34 136.11 40.34 136.25 40.34 136.4 40.34 136.54 40.34 136.68 40.34 136.83 40.34 136.92 40.42 136.92 40.67 136.92 40.92 136.92 41.17 136.92 41.41 136.92 41.66 136.92 41.91 136.92 42.16 136.92 42.41 136.92 42.65 136.92 42.9 136.92 43.15 136.92 43.4 136.92 43.64 136.92 43.89 136.92 44.14 136.92 44.39 136.92 44.63 136.92 44.88 136.92 45.13 136.92 45.38 136.92 45.62 136.92 45.69 136.92 45.69 137.49 45.69 142.94 45.69 148.4 45.69 153.86 45.69 159.32 45.69 164.78 45.69 170.23 45.69 175.69 45.69 179.18 45.54 179.18 45.29 179.18 45.04 179.18 44.8 179.18 44.55 179.18 44.3 179.18 44.05 179.18 43.81 179.18 43.56 179.18 43.31 179.18 43.06 179.18 42.82 179.18 42.57 179.18 42.32 179.18 42.07 179.18 41.83 179.18 41.58 179.18 41.33 179.18 41.08 179.18 40.84 179.18 40.59 179.18 40.34 179.18 40.34 179.33 40.34 179.47 40.34 179.61 40.34 179.76 40.34 179.9 40.34 180.04 40.34 180.19 40.34 180.33 40.34 180.47 40.34 180.61 40.34 180.71 40.42 180.71 40.67 180.71 40.92 180.71 41.17 180.71 41.41 180.71 41.66 180.71 41.91 180.71 42.16 180.71 42.41 180.71 42.65 180.71 42.9 180.71 43.15 180.71 43.4 180.71 43.64 180.71 43.89 180.71 44.14 180.71 44.39 180.71 44.63 180.71 44.88 180.71 45.13 180.71 45.38 180.71 45.62 180.71 45.69 180.71 45.69 181.15 45.69 186.61 45.69 192.06 45.69 197.52 45.69 202.98 45.69 208.44 45.69 213.9 45.69 219.35 45.69 222.97 45.54 222.97 45.29 222.97 45.04 222.97 44.8 222.97 44.55 222.97 44.3 222.97 44.05 222.97 43.81 222.97 43.56 222.97 43.31 222.97 43.06 222.97 42.82 222.97 42.57 222.97 42.32 222.97 42.07 222.97 41.83 222.97 41.58 222.97 41.33 222.97 41.08 222.97 40.84 222.97 40.59 222.97 40.34 222.97 40.34 223.11 40.34 223.26 40.34 223.4 40.34 223.54 40.34 223.69 40.34 223.83 40.34 223.97 40.34 224.11 40.34 224.26 40.34 224.4 40.34 224.49 40.42 224.49 40.67 224.49 40.92 224.49 41.17 224.49 41.41 224.49 41.66 224.49 41.91 224.49 42.16 224.49 42.41 224.49 42.65 224.49 42.9 224.49 43.15 224.49 43.4 224.49 43.64 224.49 43.89 224.49 44.14 224.49 44.39 224.49 44.63 224.49 44.88 224.49 45.13 224.49 45.38 224.49 45.62 224.49 45.69 224.49 45.69 224.81 45.69 230.27 45.69 235.73 45.69 241.19 45.69 246.65 45.69 252.1 45.69 257.56 45.69 263.02 45.69 266.76 45.26 266.76 44.5 266.76 43.73 266.76 42.97 266.76 42.21 266.76 41.45 266.76 40.68 266.76 39.92 266.76 39.16 266.76 38.4 266.76 37.63 266.76 36.87 266.76 36.11 266.76 35.34 266.76 34.58 266.76 33.82 266.76 33.06 266.76 32.29 266.76 31.53 266.76 30.77 266.76 30 266.76 29.24 266.76 28.48 266.76 27.72 266.76 26.95 266.76 26.19 266.76 25.43 266.76 24.67 266.76 24.67 267.2 24.67 267.64 24.67 268.08 24.67 268.52 24.67 268.96 24.67 269.4 24.67 269.51 25.23 269.51 26 269.51 26.76 269.51 27.52 269.51 28.28 269.51 29.05 269.51 29.81 269.51 30.57 269.51 31.34 269.51 32.1 269.51 32.86 269.51 33.62 269.51 34.38 269.51 35.15 269.51 35.91 269.51 36.67 269.51 37.44 269.51 38.2 269.51 38.96 269.51 39.72 269.51 40.49 269.51 41.25 269.51 42.01 269.51 42.77 269.51 43.54 269.51 44.3 269.51 45.06 269.51 45.69 269.51 45.69 273.94 45.69 279.39 45.69 284.85 45.69 290.31 45.69 295.77 45.69 301.23 45.69 306.68 45.69 311.77 45.54 311.77 45.29 311.77 45.04 311.77 44.8 311.77 44.55 311.77 44.3 311.77 44.05 311.77 43.81 311.77 43.56 311.77 43.31 311.77 43.06 311.77 42.82 311.77 42.57 311.77 42.32 311.77 42.07 311.77 41.83 311.77 41.58 311.77 41.33 311.77 41.08 311.77 40.84 311.77 40.59 311.77 40.34 311.77 40.34 311.92 40.34 312.06 40.34 312.2 40.34 312.35 40.34 312.49 40.34 312.63 40.34 312.77 40.34 312.92 40.34 313.06 40.34 313.2 40.34 313.3 40.42 313.3 40.67 313.3 40.92 313.3 41.17 313.3 41.41 313.3 41.66 313.3 41.91 313.3 42.16 313.3 42.41 313.3 42.65 313.3 42.9 313.3 43.15 313.3 43.4 313.3 43.64 313.3 43.89 313.3 44.14 313.3 44.39 313.3 44.63 313.3 44.88 313.3 45.13 313.3 45.38 313.3 45.62 313.3 45.69 313.3 45.69 317.6 45.69 323.06 45.69 328.52 45.69 333.97 45.69 339.43 45.69 344.89 45.69 350.35 45.69 355.56 45.54 355.56 45.29 355.56 45.04 355.56 44.8 355.56 44.55 355.56 44.3 355.56 44.05 355.56 43.81 355.56 43.56 355.56 43.31 355.56 43.06 355.56 42.82 355.56 42.57 355.56 42.32 355.56 42.07 355.56 41.83 355.56 41.58 355.56 41.33 355.56 41.08 355.56 40.84 355.56 40.59 355.56 40.34 355.56 40.34 355.7 40.34 355.85 40.34 355.99 40.34 356.13 40.34 356.28 40.34 356.42 40.34 356.56 40.34 356.7 40.34 356.85 40.34 356.99 40.34 357.08 40.42 357.08 40.67 357.08 40.92 357.08 41.17 357.08 41.41 357.08 41.66 357.08 41.91 357.08 42.16 357.08 42.41 357.08 42.65 357.08 42.9 357.08 43.15 357.08 43.4 357.08 43.64 357.08 43.89 357.08 44.14 357.08 44.39 357.08 44.63 357.08 44.88 357.08 45.13 357.08 45.38 357.08 45.62 357.08 45.69 357.08 45.69 361.26 45.69 366.72 45.69 372.18 45.69 377.64 45.69 383.1 45.69 388.55 45.69 394.01 45.69 399.35 45.54 399.35 45.29 399.35 45.04 399.35 44.8 399.35 44.55 399.35 44.3 399.35 44.05 399.35 43.81 399.35 43.56 399.35 43.31 399.35 43.06 399.35 42.82 399.35 42.57 399.35 42.32 399.35 42.07 399.35 41.83 399.35 41.58 399.35 41.33 399.35 41.08 399.35 40.84 399.35 40.59 399.35 40.34 399.35 40.34 399.49 40.34 399.63 40.34 399.78 40.34 399.92 40.34 400.06 40.34 400.21 40.34 400.35 40.34 400.49 40.34 400.63 40.34 400.78 40.34 400.87 40.42 400.87 40.67 400.87 40.92 400.87 41.17 400.87 41.41 400.87 41.66 400.87 41.91 400.87 42.16 400.87 42.41 400.87 42.65 400.87 42.9 400.87 43.15 400.87 43.4 400.87 43.64 400.87 43.89 400.87 44.14 400.87 44.39 400.87 44.63 400.87 44.88 400.87 45.13 400.87 45.38 400.87 45.62 400.87 45.69 400.87 45.69 404.93 45.69 410.39 45.69 415.84 45.69 421.3 45.69 426.76 45.69 432.22 45.69 437.68 45.69 443.13 48.45 443.13 48.45 442.45 48.45 436.99 48.45 431.53 48.45 426.07 48.45 420.62 48.45 415.16 48.45 409.7 48.45 404.24 48.45 400.87 48.59 400.87 48.84 400.87 49.09 400.87 49.34 400.87 49.59 400.87 49.83 400.87 50.08 400.87 50.33 400.87 50.58 400.87 50.82 400.87 51.07 400.87 51.32 400.87 51.57 400.87 51.81 400.87 52.06 400.87 52.31 400.87 52.56 400.87 52.8 400.87 53.05 400.87 53.3 400.87 53.55 400.87 53.79 400.87 53.79 400.73 53.79 400.59 53.79 400.44 53.79 400.3 53.79 400.16 53.79 400.01 53.79 399.87 53.79 399.73 53.79 399.58 53.79 399.44 53.79 399.35 53.71 399.35 53.46 399.35 53.22 399.35 52.97 399.35 52.72 399.35 52.47 399.35 52.22 399.35 51.98 399.35 51.73 399.35 51.48 399.35 51.23 399.35 50.99 399.35 50.74 399.35 50.49 399.35 50.24 399.35 50 399.35 49.75 399.35 49.5 399.35 49.25 399.35 49.01 399.35 48.76 399.35 48.51 399.35 48.45 399.35 48.45 398.78 48.45 393.33 48.45 387.87 48.45 382.41 48.45 376.95 48.45 371.49 48.45 366.04 48.45 360.58 48.45 357.08 48.59 357.08 48.84 357.08 49.09 357.08 49.34 357.08 49.59 357.08 49.83 357.08 50.08 357.08 50.33 357.08 50.58 357.08 50.82 357.08 51.07 357.08 51.32 357.08 51.57 357.08 51.81 357.08 52.06 357.08 52.31 357.08 52.56 357.08 52.8 357.08 53.05 357.08 53.3 357.08 53.55 357.08 53.79 357.08 53.79 356.94 53.79 356.8 53.79 356.66 53.79 356.51 53.79 356.37 53.79 356.23 53.79 356.08 53.79 355.94 53.79 355.8 53.79 355.66 53.79 355.56 53.71 355.56 53.46 355.56 53.22 355.56 52.97 355.56 52.72 355.56 52.47 355.56 52.22 355.56 51.98 355.56 51.73 355.56 51.48 355.56 51.23 355.56 50.99 355.56 50.74 355.56 50.49 355.56 50.24 355.56 50 355.56 49.75 355.56 49.5 355.56 49.25 355.56 49.01 355.56 48.76 355.56 48.51 355.56 48.45 355.56 48.45 355.12 48.45 349.66 48.45 344.2 48.45 338.75 48.45 333.29 48.45 327.83 48.45 322.37 48.45 316.91 48.45 313.3 48.59 313.3 48.84 313.3 49.09 313.3 49.34 313.3 49.59 313.3 49.83 313.3 50.08 313.3 50.33 313.3 50.58 313.3 50.82 313.3 51.07 313.3 51.32 313.3 51.57 313.3 51.81 313.3 52.06 313.3 52.31 313.3 52.56 313.3 52.8 313.3 53.05 313.3 53.3 313.3 53.55 313.3 53.79 313.3 53.79 313.16 53.79 313.01 53.79 312.87 53.79 312.73 53.79 312.58 53.79 312.44 53.79 312.3 53.79 312.15 53.79 312.01 53.79 311.87 53.79 311.77 53.71 311.77 53.46 311.77 53.22 311.77 52.97 311.77 52.72 311.77 52.47 311.77 52.22 311.77 51.98 311.77 51.73 311.77 51.48 311.77 51.23 311.77 50.99 311.77 50.74 311.77 50.49 311.77 50.24 311.77 50 311.77 49.75 311.77 49.5 311.77 49.25 311.77 49.01 311.77 48.76 311.77 48.51 311.77 48.45 311.77 48.45 311.45 48.45 306 48.45 300.54 48.45 295.08 48.45 289.62 48.45 284.17 48.45 278.71 48.45 273.25 48.45 269.51 48.88 269.51 49.64 269.51 50.4 269.51 51.16 269.51 51.93 269.51 52.69 269.51 53.45 269.51 54.21 269.51 54.98 269.51 55.74 269.51 56.5 269.51 57.27 269.51 58.03 269.51 58.79 269.51 59.55 269.51 60.32 269.51 61.08 269.51 61.84 269.51 62.6 269.51 63.37 269.51 64.13 269.51 64.89 269.51 65.65 269.51 66.42 269.51 67.18 269.51 67.94 269.51 68.7 269.51 69.47 269.51 69.47 269.07 69.47 268.63 69.47 268.19 69.47 267.75 69.47 267.31 69.47 266.87 69.47 266.76 68.9 266.76"/></g></svg>