<svg xmlns="http://www.w3.org/2000/svg" xmlns:xlink="http://www.w3.org/1999/xlink" viewBox="0 0 243.04 243.04"><defs><style>.cls-1{fill:#fff;}.cls-2{fill:url(#linear-gradient);}.cls-3{fill:url(#linear-gradient-2);}.cls-4{fill:url(#linear-gradient-3);}</style><linearGradient id="linear-gradient" x1="32.86" y1="121.18" x2="210.18" y2="121.18" gradientUnits="userSpaceOnUse"><stop offset="0" stop-color="#41b6e6"/><stop offset="1" stop-color="#0086d6"/></linearGradient><linearGradient id="linear-gradient-2" x1="103.22" y1="111.13" x2="149.67" y2="111.13" xlink:href="#linear-gradient"/><linearGradient id="linear-gradient-3" x1="15.97" y1="121.18" x2="227.07" y2="121.18" xlink:href="#linear-gradient"/></defs><g id="Layer_3" data-name="Layer 3"><circle class="cls-1" cx="121.52" cy="121.52" r="121.52"/><path class="cls-2" d="M126.17,52.86V37.17a4.65,4.65,0,0,0-9.3,0V52.86A68.57,68.57,0,0,0,53.2,116.53H37.51a4.66,4.66,0,0,0,0,9.31H53.2a68.57,68.57,0,0,0,63.67,63.67V205.2a4.65,4.65,0,0,0,9.3,0V189.51a68.57,68.57,0,0,0,63.67-63.67h15.69a4.66,4.66,0,0,0,0-9.31H189.84A68.57,68.57,0,0,0,126.17,52.86Zm55.15,63.67H160.77a39,39,0,0,0-12.4-24.33l-4.21,9,.23.24a30.11,30.11,0,1,1-14-9.15c.66.2,1.32.43,2,.68l3.94-8.43c-1.05-.43-2.11-.82-3.19-1.15A39.6,39.6,0,0,0,126.17,82V61.38A60.07,60.07,0,0,1,181.32,116.53ZM116.87,61.38V81.94a39.59,39.59,0,0,0-34.6,34.59H61.72A60.07,60.07,0,0,1,116.87,61.38ZM61.72,125.84H82.27a39.59,39.59,0,0,0,34.6,34.59V181A60.07,60.07,0,0,1,61.72,125.84ZM126.17,181V160.43a39.59,39.59,0,0,0,34.6-34.59h20.55A60.07,60.07,0,0,1,126.17,181Z"/><path class="cls-3" d="M111.81,116.89a4.65,4.65,0,0,0-7.87,5L117.28,143a2.72,2.72,0,0,0,4.77-.3l27.18-58.16A4.65,4.65,0,0,0,147,78.39h0a4.67,4.67,0,0,0-6.19,2.25l-22.08,47.23Z"/><path class="cls-4" d="M121.52,15.63A105.56,105.56,0,1,0,227.07,121.18,105.67,105.67,0,0,0,121.52,15.63Zm0,202.61a97.06,97.06,0,1,1,97.05-97.06A97.17,97.17,0,0,1,121.52,218.24Z"/></g></svg>