<svg xmlns="http://www.w3.org/2000/svg" viewBox="0 0 245.9 245.9"><defs><style>.cls-1{fill:#fff;}</style></defs><g id="Layer_3" data-name="Layer 3"><path class="cls-1" d="M123,16.4A106.6,106.6,0,1,0,229.5,123,106.7,106.7,0,0,0,123,16.4ZM123,221a98.1,98.1,0,1,1,98-98A98.2,98.2,0,0,1,123,221Z"/><path class="cls-1" d="M196,92.3a10.3,10.3,0,0,0-5.9-5.5,9.9,9.9,0,0,0-7.9.4,26.1,26.1,0,0,0-4.7,3.5L176,92l-2.7,2.2h0L171.1,96h0l-10.5,8.6-9.7,7.9c-4.2,3.4-7.7,5.7-12.6,7.1l-.8.3c-4.4,1.3-14.6,4.3-16.8-.4l.6-.3c6.3-3.2,15-7.5,12.4-16.4a10.3,10.3,0,0,0-1.8-3.8,9.2,9.2,0,0,0-2.8-2.4,10.6,10.6,0,0,0-4.8-1c-3.8,0-8,1.4-11.7,2.7l-.9.3-4.9,1.7c-7.5,2.4-15.1,5-21.7,9.4a79.7,79.7,0,0,0-16.7,14.5h0l-2,2.5a16.5,16.5,0,0,1-5.2,4.7l-1.7.7h-.3a43.8,43.8,0,0,1-8,1.7,3.2,3.2,0,0,0-2.8,3.2v1.2a3.3,3.3,0,0,0,3.5,3.1c5.5-.6,15.8-2.5,19.7-8.7s10.6-12,18.6-17.2c6.3-4.1,14-6.6,21.4-8.9l6.8-2.2,1.3-.5a12.1,12.1,0,0,1,2.5-.8c1.8-.4,3.3.2,3.9,1.5a3.6,3.6,0,0,1,.2,1.1,3.6,3.6,0,0,1-1.7,2.9,33.4,33.4,0,0,1-6.7,3.8l-3.4,1.7a4,4,0,0,0-1.9,3.3c.1,3.9,1.4,6.9,3.9,8.9,5.6,4.4,15,2.9,18.8,2,5.5-1.2,11.8-3.1,17.5-7.6l4.2-3.4h.1l2-1.7,22.2-18,1-.9c2.2-2,4.2-3.6,5.9-2.3a1.7,1.7,0,0,1,.9,1.3c.1,1.9-2.3,4.3-3.7,5.7l-.9,1-17.9,20.5c-2.8,3.2-6.3,5.8-9.6,8.4l-3.4,2.5-3.4,2.8H150c-6.8,5.5-13.8,11.1-22.4,13.6-7.1,2-14.9,1.9-22.4,1.8H79.6c-10.4,0-16.9,6.4-19.9,10.3a3.1,3.1,0,0,0,1,4.8l1,.6a3.3,3.3,0,0,0,4-.9c2.2-2.7,6.8-7.1,14-7.1h22.4c6,0,12.2.1,18.3-.5,12.9-1.2,22.7-7.6,31.4-14.4,1.9-1.5,4-3.1,6-4.5h.1a129.9,129.9,0,0,0,12.3-9.9A137.3,137.3,0,0,0,181,118.2c1.6-2.1,3.4-4.2,5.1-6.2l2.5-2.6C193.1,104.7,198.7,98.8,196,92.3Z"/></g></svg>