<svg xmlns="http://www.w3.org/2000/svg" xmlns:xlink="http://www.w3.org/1999/xlink" viewBox="0 0 243.04 243.04"><defs><style>.cls-1{fill:#fff;}.cls-2{fill:url(#linear-gradient);}.cls-3{fill:url(#linear-gradient-2);}.cls-4{fill:url(#linear-gradient-3);}.cls-5{fill:url(#linear-gradient-4);}.cls-6{fill:url(#linear-gradient-5);}</style><linearGradient id="linear-gradient" x1="15.11" y1="121.4" x2="227.93" y2="121.4" gradientUnits="userSpaceOnUse"><stop offset="0" stop-color="#41b6e6"/><stop offset="1" stop-color="#0086d6"/></linearGradient><linearGradient id="linear-gradient-2" x1="41.71" y1="121.4" x2="156.32" y2="121.4" xlink:href="#linear-gradient"/><linearGradient id="linear-gradient-3" x1="82.13" y1="121.55" x2="126.72" y2="121.55" xlink:href="#linear-gradient"/><linearGradient id="linear-gradient-4" x1="136.08" y1="136.64" x2="210.15" y2="136.64" xlink:href="#linear-gradient"/><linearGradient id="linear-gradient-5" x1="124.7" y1="106.41" x2="199.87" y2="106.41" xlink:href="#linear-gradient"/></defs><g id="Layer_3" data-name="Layer 3"><circle class="cls-1" cx="121.52" cy="121.52" r="121.52"/><path class="cls-2" d="M121.52,15A106.41,106.41,0,1,0,227.93,121.4,106.54,106.54,0,0,0,121.52,15Zm0,204.32a97.91,97.91,0,1,1,97.91-97.91A98,98,0,0,1,121.52,219.31Z"/><path class="cls-3" d="M153.12,165.39a2.42,2.42,0,0,0-3.43,0l-4.2,4.21a.66.66,0,0,1-.92,0l-14-14a.17.17,0,0,0-.19,0l-2.5,1.33a39.09,39.09,0,0,1-6.51,2.72l-2.69.85a.16.16,0,0,0-.11.15v19.79a.64.64,0,0,1-.64.64H100.68a.49.49,0,0,1-.5-.49v-20a.16.16,0,0,0-.11-.15l-2.72-.85a38.8,38.8,0,0,1-6.45-2.68l-2.52-1.34a.17.17,0,0,0-.19,0L74.05,169.71a.44.44,0,0,1-.7,0l-12.29-12.3a.49.49,0,0,1,0-.69l14.18-14.18a.17.17,0,0,0,0-.19L74,139.84a39.36,39.36,0,0,1-2.66-6.44l-.85-2.71a.16.16,0,0,0-.15-.11H50.39a.64.64,0,0,1-.64-.64V112.86a.64.64,0,0,1,.64-.64h20a.16.16,0,0,0,.15-.11l.86-2.68A40.3,40.3,0,0,1,74,103.07l1.34-2.52a.17.17,0,0,0,0-.19L61.17,86.19a.66.66,0,0,1,0-.92L73.35,73.09a.43.43,0,0,1,.7,0L88.37,87.41a.15.15,0,0,0,.18,0l2.52-1.31a39,39,0,0,1,6.29-2.59l2.71-.85a.16.16,0,0,0,.11-.15V62.26a.48.48,0,0,1,.5-.48h17.23a.64.64,0,0,1,.64.64v20.1a.16.16,0,0,0,.11.15l2.71.85a40.21,40.21,0,0,1,6.32,2.6l2.5,1.3a.17.17,0,0,0,.19,0L144.67,73.1a.5.5,0,0,1,.71,0L150,77.72a2.15,2.15,0,0,0,3,0l2.64-2.64a2.16,2.16,0,0,0,0-3l-4.63-4.63a8.57,8.57,0,0,0-12.07,0L128.77,77.62a.15.15,0,0,1-.17,0c-.63-.28-1.27-.54-1.91-.79a.15.15,0,0,1-.1-.15V62.43a8.71,8.71,0,0,0-8.69-8.69H100.68a8.54,8.54,0,0,0-8.54,8.52V76.73a.16.16,0,0,1-.1.15c-.64.25-1.28.51-1.91.78a.14.14,0,0,1-.17,0L79.74,67.4a8.53,8.53,0,0,0-6.52-2.48,9,9,0,0,0-5.8,2.74l-12.05,12a8.55,8.55,0,0,0,0,12.07l10.17,10.16a.17.17,0,0,1,0,.18c-.29.64-.56,1.3-.83,2a.15.15,0,0,1-.14.1H50.4a8.71,8.71,0,0,0-8.69,8.69v17.07a8.68,8.68,0,0,0,8.68,8.68h14.1a.15.15,0,0,1,.15.1c.27.7.55,1.39.85,2.06a.15.15,0,0,1,0,.17L55.37,151a8.55,8.55,0,0,0,0,12.06l12,12a9,9,0,0,0,5.81,2.74,8.5,8.5,0,0,0,6.52-2.49l10-10a.15.15,0,0,1,.17,0c.7.31,1.4.6,2.11.88a.15.15,0,0,1,.1.14v14.17a8.54,8.54,0,0,0,8.54,8.52h17.23a8.67,8.67,0,0,0,8.68-8.67v-14a.15.15,0,0,1,.1-.14c.71-.28,1.42-.58,2.12-.89a.15.15,0,0,1,.17,0l10,10a8.55,8.55,0,0,0,12.06,0l4.32-4.32a2.43,2.43,0,0,0,0-3.42Z"/><path class="cls-4" d="M93.69,110.48a18.62,18.62,0,0,1,4.77-4.72,19.18,19.18,0,0,1,21.82,0,1.48,1.48,0,0,0,2-.29l2.95-3.67a1.82,1.82,0,0,0-.36-2.63h0a26.53,26.53,0,0,0-10.76-4.42,27.15,27.15,0,0,0-20.23,4.42,26.22,26.22,0,0,0-6.77,6.72,27.38,27.38,0,0,0-5,15.67,25.54,25.54,0,0,0,.43,4.71,27.1,27.1,0,0,0,11.29,17.66,27.3,27.3,0,0,0,15.52,4.86A27.48,27.48,0,0,0,124.86,144l.88-.64a2.41,2.41,0,0,0,.35-3.57l-2.2-2.4a2.41,2.41,0,0,0-3.18-.31l-.42.31a19.18,19.18,0,0,1-29.82-12.51,17.55,17.55,0,0,1-.3-3.28,19.32,19.32,0,0,1,3.52-11.07Z"/><path class="cls-5" d="M187.34,122.77a2.59,2.59,0,0,0-1.19,3.48l1.25,2.55a2.59,2.59,0,0,0,3.48,1.18l3.16-1.55A27.12,27.12,0,0,1,143.7,134a4,4,0,1,0-7.17,3.63,35.16,35.16,0,0,0,65.22-6.84l1.64,1.85a3,3,0,0,0,4.15.24l1.62-1.45a2.94,2.94,0,0,0,.24-4.15L203,120l-3.05-3.43-7.49,3.68Z"/><path class="cls-6" d="M133.78,112.72,131.19,110a2.46,2.46,0,0,0-3.48-.08l-2.25,2.16a2.45,2.45,0,0,0-.08,3.47l7.28,7.62,3.13,3.26.06,0,12.89-6.13a2.23,2.23,0,0,0,1-3l-1.54-3.24a2.22,2.22,0,0,0-3-1l-3.73,1.77a27.12,27.12,0,0,1,50.64-5.09,4,4,0,1,0,7.26-3.48,35.17,35.17,0,0,0-65.68,6.52Z"/></g></svg>