<svg xmlns="http://www.w3.org/2000/svg" viewBox="0 0 816.24 31"><defs><style>.cls-1{fill:#fff;}</style></defs><g id="Layer_20" data-name="Layer 20"><polygon class="cls-1" points="815.91 0 815.59 0 815.26 0 814.93 0 814.61 0 814.28 0 813.96 0 813.63 0 813.31 0 813 0 813 0.03 813 0.59 813 1.15 813 1.72 813 2.28 813 2.84 813 3.41 813 3.97 813 4.53 813 5.1 813 5.66 813 6.22 813 6.79 813 7.35 813 7.91 813 8.47 813 9.04 813 9.6 813 10.16 813 10.73 813 11.29 813 11.85 813 12.42 813 12.98 813 13.54 813 14.11 813 14.25 725.51 14.25 725.51 13.99 725.51 13.73 725.51 13.47 725.51 13.21 725.51 12.95 725.51 12.69 725.51 12.43 725.51 12.16 725.51 11.9 725.51 11.64 725.51 11.38 725.51 11.12 725.51 10.86 725.51 10.6 725.51 10.34 725.51 10.08 725.51 9.82 725.51 9.56 725.51 9.29 725.51 9.03 725.51 8.77 725.36 8.77 725.21 8.77 725.06 8.77 724.91 8.77 724.76 8.77 724.61 8.77 724.46 8.77 724.3 8.77 724.15 8.77 724 8.77 723.85 8.77 723.7 8.77 723.55 8.77 723.48 8.77 723.48 8.92 723.48 9.18 723.48 9.44 723.48 9.7 723.48 9.96 723.48 10.22 723.48 10.48 723.48 10.74 723.48 11 723.48 11.27 723.48 11.53 723.48 11.79 723.48 12.05 723.48 12.31 723.48 12.57 723.48 12.83 723.48 13.09 723.48 13.35 723.48 13.61 723.48 13.88 723.48 14.14 723.48 14.25 612.38 14.25 612.38 13.99 612.38 13.73 612.38 13.47 612.38 13.21 612.38 12.95 612.38 12.69 612.38 12.43 612.38 12.16 612.38 11.9 612.38 11.64 612.38 11.38 612.38 11.12 612.38 10.86 612.38 10.6 612.38 10.34 612.38 10.08 612.38 9.82 612.38 9.56 612.38 9.29 612.38 9.03 612.38 8.77 612.23 8.77 612.08 8.77 611.93 8.77 611.78 8.77 611.63 8.77 611.48 8.77 611.33 8.77 611.18 8.77 611.02 8.77 610.88 8.77 610.72 8.77 610.57 8.77 610.42 8.77 610.35 8.77 610.35 8.92 610.35 9.18 610.35 9.44 610.35 9.7 610.35 9.96 610.35 10.22 610.35 10.48 610.35 10.74 610.35 11 610.35 11.27 610.35 11.53 610.35 11.79 610.35 12.05 610.35 12.31 610.35 12.57 610.35 12.83 610.35 13.09 610.35 13.35 610.35 13.61 610.35 13.88 610.35 14.14 610.35 14.25 499.25 14.25 499.25 13.99 499.25 13.73 499.25 13.47 499.25 13.21 499.25 12.95 499.25 12.69 499.25 12.43 499.25 12.16 499.25 11.9 499.25 11.64 499.25 11.38 499.25 11.12 499.25 10.86 499.25 10.6 499.25 10.34 499.25 10.08 499.25 9.82 499.25 9.56 499.25 9.29 499.25 9.03 499.25 8.77 499.1 8.77 498.95 8.77 498.8 8.77 498.65 8.77 498.5 8.77 498.35 8.77 498.2 8.77 498.05 8.77 497.9 8.77 497.75 8.77 497.6 8.77 497.44 8.77 497.29 8.77 497.23 8.77 497.23 8.92 497.23 9.18 497.23 9.44 497.23 9.7 497.23 9.96 497.23 10.22 497.23 10.48 497.23 10.74 497.23 11 497.23 11.27 497.23 11.53 497.23 11.79 497.23 12.05 497.23 12.31 497.23 12.57 497.23 12.83 497.23 13.09 497.23 13.35 497.23 13.61 497.23 13.88 497.23 14.14 497.23 14.25 409.74 14.25 409.74 14.08 409.74 13.52 409.74 12.95 409.74 12.39 409.74 11.83 409.74 11.26 409.74 10.7 409.74 10.14 409.74 9.57 409.74 9.01 409.74 8.45 409.74 7.88 409.74 7.32 409.74 6.76 409.74 6.2 409.74 5.63 409.74 5.07 409.74 4.5 409.74 3.94 409.74 3.38 409.74 2.82 409.74 2.25 409.74 1.69 409.74 1.13 409.74 0.56 409.74 0 409.41 0 409.08 0 408.76 0 408.44 0 408.11 0 407.79 0 407.46 0 407.13 0 406.81 0 406.5 0 406.5 0.03 406.5 0.59 406.5 1.15 406.5 1.72 406.5 2.28 406.5 2.84 406.5 3.41 406.5 3.97 406.5 4.53 406.5 5.1 406.5 5.66 406.5 6.22 406.5 6.79 406.5 7.35 406.5 7.91 406.5 8.47 406.5 9.04 406.5 9.6 406.5 10.16 406.5 10.73 406.5 11.29 406.5 11.85 406.5 12.42 406.5 12.98 406.5 13.54 406.5 14.11 406.5 14.25 319.01 14.25 319.01 13.99 319.01 13.73 319.01 13.47 319.01 13.21 319.01 12.95 319.01 12.69 319.01 12.43 319.01 12.16 319.01 11.9 319.01 11.64 319.01 11.38 319.01 11.12 319.01 10.86 319.01 10.6 319.01 10.34 319.01 10.08 319.01 9.82 319.01 9.56 319.01 9.29 319.01 9.03 319.01 8.77 318.86 8.77 318.71 8.77 318.56 8.77 318.41 8.77 318.26 8.77 318.11 8.77 317.95 8.77 317.8 8.77 317.65 8.77 317.5 8.77 317.35 8.77 317.2 8.77 317.05 8.77 316.98 8.77 316.98 8.92 316.98 9.18 316.98 9.44 316.98 9.7 316.98 9.96 316.98 10.22 316.98 10.48 316.98 10.74 316.98 11 316.98 11.27 316.98 11.53 316.98 11.79 316.98 12.05 316.98 12.31 316.98 12.57 316.98 12.83 316.98 13.09 316.98 13.35 316.98 13.61 316.98 13.88 316.98 14.14 316.98 14.25 205.88 14.25 205.88 13.99 205.88 13.73 205.88 13.47 205.88 13.21 205.88 12.95 205.88 12.69 205.88 12.43 205.88 12.16 205.88 11.9 205.88 11.64 205.88 11.38 205.88 11.12 205.88 10.86 205.88 10.6 205.88 10.34 205.88 10.08 205.88 9.82 205.88 9.56 205.88 9.29 205.88 9.03 205.88 8.77 205.73 8.77 205.58 8.77 205.43 8.77 205.28 8.77 205.13 8.77 204.98 8.77 204.83 8.77 204.68 8.77 204.53 8.77 204.37 8.77 204.22 8.77 204.07 8.77 203.92 8.77 203.85 8.77 203.85 8.92 203.85 9.18 203.85 9.44 203.85 9.7 203.85 9.96 203.85 10.22 203.85 10.48 203.85 10.74 203.85 11 203.85 11.27 203.85 11.53 203.85 11.79 203.85 12.05 203.85 12.31 203.85 12.57 203.85 12.83 203.85 13.09 203.85 13.35 203.85 13.61 203.85 13.88 203.85 14.14 203.85 14.25 92.75 14.25 92.75 13.99 92.75 13.73 92.75 13.47 92.75 13.21 92.75 12.95 92.75 12.69 92.75 12.43 92.75 12.16 92.75 11.9 92.75 11.64 92.75 11.38 92.75 11.12 92.75 10.86 92.75 10.6 92.75 10.34 92.75 10.08 92.75 9.82 92.75 9.56 92.75 9.29 92.75 9.03 92.75 8.77 92.6 8.77 92.45 8.77 92.3 8.77 92.15 8.77 92 8.77 91.85 8.77 91.7 8.77 91.55 8.77 91.4 8.77 91.25 8.77 91.09 8.77 90.94 8.77 90.79 8.77 90.72 8.77 90.72 8.92 90.72 9.18 90.72 9.44 90.72 9.7 90.72 9.96 90.72 10.22 90.72 10.48 90.72 10.74 90.72 11 90.72 11.27 90.72 11.53 90.72 11.79 90.72 12.05 90.72 12.31 90.72 12.57 90.72 12.83 90.72 13.09 90.72 13.35 90.72 13.61 90.72 13.88 90.72 14.14 90.72 14.25 3.24 14.25 3.24 14.08 3.24 13.52 3.24 12.95 3.24 12.39 3.24 11.83 3.24 11.26 3.24 10.7 3.24 10.14 3.24 9.57 3.24 9.01 3.24 8.45 3.24 7.88 3.24 7.32 3.24 6.76 3.24 6.2 3.24 5.63 3.24 5.07 3.24 4.5 3.24 3.94 3.24 3.38 3.24 2.82 3.24 2.25 3.24 1.69 3.24 1.13 3.24 0.56 3.24 0 2.91 0 2.59 0 2.26 0 1.94 0 1.61 0 1.28 0 0.96 0 0.64 0 0.31 0 0 0 0 0.03 0 0.59 0 1.15 0 1.72 0 2.28 0 2.84 0 3.41 0 3.97 0 4.53 0 5.1 0 5.66 0 6.22 0 6.79 0 7.35 0 7.91 0 8.47 0 9.04 0 9.6 0 10.16 0 10.73 0 11.29 0 11.85 0 12.42 0 12.98 0 13.54 0 14.11 0 14.67 0 15.23 0 15.8 0 16.36 0 16.92 0 17.49 0 18.05 0 18.61 0 19.18 0 19.74 0 20.3 0 20.86 0 21.43 0 21.99 0 22.55 0 23.12 0 23.68 0 24.24 0 24.81 0 25.37 0 25.93 0 26.5 0 27.06 0 27.62 0 28.19 0 28.75 0 29.31 0 29.88 0 30.44 0 31 0.33 31 0.65 31 0.98 31 1.3 31 1.63 31 1.95 31 2.28 31 2.6 31 2.93 31 3.24 31 3.24 30.98 3.24 30.41 3.24 29.85 3.24 29.29 3.24 28.72 3.24 28.16 3.24 27.6 3.24 27.03 3.24 26.47 3.24 25.91 3.24 25.34 3.24 24.78 3.24 24.22 3.24 23.65 3.24 23.09 3.24 22.53 3.24 21.96 3.24 21.4 3.24 20.84 3.24 20.27 3.24 19.71 3.24 19.15 3.24 18.59 3.24 18.02 3.24 17.46 3.24 16.89 3.24 16.75 90.72 16.75 90.72 17.01 90.72 17.27 90.72 17.53 90.72 17.79 90.72 18.05 90.72 18.31 90.72 18.57 90.72 18.83 90.72 19.09 90.72 19.36 90.72 19.62 90.72 19.88 90.72 20.14 90.72 20.4 90.72 20.66 90.72 20.92 90.72 21.18 90.72 21.44 90.72 21.7 90.72 21.97 90.72 22.23 90.88 22.23 91.03 22.23 91.18 22.23 91.33 22.23 91.48 22.23 91.63 22.23 91.78 22.23 91.93 22.23 92.08 22.23 92.23 22.23 92.38 22.23 92.53 22.23 92.68 22.23 92.75 22.23 92.75 22.08 92.75 21.82 92.75 21.56 92.75 21.3 92.75 21.04 92.75 20.78 92.75 20.52 92.75 20.26 92.75 20 92.75 19.73 92.75 19.47 92.75 19.21 92.75 18.95 92.75 18.69 92.75 18.43 92.75 18.17 92.75 17.91 92.75 17.65 92.75 17.39 92.75 17.12 92.75 16.86 92.75 16.75 203.85 16.75 203.85 17.01 203.85 17.27 203.85 17.53 203.85 17.79 203.85 18.05 203.85 18.31 203.85 18.57 203.85 18.83 203.85 19.09 203.85 19.36 203.85 19.62 203.85 19.88 203.85 20.14 203.85 20.4 203.85 20.66 203.85 20.92 203.85 21.18 203.85 21.44 203.85 21.7 203.85 21.97 203.85 22.23 204 22.23 204.16 22.23 204.31 22.23 204.46 22.23 204.61 22.23 204.76 22.23 204.91 22.23 205.06 22.23 205.21 22.23 205.36 22.23 205.51 22.23 205.66 22.23 205.81 22.23 205.88 22.23 205.88 22.08 205.88 21.82 205.88 21.56 205.88 21.3 205.88 21.04 205.88 20.78 205.88 20.52 205.88 20.26 205.88 20 205.88 19.73 205.88 19.47 205.88 19.21 205.88 18.95 205.88 18.69 205.88 18.43 205.88 18.17 205.88 17.91 205.88 17.65 205.88 17.39 205.88 17.12 205.88 16.86 205.88 16.75 316.98 16.75 316.98 17.01 316.98 17.27 316.98 17.53 316.98 17.79 316.98 18.05 316.98 18.31 316.98 18.57 316.98 18.83 316.98 19.09 316.98 19.36 316.98 19.62 316.98 19.88 316.98 20.14 316.98 20.4 316.98 20.66 316.98 20.92 316.98 21.18 316.98 21.44 316.98 21.7 316.98 21.97 316.98 22.23 317.13 22.23 317.28 22.23 317.44 22.23 317.59 22.23 317.74 22.23 317.89 22.23 318.04 22.23 318.19 22.23 318.34 22.23 318.49 22.23 318.64 22.23 318.79 22.23 318.94 22.23 319.01 22.23 319.01 22.08 319.01 21.82 319.01 21.56 319.01 21.3 319.01 21.04 319.01 20.78 319.01 20.52 319.01 20.26 319.01 20 319.01 19.73 319.01 19.47 319.01 19.21 319.01 18.95 319.01 18.69 319.01 18.43 319.01 18.17 319.01 17.91 319.01 17.65 319.01 17.39 319.01 17.12 319.01 16.86 319.01 16.75 406.5 16.75 406.5 16.92 406.5 17.49 406.5 18.05 406.5 18.61 406.5 19.18 406.5 19.74 406.5 20.3 406.5 20.86 406.5 21.43 406.5 21.99 406.5 22.55 406.5 23.12 406.5 23.68 406.5 24.24 406.5 24.81 406.5 25.37 406.5 25.93 406.5 26.5 406.5 27.06 406.5 27.62 406.5 28.19 406.5 28.75 406.5 29.31 406.5 29.88 406.5 30.44 406.5 31 406.82 31 407.15 31 407.48 31 407.8 31 408.13 31 408.45 31 408.78 31 409.1 31 409.43 31 409.74 31 409.74 30.98 409.74 30.41 409.74 29.85 409.74 29.29 409.74 28.72 409.74 28.16 409.74 27.6 409.74 27.03 409.74 26.47 409.74 25.91 409.74 25.34 409.74 24.78 409.74 24.22 409.74 23.65 409.74 23.09 409.74 22.53 409.74 21.96 409.74 21.4 409.74 20.84 409.74 20.27 409.74 19.71 409.74 19.15 409.74 18.59 409.74 18.02 409.74 17.46 409.74 16.89 409.74 16.75 497.23 16.75 497.23 17.01 497.23 17.27 497.23 17.53 497.23 17.79 497.23 18.05 497.23 18.31 497.23 18.57 497.23 18.83 497.23 19.09 497.23 19.36 497.23 19.62 497.23 19.88 497.23 20.14 497.23 20.4 497.23 20.66 497.23 20.92 497.23 21.18 497.23 21.44 497.23 21.7 497.23 21.97 497.23 22.23 497.38 22.23 497.53 22.23 497.68 22.23 497.83 22.23 497.98 22.23 498.13 22.23 498.28 22.23 498.43 22.23 498.58 22.23 498.73 22.23 498.88 22.23 499.03 22.23 499.19 22.23 499.25 22.23 499.25 22.08 499.25 21.82 499.25 21.56 499.25 21.3 499.25 21.04 499.25 20.78 499.25 20.52 499.25 20.26 499.25 20 499.25 19.73 499.25 19.47 499.25 19.21 499.25 18.95 499.25 18.69 499.25 18.43 499.25 18.17 499.25 17.91 499.25 17.65 499.25 17.39 499.25 17.12 499.25 16.86 499.25 16.75 610.35 16.75 610.35 17.01 610.35 17.27 610.35 17.53 610.35 17.79 610.35 18.05 610.35 18.31 610.35 18.57 610.35 18.83 610.35 19.09 610.35 19.36 610.35 19.62 610.35 19.88 610.35 20.14 610.35 20.4 610.35 20.66 610.35 20.92 610.35 21.18 610.35 21.44 610.35 21.7 610.35 21.97 610.35 22.23 610.5 22.23 610.66 22.23 610.81 22.23 610.96 22.23 611.11 22.23 611.26 22.23 611.41 22.23 611.56 22.23 611.71 22.23 611.86 22.23 612.01 22.23 612.16 22.23 612.31 22.23 612.38 22.23 612.38 22.08 612.38 21.82 612.38 21.56 612.38 21.3 612.38 21.04 612.38 20.78 612.38 20.52 612.38 20.26 612.38 20 612.38 19.73 612.38 19.47 612.38 19.21 612.38 18.95 612.38 18.69 612.38 18.43 612.38 18.17 612.38 17.91 612.38 17.65 612.38 17.39 612.38 17.12 612.38 16.86 612.38 16.75 723.48 16.75 723.48 17.01 723.48 17.27 723.48 17.53 723.48 17.79 723.48 18.05 723.48 18.31 723.48 18.57 723.48 18.83 723.48 19.09 723.48 19.36 723.48 19.62 723.48 19.88 723.48 20.14 723.48 20.4 723.48 20.66 723.48 20.92 723.48 21.18 723.48 21.44 723.48 21.7 723.48 21.97 723.48 22.23 723.63 22.23 723.78 22.23 723.93 22.23 724.09 22.23 724.24 22.23 724.39 22.23 724.54 22.23 724.69 22.23 724.84 22.23 724.99 22.23 725.14 22.23 725.29 22.23 725.44 22.23 725.51 22.23 725.51 22.08 725.51 21.82 725.51 21.56 725.51 21.3 725.51 21.04 725.51 20.78 725.51 20.52 725.51 20.26 725.51 20 725.51 19.73 725.51 19.47 725.51 19.21 725.51 18.95 725.51 18.69 725.51 18.43 725.51 18.17 725.51 17.91 725.51 17.65 725.51 17.39 725.51 17.12 725.51 16.86 725.51 16.75 813 16.75 813 16.92 813 17.49 813 18.05 813 18.61 813 19.18 813 19.74 813 20.3 813 20.86 813 21.43 813 21.99 813 22.55 813 23.12 813 23.68 813 24.24 813 24.81 813 25.37 813 25.93 813 26.5 813 27.06 813 27.62 813 28.19 813 28.75 813 29.31 813 29.88 813 30.44 813 31 813.33 31 813.65 31 813.98 31 814.3 31 814.63 31 814.95 31 815.28 31 815.6 31 815.93 31 816.24 31 816.24 30.98 816.24 30.41 816.24 29.85 816.24 29.29 816.24 28.72 816.24 28.16 816.24 27.6 816.24 27.03 816.24 26.47 816.24 25.91 816.24 25.34 816.24 24.78 816.24 24.22 816.24 23.65 816.24 23.09 816.24 22.53 816.24 21.96 816.24 21.4 816.24 20.84 816.24 20.27 816.24 19.71 816.24 19.15 816.24 18.59 816.24 18.02 816.24 17.46 816.24 16.89 816.24 16.33 816.24 15.77 816.24 15.21 816.24 14.64 816.24 14.08 816.24 13.52 816.24 12.95 816.24 12.39 816.24 11.83 816.24 11.26 816.24 10.7 816.24 10.14 816.24 9.57 816.24 9.01 816.24 8.45 816.24 7.88 816.24 7.32 816.24 6.76 816.24 6.2 816.24 5.63 816.24 5.07 816.24 4.5 816.24 3.94 816.24 3.38 816.24 2.82 816.24 2.25 816.24 1.69 816.24 1.13 816.24 0.56 816.24 0 815.91 0"/></g></svg>