<svg xmlns="http://www.w3.org/2000/svg" viewBox="0 0 243.04 243.04"><defs><style>.cls-1{fill:#fff;}</style></defs><g id="Layer_3" data-name="Layer 3"><path class="cls-1" d="M121.52,13.72a105.41,105.41,0,1,0,105.4,105.4A105.53,105.53,0,0,0,121.52,13.72Zm0,204.31a98.91,98.91,0,1,1,98.9-98.91A99,99,0,0,1,121.52,218Z"/></g><g id="Layer_23" data-name="Layer 23"><path class="cls-1" d="M204.43,121.5,179.82,78.87A7.87,7.87,0,0,0,169.09,76L162,80.12a7.87,7.87,0,0,0-2.88,10.73l.12.21a16.53,16.53,0,0,1-5.26,1.09,40.41,40.41,0,0,1-6.08-1.23c-6.66-1.61-16.72-4-25.46-2.68-1.46.23-2.82.39-4.13.55-6.61.77-11.45,1.71-17,7.59v-.06l-11.8-2-5.71-3,.25-.42a7.87,7.87,0,0,0-2.88-10.73L74,76a7.86,7.86,0,0,0-10.73,2.88L38.61,121.5a7.86,7.86,0,0,0,2.87,10.73l7.15,4.12a7.85,7.85,0,0,0,10.72-2.87l.73-1.26,5.82,7.58-1.17,1.75A8.91,8.91,0,0,0,67.26,154l.38.25a8.85,8.85,0,0,0,4.85,1.44,8.64,8.64,0,0,0,1.24-.1,9.05,9.05,0,0,0,3.39,9.85,8.9,8.9,0,0,0,5.22,1.67,9.36,9.36,0,0,0,2.68-.41,8.05,8.05,0,0,0,.16,1.54,8.21,8.21,0,0,0,3.71,5.34l.68.41a8.11,8.11,0,0,0,4.26,1.2,8.41,8.41,0,0,0,3.55-.8,1.25,1.25,0,0,0,0,.19A8.18,8.18,0,0,0,100.9,180l.92.63a7.83,7.83,0,0,0,4.37,1.38,9.26,9.26,0,0,0,6.94-3.57l.5-.83a47.85,47.85,0,0,0,11.08,2.51c1.1.11,2.16.16,3.19.16,7.56,0,13.09-2.83,16.16-8.28a8.51,8.51,0,0,0,7.6-8.7A9.66,9.66,0,0,0,162,153.47a9.53,9.53,0,0,0,11.26-12,37.52,37.52,0,0,0,10.2-8.31l.2.36a7.86,7.86,0,0,0,10.73,2.87l7.15-4.12A7.86,7.86,0,0,0,204.43,121.5ZM51.13,132,44,127.9a2.85,2.85,0,0,1-1-3.9L67.55,81.37a2.86,2.86,0,0,1,3.9-1.05l7.14,4.13a2.79,2.79,0,0,1,1.33,1.73,2.84,2.84,0,0,1-.28,2.17L55,131A2.84,2.84,0,0,1,51.13,132Zm19.25,18-.39-.26a3.87,3.87,0,0,1-1.69-2.49,3.92,3.92,0,0,1,.58-3l3-4.48a3.87,3.87,0,0,1,2.63-1.68,4.46,4.46,0,0,1,.63,0,3.85,3.85,0,0,1,2.4.84l.65.51a3.91,3.91,0,0,1,.67,5.46l-3.26,4.22A3.93,3.93,0,0,1,70.38,150ZM80,161.35a4,4,0,0,1-1-5.54l10.16-14.64a4,4,0,0,1,5.54-1l.45.31a4,4,0,0,1,1,5.69L85.58,160.47A4,4,0,0,1,80,161.35Zm12.17,8.36-.68-.42a3.17,3.17,0,0,1-.92-4.53l9.25-12.95a3.12,3.12,0,0,1,2.12-1.29,2.42,2.42,0,0,1,.47,0,3.14,3.14,0,0,1,1.92.66l.82.63a3.18,3.18,0,0,1,.61,4.38L96.4,168.89A3.18,3.18,0,0,1,92.2,169.71Zm12.42,6.79-.92-.62a3.16,3.16,0,0,1-.74-4.56l6.28-8.14a3.2,3.2,0,0,1,2-1.42,4.35,4.35,0,0,1,2.81,1.15c1.47,1.24,1.55,2,.42,3.86l-5.25,8.58C108.09,176.59,106.44,177.73,104.62,176.5ZM167,147.69a4.62,4.62,0,0,1-5.29.34l-4.45-2.61,0,0-17.07-10a1.92,1.92,0,0,0-2.62.69l-.59,1a1.92,1.92,0,0,0,.68,2.63l17.1,10a4.64,4.64,0,0,1,.67,7.48,4.78,4.78,0,0,1-5.54.41l-17.44-10.14a1.92,1.92,0,0,0-2.62.69l-.59,1a1.92,1.92,0,0,0,.69,2.62l14.81,8.61a3.75,3.75,0,0,1,1.84,2.39,3.52,3.52,0,0,1-4.65,4.07L127,158.06a1.91,1.91,0,0,0-2.62.68l-.6,1a1.92,1.92,0,0,0,.68,2.62l14.37,8.47c-5.37,6.91-17.16,4.14-22.52,2.42l2.39-3.89c2.43-4,1.94-7.42-1.52-10.34a9.09,9.09,0,0,0-6.19-2.26,8.21,8.21,0,0,0-2.77-9l-.81-.63a8.09,8.09,0,0,0-5.62-1.67,9,9,0,0,0-.79-5.79,9.34,9.34,0,0,0-3.16-3.53l-.26-.17a9,9,0,0,0-12.47,2.3l-.93,1.33a8.79,8.79,0,0,0-2.9-4.11l-.65-.51a8.94,8.94,0,0,0-6.9-1.8A9,9,0,0,0,69,135.6l-6.19-8.06L81.22,95.6l6.57,3.52,9.79,1.65A110.3,110.3,0,0,0,90,112.92c-1.82,3-2.18,5.91-1,8.06a4.77,4.77,0,0,0,4.31,2.45c10.57,0,17.44-6.85,19.91-9.79a5.92,5.92,0,0,1,2.25-1.66l2.28-.93a5.75,5.75,0,0,1,4.88.22c9.27,4.87,32.19,17.52,44.67,29.7A4.52,4.52,0,0,1,167,147.69Zm3.57-10.5c-13-12.58-36.2-25.4-45.61-30.34a10.76,10.76,0,0,0-9.11-.43l-2.28.94a10.86,10.86,0,0,0-4.19,3.07c-2,2.4-7.56,8-16,8a4.56,4.56,0,0,1,.94-2.94l.06-.11c11-20,15.81-20.61,24.47-21.63,1.36-.16,2.77-.32,4.32-.57,7.75-1.21,17.24,1.09,23.52,2.6a37.35,37.35,0,0,0,7.25,1.37,22.63,22.63,0,0,0,7.8-1.71l19.1,33.09C179,130.7,175,135.12,170.61,137.19Zm29.78-11a2.85,2.85,0,0,1-1.33,1.74L191.91,132a2.86,2.86,0,0,1-3.9-1L163.4,88.35a2.84,2.84,0,0,1-.28-2.17,2.79,2.79,0,0,1,1.33-1.73l7.14-4.13a2.86,2.86,0,0,1,3.9,1.05L200.1,124A2.82,2.82,0,0,1,200.39,126.16Z"/></g></svg>