<svg xmlns="http://www.w3.org/2000/svg" viewBox="0 0 243.04 243.04"><defs><style>.cls-1{fill:#fff;}</style></defs><g id="Layer_3" data-name="Layer 3"><path class="cls-1" d="M124.37,13.72a105.41,105.41,0,1,0,105.41,105.4A105.52,105.52,0,0,0,124.37,13.72Zm0,204.31a98.91,98.91,0,1,1,98.91-98.91A99,99,0,0,1,124.37,218Z"/></g><g id="Layer_23" data-name="Layer 23"><path class="cls-1" d="M169.21,131.68v50.79l2.25-2.25H76.41c-1.28,0-2.62-.12-3.89,0h-.17l2.25,2.25V131.75L72.35,134h7.91c2,0,4.41.48,5.92-1,4.26-4.13,8.39-8.4,12.59-12.59l4.45-4.45H100l11.55,11.54c1.81,1.8,3.59,3.65,5.43,5.43,1,1,2,1,3.33,1h51.12c2.9,0,2.9-4.5,0-4.5H118.93l1.59.66-15.25-15.24-2-2a2.29,2.29,0,0,0-3.19,0L84.88,128l-2.21,2.2,1.59-.66H72.35a2.28,2.28,0,0,0-2.25,2.25v50.72a2.29,2.29,0,0,0,2.25,2.25h86.9c4,0,8,.16,12,0h.17a2.28,2.28,0,0,0,2.25-2.25V131.68C173.71,128.78,169.21,128.78,169.21,131.68Z"/><path class="cls-1" d="M189.77,129.43H118.93l1.59.66-15.25-15.24-2-2a2.29,2.29,0,0,0-3.19,0L84.88,128l-2.21,2.2,1.59-.66H54.76l1.59,3.84,15.41-15.4,2.18-2.18-1.59.66H167.4a38.82,38.82,0,0,0,3.89,0h.17l-1.59-.66,16,15.3,2.31,2.21c2.1,2,5.28-1.18,3.18-3.18L180,119.21l-6.07-5.81a4.08,4.08,0,0,0-2.81-1.48c-8.34-.18-16.7,0-25,0H74c-.53,0-1.08,0-1.61,0-1.79.11-3.52,2.59-4.68,3.74L54.19,129.14l-1,1A2.27,2.27,0,0,0,54.76,134h28.7a3.54,3.54,0,0,0,2.69-1c2.94-2.82,5.77-5.76,8.65-8.64l8.42-8.42H100l14.71,14.7c1.27,1.26,2.6,3.2,4.52,3.25,1.75,0,3.51,0,5.27,0h50.11c5,0,10,.17,14.91,0h.22C192.67,133.93,192.67,129.43,189.77,129.43Z"/><path class="cls-1" d="M104,182.47V114.39c0-2.9-4.5-2.9-4.5,0v68.08c0,2.9,4.5,2.9,4.5,0Z"/><path class="cls-1" d="M89.61,114.17V92a2.29,2.29,0,0,0-2.25-2.25H76.71l1.59,3.84L97.88,74l2.8-2.8H97.5l19.13,19.13L119.34,93l1.59-3.84H111a2.29,2.29,0,0,0-2.25,2.25v22.32c0,2.89,4.5,2.9,4.5,0V91.45L111,93.7h9.93a2.28,2.28,0,0,0,1.6-3.84L103.39,70.73,100.68,68a2.28,2.28,0,0,0-3.18,0L77.91,87.59l-2.79,2.8a2.27,2.27,0,0,0,1.59,3.84H87.36L85.11,92v22.19c0,2.89,4.5,2.9,4.5,0Z"/><path class="cls-1" d="M136.21,113.51V73A2.29,2.29,0,0,0,134,70.74H123.3l1.59,3.84L144.47,55l2.8-2.8h-3.18l19.13,19.13,2.72,2.72,1.59-3.84H157.6a2.28,2.28,0,0,0-2.25,2.25V114c0,2.89,4.5,2.9,4.5,0V72.46l-2.25,2.25h9.93a2.28,2.28,0,0,0,1.59-3.84L150,51.74,147.27,49a2.28,2.28,0,0,0-3.18,0L124.51,68.6l-2.8,2.8a2.27,2.27,0,0,0,1.59,3.84H134L131.71,73v40.52c0,2.9,4.5,2.9,4.5,0Z"/><path class="cls-1" d="M69.22,106.9V92.81a2.25,2.25,0,0,0-4.5,0V106.9a2.25,2.25,0,0,0,4.5,0Z"/><path class="cls-1" d="M118.34,66.07V52a2.25,2.25,0,0,0-4.5,0v14.1a2.25,2.25,0,0,0,4.5,0Z"/><path class="cls-1" d="M176.33,101.23V87.14a2.25,2.25,0,0,0-4.5,0v14.09a2.25,2.25,0,0,0,4.5,0Z"/></g></svg>