<svg id="Layer_1" data-name="Layer 1" xmlns="http://www.w3.org/2000/svg" viewBox="0 0 372.14 116"><defs><style>.cls-1{fill:#fff;}</style></defs><path id="Symbol" class="cls-1" d="M323.88,51.34a10.8,10.8,0,1,1,19.18-1,11.82,11.82,0,0,0-19.18,1m17.05,6.38a7.1,7.1,0,1,1-7.1-7.1,7.1,7.1,0,0,1,7.1,7.1m19,0a7.1,7.1,0,1,1-7.1-7.1,7.1,7.1,0,0,1,7.1,7.1M344,69.54a10.8,10.8,0,1,1-20.13-5.44,11.81,11.81,0,0,0,19.17,1,10.66,10.66,0,0,1,1,4.44m-25.3-6,0,0,0,0h0m-9.82-5.82a16.83,16.83,0,0,0,9.82-5.82,16.22,16.22,0,0,0,3,5.82,16.31,16.31,0,0,0-3,5.83,16.81,16.81,0,0,0-9.81-5.83m44-11.81a11.87,11.87,0,0,0-4,.69c0-.23,0-.46,0-.69a15.68,15.68,0,0,0-29.06-8.18,20.35,20.35,0,0,0-2,5,14.67,14.67,0,0,1-3.57,6.1A11.14,11.14,0,0,1,308,52.26a18.15,18.15,0,0,1-5.76.05,8.5,8.5,0,0,0-4.38.64,40.18,40.18,0,0,0-3.77,2.83,1.27,1.27,0,0,1-1.47-.13c-.56-.5-1-1.29-1.59-1.29-.79,0-.79,1-1.58,1s-.79-1-1.58-1-.79,1-1.58,1-.79-1-1.58-1-1.47.57-2.27.57c-.54,0-1.79-.24-2.07-1.33,0-.12-.07-.26-.12-.41a2.63,2.63,0,0,0-.81-1.44,1.12,1.12,0,0,0-.24-.19,2.62,2.62,0,0,0-1.53-.5h-.48a2.72,2.72,0,0,0-2,.71h0a2.32,2.32,0,0,0-.6,1.06,3.06,3.06,0,0,1-.79,1.22,2.74,2.74,0,0,1-1.89.68H233.72a1,1,0,0,0-1,1v4a1,1,0,0,0,1,1H236v9.93a.65.65,0,0,0,.66.66h4.9a.65.65,0,0,0,.66-.66V66H247v4.66a.65.65,0,0,0,.66.66h4.9a.65.65,0,0,0,.66-.66V60.75h18.7a2.74,2.74,0,0,1,1.89.68,3.06,3.06,0,0,1,.79,1.22,2.32,2.32,0,0,0,.6,1.06h0a2.72,2.72,0,0,0,2,.71h.48a2.62,2.62,0,0,0,1.53-.5,2.23,2.23,0,0,0,.24-.19,2.63,2.63,0,0,0,.81-1.44,3.71,3.71,0,0,0,.12-.41,2.13,2.13,0,0,1,2.07-1.34c.79,0,1.47.57,2.27.57s.79-1,1.58-1,.79,1,1.58,1,.79-1,1.58-1,.79,1,1.58,1c.6,0,1-.79,1.59-1.29a1.27,1.27,0,0,1,1.47-.13,40.18,40.18,0,0,0,3.77,2.83,8.5,8.5,0,0,0,4.38.64,18.14,18.14,0,0,1,5.76.05,11.05,11.05,0,0,1,6.27,3.47,14.56,14.56,0,0,1,3.57,6.1,20.79,20.79,0,0,0,2,5,15.68,15.68,0,0,0,29.06-8.18c0-.23,0-.46,0-.69a11.8,11.8,0,0,0,15.78-11.1l0-.07a11.81,11.81,0,0,0-11.81-11.78"/><polygon id="H" class="cls-1" points="54.89 9.59 48.98 9.59 48.98 28.87 25.33 28.87 25.33 9.59 19.42 9.59 19.42 53.8 25.33 53.8 25.33 34.01 48.98 34.01 48.98 53.8 54.89 53.8 54.89 9.59"/><path id="A" class="cls-1" d="M81.57,15.76h.26l7.71,21.33H73.86Zm3.72-6.17H78.35L61.9,53.8h5.91L72,42.23H91.4L95.58,53.8h6.17Z"/><path id="P" class="cls-1" d="M114.67,14.73V33.24h11c6.43,0,9.51-4.37,9.51-9.51s-3.09-9-9.51-9Zm-5.92-5.14h16.71c10.09,0,15.68,5.85,15.68,14.14s-5.59,14.65-15.68,14.65h-10.8V53.8h-5.91V9.59Z"/><path id="P-2" data-name="P" class="cls-1" d="M155.52,14.73V33.24h11c6.43,0,9.51-4.37,9.51-9.51s-3.09-9-9.51-9ZM149.6,9.59h16.71C176.4,9.59,182,15.44,182,23.73s-5.59,14.65-15.68,14.65h-10.8V53.8H149.6V9.59Z"/><polygon id="Y" class="cls-1" points="214.51 9.59 202.04 30.41 201.78 30.41 189.83 9.59 183.15 9.59 198.83 36.45 198.83 53.8 204.74 53.8 204.74 36 220.68 9.59 214.51 9.59"/><polygon id="V" class="cls-1" points="204.74 61.38 198.18 61.38 181.99 105.59 187.9 105.59 201.14 67.55 201.4 67.55 214.63 105.59 220.8 105.59 204.74 61.38"/><path id="A-2" data-name="A" class="cls-1" d="M176.08,78.09l-7.71,21.33h-.26L160.4,78.09Zm6-16.71L177.94,73H158.53l-4.18-11.57h-6.17l16.46,44.21h6.94L188,61.38Z"/><polygon id="L" class="cls-1" points="143.04 61.38 115.53 61.38 115.53 66.52 137.12 66.52 137.12 105.59 143.04 105.59 143.04 61.38"/><polygon id="L-2" data-name="L" class="cls-1" points="108.75 61.38 81.25 61.38 81.25 66.52 102.84 66.52 102.84 105.59 108.75 105.59 108.75 61.38"/><polygon id="E" class="cls-1" points="75.36 61.38 45.03 61.38 45.03 66.52 69.45 66.52 69.45 81.3 50.43 81.3 50.43 86.44 69.45 86.44 69.45 100.45 45.55 100.45 45.55 105.59 75.36 105.59 75.36 61.38"/><polygon id="Y-2" data-name="Y" class="cls-1" points="25.33 78.73 25.33 61.38 19.42 61.38 19.42 79.18 3.48 105.59 9.65 105.59 22.12 84.77 22.37 84.77 34.33 105.59 41.01 105.59 25.33 78.73"/></svg>