<svg xmlns="http://www.w3.org/2000/svg" xmlns:xlink="http://www.w3.org/1999/xlink" viewBox="0 0 243.04 243.04"><defs><style>.cls-1{fill:#fff;}.cls-2{fill:url(#linear-gradient);}.cls-3{fill:url(#linear-gradient-2);}.cls-4{fill:url(#linear-gradient-3);}.cls-5{fill:url(#linear-gradient-4);}.cls-6{fill:url(#linear-gradient-5);}</style><linearGradient id="linear-gradient" x1="15.11" y1="121.4" x2="227.93" y2="121.4" gradientUnits="userSpaceOnUse"><stop offset="0" stop-color="#41b6e6"/><stop offset="1" stop-color="#0086d6"/></linearGradient><linearGradient id="linear-gradient-2" x1="102.16" y1="116.62" x2="142.06" y2="116.62" xlink:href="#linear-gradient"/><linearGradient id="linear-gradient-3" x1="73.79" y1="112.6" x2="170.44" y2="112.6" xlink:href="#linear-gradient"/><linearGradient id="linear-gradient-4" x1="59.06" y1="170.04" x2="184.66" y2="170.04" xlink:href="#linear-gradient"/><linearGradient id="linear-gradient-5" x1="58.38" y1="88.03" x2="184.1" y2="88.03" xlink:href="#linear-gradient"/></defs><g id="Layer_3" data-name="Layer 3"><circle class="cls-1" cx="121.52" cy="121.52" r="121.52"/><path class="cls-2" d="M121.52,15A106.41,106.41,0,1,0,227.93,121.4,106.54,106.54,0,0,0,121.52,15Zm0,204.32a97.91,97.91,0,1,1,97.91-97.91A98,98,0,0,1,121.52,219.31Z"/><path class="cls-3" d="M141.75,120.09a20.44,20.44,0,0,0,.31-3.47,19,19,0,0,0-.35-3.65,19.9,19.9,0,0,0-16.12-16,19.88,19.88,0,0,0-14.83,3.24,19.85,19.85,0,0,0-8.29,19.85A19.9,19.9,0,0,0,110.74,133a20,20,0,0,0,22.73,0,20.05,20.05,0,0,0,5.13-5.18A19.74,19.74,0,0,0,141.75,120.09Zm-7-3.47a12.63,12.63,0,0,1-.2,2.18v0a12.45,12.45,0,0,1-2,4.9,12.49,12.49,0,0,1-8.14,5.31,12.33,12.33,0,0,1-4.65,0,12.63,12.63,0,0,1-8.1-5.31,12.42,12.42,0,0,1-2-5,11.54,11.54,0,0,1-.19-2.15,12.62,12.62,0,0,1,.22-2.35,12.67,12.67,0,0,1,5.23-8,12.63,12.63,0,0,1,5-2,12.19,12.19,0,0,1,2.18-.19,12.7,12.7,0,0,1,2.21.2,12.2,12.2,0,0,1,5,2,12.5,12.5,0,0,1,3.15,3.13,12.27,12.27,0,0,1,2.08,5A11.69,11.69,0,0,1,134.74,116.62Z"/><path class="cls-4" d="M163.61,129.44a6.83,6.83,0,0,0,6.83-6.82V110.41a6.83,6.83,0,0,0-6.82-6.82H154l-.21-.49,6.78-6.78a6.82,6.82,0,0,0,0-9.66L152,78a6.84,6.84,0,0,0-9.66,0l-6.82,6.82-.45-.18V75a6.84,6.84,0,0,0-6.83-6.83H116A6.83,6.83,0,0,0,109.18,75v9.66l-.45.18-6.68-6.67A7.06,7.06,0,0,0,97.37,76a6.72,6.72,0,0,0-5.12,2l-8.63,8.63a6.84,6.84,0,0,0,0,9.65l6.79,6.79-.21.49H80.61a6.83,6.83,0,0,0-6.82,6.83v12.2a6.83,6.83,0,0,0,6.82,6.82h9.51c.07.19.15.38.23.56l-4.49,4.49A3.66,3.66,0,0,0,91,139.67l8.21-8.22L98,129.07a26.28,26.28,0,0,1-1.8-4.38l-.81-2.57H81.11V110.91H95.42l.82-2.53a27.17,27.17,0,0,1,1.82-4.33l1.26-2.39L89.15,91.48l7.93-7.92,10.19,10.18,2.38-1.24a26.73,26.73,0,0,1,4.28-1.76l2.57-.8V75.51h11.21V89.93l2.57.8a27.49,27.49,0,0,1,4.29,1.77L137,93.73l10.19-10.17,7.92,7.93-10.16,10.16,1.25,2.38a26.79,26.79,0,0,1,1.81,4.33l.81,2.55h14.34v11.2H148.83l-.8,2.58a27.43,27.43,0,0,1-1.8,4.38L145,131.46l10.08,10.09-7.94,7.93L143.64,146a3.61,3.61,0,0,0-2.58-1.07h0a3.66,3.66,0,0,0-2.59,6.24l3.85,3.86a6.86,6.86,0,0,0,9.65,0l8.62-8.63a6.81,6.81,0,0,0,0-9.65L153.88,130c.07-.19.15-.37.22-.56Z"/><path class="cls-5" d="M183.71,158.77h0a8.54,8.54,0,0,0-2.22-2.69A8.34,8.34,0,0,0,175,154.3a20,20,0,0,0-4.54,1.47c-.48.2-1,.41-1.51.61l-4.15,1.56h0l-20.36,7.66c-4,1.49-7.28,2.38-11.32,2.22l-.71,0c-3.48-.13-11.48-.45-12.34-4l.18,0c5.8-.81,13.75-1.91,14-9.69a10,10,0,0,0-.44-3.51,7,7,0,0,0-1.62-2.71,8.78,8.78,0,0,0-3.52-2.09c-3-1-6.57-1-9.76-.92h-.79c-1.41,0-2.85,0-4.25,0-6.32,0-12.86-.07-19.07,1.67a63.58,63.58,0,0,0-16.52,6.75l-.1.06c-.81.5-1.53,1-2.17,1.42a13.89,13.89,0,0,1-5,2.16c-.47.05-1,.07-1.47.08h-.27a32.44,32.44,0,0,1-6.45-.73,2.9,2.9,0,0,0-3.43,2l-.27.89a2.92,2.92,0,0,0,2.16,3.69c4.54,1,12.89,2.16,17.6-1.59A52.77,52.77,0,0,1,97.46,153c5.89-1.52,12.32-1.4,18.6-1.29h.24c1.74,0,3.7.06,5.57,0,.34,0,.71,0,1.12-.05a11.11,11.11,0,0,1,2,0,2.36,2.36,0,0,1,2.3,1.89,1.79,1.79,0,0,1-.09.72,2.72,2.72,0,0,1-1.82,1.58,27.07,27.07,0,0,1-5.94,1.14h-.1c-1.23.14-2.2.28-3.07.42a3.42,3.42,0,0,0-2.58,2.28,9.18,9.18,0,0,0,.76,8.17c3.19,4.9,11,6.17,14.14,6.49,4.53.46,9.9.67,15.46-1.33,1.18-.43,2.5-.92,4.13-1.55l23.71-8.91,1-.43c2.39-1.06,3.93-1.45,4.68-.36a1.13,1.13,0,0,1,.24,1c-.31,1.27-2.76,2.51-4.11,3.19l-.92.49-19,11.13a48.36,48.36,0,0,1-9.47,3.86l-.1,0-3.11,1.06-1.81.65-1.74.63c-6.55,2.42-13.34,4.93-20.51,4.6-5.85-.27-11.73-2.32-17.42-4.3l-.77-.26c-1.32-.46-2.69-.94-4-1.36l-14.93-4.92c-8.1-2.72-14.89.59-18.22,2.81a2.88,2.88,0,0,0-1.29,2.1,3,3,0,0,0,.78,2.34l.65.69a2.94,2.94,0,0,0,3.71.46,15.14,15.14,0,0,1,8.1-2.53,12.78,12.78,0,0,1,4.13.69c4.35,1.44,7.92,2.62,11.22,3.69,2,.65,4,1.35,6,2l.21.07c4.53,1.56,9.21,3.17,13.92,4.28a36.86,36.86,0,0,0,8.58,1c6.93,0,13.36-1.86,19.38-4,1.63-.57,3.35-1.13,5-1.66l.85-.28a101.59,101.59,0,0,0,12-4.39,107,107,0,0,0,11.28-6.44l.15-.09c1.66-1,3.61-2.27,5.49-3.38.71-.41,1.49-.82,2.4-1.3l.17-.1c4.74-2.49,10.63-5.58,10.23-11.5A8.23,8.23,0,0,0,183.71,158.77Z"/><path class="cls-6" d="M62,140.22a3.67,3.67,0,0,0,3.66-3.66V80.93a4.62,4.62,0,0,1,2.18-3.85l53.69-35a5.7,5.7,0,0,1,6.4.18l46.88,34.65a4.57,4.57,0,0,1,1.93,3.67v57.9a3.66,3.66,0,0,0,7.32,0V80.61a11.94,11.94,0,0,0-4.9-9.55L132.31,36.4A13,13,0,0,0,117.57,36L63.88,71a11.92,11.92,0,0,0-5.5,10v55.63A3.66,3.66,0,0,0,62,140.22Z"/></g></svg>