<svg xmlns="http://www.w3.org/2000/svg" xmlns:xlink="http://www.w3.org/1999/xlink" viewBox="0 0 243.04 243.04"><defs><style>.cls-1{fill:#fff;}.cls-2{fill:url(#linear-gradient);}.cls-3{fill:url(#linear-gradient-2);}.cls-4{fill:url(#linear-gradient-3);}.cls-5{fill:url(#linear-gradient-4);}.cls-6{fill:url(#linear-gradient-5);}.cls-7{fill:url(#linear-gradient-6);}.cls-8{fill:url(#linear-gradient-7);}</style><linearGradient id="linear-gradient" x1="15.11" y1="121.4" x2="227.93" y2="121.4" gradientUnits="userSpaceOnUse"><stop offset="0" stop-color="#41b6e6"/><stop offset="1" stop-color="#0086d6"/></linearGradient><linearGradient id="linear-gradient-2" x1="47.95" y1="114.61" x2="114.91" y2="114.61" xlink:href="#linear-gradient"/><linearGradient id="linear-gradient-3" x1="35.64" y1="134.74" x2="167.58" y2="134.74" xlink:href="#linear-gradient"/><linearGradient id="linear-gradient-4" x1="154.3" y1="130.15" x2="154.41" y2="130.15" xlink:href="#linear-gradient"/><linearGradient id="linear-gradient-5" x1="164.15" y1="129.35" x2="164.2" y2="129.35" xlink:href="#linear-gradient"/><linearGradient id="linear-gradient-6" x1="130.69" y1="94.28" x2="187.33" y2="94.28" xlink:href="#linear-gradient"/><linearGradient id="linear-gradient-7" x1="141.35" y1="72.2" x2="162.75" y2="72.2" xlink:href="#linear-gradient"/></defs><g id="Layer_3" data-name="Layer 3"><circle class="cls-1" cx="121.52" cy="121.52" r="121.52"/><path class="cls-2" d="M121.52,15A106.41,106.41,0,1,0,227.93,121.4,106.54,106.54,0,0,0,121.52,15Zm0,204.32a97.91,97.91,0,1,1,97.91-97.91A98,98,0,0,1,121.52,219.31Z"/><path class="cls-3" d="M108.69,95.11a37.58,37.58,0,0,0-3.55-4.22,33.66,33.66,0,1,0,3.55,4.22Zm-1.31,21c0,.35,0,.69-.07,1,0,.1-.09.77-.1.93a29.23,29.23,0,0,1-.84,3.82c-.19.66-.41,1.32-.65,2q-.14.39-.3.78s-.36.8-.4.89a25.49,25.49,0,0,1-11,11.79,23.78,23.78,0,0,1-7.55,2.75l-1,.19-.58.08c-.61.06-1.22.12-1.83.16a30.17,30.17,0,0,1-4.46-.11l-.68-.08-.36,0c-.68-.12-1.36-.26-2-.42a28.5,28.5,0,0,1-4.11-1.32l-.55-.24-1-.46c-.63-.32-1.25-.66-1.85-1s-1.21-.76-1.79-1.17c-.25-.17-.49-.35-.73-.54l-.78-.65a29.55,29.55,0,0,1-3.12-3.11c-.18-.22-.37-.44-.55-.67l-.43-.56c-.49-.67-1-1.36-1.38-2.08a22.41,22.41,0,0,1-3-7.46c-.16-.67-.3-1.34-.41-2l-.06-.36s-.07-.61-.08-.69a30.17,30.17,0,0,1-.1-4.46c0-.61.09-1.22.16-1.82,0-.18.07-.53.08-.59,0-.34.12-.68.19-1a29.66,29.66,0,0,1,1.23-4.33c.09-.24.18-.49.28-.73s.25-.58.27-.62c.3-.64.62-1.26,1-1.88s.71-1.22,1.1-1.82c.19-.3.39-.59.6-.88l.6-.8a26.75,26.75,0,0,1,6.11-5.63,33.9,33.9,0,0,1,4-2.2l.19-.09.2-.07c.43-.17.86-.33,1.3-.48.77-.26,1.54-.49,2.33-.69s1.56-.36,2.36-.5l.64-.09c.36,0,.72-.08,1.08-.1a30.9,30.9,0,0,1,4.81,0l.77.08c-.07,0,.83.13,1,.15.79.14,1.58.32,2.36.53s1.55.44,2.31.71l1,.37.17.07.53.24a28.82,28.82,0,0,1,4.29,2.45c.3.2.59.42.88.63s.38.29.09.07l.56.46c.66.55,1.29,1.14,1.89,1.74s1,1.06,1.51,1.61l.54.66c0,.05.42.54.44.56a29.28,29.28,0,0,1,2.4,3.93c.16.32.32.63.47,1,0,0,.17.4.24.56.24.59.46,1.18.66,1.78a31,31,0,0,1,1.07,4.35c0,.07.08.58.09.67s.06.48.08.72c.06.68.09,1.37.11,2S107.42,115.44,107.38,116.12Z"/><path class="cls-4" d="M163.58,179.31,157.27,173l-20.69-20.68L131.27,147a3.8,3.8,0,0,0-5.3,0l-6.65-6.65c.13-.2.27-.39.41-.59,10.3-15.46,10-36.8-1-51.83a49.24,49.24,0,0,0-4.85-5.74A45.71,45.71,0,0,0,89.3,69.46,46.77,46.77,0,0,0,61.81,73.2a46.05,46.05,0,0,0-26,45.49,46.53,46.53,0,0,0,11,25.86,45.76,45.76,0,0,0,50.48,13,47.67,47.67,0,0,0,9.9-5.14l6.67,6.68a3.81,3.81,0,0,0,0,5.3L128,178.55l17.8,17.81a14.68,14.68,0,0,0,4.1,3.11A12.29,12.29,0,0,0,167,184.75,13.43,13.43,0,0,0,163.58,179.31Zm-3.87,11c-.07.18-.24.46,0,0Zm-45.13-44.07,6.09,6.08-1.49,1.49-6.09-6.08Zm-2.8-55.06c.32.4.1.13,0,0ZM86.58,76.61c-.64-.07-.19,0,0,0ZM58,84.26c.41-.34.12-.09,0,0Zm44.81,62.09c-.89.59-1.8,1.15-2.73,1.67s-1.86,1-2.81,1.44l-.87.39c-.48.2-1,.39-1.45.57a43,43,0,0,1-6,1.7c-.84.18-1.7.32-2.55.44l-.36.05-.68.07-1.71.12a41.57,41.57,0,0,1-6-.11l-.85-.08-.25,0-.63-.09-.68-.11c-1-.18-2-.39-3-.64a41.14,41.14,0,0,1-5.75-1.89l-.88-.39-1.26-.61c-1-.51-2-1.06-2.93-1.64s-1.71-1.09-2.53-1.68l-.58-.42-.15-.11-.09-.07c-.42-.34-.85-.68-1.26-1a42,42,0,0,1-4.67-4.67c-.32-.37-.62-.74-.93-1.12l-.1-.12a.8.8,0,0,0-.08-.12l-.43-.57c-.66-.92-1.28-1.86-1.87-2.83s-1-1.73-1.46-2.62c-.22-.42-.42-.84-.62-1.26-.13-.26-.24-.53-.37-.79a1.44,1.44,0,0,0-.07-.16l0-.07a44.13,44.13,0,0,1-1.93-5.93c-.23-.95-.43-1.91-.6-2.87-.07-.39-.13-.79-.18-1.18,0-.08,0-.16,0-.2,0-.34-.08-.69-.11-1a42.37,42.37,0,0,1-.1-6.17c0-.46.06-.92.1-1.37,0-.23,0-.46.07-.69,0,0,0-.29.05-.5s0-.32.06-.37c0-.29.08-.57.13-.85.09-.51.19-1,.29-1.53a41.71,41.71,0,0,1,1.74-6c.16-.43.33-.86.5-1.29l0-.07.07-.16c.1-.21.2-.42.29-.64.45-1,.93-1.89,1.45-2.81s1.07-1.84,1.66-2.72c.27-.4.54-.79.82-1.18l.42-.58.15-.21.14-.17a45.73,45.73,0,0,1,4.51-4.83c.71-.65,1.46-1.28,2.21-1.89l.1-.08.72-.53q.72-.53,1.47-1a42.38,42.38,0,0,1,5.39-3l.64-.29.16-.08.06,0c.48-.2,1-.39,1.46-.57,1-.36,2-.68,3-1s1.89-.5,2.85-.7c.5-.11,1-.2,1.52-.29l.68-.11.59-.08a42.8,42.8,0,0,1,5.77-.28c1,0,2,.07,2.92.16l1.35.14h0l1,.17a41.39,41.39,0,0,1,6,1.5c.94.31,1.86.65,2.77,1l.07,0,.8.36c.53.25,1,.5,1.57.77a41.07,41.07,0,0,1,5.29,3.26l.58.43.11.08.13.1,1.12.92c.83.72,1.64,1.47,2.42,2.25s1.53,1.59,2.25,2.43c.31.36.62.74.92,1.12l.08.1c.22.28.43.57.64.86a41.44,41.44,0,0,1,3.31,5.45c.21.42.42.84.61,1.26,0,.1.34.77.4.88.39,1,.75,1.94,1.07,2.92a42.31,42.31,0,0,1,1.46,5.87c0,.28.09.56.13.85,0,0,0,.26.06.39s0,.27,0,.31l.09.86c.09,1,.14,2,.16,3.08s0,2,0,2.92c0,.51-.07,1-.11,1.54,0,.23,0,.46-.07.69s0,.46-.07.61a40.32,40.32,0,0,1-1.22,5.65c-.27.94-.58,1.88-.92,2.8-.16.44-.33.87-.5,1.3l0,.11-.06.12c-.11.26-.23.53-.36.79a40.69,40.69,0,0,1-3.11,5.54c-.26.4-.53.79-.81,1.18l-.53.72-.06.08v0c-.72.9-1.47,1.78-2.26,2.63a44,44,0,0,1-4.71,4.34l-.09.07-.15.11-.59.42C103.63,145.81,103.23,146.08,102.84,146.35Zm51.77,46.82c-.17,0-.31-.06,0,0Zm1.51,0-.13,0h0c-.39,0-.78,0-1.18,0h-.14l-.36-.08c-.31-.07-.61-.17-.91-.27l-.26-.14c-.24-.16-.5-.3-.74-.46l0,0,0,0-.4-.37,0,0c-.05-.05-.1-.11-.16-.16l-.68-.69-6.9-6.89-20-20-2.33-2.32,6.79-6.8,10.63,10.63q9,9,18,18c.49.49,1,1,1.46,1.46.08.08.42.5.45.51a9.52,9.52,0,0,1,.52.87,7.06,7.06,0,0,0,.3.85c0,.12.05.24.08.36s0,.37,0,.48-.09,1.12,0,1c-.08.38-.18.75-.29,1.12a.33.33,0,0,0,0,.06c-.1.2-.2.4-.32.59s-.18.28-.27.42-.38.43-.45.5-.49.42-.5.45c-.28.18-.57.35-.87.52l-.08,0-.44.16C156.56,193,156.34,193.08,156.12,193.14Z"/><path class="cls-5" d="M154.39,130.18h0l-.11-.07Z"/><path class="cls-6" d="M164.15,129.43c0-.05,0-.1,0-.16l0,.17Z"/><path class="cls-7" d="M175.69,56.27a28.39,28.39,0,0,0-25.09-4.2A28.31,28.31,0,0,0,131,83.62a27.72,27.72,0,0,0,2.5,7.94,43.49,43.49,0,0,0,2.78,4.57,97.52,97.52,0,0,1,6.22,11.46l.3.69s.22.52.28.64c.22.54.44,1.08.64,1.62.44,1.17.85,2.36,1.2,3.56a35.75,35.75,0,0,1,.87,3.68c0,.2.07.39.1.59s0,.3.05.45c.05.6.08,1.2.08,1.8v2.58c0,1.55,0,3.1,0,4.65,0,4,2.08,8.11,6.08,9.49,1.8.62,4,.36,5.91.36s3.68.05,5.52,0c4.81-.14,7.84-4.24,8.31-8.73a41.2,41.2,0,0,0,.06-4.16v-4.19c0-.42,0-.85,0-1.27,0-.11.08-.81.08-.92.13-.82.29-1.64.49-2.46a46.81,46.81,0,0,1,1.78-5.61c.47-1.21.45-1.18.92-2.23.4-.9.82-1.8,1.26-2.68q1.22-2.49,2.58-4.91c1.4-2.51,3-4.89,4.5-7.32a27.5,27.5,0,0,0,3.74-14.08A28.73,28.73,0,0,0,175.69,56.27Zm2.6,14.88s0,0,0,0ZM167,59.85Zm-5.18-1.39c.66.07.16,0,0,0ZM150.73,60Zm-4.49,2.64Zm18.19,56.89H153.55v-3.4h10.88Zm-10.89,8.89Zm.59,1.61h0l0,0Zm.41.26Zm9.18-.1h0C163.69,130.22,163.69,130.21,163.72,130.17Zm0,0h0l0-.07h0Zm.05-.09.05-.07,0,.07Zm.37-.63a.29.29,0,0,1,0,.09.45.45,0,0,0,0-.08h0l-.27.47-.24.24-.07,0h-3.72c-1.76,0-3.52,0-5.27,0,0,0-.06,0-.16,0l0,0h0l0,0h0a.91.91,0,0,1-.16-.11h0l.09.05-.05,0-.1-.1-.24-.39-.11-.23c-.05-.2-.18-.63-.21-.74v-.06l0-.59V127h10.88V128a3.23,3.23,0,0,1,0,.34c0,.07,0,.1,0,.14h0c-.08.27-.15.55-.22.82C164.27,129,164.25,129.26,164.15,129.43Zm15.62-52q.06.87.06,1.74a19.36,19.36,0,0,1-3,10.73c-1.75,2.59-3.35,5.29-4.85,8a86.15,86.15,0,0,0-5.06,10.7h-15.8a83.93,83.93,0,0,0-5.82-12.06c-1.54-2.72-3.48-5.26-4.92-8a14.44,14.44,0,0,1-1.15-2.76,25.91,25.91,0,0,1-.86-3.5,1.52,1.52,0,0,1,0-.19l0-.09c0-.29-.06-.57-.08-.86,0-.66-.08-1.32-.08-2a25.46,25.46,0,0,1,.17-2.89.31.31,0,0,0,0-.07c0-.22.07-.44.11-.66.09-.45.18-.89.29-1.32a25.65,25.65,0,0,1,.9-2.86l.13-.32.14-.31c.19-.4.38-.79.58-1.18a27.36,27.36,0,0,1,1.44-2.38c.12-.18.26-.35.38-.53l.08-.12,0,0c.27-.34.55-.67.84-1a25.76,25.76,0,0,1,1.95-2c.32-.29.66-.57,1-.84l0,0c.16-.13.33-.25.5-.37a24.9,24.9,0,0,1,2.51-1.55c.38-.21.77-.41,1.17-.59l.47-.22.15-.06c.94-.34,1.88-.67,2.85-.92.44-.11.88-.21,1.32-.29l.91-.16A23.2,23.2,0,0,1,159,58.3a25.58,25.58,0,0,1,2.77.16h0l.66.11c.56.1,1.1.22,1.65.36a24.94,24.94,0,0,1,2.54.8l.54.21.1.05c.49.24,1,.47,1.47.73a24.76,24.76,0,0,1,2.5,1.55l.33.24c-.18-.13.41.32.46.36.42.35.83.71,1.22,1.08a23.78,23.78,0,0,1,2,2.14,3.25,3.25,0,0,1,.23.29s.34.46.38.5q.42.6.81,1.23c.55.89,1,1.81,1.47,2.75l0,.09.33.85c.17.47.32,1,.46,1.43a25.38,25.38,0,0,1,.69,3.11v0C179.71,76.72,179.75,77.06,179.77,77.4Zm-.1-1.07c-.1-.61,0-.19,0,0Z"/><path class="cls-8" d="M159,61.5a17.65,17.65,0,0,0-17.64,17.64,3.75,3.75,0,1,0,7.5,0,12.21,12.21,0,0,1,.07-1.35h0l.09-.5q.13-.63.33-1.26c.07-.23.15-.46.23-.69a15.4,15.4,0,0,1,1.12-2l.28-.41c.27-.32.55-.63.85-.93a12.64,12.64,0,0,1,.94-.85l.17-.14.23-.14a16.06,16.06,0,0,1,2-1.12c.23-.09.46-.16.69-.24.42-.12.84-.23,1.26-.32l.46-.09c.47,0,.93-.07,1.39-.07a3.75,3.75,0,0,0,0-7.5Zm-9.41,13.81c.1-.26.33-.69,0,0Zm3-4a1.53,1.53,0,0,1,.34-.26Zm2.6-1.53c-.68.33-.25.1,0,0Z"/></g></svg>