<svg xmlns="http://www.w3.org/2000/svg" viewBox="0 0 243.04 243.04"><defs><style>.cls-1{fill:#fff;}</style></defs><g id="Layer_3" data-name="Layer 3"><path class="cls-1" d="M67.5,154.59H52.64l2.25,2.25V118.12c0-2.89-4.5-2.9-4.5,0v38.72a2.28,2.28,0,0,0,2.25,2.25H67.5c2.89,0,2.9-4.5,0-4.5Z"/><path class="cls-1" d="M97.19,76.54h44.56l-2.25-2.25v82.55l2.25-2.25h-33c-2.89,0-2.9,4.5,0,4.5h33a2.29,2.29,0,0,0,2.25-2.25V74.29A2.28,2.28,0,0,0,141.75,72H97.19c-2.89,0-2.9,4.5,0,4.5Z"/><path class="cls-1" d="M146.12,154.59h-4.37a2.29,2.29,0,0,0-1.59.66,2.25,2.25,0,0,0,0,3.18,2.31,2.31,0,0,0,1.59.66h4.37a2.25,2.25,0,0,0,1.59-3.84,2.35,2.35,0,0,0-1.59-.66Z"/><path class="cls-1" d="M141.75,96.82h34.36l-2-1.11,13.66,24.46,2.64,4.74-.3-1.14v33.07l2.25-2.25h-5.88c-2.9,0-2.9,4.5,0,4.5h5.88a2.29,2.29,0,0,0,2.25-2.25V127.49c0-1.23.07-2.48,0-3.71-.09-1.44-1.36-3-2-4.24l-8.55-15.31q-3-5.4-6-10.79a2.26,2.26,0,0,0-1.94-1.12H141.75c-2.9,0-2.9,4.5,0,4.5Z"/><path class="cls-1" d="M192.41,121.52H155.76l2.25,2.25v-19L155.76,107h25c2.89,0,2.9-4.5,0-4.5h-25a2.29,2.29,0,0,0-2.25,2.25v19a2.28,2.28,0,0,0,2.25,2.25h36.65c2.89,0,2.9-4.5,0-4.5Z"/><path class="cls-1" d="M97.17,97.68A21.14,21.14,0,1,1,80.23,77,21.33,21.33,0,0,1,97.17,97.68c0,2.9,4.52,2.91,4.5,0a25.65,25.65,0,1,0-20.58,25.14c11.89-2.3,20.49-13.14,20.58-25.14C101.69,94.79,97.19,94.79,97.17,97.68Z"/><path class="cls-1" d="M103.39,156.89a15.59,15.59,0,1,0-9.52,17.78,15.66,15.66,0,0,0,9.52-17.78,2.28,2.28,0,0,0-2.77-1.57,2.31,2.31,0,0,0-1.57,2.77,11.09,11.09,0,1,1-10.88-9,11.19,11.19,0,0,1,10.88,9C99.67,160.92,104,159.72,103.39,156.89Z"/><path class="cls-1" d="M181.3,156.89a15.59,15.59,0,1,0-9.52,17.78,15.66,15.66,0,0,0,9.52-17.78,2.28,2.28,0,0,0-2.77-1.57,2.31,2.31,0,0,0-1.57,2.77,11.09,11.09,0,1,1-10.88-9,11.19,11.19,0,0,1,10.88,9C177.58,160.92,181.92,159.72,181.3,156.89Z"/><path class="cls-1" d="M124.38,13.72a105.41,105.41,0,1,0,105.4,105.4A105.53,105.53,0,0,0,124.38,13.72Zm0,204.31a98.91,98.91,0,1,1,98.9-98.91A99,99,0,0,1,124.38,218Z"/><circle class="cls-1" cx="88.15" cy="160.2" r="3.42"/><circle class="cls-1" cx="165.93" cy="160.2" r="3.42"/></g><g id="Layer_23" data-name="Layer 23"><path class="cls-1" d="M83,89.09,71.88,101.36l-1.56,1.74H73.5l-4.41-4.66a2.25,2.25,0,0,0-3.18,3.18l4.41,4.66a2.27,2.27,0,0,0,3.18,0L84.59,94l1.56-1.74A2.25,2.25,0,0,0,83,89.09Z"/></g></svg>