<svg xmlns="http://www.w3.org/2000/svg" xmlns:xlink="http://www.w3.org/1999/xlink" viewBox="0 0 243.04 243.04"><defs><style>.cls-1{fill:#fff;}.cls-2{fill:url(#linear-gradient);}.cls-3{fill:url(#linear-gradient-2);}.cls-4{fill:url(#linear-gradient-3);}.cls-5{fill:url(#linear-gradient-4);}</style><linearGradient id="linear-gradient" x1="86.33" y1="105.32" x2="91.82" y2="105.32" gradientUnits="userSpaceOnUse"><stop offset="0" stop-color="#41b6e6"/><stop offset="1" stop-color="#0086d6"/></linearGradient><linearGradient id="linear-gradient-2" x1="121.2" y1="136.67" x2="191.94" y2="136.67" xlink:href="#linear-gradient"/><linearGradient id="linear-gradient-3" x1="75.55" y1="121.79" x2="139.98" y2="121.79" xlink:href="#linear-gradient"/><linearGradient id="linear-gradient-4" x1="17.81" y1="122.96" x2="228.12" y2="122.96" xlink:href="#linear-gradient"/></defs><g id="Layer_3" data-name="Layer 3"><circle class="cls-1" cx="122.96" cy="122.96" r="121.52"/><path class="cls-2" d="M91.82,110.45V100.18a2.75,2.75,0,0,0-5.49,0v10.27a2.75,2.75,0,1,0,5.49,0Z"/><path class="cls-3" d="M189.34,96.86l-14.65-8.43a5.19,5.19,0,0,0-7.09,1.9l-10.9,18.93a2.85,2.85,0,0,0-2.93,1.39L135.13,143a4.37,4.37,0,0,0-5,2l-8.38,14.54a4.37,4.37,0,0,0,1.61,6l2.53,1.46-2.64,4.57a4.23,4.23,0,0,0,1.55,5.77l13.4,7.71a4.21,4.21,0,0,0,5.76-1.55l2.64-4.57,2.53,1.46a4.37,4.37,0,0,0,6-1.61l8.38-14.54a4.38,4.38,0,0,0-.75-5.31l18.64-32.36a2.85,2.85,0,0,0-.95-3.84L191.24,104A5.2,5.2,0,0,0,189.34,96.86Zm-32.19,18.92,6.29,3.62-17.2,29.85L140,145.63Zm-17.28,63.87-11.2-6.45,2-3.47,2.33,1.34,8.87,5.11Zm11-4.59L139,168.2l-10.35-6-1.55-.89,7.25-12.59,23.81,13.71Zm7.14-19L151,152l17.2-29.85,7.07,4.07ZM175.69,120l-14.13-8.14,10.65-18.5,14.13,8.14Z"/><path class="cls-4" d="M119.93,178.66h-24v-4.79h18.81a2.82,2.82,0,0,0,2.85-2.47,2.76,2.76,0,0,0-2.74-3H81v-5.89h34.19a2.74,2.74,0,0,0,2.74-2.74h0a2.75,2.75,0,0,0-2.74-2.75H94.42V138.71a1,1,0,0,1,1-1h24.65a1,1,0,0,1,1,1V147a1.22,1.22,0,0,0,2.28.61l2-3.41h0a9.22,9.22,0,0,0,1.24-4.64v-.83a6.51,6.51,0,0,0-6.51-6.51h-3.72V89.72h17.91a.22.22,0,0,1,.21.21v40.84a1.11,1.11,0,0,0,2.08.55l2.76-4.78a5,5,0,0,0,.65-2.44V89.93a5.7,5.7,0,0,0-5.7-5.7H126.6V65.39a6,6,0,0,0-5.95-6H94.89a6,6,0,0,0-6,6V84.23H81.25a5.71,5.71,0,0,0-5.7,5.7v83.94H90.43v5a5.26,5.26,0,0,0,5.26,5.26H120a2.48,2.48,0,0,0,2.53-2.55v-.37A2.56,2.56,0,0,0,119.93,178.66Zm-9.05-46.46h-6.22V89.72h6.22ZM94.42,65.39a.47.47,0,0,1,.47-.47h25.76a.47.47,0,0,1,.46.47V84.23H94.42ZM81,89.93a.22.22,0,0,1,.21-.21H99.17V132.2H95.44a6.52,6.52,0,0,0-6.51,6.51V157H81Z"/><path class="cls-5" d="M123,228.12A105.16,105.16,0,1,1,228.12,123,105.27,105.27,0,0,1,123,228.12Zm0-204.31A99.16,99.16,0,1,0,222.12,123,99.26,99.26,0,0,0,123,23.81Z"/></g></svg>