<svg xmlns="http://www.w3.org/2000/svg" xmlns:xlink="http://www.w3.org/1999/xlink" viewBox="0 0 245.93 245.93"><defs><style>.cls-1{fill:url(#linear-gradient);}</style><linearGradient id="linear-gradient" x1="25.41" y1="122.96" x2="220.53" y2="122.96" gradientUnits="userSpaceOnUse"><stop offset="0" stop-color="#41b6e6"/><stop offset="1" stop-color="#0086d6"/></linearGradient></defs><g id="Layer_3" data-name="Layer 3"><path class="cls-1" d="M210,102h0a5.27,5.27,0,0,0-1.46,4.75A82.37,82.37,0,0,1,210.13,123a89.51,89.51,0,0,1-25.43,63,86.23,86.23,0,0,1-123.46,0,90.78,90.78,0,0,1,0-126,85.75,85.75,0,0,1,61.73-26,83.64,83.64,0,0,1,54.82,20,5.23,5.23,0,0,0,7.13-.35h0a5.28,5.28,0,0,0-.36-7.69A93.65,93.65,0,0,0,123,23.19,95.87,95.87,0,0,0,54,52.34a101.65,101.65,0,0,0,0,141.25,96.31,96.31,0,0,0,138,0,102.75,102.75,0,0,0,27-88.74A5.31,5.31,0,0,0,210,102ZM205.93,61.9l-83,84.8L93.88,117a5.4,5.4,0,0,0-7.73,0h0a5.41,5.41,0,0,0,0,7.57l33.07,33.79h0a5.36,5.36,0,0,0,7.5,0l0,0,86.91-88.84a5.42,5.42,0,0,0,0-7.56h0A5.42,5.42,0,0,0,205.93,61.9Z"/></g></svg>