<svg xmlns="http://www.w3.org/2000/svg" xmlns:xlink="http://www.w3.org/1999/xlink" viewBox="0 0 245.93 245.93"><defs><style>.cls-1{fill:#fff;}.cls-2{fill:url(#linear-gradient);}.cls-3{fill:url(#linear-gradient-2);}.cls-4{fill:url(#linear-gradient-3);}</style><linearGradient id="linear-gradient" x1="68.01" y1="122.96" x2="175.92" y2="122.96" gradientUnits="userSpaceOnUse"><stop offset="0" stop-color="#41b6e6"/><stop offset="1" stop-color="#0086d6"/></linearGradient><linearGradient id="linear-gradient-2" x1="93.13" y1="144.9" x2="150.79" y2="144.9" xlink:href="#linear-gradient"/><linearGradient id="linear-gradient-3" x1="17.81" y1="122.96" x2="228.12" y2="122.96" xlink:href="#linear-gradient"/></defs><g id="Layer_3" data-name="Layer 3"><circle class="cls-1" cx="122.96" cy="122.96" r="121.52"/><path class="cls-2" d="M170.71,113h-.26v-10.8a4.8,4.8,0,0,0-4.79-4.79h-3.85a15,15,0,0,0,3-9V84.81c0-10.91-8.84-18.93-21.5-19.49a3.89,3.89,0,0,0-3.88,5.06c1.16,3.64,1,6.59-.42,8.56s-3.85,2.84-7.09,2.84h-40A12.87,12.87,0,0,0,79.09,94.63a8.83,8.83,0,0,0,.44,2.74H78.26a4.8,4.8,0,0,0-4.79,4.79V113h-.26a5.21,5.21,0,0,0-5.2,5.2v31a31.44,31.44,0,0,0,31.41,31.41H144.5a31.45,31.45,0,0,0,31.42-31.41v-31A5.22,5.22,0,0,0,170.71,113ZM85.17,94.63a6.78,6.78,0,0,1,6.77-6.78h40c5.23,0,9.49-1.89,12-5.33,1.54-2.11,3-5.6,2.08-10.83,9.33,1.47,12.73,7.78,12.73,13.12v3.53a9,9,0,0,1-9,9H87.91A2.74,2.74,0,0,1,85.17,94.63Zm84.67,54.57a25.33,25.33,0,0,1-25.34,25.33H99.42a25.33,25.33,0,0,1-25.33-25.34V119H85.4a3,3,0,0,0,3-3h0a3,3,0,0,0-3-3H79.55v-9.51h84.83V113H100.89a3,3,0,0,0-3,3h0a3,3,0,0,0,3,3h69Z"/><path class="cls-3" d="M93.13,137.14v15.53a6.58,6.58,0,0,0,6.57,6.57h44.53a6.57,6.57,0,0,0,6.56-6.57V137.14a6.57,6.57,0,0,0-6.56-6.57H99.7A6.58,6.58,0,0,0,93.13,137.14Zm6.08,0a.5.5,0,0,1,.49-.5h44.53a.5.5,0,0,1,.49.5v15.53a.49.49,0,0,1-.49.49H99.7a.49.49,0,0,1-.49-.49Z"/><path class="cls-4" d="M123,228.12A105.16,105.16,0,1,1,228.12,123,105.27,105.27,0,0,1,123,228.12Zm0-204.31A99.16,99.16,0,1,0,222.12,123,99.26,99.26,0,0,0,123,23.81Z"/></g></svg>